M48
;Layer_Color=9474304
;FILE_FORMAT=4:4
METRIC,LZ
;TYPE=PLATED
T1F00S00C0.4000
T2F00S00C0.6000
T3F00S00C1.0000
T4F00S00C1.5000
T5F00S00C3.2000
T6F00S00C3.5000
%
T01
X000723Y-002028
X001512Y000593
X002223Y000589
X00238386Y0005732
X002383Y000032
X00257301Y-00013801
X002443Y-000388
X0025441Y-001045
X0029055Y-0009205
X003273Y-000838
X003483Y-000548
X003803Y-000408
X0035455Y-0001405
X003563Y000252
X003723Y000352
X0040955Y00004199
X004433Y000342
X005523
X00557447Y-000592
X005557Y-001565
X0054761Y-0018436
X0039168Y-0015378
X0038655Y-0009455
X004313Y-000868
X003283Y-001618
X002773Y-001568
X002573Y-002008
X0023928Y-0019058
X0021388Y-0019838
X001888Y-002155
X002107Y-002497
X003013Y-002118
X002904Y000499
X007134Y000272
X007056Y-00044635
X007138Y-001159
X007641Y-00115825
X007741Y-000837
X008507Y-000935
X008462Y-000659
X0083233Y-0003738
X008595Y-000247
X008695Y-000408
X008477Y000095
X00831Y000159
X007853Y000041
X007693Y-000008
X008001Y000609
X009021Y-000936
X009456Y-001017
X009384Y-001327
X009549Y-001502
X00901976Y-00150124
X008605Y-002144
X008078Y-001931
X0075871Y-0022221
X00628655Y-00224745
X0061709Y-0015389
X005905Y-001686
X009704Y-000652
X0101471Y-0006364
X010151Y000246
X0102935Y0001127
X0102778Y0003982
X009904Y00205
X011186Y00193698
X009139Y002152
X008119Y002052
X007804Y002155
X007304Y001714
X007579Y000877
X006488Y001369
X005771Y001213
X004169Y001247
X0028939Y0011487
X00264Y000981
X002394Y001198
X0021393Y00129502
X00201721Y00117179
X001877Y001173
X00163Y001065
X0011804Y0012923
X001Y001174
X0008698Y0010262
X0006158Y0010312
X0006158Y001296
X000357Y001175
X001339Y001455
T02
X004993Y001977
X005247Y002231
X005501Y001977
T03
X0003608Y-0017446
X0006148
X0008688
X0011228
X0013768
X0016308
X0018848
X0021388
X0023928
X0026468
X0029008
X0031548
X0034088
X0036628
X0039168
X0041708
X0044248
X0046788
X0049328
X00586653Y-00069635
Y-00019635
X00731653
X00731653Y-00044635
X00731653Y-00069635
X011186Y-00076
Y-001014
Y-000506
Y-000252
Y000004
Y000258
Y000512
Y000768
X006023Y001835
Y002089
X004548Y002386
X004294
X00404
X003786
X003812Y001641
X003558
X004066
X0041718Y0007954
X0039178
X0036638
X0034098
X0031558
X0029018
X0026478
X0023938
X0021398
X0018858
X0016318
X0022411Y00196137
X0024951
X0027491
Y00221537
X0024951
X0022411Y00221537
X0044258Y0007954
X0046798
X0049338
X0013778
X0011238
X0008698
X0006158
X0003618
X0007171Y00196137
X0009711Y00196137
X0012251
Y00221537
X0009711
X0007171
T04
X0060123Y-0024812
X0065203
X0075871
X0080951
X0086031
X009907Y002386
X010415
X010923
X00913
X008622
X008114
X0071733
X0066653
T05
X00165Y-00305
X01045Y-0016
Y0016
X00165Y00305
T06
X00659153Y-00105685
Y00016415
M30
