%TF.GenerationSoftware,Altium Limited,Altium Designer,22.1.2 (22)*%
G04 Layer_Color=16711935*
%FSLAX44Y44*%
%MOMM*%
%TF.SameCoordinates,7030E6BB-A83E-4B1E-8CAA-8E065E694121*%
%TF.FilePolarity,Positive*%
%TF.FileFunction,Keep-out,Top*%
%TF.Part,CustomerPanel*%
G01*
G75*
%TA.AperFunction,NonConductor*%
%ADD36C,0.0127*%
%ADD37C,2.0000*%
%ADD38C,2.0000*%
D36*
X1883116Y1684386D02*
G03*
X1881893Y1684309I2663J-52223D01*
G01*
X1913888Y1589596D02*
G03*
X1926612Y1601355I-28543J43649D01*
G01*
X1906650Y1585654D02*
G03*
X1913888Y1589596I-20925J47034D01*
G01*
X1889875Y1581400D02*
G03*
X1906650Y1585654I-3997J50960D01*
G01*
X1879454Y1581621D02*
G03*
X1883052Y1581309I6287J51559D01*
G01*
X1886968Y1581252D02*
G03*
X1889875Y1581400I-1182J51989D01*
G01*
X1883052Y1581309D02*
G03*
X1885773Y1581239I2718J52413D01*
G01*
X1885773Y1581239D02*
G03*
X1886968Y1581252I0J52415D01*
G01*
X2005534Y1325569D02*
G03*
X1926612Y1601355I-928393J-116493D01*
G01*
X2011663Y1256225D02*
G03*
X2005534Y1325569I-944548J-48537D01*
G01*
X2012923Y1207122D02*
G03*
X2011663Y1256225I-955563J43D01*
G01*
X2012316Y1173457D02*
G03*
X2012873Y1197473I-936681J33747D01*
G01*
X2011344Y1152768D02*
G03*
X2012316Y1173457I-945127J54772D01*
G01*
X2010086Y1134197D02*
G03*
X2011344Y1152768I-953364J73892D01*
G01*
X2008617Y1117189D02*
G03*
X2010086Y1134197I-961479J91640D01*
G01*
X1980047Y1125217D02*
G03*
X1978662Y1125182I-1J-27581D01*
G01*
X1981455Y1125181D02*
G03*
X1980047Y1125217I-1407J-27523D01*
G01*
X1983290Y1125025D02*
G03*
X1981455Y1125181I-3226J-27081D01*
G01*
X1988104Y1124000D02*
G03*
X1983290Y1125025I-7999J-25737D01*
G01*
X1995130Y1120636D02*
G03*
X1988104Y1124000I-15042J-22396D01*
G01*
X1978662Y1125182D02*
G03*
X1953114Y1101403I1389J-27105D01*
G01*
X2006972Y1101309D02*
G03*
X1995130Y1120636I-26949J-3222D01*
G01*
X1953114Y1101403D02*
G03*
X1952950Y1099513I27091J-3303D01*
G01*
X1881893Y1684309D02*
G03*
X1843386Y1662353I3847J-51491D01*
G01*
X1834198Y1630243D02*
G03*
X1879454Y1581621I51586J2643D01*
G01*
X1843386Y1662353D02*
G03*
X1835773Y1645832I42016J-29377D01*
G01*
Y1645832D02*
G03*
X1834482Y1638921I49686J-12852D01*
G01*
X1834482D02*
G03*
X1834198Y1635515I51542J-6011D01*
G01*
X1834198D02*
G03*
X1834132Y1632879I52372J-2633D01*
G01*
D02*
G03*
X1834198Y1630243I52492J-2D01*
G01*
X1883116Y1684386D02*
G03*
X1126869Y2147196I-811660J-477007D01*
G01*
X1126869Y2147196D02*
G03*
X1077453Y2148793I-55557J-954012D01*
G01*
X1100092Y2071900D02*
G03*
X1100053Y2073446I-30785J1D01*
G01*
X1100051Y2070304D02*
G03*
X1100092Y2071900I-30739J1594D01*
G01*
X1099867Y2068194D02*
G03*
X1100051Y2070304I-30238J3687D01*
G01*
X1100053Y2073446D02*
G03*
X1073511Y2101962I-30254J-1550D01*
G01*
X1071352Y2041652D02*
G03*
X1099867Y2068194I-1550J30254D01*
G01*
X1073511Y2101962D02*
G03*
X1071401Y2102145I-3687J-30238D01*
G01*
X1952950Y1099513D02*
G03*
X1952913Y1098083I27540J-1428D01*
G01*
Y1098083D02*
G03*
X1952948Y1096698I27581J-1D01*
G01*
D02*
G03*
X1976727Y1071150I27105J1389D01*
G01*
X1981727Y1071001D02*
G03*
X2005553Y1088900I-1706J27077D01*
G01*
X1976727Y1071150D02*
G03*
X1978618Y1070986I3303J27091D01*
G01*
X1980329Y1070951D02*
G03*
X1981727Y1071001I-279J27462D01*
G01*
X1978618Y1070986D02*
G03*
X1980047Y1070949I1428J27540D01*
G01*
X1945776Y857291D02*
G03*
X2005553Y1088900I-868297J347624D01*
G01*
X1913958Y881275D02*
G03*
X1912572Y881240I-1J-27581D01*
G01*
X1915387Y881238D02*
G03*
X1913958Y881275I-1428J-27540D01*
G01*
X1917278Y881074D02*
G03*
X1915387Y881238I-3303J-27092D01*
G01*
X1912572Y881240D02*
G03*
X1887025Y857461I1389J-27105D01*
G01*
X1941057Y855526D02*
G03*
X1917278Y881074I-27105J-1389D01*
G01*
X1887025Y857461D02*
G03*
X1886861Y855571I27091J-3303D01*
G01*
D02*
G03*
X1886824Y854141I27540J-1428D01*
G01*
X1941092D02*
G03*
X1941057Y855526I-27581J1D01*
G01*
X1886824Y854141D02*
G03*
X1886859Y852756I27580J-1D01*
G01*
X1941055Y852711D02*
G03*
X1941092Y854141I-27539J1428D01*
G01*
X1940891Y850821D02*
G03*
X1941055Y852711I-27090J3303D01*
G01*
X1886859Y852756D02*
G03*
X1910638Y827208I27105J1389D01*
G01*
X1915343Y827042D02*
G03*
X1940891Y850821I-1389J27105D01*
G01*
X1910638Y827208D02*
G03*
X1912528Y827044I3303J27090D01*
G01*
D02*
G03*
X1913958Y827007I1428J27539D01*
G01*
X1913958Y827007D02*
G03*
X1915343Y827042I1J27581D01*
G01*
X1612409Y436424D02*
G03*
X1945776Y857291I-543423J772906D01*
G01*
X1563543Y485047D02*
G03*
X1560917Y485113I-2624J-52374D01*
G01*
X1566937Y484765D02*
G03*
X1563543Y485047I-5990J-51547D01*
G01*
X1573825Y483484D02*
G03*
X1566937Y484765I-12808J-49701D01*
G01*
X1590364Y475878D02*
G03*
X1573825Y483484I-29350J-42036D01*
G01*
X1612344Y437399D02*
G03*
X1590364Y475878I-51489J-3895D01*
G01*
X1612409Y436424D02*
G03*
X1612344Y437399I-52177J-2958D01*
G01*
X1560917Y485113D02*
G03*
X1558281Y485047I-2J-52491D01*
G01*
Y485047D02*
G03*
X1509659Y439791I2643J-51586D01*
G01*
X1509393Y429977D02*
G03*
X1536233Y388107I51526J3492D01*
G01*
X1509659Y439791D02*
G03*
X1509347Y436193I51558J-6287D01*
G01*
X1509280Y432827D02*
G03*
X1509393Y429977I52329J638D01*
G01*
X1509347Y436193D02*
G03*
X1509276Y433472I52413J-2718D01*
G01*
D02*
G03*
X1509280Y432827I52689J-0D01*
G01*
X1185646Y272315D02*
G03*
X1536233Y388107I-112376J928886D01*
G01*
X1119641Y266654D02*
G03*
X1185646Y272315I-47855J945478D01*
G01*
X1100918Y349444D02*
G03*
X1100879Y350990I-30785J1D01*
G01*
X1100876Y347848D02*
G03*
X1100918Y349444I-30739J1594D01*
G01*
X1100693Y345738D02*
G03*
X1100876Y347848I-30238J3687D01*
G01*
X1071232Y265430D02*
G03*
X1119641Y266654I42J956444D01*
G01*
X1100879Y350990D02*
G03*
X1074337Y379506I-30254J-1550D01*
G01*
X1072177Y319196D02*
G03*
X1100693Y345738I-1550J30254D01*
G01*
X1074337Y379506D02*
G03*
X1072227Y379689I-3687J-30238D01*
G01*
X1071232Y2148813D02*
G03*
X1022959Y2147596I-42J-955965D01*
G01*
Y2147596D02*
G03*
X955872Y2141809I47719J-945019D01*
G01*
X1069806Y2102186D02*
G03*
X1068259Y2102147I-1J-30785D01*
G01*
X1071401Y2102145D02*
G03*
X1069806Y2102186I-1594J-30739D01*
G01*
X1068259Y2102147D02*
G03*
X1039743Y2075605I1550J-30254D01*
G01*
X955872Y2141809D02*
G03*
X611657Y2029169I113408J-928826D01*
G01*
X1039743Y2075605D02*
G03*
X1039560Y2073495I30238J-3687D01*
G01*
D02*
G03*
X1039519Y2071900I30739J-1594D01*
G01*
Y2071900D02*
G03*
X1039558Y2070354I30785J-1D01*
G01*
Y2070354D02*
G03*
X1066100Y2041838I30254J1550D01*
G01*
Y2041838D02*
G03*
X1068210Y2041655I3687J30238D01*
G01*
Y2041655D02*
G03*
X1069806Y2041613I1594J30739D01*
G01*
Y2041613D02*
G03*
X1071352Y2041652I1J30785D01*
G01*
X623451Y2016439D02*
G03*
X611657Y2029169I-43624J-28586D01*
G01*
X627387Y2009235D02*
G03*
X623451Y2016439I-47001J-21002D01*
G01*
X631674Y1992393D02*
G03*
X627387Y2009235I-50956J-4004D01*
G01*
X631822Y1989481D02*
G03*
X631674Y1992393I-51985J-1185D01*
G01*
X631836Y1988284D02*
G03*
X631822Y1989481I-52412J0D01*
G01*
X631765Y1985563D02*
G03*
X631836Y1988284I-52413J2718D01*
G01*
X631453Y1981966D02*
G03*
X631765Y1985563I-51559J6287D01*
G01*
X582831Y1936710D02*
G03*
X631453Y1981966I-2643J51586D01*
G01*
X529684Y1977562D02*
G03*
X574029Y1937008I50544J10746D01*
G01*
Y1937008D02*
G03*
X577528Y1936711I6136J51567D01*
G01*
Y1936711D02*
G03*
X580195Y1936643I2664J52401D01*
G01*
X580195D02*
G03*
X582831Y1936709I2J52492D01*
G01*
X529684Y1977562D02*
G03*
X213196Y1595669I544162J-773056D01*
G01*
X231938Y1600290D02*
G03*
X230048Y1600454I-3303J-27090D01*
G01*
X255717Y1574742D02*
G03*
X231938Y1600290I-27105J-1389D01*
G01*
X255752Y1573357D02*
G03*
X255717Y1574742I-27581J1D01*
G01*
X255715Y1571928D02*
G03*
X255752Y1573357I-27539J1428D01*
G01*
X255551Y1570037D02*
G03*
X255715Y1571928I-27090J3303D01*
G01*
X230003Y1546258D02*
G03*
X255551Y1570037I-1389J27105D01*
G01*
X230048Y1600454D02*
G03*
X228618Y1600491I-1428J-27539D01*
G01*
Y1546223D02*
G03*
X230003Y1546258I1J27580D01*
G01*
X228618Y1600491D02*
G03*
X228001Y1600484I-0J-27499D01*
G01*
X227235Y1546258D02*
G03*
X228618Y1546223I1382J27512D01*
G01*
X228001Y1600484D02*
G03*
X226355Y1600398I611J-27280D01*
G01*
X225473Y1546404D02*
G03*
X227235Y1546258I3129J27081D01*
G01*
X221902Y1547063D02*
G03*
X225473Y1546404I6665J26128D01*
G01*
X226355Y1600398D02*
G03*
X220618Y1599286I2222J-26832D01*
G01*
D02*
G03*
X216260Y1597507I7985J-25789D01*
G01*
X213269Y1550992D02*
G03*
X221902Y1547063I15298J22165D01*
G01*
X216260Y1597507D02*
G03*
X213196Y1595669I12479J-24275D01*
G01*
X201803Y1569412D02*
G03*
X213269Y1550992I26871J3947D01*
G01*
X201803Y1569412D02*
G03*
X139899Y1347021I862850J-359991D01*
G01*
X162344Y1356962D02*
G03*
X160915Y1356999I-1428J-27540D01*
G01*
X160458Y1356996D02*
G03*
X158949Y1356929I452J-27449D01*
G01*
X188014Y1331251D02*
G03*
X164235Y1356798I-27105J-1389D01*
G01*
X188049Y1329866D02*
G03*
X188014Y1331251I-27580J1D01*
G01*
X188012Y1328436D02*
G03*
X188049Y1329866I-27540J1428D01*
G01*
X187848Y1326546D02*
G03*
X188012Y1328436I-27091J3303D01*
G01*
X255114Y838079D02*
G03*
X254050Y838068I-0J-52410D01*
G01*
X257835Y838008D02*
G03*
X255114Y838079I-2718J-52413D01*
G01*
X254050Y838068D02*
G03*
X251190Y837931I1053J-51999D01*
G01*
X261432Y837696D02*
G03*
X257835Y838008I-6287J-51558D01*
G01*
X251190Y837931D02*
G03*
X233816Y833471I3820J-50953D01*
G01*
D02*
G03*
X226813Y829594I21360J-46847D01*
G01*
X226813D02*
G03*
X213787Y817309I28754J-43536D01*
G01*
X306688Y789074D02*
G03*
X261432Y837696I-51586J-2643D01*
G01*
X306755Y786438D02*
G03*
X306688Y789074I-52491J2D01*
G01*
X306686Y783758D02*
G03*
X306755Y786438I-52382J2677D01*
G01*
X306393Y780295D02*
G03*
X306686Y783758I-51542J6111D01*
G01*
X304849Y772498D02*
G03*
X306393Y780295I-49419J13835D01*
G01*
X297743Y757305D02*
G03*
X304849Y772498I-42302J29043D01*
G01*
X258638Y734965D02*
G03*
X297743Y757305I-3489J51504D01*
G01*
X256388Y734862D02*
G03*
X258638Y734965I-1280J52381D01*
G01*
X256388Y734862D02*
G03*
X1012177Y267252I814634J472089D01*
G01*
X1070631Y379730D02*
G03*
X1069085Y379691I-1J-30785D01*
G01*
X1072227Y379689D02*
G03*
X1070631Y379730I-1594J-30739D01*
G01*
X1069085Y379691D02*
G03*
X1040569Y353149I1550J-30254D01*
G01*
D02*
G03*
X1040386Y351039I30238J-3687D01*
G01*
D02*
G03*
X1040345Y349444I30739J-1594D01*
G01*
D02*
G03*
X1040384Y347897I30785J-1D01*
G01*
Y347897D02*
G03*
X1066926Y319382I30254J1550D01*
G01*
D02*
G03*
X1069035Y319199I3687J30238D01*
G01*
D02*
G03*
X1070631Y319157I1594J30739D01*
G01*
D02*
G03*
X1072177Y319196I1J30785D01*
G01*
X1012177Y267252D02*
G03*
X1062889Y265466I58957J953358D01*
G01*
X136496Y1092123D02*
G03*
X213787Y817309I928639J112901D01*
G01*
X162300Y1302767D02*
G03*
X187848Y1326546I-1388J27105D01*
G01*
X164235Y1356798D02*
G03*
X162344Y1356962I-3303J-27091D01*
G01*
X160915Y1302732D02*
G03*
X162300Y1302767I1J27582D01*
G01*
X159533Y1302767D02*
G03*
X160915Y1302732I1381J27498D01*
G01*
X157718Y1302919D02*
G03*
X159533Y1302767I3180J27061D01*
G01*
X158949Y1356929D02*
G03*
X148414Y1353951I1910J-26878D01*
G01*
X136161Y1318790D02*
G03*
X157718Y1302919I24783J11085D01*
G01*
X148414Y1353951D02*
G03*
X139899Y1347021I12604J-24183D01*
G01*
X136161Y1318790D02*
G03*
X133916Y1297846I962382J-113740D01*
G01*
X130768Y1158619D02*
G03*
X136496Y1092123I945499J47948D01*
G01*
X133916Y1297846D02*
G03*
X131968Y1274655I955006J-91873D01*
G01*
X131968Y1274655D02*
G03*
X130419Y1247722I947423J-68002D01*
G01*
X129540Y1207122D02*
G03*
X130768Y1158619I956457J-42D01*
G01*
X130419Y1247722D02*
G03*
X129564Y1213805I939456J-40664D01*
G01*
X2012873Y1197473D02*
X2012923Y1207122D01*
X2006972Y1101309D02*
X2008617Y1117189D01*
X1071232Y2148813D02*
X1077453Y2148793D01*
X1980047Y1070949D02*
X1980329Y1070951D01*
X160458Y1356996D02*
X160915Y1356999D01*
X1062889Y265466D02*
X1071232Y265430D01*
X129540Y1207122D02*
X129564Y1213805D01*
D37*
X1659430Y2793130D02*
G03*
X1659430Y2793130I0J0D01*
G01*
X679430Y2853130D02*
G03*
X649430Y2823130I0J-30000D01*
G01*
X709430D02*
G03*
X679430Y2853130I-30000J0D01*
G01*
X709430Y2823130D02*
G03*
X739430Y2793130I30000J0D01*
G01*
X619430D02*
G03*
X649430Y2823130I0J30000D01*
G01*
Y2213130D02*
G03*
X619430Y2243130I-30000J0D01*
G01*
X739430D02*
G03*
X709430Y2213130I0J-30000D01*
G01*
X679430Y2183130D02*
G03*
X709430Y2213130I0J30000D01*
G01*
X649430D02*
G03*
X679430Y2183130I30000J0D01*
G01*
X739430Y2243130D02*
X1659430D01*
X519430D02*
X619430D01*
X739430Y2793130D02*
X1659430D01*
X519430Y2793130D02*
X619430D01*
X1659430Y2243130D02*
Y2793130D01*
X519430Y2771430D02*
Y2793130D01*
Y2243130D02*
Y2771430D01*
D38*
X619430Y2793130D02*
D03*
%TF.MD5,4f7bbcd0564c80c348a417855b6099a9*%
M02*
