G04*
G04 #@! TF.GenerationSoftware,Altium Limited,Altium Designer,24.3.1 (35)*
G04*
G04 Layer_Physical_Order=1*
G04 Layer_Color=255*
%FSLAX25Y25*%
%MOIN*%
G70*
G04*
G04 #@! TF.SameCoordinates,5149264C-F6EF-45E8-801D-D6D5ED924B73*
G04*
G04*
G04 #@! TF.FilePolarity,Positive*
G04*
G01*
G75*
%ADD14R,0.03150X0.03150*%
%ADD15R,0.04921X0.03937*%
%ADD16R,0.03150X0.03150*%
%ADD17R,0.03740X0.02362*%
%ADD18R,0.05118X0.05906*%
%ADD19R,0.01968X0.01968*%
%ADD20R,0.06102X0.05118*%
%ADD40C,0.01575*%
%ADD41C,0.03150*%
%ADD42C,0.07874*%
%ADD43R,0.07874X0.07874*%
%ADD44R,0.07874X0.07874*%
%ADD45C,0.05118*%
%ADD46C,0.03347*%
%ADD47R,0.03347X0.03347*%
%ADD48C,0.09843*%
%ADD49C,0.21654*%
%ADD50O,0.11811X0.07874*%
%ADD51O,0.05118X0.07874*%
%ADD52C,0.12598*%
%ADD53C,0.01772*%
G36*
X59366Y114484D02*
X60565Y113500D01*
X61933Y112769D01*
X63417Y112319D01*
X64961Y112167D01*
X66504Y112319D01*
X67989Y112769D01*
X69356Y113500D01*
X70555Y114484D01*
X71342Y115443D01*
X71900Y115334D01*
X72544Y113435D01*
X73549Y111399D01*
X74810Y109511D01*
X76307Y107803D01*
X78015Y106306D01*
X79903Y105044D01*
X81939Y104040D01*
X84090Y103310D01*
X86317Y102867D01*
X88425Y102729D01*
X88583Y102708D01*
X445228D01*
Y23733D01*
X444728Y23563D01*
X444325Y24089D01*
X443173Y24972D01*
X441833Y25528D01*
X440394Y25717D01*
X438955Y25528D01*
X437614Y24972D01*
X436463Y24089D01*
X435579Y22937D01*
X435024Y21596D01*
X434834Y20157D01*
X435024Y18719D01*
X435579Y17378D01*
X436463Y16226D01*
X437470Y15454D01*
X437510Y15318D01*
Y14997D01*
X437470Y14862D01*
X436463Y14089D01*
X435579Y12937D01*
X435024Y11596D01*
X434834Y10158D01*
X435024Y8719D01*
X435579Y7378D01*
X436463Y6226D01*
X437470Y5454D01*
X437510Y5318D01*
Y4997D01*
X437470Y4862D01*
X436463Y4089D01*
X435579Y2937D01*
X435024Y1596D01*
X434834Y158D01*
X435024Y-1281D01*
X435579Y-2622D01*
X436463Y-3774D01*
X437536Y-4598D01*
X437580Y-4882D01*
X437536Y-5166D01*
X436463Y-5990D01*
X435579Y-7141D01*
X435024Y-8482D01*
X434834Y-9921D01*
X435024Y-11360D01*
X435579Y-12701D01*
X436463Y-13852D01*
X437470Y-14625D01*
X437510Y-14760D01*
Y-15082D01*
X437470Y-15217D01*
X436463Y-15990D01*
X435579Y-17142D01*
X435024Y-18482D01*
X434834Y-19921D01*
X435024Y-21360D01*
X435579Y-22701D01*
X436463Y-23852D01*
X437470Y-24625D01*
X437510Y-24760D01*
Y-25082D01*
X437470Y-25217D01*
X436463Y-25990D01*
X435579Y-27141D01*
X435024Y-28482D01*
X434834Y-29921D01*
X435024Y-31360D01*
X435579Y-32701D01*
X436463Y-33852D01*
X436572Y-33936D01*
X436411Y-34409D01*
X434882D01*
Y-45433D01*
X445228D01*
Y-102708D01*
X343537D01*
X343396Y-102208D01*
X344132Y-101312D01*
X344735Y-100183D01*
X345107Y-98958D01*
X345232Y-97685D01*
X345107Y-96412D01*
X344735Y-95187D01*
X344132Y-94059D01*
X343320Y-93069D01*
X342331Y-92258D01*
X341203Y-91654D01*
X339978Y-91283D01*
X338705Y-91158D01*
X337431Y-91283D01*
X336207Y-91654D01*
X335078Y-92258D01*
X334089Y-93069D01*
X333277Y-94059D01*
X332674Y-95187D01*
X332303Y-96412D01*
X332177Y-97685D01*
X332303Y-98958D01*
X332674Y-100183D01*
X333277Y-101312D01*
X334013Y-102208D01*
X333872Y-102708D01*
X323537D01*
X323396Y-102208D01*
X324132Y-101312D01*
X324735Y-100183D01*
X325107Y-98958D01*
X325232Y-97685D01*
X325107Y-96412D01*
X324735Y-95187D01*
X324132Y-94059D01*
X323320Y-93069D01*
X322331Y-92258D01*
X321203Y-91654D01*
X319978Y-91283D01*
X318705Y-91158D01*
X317431Y-91283D01*
X316207Y-91654D01*
X315078Y-92258D01*
X314089Y-93069D01*
X313277Y-94059D01*
X312674Y-95187D01*
X312303Y-96412D01*
X312177Y-97685D01*
X312303Y-98958D01*
X312674Y-100183D01*
X313277Y-101312D01*
X314013Y-102208D01*
X313872Y-102708D01*
X261538D01*
X261396Y-102208D01*
X262132Y-101312D01*
X262735Y-100183D01*
X263107Y-98958D01*
X263232Y-97685D01*
X263107Y-96412D01*
X262735Y-95187D01*
X262132Y-94059D01*
X261320Y-93069D01*
X260331Y-92258D01*
X259203Y-91654D01*
X257978Y-91283D01*
X256705Y-91158D01*
X255431Y-91283D01*
X254207Y-91654D01*
X253078Y-92258D01*
X252089Y-93069D01*
X251277Y-94059D01*
X250674Y-95187D01*
X250303Y-96412D01*
X250177Y-97685D01*
X250303Y-98958D01*
X250674Y-100183D01*
X251277Y-101312D01*
X252013Y-102208D01*
X251872Y-102708D01*
X88583D01*
X88425Y-102729D01*
X86317Y-102867D01*
X84090Y-103310D01*
X81939Y-104040D01*
X79903Y-105044D01*
X78015Y-106306D01*
X76307Y-107803D01*
X74810Y-109511D01*
X73549Y-111399D01*
X72544Y-113435D01*
X71900Y-115334D01*
X71342Y-115443D01*
X70555Y-114484D01*
X69356Y-113500D01*
X67989Y-112769D01*
X66504Y-112319D01*
X64961Y-112167D01*
X63417Y-112319D01*
X61933Y-112769D01*
X60565Y-113500D01*
X59366Y-114484D01*
X58579Y-115443D01*
X58022Y-115334D01*
X57377Y-113435D01*
X56373Y-111399D01*
X55111Y-109511D01*
X53614Y-107803D01*
X51907Y-106306D01*
X50019Y-105044D01*
X47982Y-104040D01*
X45832Y-103310D01*
X43604Y-102867D01*
X41496Y-102729D01*
X41339Y-102708D01*
X7528D01*
Y99725D01*
Y102708D01*
X41339D01*
X41496Y102729D01*
X43604Y102867D01*
X45832Y103310D01*
X47982Y104040D01*
X50019Y105044D01*
X51907Y106306D01*
X53614Y107803D01*
X55111Y109511D01*
X56373Y111399D01*
X57377Y113435D01*
X58022Y115334D01*
X58579Y115443D01*
X59366Y114484D01*
D02*
G37*
%LPC*%
G36*
X410039Y100464D02*
X408766Y100339D01*
X407541Y99968D01*
X406413Y99365D01*
X405424Y98553D01*
X404612Y97563D01*
X404009Y96435D01*
X403637Y95210D01*
X403512Y93937D01*
X403637Y92664D01*
X404009Y91439D01*
X404612Y90311D01*
X405424Y89321D01*
X406413Y88510D01*
X407541Y87906D01*
X408766Y87535D01*
X410039Y87410D01*
X411313Y87535D01*
X412537Y87906D01*
X413666Y88510D01*
X414655Y89321D01*
X415467Y90311D01*
X416070Y91439D01*
X416441Y92664D01*
X416567Y93937D01*
X416441Y95210D01*
X416070Y96435D01*
X415467Y97563D01*
X414655Y98553D01*
X413666Y99365D01*
X412537Y99968D01*
X411313Y100339D01*
X410039Y100464D01*
D02*
G37*
G36*
X390039D02*
X388766Y100339D01*
X387541Y99968D01*
X386413Y99365D01*
X385424Y98553D01*
X384612Y97563D01*
X384009Y96435D01*
X383637Y95210D01*
X383512Y93937D01*
X383637Y92664D01*
X384009Y91439D01*
X384612Y90311D01*
X385424Y89321D01*
X386413Y88510D01*
X387541Y87906D01*
X388766Y87535D01*
X390039Y87410D01*
X391313Y87535D01*
X392537Y87906D01*
X393666Y88510D01*
X394655Y89321D01*
X395467Y90311D01*
X396070Y91439D01*
X396441Y92664D01*
X396567Y93937D01*
X396441Y95210D01*
X396070Y96435D01*
X395467Y97563D01*
X394655Y98553D01*
X393666Y99365D01*
X392537Y99968D01*
X391313Y100339D01*
X390039Y100464D01*
D02*
G37*
G36*
X339449D02*
X338175Y100339D01*
X336951Y99968D01*
X335822Y99365D01*
X334833Y98553D01*
X334021Y97563D01*
X333418Y96435D01*
X333047Y95210D01*
X332921Y93937D01*
X333047Y92664D01*
X333418Y91439D01*
X334021Y90311D01*
X334833Y89321D01*
X335822Y88510D01*
X336951Y87906D01*
X338175Y87535D01*
X339449Y87410D01*
X340722Y87535D01*
X341947Y87906D01*
X343075Y88510D01*
X344064Y89321D01*
X344876Y90311D01*
X345479Y91439D01*
X345851Y92664D01*
X345976Y93937D01*
X345851Y95210D01*
X345479Y96435D01*
X344876Y97563D01*
X344064Y98553D01*
X343075Y99365D01*
X341947Y99968D01*
X340722Y100339D01*
X339449Y100464D01*
D02*
G37*
G36*
X319449D02*
X318175Y100339D01*
X316951Y99968D01*
X315822Y99365D01*
X314833Y98553D01*
X314021Y97563D01*
X313418Y96435D01*
X313047Y95210D01*
X312921Y93937D01*
X313047Y92664D01*
X313418Y91439D01*
X314021Y90311D01*
X314833Y89321D01*
X315822Y88510D01*
X316951Y87906D01*
X318175Y87535D01*
X319449Y87410D01*
X320722Y87535D01*
X321947Y87906D01*
X323075Y88510D01*
X324064Y89321D01*
X324876Y90311D01*
X325479Y91439D01*
X325851Y92664D01*
X325976Y93937D01*
X325851Y95210D01*
X325479Y96435D01*
X324876Y97563D01*
X324064Y98553D01*
X323075Y99365D01*
X321947Y99968D01*
X320722Y100339D01*
X319449Y100464D01*
D02*
G37*
G36*
X262413D02*
X261140Y100339D01*
X259915Y99968D01*
X258787Y99365D01*
X257798Y98553D01*
X256986Y97563D01*
X256383Y96435D01*
X256011Y95210D01*
X255886Y93937D01*
X256011Y92664D01*
X256383Y91439D01*
X256986Y90311D01*
X257798Y89321D01*
X258787Y88510D01*
X259915Y87906D01*
X261140Y87535D01*
X262413Y87410D01*
X263687Y87535D01*
X264911Y87906D01*
X266040Y88510D01*
X267029Y89321D01*
X267841Y90311D01*
X268444Y91439D01*
X268815Y92664D01*
X268941Y93937D01*
X268815Y95210D01*
X268444Y96435D01*
X267841Y97563D01*
X267029Y98553D01*
X266040Y99365D01*
X264911Y99968D01*
X263687Y100339D01*
X262413Y100464D01*
D02*
G37*
G36*
X176000Y93441D02*
X175152Y93330D01*
X174362Y93002D01*
X173684Y92482D01*
X173163Y91803D01*
X172836Y91013D01*
X172724Y90165D01*
X172836Y89317D01*
X173163Y88527D01*
X173684Y87849D01*
X174362Y87328D01*
X175152Y87001D01*
X176000Y86889D01*
X176848Y87001D01*
X177173Y87136D01*
X177673Y86917D01*
Y86917D01*
X184169D01*
Y93413D01*
X177673D01*
Y93413D01*
X177173Y93195D01*
X176848Y93330D01*
X176000Y93441D01*
D02*
G37*
G36*
X147024Y93059D02*
X146176Y92948D01*
X145386Y92621D01*
X144707Y92100D01*
X144186Y91422D01*
X143859Y90631D01*
X143748Y89784D01*
X143859Y88936D01*
X144186Y88145D01*
X144707Y87467D01*
X145386Y86946D01*
X146176Y86619D01*
X147024Y86507D01*
X147871Y86619D01*
X148197Y86754D01*
X148697Y86535D01*
Y86535D01*
X155193D01*
Y93032D01*
X148697D01*
Y93032D01*
X148197Y92813D01*
X147871Y92948D01*
X147024Y93059D01*
D02*
G37*
G36*
X98232Y82779D02*
X96793Y82589D01*
X95453Y82034D01*
X94301Y81150D01*
X94218Y81041D01*
X93744Y81202D01*
Y82731D01*
X82721D01*
Y79628D01*
X78302D01*
X77380Y79444D01*
X76599Y78922D01*
X74313Y76636D01*
X73790Y75855D01*
X73607Y74933D01*
Y64040D01*
X72866D01*
Y63298D01*
X72307D01*
X71386Y63115D01*
X70813Y62732D01*
X66000D01*
Y59137D01*
X53453D01*
X52949Y59237D01*
X51989Y59046D01*
X51175Y58502D01*
X50889Y58075D01*
X47585Y54771D01*
X41929D01*
Y61024D01*
X40641D01*
Y72251D01*
X41012Y72405D01*
X42163Y73288D01*
X43047Y74440D01*
X43602Y75780D01*
X43792Y77219D01*
X43602Y78658D01*
X43047Y79999D01*
X42163Y81150D01*
X41012Y82034D01*
X39671Y82589D01*
X38232Y82779D01*
X36793Y82589D01*
X35453Y82034D01*
X34301Y81150D01*
X34218Y81041D01*
X33744Y81202D01*
Y82731D01*
X22720D01*
Y71707D01*
X24414D01*
X24605Y71245D01*
X21852Y68493D01*
X21330Y67711D01*
X21147Y66790D01*
X21221Y66413D01*
Y61303D01*
X20539D01*
Y60562D01*
X20225D01*
X19303Y60379D01*
X18917Y60122D01*
Y60122D01*
X18917Y60122D01*
X13799D01*
Y55004D01*
X18917D01*
Y55155D01*
X19634D01*
X20143Y55256D01*
X20539Y54825D01*
Y52839D01*
X16858D01*
X16358Y52839D01*
Y52839D01*
X16358D01*
Y52839D01*
X11240D01*
Y49126D01*
X10453D01*
Y42827D01*
X11227D01*
Y41636D01*
X11161Y41299D01*
X11351Y40339D01*
X11895Y39525D01*
X12709Y38981D01*
X13669Y38790D01*
X14629Y38981D01*
X15443Y39525D01*
X15987Y40339D01*
X16079Y40803D01*
X16307Y40920D01*
X16620Y40956D01*
X16666Y40905D01*
Y37862D01*
X16850Y36941D01*
X17372Y36159D01*
X20163Y33368D01*
X20075Y32693D01*
Y29937D01*
X20217Y28858D01*
X20633Y27852D01*
X21296Y26989D01*
X22159Y26326D01*
X23165Y25910D01*
X24244Y25767D01*
X25323Y25910D01*
X26329Y26326D01*
X27192Y26989D01*
X27855Y27852D01*
X28272Y28858D01*
X28414Y29937D01*
Y32693D01*
X28272Y33772D01*
X27855Y34778D01*
X27192Y35641D01*
X26329Y36304D01*
X25323Y36720D01*
X24244Y36862D01*
X23570Y36774D01*
X21757Y38587D01*
X22075Y38975D01*
X22154Y38922D01*
X23114Y38731D01*
X24074Y38922D01*
X24888Y39466D01*
X25432Y40280D01*
X25623Y41240D01*
X25523Y41745D01*
Y42913D01*
X31450D01*
Y35759D01*
X31296Y35641D01*
X30633Y34778D01*
X30217Y33772D01*
X30075Y32693D01*
Y29937D01*
X30217Y28858D01*
X30633Y27852D01*
X31296Y26989D01*
X32159Y26326D01*
X33165Y25910D01*
X34244Y25767D01*
X35323Y25910D01*
X36329Y26326D01*
X37192Y26989D01*
X37855Y27852D01*
X38272Y28858D01*
X38414Y29937D01*
Y32693D01*
X38272Y33772D01*
X37855Y34778D01*
X37192Y35641D01*
X36329Y36304D01*
X36267Y36330D01*
Y42913D01*
X37008D01*
Y49213D01*
X37508Y49213D01*
X39929D01*
X40120Y48751D01*
X39532Y48162D01*
X39104Y47876D01*
X38560Y47063D01*
X38369Y46102D01*
X38560Y45142D01*
X39104Y44328D01*
X39918Y43784D01*
X40878Y43593D01*
X41838Y43784D01*
X42652Y44328D01*
X42938Y44756D01*
X44360Y46178D01*
X62653D01*
Y45437D01*
X63395D01*
Y45052D01*
X63578Y44131D01*
X64100Y43349D01*
X65023Y42427D01*
X65804Y41905D01*
X66726Y41721D01*
X84999D01*
X85921Y41905D01*
X86702Y42427D01*
X87625Y43349D01*
X88147Y44131D01*
X88330Y45052D01*
Y45513D01*
X89043D01*
Y44236D01*
X88960Y43819D01*
X89151Y42859D01*
X89694Y42045D01*
X90405Y41570D01*
X90308Y41070D01*
X65188D01*
X64228Y41261D01*
X63268Y41070D01*
X62454Y40526D01*
X62226Y40183D01*
X61691Y40283D01*
X61625Y40577D01*
X61684Y40666D01*
X61875Y41626D01*
X61684Y42586D01*
X61140Y43400D01*
X60326Y43944D01*
X59366Y44135D01*
X58406Y43944D01*
X57592Y43400D01*
X57048Y42586D01*
X57011Y42400D01*
X56940Y42294D01*
X56757Y41372D01*
Y36529D01*
X56257Y36334D01*
X55323Y36720D01*
X54244Y36862D01*
X53165Y36720D01*
X52159Y36304D01*
X51296Y35641D01*
X50633Y34778D01*
X50217Y33772D01*
X50075Y32693D01*
Y29937D01*
X50217Y28858D01*
X50633Y27852D01*
X51296Y26989D01*
X52159Y26326D01*
X53165Y25910D01*
X54244Y25767D01*
X55323Y25910D01*
X56257Y26296D01*
X56757Y26101D01*
Y23709D01*
X56940Y22787D01*
X57462Y22006D01*
X62234Y17234D01*
X63015Y16712D01*
X63937Y16529D01*
X80006D01*
X80928Y16712D01*
X80994Y16756D01*
X81059Y16743D01*
X82019Y16934D01*
X82833Y17478D01*
X83377Y18292D01*
X83568Y19252D01*
X83377Y20212D01*
X82833Y21026D01*
X82019Y21570D01*
X81059Y21761D01*
X80365Y21623D01*
X80284D01*
X79362Y21440D01*
X79221Y21346D01*
X64935D01*
X61574Y24706D01*
Y26210D01*
X62022Y26431D01*
X62159Y26326D01*
X63165Y25910D01*
X64244Y25767D01*
X65323Y25910D01*
X66329Y26326D01*
X67192Y26989D01*
X67855Y27852D01*
X68272Y28858D01*
X68414Y29937D01*
Y32693D01*
X68272Y33772D01*
X67855Y34778D01*
X67192Y35641D01*
X67012Y35780D01*
X67173Y36253D01*
X81315D01*
X81476Y35780D01*
X81296Y35641D01*
X80633Y34778D01*
X80217Y33772D01*
X80075Y32693D01*
Y29937D01*
X80217Y28858D01*
X80633Y27852D01*
X81296Y26989D01*
X82159Y26326D01*
X83165Y25910D01*
X84244Y25767D01*
X85323Y25910D01*
X86329Y26326D01*
X87192Y26989D01*
X87855Y27852D01*
X88272Y28858D01*
X88414Y29937D01*
Y32693D01*
X88272Y33772D01*
X87855Y34778D01*
X87192Y35641D01*
X87012Y35780D01*
X87173Y36253D01*
X91315D01*
X91476Y35780D01*
X91296Y35641D01*
X90633Y34778D01*
X90217Y33772D01*
X90075Y32693D01*
Y29937D01*
X90217Y28858D01*
X90633Y27852D01*
X91296Y26989D01*
X92159Y26326D01*
X93165Y25910D01*
X94244Y25767D01*
X95323Y25910D01*
X96329Y26326D01*
X97192Y26989D01*
X97855Y27852D01*
X98272Y28858D01*
X98414Y29937D01*
Y32693D01*
X98272Y33772D01*
X97855Y34778D01*
X97192Y35641D01*
X96994Y35793D01*
X97183Y36279D01*
X97973Y36436D01*
X98754Y36958D01*
X101043Y39247D01*
X101503Y39000D01*
X101428Y38622D01*
X101619Y37662D01*
X102163Y36848D01*
X102223Y36808D01*
X102188Y36448D01*
X102121Y36275D01*
X101296Y35641D01*
X100633Y34778D01*
X100217Y33772D01*
X100075Y32693D01*
Y29937D01*
X100217Y28858D01*
X100633Y27852D01*
X101296Y26989D01*
X102159Y26326D01*
X103165Y25910D01*
X104244Y25767D01*
X105323Y25910D01*
X106329Y26326D01*
X107192Y26989D01*
X107855Y27852D01*
X108272Y28858D01*
X108414Y29937D01*
Y32693D01*
X108272Y33772D01*
X107855Y34778D01*
X107192Y35641D01*
X107063Y35740D01*
X107224Y36214D01*
X111264D01*
X111425Y35740D01*
X111296Y35641D01*
X110633Y34778D01*
X110217Y33772D01*
X110075Y32693D01*
Y29937D01*
X110217Y28858D01*
X110633Y27852D01*
X111296Y26989D01*
X112159Y26326D01*
X113165Y25910D01*
X114244Y25767D01*
X115323Y25910D01*
X116329Y26326D01*
X117192Y26989D01*
X117855Y27852D01*
X118272Y28858D01*
X118414Y29937D01*
Y32693D01*
X118272Y33772D01*
X117855Y34778D01*
X117192Y35641D01*
X117063Y35740D01*
X117224Y36214D01*
X121264D01*
X121425Y35740D01*
X121296Y35641D01*
X120633Y34778D01*
X120217Y33772D01*
X120075Y32693D01*
Y29937D01*
X120217Y28858D01*
X120633Y27852D01*
X121296Y26989D01*
X122159Y26326D01*
X123165Y25910D01*
X124244Y25767D01*
X125323Y25910D01*
X126329Y26326D01*
X127192Y26989D01*
X127855Y27852D01*
X128272Y28858D01*
X128414Y29937D01*
Y32693D01*
X128272Y33772D01*
X127855Y34778D01*
X127192Y35641D01*
X127064Y35740D01*
X127224Y36214D01*
X131264D01*
X131425Y35740D01*
X131296Y35641D01*
X130633Y34778D01*
X130217Y33772D01*
X130075Y32693D01*
Y29937D01*
X130217Y28858D01*
X130633Y27852D01*
X131296Y26989D01*
X132159Y26326D01*
X133165Y25910D01*
X134244Y25767D01*
X135323Y25910D01*
X136329Y26326D01*
X137192Y26989D01*
X137855Y27852D01*
X138272Y28858D01*
X138414Y29937D01*
Y32693D01*
X138272Y33772D01*
X137855Y34778D01*
X137192Y35641D01*
X136512Y36163D01*
X136478Y36742D01*
X136742Y36919D01*
X142572Y42749D01*
X193389D01*
X208864Y27273D01*
X209646Y26751D01*
X210567Y26568D01*
X313549D01*
X313701Y26068D01*
X313226Y25750D01*
X312940Y25323D01*
X301171Y13554D01*
X300649Y12772D01*
X300465Y11850D01*
Y475D01*
X299966Y267D01*
X298912Y1321D01*
X298131Y1843D01*
X297209Y2026D01*
X296714D01*
Y8029D01*
X296714D01*
Y13559D01*
X295973D01*
Y14507D01*
X295789Y15428D01*
X295267Y16210D01*
X288920Y22557D01*
X288138Y23079D01*
X287217Y23263D01*
X136918D01*
X135996Y23079D01*
X135215Y22557D01*
X134712Y22054D01*
X114835D01*
X114331Y22154D01*
X113371Y21964D01*
X112557Y21420D01*
X112013Y20606D01*
X111822Y19646D01*
X112013Y18686D01*
X112557Y17872D01*
X113371Y17328D01*
X114331Y17137D01*
X114835Y17237D01*
X135710D01*
X136631Y17421D01*
X137413Y17943D01*
X137916Y18446D01*
X153772D01*
X154007Y18005D01*
X153922Y17877D01*
X153731Y16917D01*
X153922Y15957D01*
X154466Y15143D01*
X154894Y14857D01*
X175228Y-5476D01*
X176009Y-5998D01*
X176931Y-6182D01*
X189854D01*
X208878Y-25206D01*
Y-28887D01*
X216949D01*
Y-21800D01*
X212284D01*
X192554Y-2070D01*
X191773Y-1548D01*
X190851Y-1365D01*
X177928D01*
X158618Y17946D01*
X158825Y18446D01*
X175498D01*
X175650Y17946D01*
X175080Y17566D01*
X174537Y16752D01*
X174346Y15791D01*
X174537Y14831D01*
X175080Y14017D01*
X175894Y13474D01*
X176266Y13400D01*
X177904Y11762D01*
X178686Y11240D01*
X179607Y11056D01*
X216936D01*
X217441Y10956D01*
X218401Y11147D01*
X219215Y11691D01*
X219759Y12505D01*
X219950Y13465D01*
X219759Y14425D01*
X219215Y15239D01*
X218401Y15782D01*
X217441Y15973D01*
X216936Y15873D01*
X180605D01*
X178984Y17495D01*
X178308Y17946D01*
X178412Y18446D01*
X254726D01*
X254825Y17946D01*
X253861Y17547D01*
X252197Y16527D01*
X250713Y15259D01*
X249445Y13774D01*
X248425Y12110D01*
X247678Y10307D01*
X247222Y8409D01*
X247069Y6463D01*
X247222Y4516D01*
X247678Y2618D01*
X248425Y815D01*
X249445Y-850D01*
X250713Y-2334D01*
X252197Y-3602D01*
X253861Y-4622D01*
X255665Y-5369D01*
X257563Y-5824D01*
X259509Y-5977D01*
X261455Y-5824D01*
X263353Y-5369D01*
X265157Y-4622D01*
X266821Y-3602D01*
X268305Y-2334D01*
X269573Y-850D01*
X270593Y815D01*
X271340Y2618D01*
X271796Y4516D01*
X271949Y6463D01*
X271796Y8409D01*
X271340Y10307D01*
X270593Y12110D01*
X269573Y13774D01*
X268305Y15259D01*
X266821Y16527D01*
X265157Y17547D01*
X264193Y17946D01*
X264292Y18446D01*
X286219D01*
X290644Y14021D01*
X290452Y13559D01*
X290415D01*
Y8029D01*
X284903D01*
Y1730D01*
Y-2327D01*
X284645Y-2361D01*
X283304Y-2916D01*
X282153Y-3799D01*
X281269Y-4951D01*
X280714Y-6292D01*
X280524Y-7730D01*
X280714Y-9169D01*
X281269Y-10510D01*
X282153Y-11661D01*
X283304Y-12545D01*
X284645Y-13100D01*
X286084Y-13290D01*
X290021D01*
X291460Y-13100D01*
X292801Y-12545D01*
X293952Y-11661D01*
X294835Y-10510D01*
X295391Y-9169D01*
X295580Y-7730D01*
X295391Y-6292D01*
X294835Y-4951D01*
X294130Y-4032D01*
X294377Y-3532D01*
X296682D01*
Y-20713D01*
Y-31614D01*
X294377D01*
X294130Y-31114D01*
X294835Y-30195D01*
X295391Y-28854D01*
X295580Y-27415D01*
X295391Y-25977D01*
X294835Y-24636D01*
X293952Y-23484D01*
X292801Y-22601D01*
X291460Y-22046D01*
X290021Y-21856D01*
X286084D01*
X284645Y-22046D01*
X283304Y-22601D01*
X282153Y-23484D01*
X281269Y-24636D01*
X280714Y-25977D01*
X280524Y-27415D01*
X280714Y-28854D01*
X281269Y-30195D01*
X282153Y-31346D01*
X283304Y-32230D01*
X284645Y-32785D01*
X284903Y-32819D01*
Y-37913D01*
Y-43146D01*
X290421D01*
Y-48670D01*
X291162D01*
Y-49272D01*
X291095Y-49604D01*
Y-51837D01*
X278963Y-63969D01*
X232985D01*
X232480Y-63869D01*
X231520Y-64060D01*
X230706Y-64604D01*
X230162Y-65418D01*
X230075Y-65856D01*
X229533Y-66020D01*
X222880Y-59368D01*
X222222Y-58863D01*
X221456Y-58546D01*
X220634Y-58437D01*
X215017D01*
X209857Y-53277D01*
X209199Y-52772D01*
X208433Y-52455D01*
X207610Y-52347D01*
X116092D01*
X108413Y-44668D01*
Y-16063D01*
X108305Y-15241D01*
X107987Y-14475D01*
X107483Y-13817D01*
X96996Y-3330D01*
Y1260D01*
X96887Y2082D01*
X96570Y2848D01*
X96065Y3506D01*
X95407Y4011D01*
X94641Y4328D01*
X93819Y4437D01*
X92997Y4328D01*
X92230Y4011D01*
X91573Y3506D01*
X91068Y2848D01*
X90750Y2082D01*
X90642Y1260D01*
Y-4646D01*
X90750Y-5468D01*
X91068Y-6234D01*
X91573Y-6892D01*
X97125Y-12445D01*
X96879Y-12905D01*
X96181Y-12767D01*
X95221Y-12958D01*
X94407Y-13501D01*
X93863Y-14315D01*
X93672Y-15276D01*
X93773Y-15780D01*
Y-48740D01*
X93956Y-49662D01*
X94478Y-50443D01*
X107113Y-63078D01*
X107399Y-63506D01*
X108213Y-64050D01*
X109173Y-64241D01*
X110133Y-64050D01*
X110167Y-64028D01*
X110521Y-63957D01*
X111302Y-63435D01*
X112566Y-62172D01*
X131286D01*
X131360Y-62246D01*
X132141Y-62768D01*
X132757Y-62891D01*
X132808Y-63411D01*
X132120Y-63696D01*
X131256Y-64359D01*
X130594Y-65222D01*
X130177Y-66228D01*
X130035Y-67307D01*
Y-70063D01*
X130177Y-71142D01*
X130594Y-72148D01*
X131256Y-73011D01*
X132120Y-73674D01*
X133126Y-74090D01*
X134205Y-74233D01*
X135284Y-74090D01*
X136290Y-73674D01*
X137153Y-73011D01*
X137816Y-72148D01*
X138232Y-71142D01*
X138374Y-70063D01*
Y-67307D01*
X138232Y-66228D01*
X137816Y-65222D01*
X137153Y-64359D01*
X136290Y-63696D01*
X135699Y-63452D01*
X135799Y-62952D01*
X152611D01*
X152710Y-63452D01*
X152120Y-63696D01*
X151256Y-64359D01*
X150594Y-65222D01*
X150177Y-66228D01*
X150035Y-67307D01*
Y-70063D01*
X150177Y-71142D01*
X150594Y-72148D01*
X151256Y-73011D01*
X152120Y-73674D01*
X153126Y-74090D01*
X154205Y-74233D01*
X155284Y-74090D01*
X156290Y-73674D01*
X157153Y-73011D01*
X157816Y-72148D01*
X158232Y-71142D01*
X158374Y-70063D01*
Y-67307D01*
X158232Y-66228D01*
X157816Y-65222D01*
X157153Y-64359D01*
X156290Y-63696D01*
X155337Y-63302D01*
X155325Y-63271D01*
X155287Y-63089D01*
X155292Y-62776D01*
X155979Y-62317D01*
X156523Y-61503D01*
X156714Y-60543D01*
X156523Y-59583D01*
X156267Y-59200D01*
X156534Y-58700D01*
X206294D01*
X211455Y-63860D01*
X212112Y-64365D01*
X212879Y-64683D01*
X213701Y-64791D01*
X219318D01*
X227955Y-73427D01*
X245256Y-90729D01*
X245914Y-91233D01*
X246680Y-91551D01*
X247502Y-91659D01*
X248324Y-91551D01*
X249090Y-91233D01*
X249748Y-90729D01*
X250253Y-90071D01*
X250571Y-89305D01*
X250679Y-88482D01*
X250571Y-87660D01*
X250253Y-86894D01*
X249748Y-86236D01*
X238332Y-74820D01*
X238524Y-74358D01*
X311676D01*
X315588Y-78270D01*
X316246Y-78775D01*
X317012Y-79092D01*
X317835Y-79200D01*
X318032D01*
X318854Y-79092D01*
X319620Y-78775D01*
X320278Y-78270D01*
X320783Y-77612D01*
X321100Y-76846D01*
X321208Y-76024D01*
X321100Y-75201D01*
X320783Y-74435D01*
X320278Y-73777D01*
X319620Y-73272D01*
X319545Y-73242D01*
X315238Y-68935D01*
X314580Y-68430D01*
X313814Y-68112D01*
X312992Y-68004D01*
X282394D01*
X282202Y-67542D01*
X295207Y-54538D01*
X295729Y-53756D01*
X295912Y-52835D01*
Y-49871D01*
X295979Y-49538D01*
Y-48670D01*
X296720D01*
Y-42371D01*
X296714D01*
Y-37172D01*
X296941D01*
X297863Y-36989D01*
X298644Y-36467D01*
X300794Y-34317D01*
X301316Y-33536D01*
X301499Y-32614D01*
Y-27180D01*
X301961Y-26989D01*
X304490Y-29518D01*
X305271Y-30040D01*
X305163Y-30523D01*
X304764Y-30444D01*
X303804Y-30635D01*
X302990Y-31179D01*
X302446Y-31993D01*
X302255Y-32953D01*
X302446Y-33913D01*
X302990Y-34727D01*
X303804Y-35271D01*
X304764Y-35462D01*
X305268Y-35361D01*
X326142D01*
X327063Y-35178D01*
X327845Y-34656D01*
X334224Y-28277D01*
X334295Y-28263D01*
X335109Y-27719D01*
X335653Y-26905D01*
X335844Y-25945D01*
X335653Y-24985D01*
X335109Y-24171D01*
X334295Y-23627D01*
X333923Y-23553D01*
X333758Y-23010D01*
X343174Y-13595D01*
X343674Y-13802D01*
Y-16929D01*
Y-33719D01*
X336533Y-40859D01*
X336028Y-41517D01*
X335711Y-42284D01*
X335603Y-43106D01*
Y-47476D01*
Y-84409D01*
X335711Y-85232D01*
X336028Y-85998D01*
X336533Y-86656D01*
X337191Y-87161D01*
X337957Y-87478D01*
X338779Y-87586D01*
X339602Y-87478D01*
X340368Y-87161D01*
X341026Y-86656D01*
X341531Y-85998D01*
X341848Y-85232D01*
X341956Y-84409D01*
Y-55799D01*
X342418Y-55608D01*
X344520Y-57709D01*
Y-64683D01*
X352590D01*
Y-57597D01*
X351732D01*
Y-57252D01*
X351624Y-56430D01*
X351306Y-55664D01*
X350801Y-55006D01*
X341956Y-46161D01*
Y-44422D01*
X349097Y-37281D01*
X349602Y-36623D01*
X349919Y-35857D01*
X350027Y-35035D01*
Y-28064D01*
X350527Y-27797D01*
X350941Y-28074D01*
X351902Y-28265D01*
X352862Y-28074D01*
X353676Y-27530D01*
X354219Y-26716D01*
X354410Y-25756D01*
X354300Y-25202D01*
Y9387D01*
X354391Y9843D01*
X354200Y10803D01*
X353656Y11616D01*
X352842Y12160D01*
X351882Y12351D01*
X350922Y12160D01*
X350527Y11897D01*
X350027Y12164D01*
Y16535D01*
X349919Y17358D01*
X349602Y18124D01*
X349097Y18782D01*
X317207Y50671D01*
X316549Y51176D01*
X315783Y51494D01*
X314961Y51602D01*
X313504D01*
Y56377D01*
X313759D01*
Y61889D01*
X306869D01*
Y56377D01*
X307205D01*
Y51602D01*
X227165D01*
X226343Y51494D01*
X225577Y51176D01*
X224919Y50671D01*
X224414Y50014D01*
X224097Y49247D01*
X223989Y48425D01*
X224097Y47603D01*
X224414Y46837D01*
X224538Y46676D01*
X224317Y46227D01*
X218332D01*
X206443Y58116D01*
X205662Y58639D01*
X204740Y58822D01*
X97020D01*
X96828Y59284D01*
X100426Y62881D01*
X100948Y63663D01*
X101131Y64584D01*
Y72496D01*
X102163Y73288D01*
X103047Y74440D01*
X103602Y75780D01*
X103792Y77219D01*
X103602Y78658D01*
X103047Y79999D01*
X102163Y81150D01*
X101012Y82034D01*
X99671Y82589D01*
X98232Y82779D01*
D02*
G37*
G36*
X319646Y83296D02*
X318686Y83105D01*
X317872Y82561D01*
X317328Y81748D01*
X317137Y80787D01*
X317237Y80283D01*
Y79187D01*
X314949Y76898D01*
X314449Y77105D01*
Y78622D01*
X306181D01*
Y69567D01*
X306451D01*
X306869Y69369D01*
Y63858D01*
X313759D01*
Y69369D01*
X314177Y69567D01*
X314449D01*
Y71686D01*
X315551D01*
X316473Y71869D01*
X316796Y72085D01*
X317237Y71850D01*
Y70118D01*
X317421Y69196D01*
X317943Y68415D01*
X323100Y63258D01*
X323882Y62735D01*
X324803Y62552D01*
X359910D01*
X360101Y62090D01*
X357880Y59868D01*
X357358Y59087D01*
X357174Y58165D01*
Y-39999D01*
X357074Y-40504D01*
X357265Y-41464D01*
X357809Y-42278D01*
X358623Y-42822D01*
X359583Y-43013D01*
X360087Y-42912D01*
X378732D01*
X379654Y-42729D01*
X380435Y-42207D01*
X387746Y-34896D01*
X388268Y-34115D01*
X388452Y-33193D01*
Y-17649D01*
X389865D01*
X390787Y-17465D01*
X391568Y-16943D01*
X394165Y-14347D01*
X394687Y-13566D01*
X394870Y-12644D01*
Y-7841D01*
X396264D01*
X397186Y-7658D01*
X397968Y-7136D01*
X400564Y-4540D01*
X401086Y-3758D01*
X401269Y-2837D01*
Y2017D01*
X402687D01*
X403609Y2200D01*
X404390Y2722D01*
X406986Y5319D01*
X407508Y6100D01*
X407692Y7022D01*
Y13873D01*
X407629Y14188D01*
X407773Y14909D01*
X407582Y15869D01*
X407038Y16683D01*
X406224Y17227D01*
X405264Y17418D01*
X404304Y17227D01*
X403490Y16683D01*
X402946Y15869D01*
X402755Y14909D01*
X402918Y14090D01*
X402875Y13873D01*
Y8019D01*
X401689Y6834D01*
X399369D01*
X398865Y6934D01*
X397905Y6743D01*
X397091Y6199D01*
X396547Y5385D01*
X396356Y4425D01*
X396452Y3941D01*
Y-1839D01*
X395267Y-3025D01*
X392947D01*
X392442Y-2924D01*
X391482Y-3115D01*
X390668Y-3659D01*
X390124Y-4473D01*
X389933Y-5433D01*
X390053Y-6036D01*
Y-11646D01*
X388868Y-12832D01*
X386548D01*
X386043Y-12731D01*
X385083Y-12922D01*
X384269Y-13466D01*
X383726Y-14280D01*
X383535Y-15240D01*
X383635Y-15745D01*
Y-32195D01*
X377735Y-38096D01*
X361991D01*
Y57168D01*
X370112Y65289D01*
X370112Y65289D01*
X373987Y69163D01*
X374509Y69944D01*
X374692Y70866D01*
Y74731D01*
X378340Y78379D01*
X389021D01*
X389921Y78200D01*
X390881Y78391D01*
X391695Y78935D01*
X392239Y79749D01*
X392430Y80709D01*
X392239Y81669D01*
X391695Y82483D01*
X390881Y83027D01*
X389921Y83218D01*
X389813Y83196D01*
X377343D01*
X376421Y83013D01*
X375640Y82490D01*
X370580Y77431D01*
X370058Y76650D01*
X369875Y75728D01*
Y71864D01*
X366706Y68695D01*
X366706Y68695D01*
X365380Y67369D01*
X325801D01*
X322054Y71116D01*
Y78189D01*
Y80283D01*
X322154Y80787D01*
X321964Y81748D01*
X321420Y82561D01*
X320606Y83105D01*
X319646Y83296D01*
D02*
G37*
G36*
X207457Y82965D02*
X206378Y82823D01*
X205372Y82406D01*
X204508Y81744D01*
X203846Y80880D01*
X203429Y79874D01*
X203287Y78795D01*
X203429Y77716D01*
X203846Y76710D01*
X204508Y75847D01*
X205372Y75184D01*
X206378Y74768D01*
X207457Y74626D01*
X208536Y74768D01*
X209541Y75184D01*
X210405Y75847D01*
X211068Y76710D01*
X211484Y77716D01*
X211626Y78795D01*
X211484Y79874D01*
X211068Y80880D01*
X210405Y81744D01*
X209541Y82406D01*
X208536Y82823D01*
X207457Y82965D01*
D02*
G37*
G36*
X242638Y77756D02*
X231614D01*
Y66732D01*
X242638D01*
Y77756D01*
D02*
G37*
G36*
X217457Y72965D02*
X216377Y72823D01*
X215372Y72406D01*
X214508Y71744D01*
X213846Y70880D01*
X213429Y69874D01*
X213287Y68795D01*
X213429Y67716D01*
X213846Y66711D01*
X214508Y65847D01*
X215372Y65184D01*
X216377Y64768D01*
X217457Y64626D01*
X218536Y64768D01*
X219541Y65184D01*
X220405Y65847D01*
X221068Y66711D01*
X221484Y67716D01*
X221626Y68795D01*
X221484Y69874D01*
X221068Y70880D01*
X220405Y71744D01*
X219541Y72406D01*
X218536Y72823D01*
X217457Y72965D01*
D02*
G37*
G36*
X197457D02*
X196378Y72823D01*
X195372Y72406D01*
X194508Y71744D01*
X193846Y70880D01*
X193429Y69874D01*
X193287Y68795D01*
X193429Y67716D01*
X193846Y66711D01*
X194508Y65847D01*
X195372Y65184D01*
X196378Y64768D01*
X197457Y64626D01*
X198536Y64768D01*
X199541Y65184D01*
X200405Y65847D01*
X201068Y66711D01*
X201484Y67716D01*
X201626Y68795D01*
X201484Y69874D01*
X201068Y70880D01*
X200405Y71744D01*
X199541Y72406D01*
X198536Y72823D01*
X197457Y72965D01*
D02*
G37*
G36*
X287559Y69989D02*
X286599Y69798D01*
X285785Y69254D01*
X285241Y68441D01*
X285050Y67480D01*
X285241Y66520D01*
X285785Y65706D01*
X286599Y65162D01*
X286971Y65088D01*
X287330Y64730D01*
X288111Y64208D01*
X289033Y64025D01*
X290632D01*
Y63283D01*
X296931D01*
Y63858D01*
X301529D01*
Y61889D01*
X296239D01*
Y56377D01*
X303129D01*
Y56760D01*
X303875Y56908D01*
X304657Y57430D01*
X305640Y58414D01*
X306162Y59195D01*
X306346Y60117D01*
Y65630D01*
X306162Y66552D01*
X305640Y67333D01*
X304657Y68317D01*
X303875Y68839D01*
X303129Y68987D01*
Y69369D01*
X296931D01*
Y69583D01*
X290632D01*
Y68842D01*
X290030D01*
X289688Y69183D01*
X288907Y69705D01*
X288552Y69776D01*
X288519Y69798D01*
X287559Y69989D01*
D02*
G37*
G36*
X411417Y70904D02*
X409874Y70752D01*
X408390Y70302D01*
X407022Y69571D01*
X405823Y68587D01*
X404839Y67388D01*
X404108Y66020D01*
X403657Y64536D01*
X403505Y62992D01*
X403657Y61449D01*
X404108Y59964D01*
X404839Y58596D01*
X405823Y57397D01*
X407022Y56414D01*
X408390Y55682D01*
X409874Y55232D01*
X411417Y55080D01*
X412961Y55232D01*
X414445Y55682D01*
X415813Y56414D01*
X417012Y57397D01*
X417996Y58596D01*
X418727Y59964D01*
X419177Y61449D01*
X419329Y62992D01*
X419177Y64536D01*
X418727Y66020D01*
X417996Y67388D01*
X417012Y68587D01*
X415813Y69571D01*
X414445Y70302D01*
X412961Y70752D01*
X411417Y70904D01*
D02*
G37*
G36*
X194244Y36862D02*
X193165Y36720D01*
X192159Y36304D01*
X191296Y35641D01*
X190633Y34778D01*
X190217Y33772D01*
X190075Y32693D01*
Y29937D01*
X190217Y28858D01*
X190633Y27852D01*
X191296Y26989D01*
X192159Y26326D01*
X193165Y25910D01*
X194244Y25767D01*
X195323Y25910D01*
X196329Y26326D01*
X197192Y26989D01*
X197855Y27852D01*
X198272Y28858D01*
X198414Y29937D01*
Y32693D01*
X198272Y33772D01*
X197855Y34778D01*
X197192Y35641D01*
X196329Y36304D01*
X195323Y36720D01*
X194244Y36862D01*
D02*
G37*
G36*
X184244D02*
X183165Y36720D01*
X182159Y36304D01*
X181296Y35641D01*
X180633Y34778D01*
X180217Y33772D01*
X180075Y32693D01*
Y29937D01*
X180217Y28858D01*
X180633Y27852D01*
X181296Y26989D01*
X182159Y26326D01*
X183165Y25910D01*
X184244Y25767D01*
X185323Y25910D01*
X186329Y26326D01*
X187192Y26989D01*
X187855Y27852D01*
X188272Y28858D01*
X188414Y29937D01*
Y32693D01*
X188272Y33772D01*
X187855Y34778D01*
X187192Y35641D01*
X186329Y36304D01*
X185323Y36720D01*
X184244Y36862D01*
D02*
G37*
G36*
X174244D02*
X173165Y36720D01*
X172159Y36304D01*
X171296Y35641D01*
X170633Y34778D01*
X170217Y33772D01*
X170075Y32693D01*
Y29937D01*
X170217Y28858D01*
X170633Y27852D01*
X171296Y26989D01*
X172159Y26326D01*
X173165Y25910D01*
X174244Y25767D01*
X175323Y25910D01*
X176329Y26326D01*
X177192Y26989D01*
X177855Y27852D01*
X178272Y28858D01*
X178414Y29937D01*
Y32693D01*
X178272Y33772D01*
X177855Y34778D01*
X177192Y35641D01*
X176329Y36304D01*
X175323Y36720D01*
X174244Y36862D01*
D02*
G37*
G36*
X164244D02*
X163165Y36720D01*
X162159Y36304D01*
X161296Y35641D01*
X160633Y34778D01*
X160217Y33772D01*
X160075Y32693D01*
Y29937D01*
X160217Y28858D01*
X160633Y27852D01*
X161296Y26989D01*
X162159Y26326D01*
X163165Y25910D01*
X164244Y25767D01*
X165323Y25910D01*
X166329Y26326D01*
X167192Y26989D01*
X167855Y27852D01*
X168272Y28858D01*
X168414Y29937D01*
Y32693D01*
X168272Y33772D01*
X167855Y34778D01*
X167192Y35641D01*
X166329Y36304D01*
X165323Y36720D01*
X164244Y36862D01*
D02*
G37*
G36*
X154244D02*
X153165Y36720D01*
X152159Y36304D01*
X151296Y35641D01*
X150633Y34778D01*
X150217Y33772D01*
X150075Y32693D01*
Y29937D01*
X150217Y28858D01*
X150633Y27852D01*
X151296Y26989D01*
X152159Y26326D01*
X153165Y25910D01*
X154244Y25767D01*
X155323Y25910D01*
X156329Y26326D01*
X157192Y26989D01*
X157855Y27852D01*
X158272Y28858D01*
X158414Y29937D01*
Y32693D01*
X158272Y33772D01*
X157855Y34778D01*
X157192Y35641D01*
X156329Y36304D01*
X155323Y36720D01*
X154244Y36862D01*
D02*
G37*
G36*
X144244D02*
X143165Y36720D01*
X142159Y36304D01*
X141296Y35641D01*
X140633Y34778D01*
X140217Y33772D01*
X140075Y32693D01*
Y29937D01*
X140217Y28858D01*
X140633Y27852D01*
X141296Y26989D01*
X142159Y26326D01*
X143165Y25910D01*
X144244Y25767D01*
X145323Y25910D01*
X146329Y26326D01*
X147192Y26989D01*
X147855Y27852D01*
X148272Y28858D01*
X148414Y29937D01*
Y32693D01*
X148272Y33772D01*
X147855Y34778D01*
X147192Y35641D01*
X146329Y36304D01*
X145323Y36720D01*
X144244Y36862D01*
D02*
G37*
G36*
X44244D02*
X43165Y36720D01*
X42159Y36304D01*
X41296Y35641D01*
X40633Y34778D01*
X40217Y33772D01*
X40075Y32693D01*
Y29937D01*
X40217Y28858D01*
X40633Y27852D01*
X41296Y26989D01*
X42159Y26326D01*
X43165Y25910D01*
X44244Y25767D01*
X45323Y25910D01*
X46329Y26326D01*
X47192Y26989D01*
X47855Y27852D01*
X48272Y28858D01*
X48414Y29937D01*
Y32693D01*
X48272Y33772D01*
X47855Y34778D01*
X47192Y35641D01*
X46329Y36304D01*
X45323Y36720D01*
X44244Y36862D01*
D02*
G37*
G36*
X232934Y-2171D02*
X228997D01*
X227558Y-2361D01*
X226218Y-2916D01*
X225066Y-3799D01*
X224183Y-4951D01*
X223627Y-6292D01*
X223438Y-7730D01*
X223627Y-9169D01*
X224183Y-10510D01*
X225066Y-11661D01*
X226218Y-12545D01*
X227558Y-13100D01*
X228997Y-13290D01*
X232934D01*
X234373Y-13100D01*
X235714Y-12545D01*
X236865Y-11661D01*
X237749Y-10510D01*
X238304Y-9169D01*
X238494Y-7730D01*
X238304Y-6292D01*
X237749Y-4951D01*
X236865Y-3799D01*
X235714Y-2916D01*
X234373Y-2361D01*
X232934Y-2171D01*
D02*
G37*
G36*
Y-21856D02*
X228997D01*
X227558Y-22046D01*
X226218Y-22601D01*
X225066Y-23484D01*
X224183Y-24636D01*
X223627Y-25977D01*
X223438Y-27415D01*
X223627Y-28854D01*
X224183Y-30195D01*
X225066Y-31346D01*
X226218Y-32230D01*
X227558Y-32785D01*
X228997Y-32975D01*
X232934D01*
X234373Y-32785D01*
X235714Y-32230D01*
X236865Y-31346D01*
X237749Y-30195D01*
X238304Y-28854D01*
X238494Y-27415D01*
X238304Y-25977D01*
X237749Y-24636D01*
X236865Y-23484D01*
X235714Y-22601D01*
X234373Y-22046D01*
X232934Y-21856D01*
D02*
G37*
G36*
X137126Y-19066D02*
X136166Y-19257D01*
X135352Y-19801D01*
X134808Y-20615D01*
X134800Y-20654D01*
X134599Y-20954D01*
X134416Y-21876D01*
Y-24028D01*
X127512Y-30932D01*
X127084Y-31218D01*
X126540Y-32032D01*
X126349Y-32992D01*
X126540Y-33952D01*
X127084Y-34766D01*
X127898Y-35310D01*
X128858Y-35501D01*
X129818Y-35310D01*
X130632Y-34766D01*
X130918Y-34338D01*
X138528Y-26729D01*
X139050Y-25947D01*
X139233Y-25026D01*
Y-22850D01*
X139444Y-22535D01*
X139635Y-21575D01*
X139444Y-20615D01*
X138900Y-19801D01*
X138086Y-19257D01*
X137126Y-19066D01*
D02*
G37*
G36*
X216949Y-29674D02*
X208878D01*
Y-36761D01*
X216949D01*
Y-36367D01*
X222617D01*
Y-30068D01*
X216949D01*
Y-29674D01*
D02*
G37*
G36*
X259509Y-29168D02*
X257563Y-29322D01*
X255665Y-29777D01*
X253861Y-30524D01*
X252197Y-31544D01*
X250713Y-32812D01*
X249445Y-34296D01*
X248425Y-35961D01*
X247678Y-37764D01*
X247222Y-39662D01*
X247069Y-41608D01*
X247222Y-43554D01*
X247678Y-45452D01*
X248425Y-47256D01*
X249445Y-48920D01*
X250713Y-50405D01*
X252197Y-51673D01*
X253861Y-52692D01*
X255665Y-53439D01*
X257563Y-53895D01*
X259509Y-54048D01*
X261455Y-53895D01*
X263353Y-53439D01*
X265157Y-52692D01*
X266821Y-51673D01*
X268305Y-50405D01*
X269573Y-48920D01*
X270593Y-47256D01*
X271340Y-45452D01*
X271796Y-43554D01*
X271949Y-41608D01*
X271796Y-39662D01*
X271340Y-37764D01*
X270593Y-35961D01*
X269573Y-34296D01*
X268305Y-32812D01*
X266821Y-31544D01*
X265157Y-30524D01*
X263353Y-29777D01*
X261455Y-29322D01*
X259509Y-29168D01*
D02*
G37*
G36*
X369449Y-49067D02*
X368627Y-49176D01*
X367860Y-49493D01*
X367202Y-49998D01*
X366698Y-50656D01*
X366380Y-51422D01*
X366272Y-52244D01*
Y-57627D01*
X365356D01*
Y-64714D01*
X373427D01*
Y-57627D01*
X372626D01*
Y-52244D01*
X372517Y-51422D01*
X372200Y-50656D01*
X371695Y-49998D01*
X371037Y-49493D01*
X370271Y-49176D01*
X369449Y-49067D01*
D02*
G37*
G36*
X411417Y-55080D02*
X409874Y-55232D01*
X408390Y-55682D01*
X407022Y-56414D01*
X405823Y-57397D01*
X404839Y-58596D01*
X404108Y-59964D01*
X403657Y-61449D01*
X403505Y-62992D01*
X403657Y-64536D01*
X404108Y-66020D01*
X404839Y-67388D01*
X405823Y-68587D01*
X407022Y-69571D01*
X408390Y-70302D01*
X409874Y-70752D01*
X411417Y-70904D01*
X412961Y-70752D01*
X414445Y-70302D01*
X415813Y-69571D01*
X417012Y-68587D01*
X417996Y-67388D01*
X418727Y-66020D01*
X419177Y-64536D01*
X419329Y-62992D01*
X419177Y-61449D01*
X418727Y-59964D01*
X417996Y-58596D01*
X417012Y-57397D01*
X415813Y-56414D01*
X414445Y-55682D01*
X412961Y-55232D01*
X411417Y-55080D01*
D02*
G37*
G36*
X352590Y-65471D02*
X344520D01*
Y-72557D01*
X352590D01*
Y-72164D01*
X358258D01*
Y-65864D01*
X352590D01*
Y-65471D01*
D02*
G37*
G36*
X373427Y-65501D02*
X365356D01*
Y-72588D01*
X373427D01*
Y-72194D01*
X379095D01*
Y-65895D01*
X373427D01*
Y-65501D01*
D02*
G37*
G36*
X114205Y-63138D02*
X113126Y-63280D01*
X112120Y-63696D01*
X111256Y-64359D01*
X110594Y-65222D01*
X110177Y-66228D01*
X110035Y-67307D01*
Y-70063D01*
X110177Y-71142D01*
X110594Y-72148D01*
X110328Y-72623D01*
X108016D01*
X107795Y-72175D01*
X107816Y-72148D01*
X108232Y-71142D01*
X108374Y-70063D01*
Y-67307D01*
X108232Y-66228D01*
X107816Y-65222D01*
X107153Y-64359D01*
X106290Y-63696D01*
X105284Y-63280D01*
X104205Y-63138D01*
X103126Y-63280D01*
X102120Y-63696D01*
X101256Y-64359D01*
X100594Y-65222D01*
X100177Y-66228D01*
X100035Y-67307D01*
Y-70063D01*
X100177Y-71142D01*
X100594Y-72148D01*
X100614Y-72175D01*
X100393Y-72623D01*
X98016D01*
X97795Y-72175D01*
X97816Y-72148D01*
X98232Y-71142D01*
X98374Y-70063D01*
Y-67307D01*
X98232Y-66228D01*
X97816Y-65222D01*
X97153Y-64359D01*
X96289Y-63696D01*
X95284Y-63280D01*
X94205Y-63138D01*
X93126Y-63280D01*
X92120Y-63696D01*
X91256Y-64359D01*
X90594Y-65222D01*
X90177Y-66228D01*
X90035Y-67307D01*
Y-70063D01*
X90177Y-71142D01*
X90594Y-72148D01*
X91256Y-73011D01*
X92120Y-73674D01*
X92130Y-73707D01*
X91887Y-74071D01*
X91696Y-75032D01*
X91887Y-75991D01*
X92431Y-76806D01*
X92692Y-76980D01*
X92541Y-77480D01*
X90965D01*
Y-78615D01*
X88124D01*
X86264Y-76756D01*
X85979Y-76328D01*
X85165Y-75784D01*
X84205Y-75594D01*
X83245Y-75784D01*
X82431Y-76328D01*
X81887Y-77142D01*
X81696Y-78102D01*
X81887Y-79062D01*
X82431Y-79876D01*
X82858Y-80162D01*
X85423Y-82727D01*
X86204Y-83249D01*
X87126Y-83432D01*
X90965D01*
Y-84567D01*
X99035D01*
Y-77480D01*
X99519Y-77440D01*
X109841D01*
X113776Y-81375D01*
Y-85055D01*
X121846D01*
Y-77969D01*
X117182D01*
X113881Y-74667D01*
X114102Y-74219D01*
X114205Y-74233D01*
X115284Y-74090D01*
X116289Y-73674D01*
X117153Y-73011D01*
X117816Y-72148D01*
X118232Y-71142D01*
X118374Y-70063D01*
Y-67307D01*
X118232Y-66228D01*
X117816Y-65222D01*
X117153Y-64359D01*
X116289Y-63696D01*
X115284Y-63280D01*
X114205Y-63138D01*
D02*
G37*
G36*
X194205D02*
X193126Y-63280D01*
X192120Y-63696D01*
X191256Y-64359D01*
X190594Y-65222D01*
X190177Y-66228D01*
X190035Y-67307D01*
Y-70063D01*
X190177Y-71142D01*
X190594Y-72148D01*
X191256Y-73011D01*
X192120Y-73674D01*
X193126Y-74090D01*
X194205Y-74233D01*
X195284Y-74090D01*
X196290Y-73674D01*
X197153Y-73011D01*
X197816Y-72148D01*
X198232Y-71142D01*
X198374Y-70063D01*
Y-67307D01*
X198232Y-66228D01*
X197816Y-65222D01*
X197153Y-64359D01*
X196290Y-63696D01*
X195284Y-63280D01*
X194205Y-63138D01*
D02*
G37*
G36*
X184205D02*
X183126Y-63280D01*
X182120Y-63696D01*
X181256Y-64359D01*
X180594Y-65222D01*
X180177Y-66228D01*
X180035Y-67307D01*
Y-70063D01*
X180177Y-71142D01*
X180594Y-72148D01*
X181256Y-73011D01*
X182120Y-73674D01*
X183126Y-74090D01*
X184205Y-74233D01*
X185284Y-74090D01*
X186290Y-73674D01*
X187153Y-73011D01*
X187816Y-72148D01*
X188232Y-71142D01*
X188374Y-70063D01*
Y-67307D01*
X188232Y-66228D01*
X187816Y-65222D01*
X187153Y-64359D01*
X186290Y-63696D01*
X185284Y-63280D01*
X184205Y-63138D01*
D02*
G37*
G36*
X174205D02*
X173126Y-63280D01*
X172120Y-63696D01*
X171256Y-64359D01*
X170594Y-65222D01*
X170177Y-66228D01*
X170035Y-67307D01*
Y-70063D01*
X170177Y-71142D01*
X170594Y-72148D01*
X171256Y-73011D01*
X172120Y-73674D01*
X173126Y-74090D01*
X174205Y-74233D01*
X175284Y-74090D01*
X176289Y-73674D01*
X177153Y-73011D01*
X177816Y-72148D01*
X178232Y-71142D01*
X178374Y-70063D01*
Y-67307D01*
X178232Y-66228D01*
X177816Y-65222D01*
X177153Y-64359D01*
X176289Y-63696D01*
X175284Y-63280D01*
X174205Y-63138D01*
D02*
G37*
G36*
X164205D02*
X163126Y-63280D01*
X162120Y-63696D01*
X161256Y-64359D01*
X160594Y-65222D01*
X160177Y-66228D01*
X160035Y-67307D01*
Y-70063D01*
X160177Y-71142D01*
X160594Y-72148D01*
X161256Y-73011D01*
X162120Y-73674D01*
X163126Y-74090D01*
X164205Y-74233D01*
X165284Y-74090D01*
X166289Y-73674D01*
X167153Y-73011D01*
X167816Y-72148D01*
X168232Y-71142D01*
X168374Y-70063D01*
Y-67307D01*
X168232Y-66228D01*
X167816Y-65222D01*
X167153Y-64359D01*
X166289Y-63696D01*
X165284Y-63280D01*
X164205Y-63138D01*
D02*
G37*
G36*
X124205D02*
X123126Y-63280D01*
X122120Y-63696D01*
X121256Y-64359D01*
X120594Y-65222D01*
X120177Y-66228D01*
X120035Y-67307D01*
Y-70063D01*
X120177Y-71142D01*
X120594Y-72148D01*
X121256Y-73011D01*
X122120Y-73674D01*
X123126Y-74090D01*
X124205Y-74233D01*
X125284Y-74090D01*
X126289Y-73674D01*
X127153Y-73011D01*
X127816Y-72148D01*
X128232Y-71142D01*
X128374Y-70063D01*
Y-67307D01*
X128232Y-66228D01*
X127816Y-65222D01*
X127153Y-64359D01*
X126289Y-63696D01*
X125284Y-63280D01*
X124205Y-63138D01*
D02*
G37*
G36*
X84205D02*
X83126Y-63280D01*
X82120Y-63696D01*
X81256Y-64359D01*
X80594Y-65222D01*
X80177Y-66228D01*
X80035Y-67307D01*
Y-70063D01*
X80177Y-71142D01*
X80594Y-72148D01*
X81256Y-73011D01*
X82120Y-73674D01*
X83126Y-74090D01*
X84205Y-74233D01*
X85284Y-74090D01*
X86290Y-73674D01*
X87153Y-73011D01*
X87816Y-72148D01*
X88232Y-71142D01*
X88374Y-70063D01*
Y-67307D01*
X88232Y-66228D01*
X87816Y-65222D01*
X87153Y-64359D01*
X86290Y-63696D01*
X85284Y-63280D01*
X84205Y-63138D01*
D02*
G37*
G36*
X74205D02*
X73126Y-63280D01*
X72120Y-63696D01*
X71256Y-64359D01*
X70594Y-65222D01*
X70177Y-66228D01*
X70035Y-67307D01*
Y-70063D01*
X70177Y-71142D01*
X70594Y-72148D01*
X71256Y-73011D01*
X72120Y-73674D01*
X73126Y-74090D01*
X74205Y-74233D01*
X75284Y-74090D01*
X76289Y-73674D01*
X77153Y-73011D01*
X77816Y-72148D01*
X78232Y-71142D01*
X78374Y-70063D01*
Y-67307D01*
X78232Y-66228D01*
X77816Y-65222D01*
X77153Y-64359D01*
X76289Y-63696D01*
X75284Y-63280D01*
X74205Y-63138D01*
D02*
G37*
G36*
X64205D02*
X63126Y-63280D01*
X62120Y-63696D01*
X61256Y-64359D01*
X60594Y-65222D01*
X60177Y-66228D01*
X60035Y-67307D01*
Y-70063D01*
X60177Y-71142D01*
X60594Y-72148D01*
X61256Y-73011D01*
X62120Y-73674D01*
X63126Y-74090D01*
X64205Y-74233D01*
X65284Y-74090D01*
X66290Y-73674D01*
X67153Y-73011D01*
X67816Y-72148D01*
X68232Y-71142D01*
X68374Y-70063D01*
Y-67307D01*
X68232Y-66228D01*
X67816Y-65222D01*
X67153Y-64359D01*
X66290Y-63696D01*
X65284Y-63280D01*
X64205Y-63138D01*
D02*
G37*
G36*
X54205D02*
X53126Y-63280D01*
X52120Y-63696D01*
X51256Y-64359D01*
X50594Y-65222D01*
X50177Y-66228D01*
X50035Y-67307D01*
Y-70063D01*
X50177Y-71142D01*
X50594Y-72148D01*
X51256Y-73011D01*
X52120Y-73674D01*
X53126Y-74090D01*
X54205Y-74233D01*
X55284Y-74090D01*
X56289Y-73674D01*
X57153Y-73011D01*
X57816Y-72148D01*
X58232Y-71142D01*
X58374Y-70063D01*
Y-67307D01*
X58232Y-66228D01*
X57816Y-65222D01*
X57153Y-64359D01*
X56289Y-63696D01*
X55284Y-63280D01*
X54205Y-63138D01*
D02*
G37*
G36*
X44205D02*
X43126Y-63280D01*
X42120Y-63696D01*
X41256Y-64359D01*
X40594Y-65222D01*
X40177Y-66228D01*
X40035Y-67307D01*
Y-70063D01*
X40177Y-71142D01*
X40594Y-72148D01*
X41256Y-73011D01*
X42120Y-73674D01*
X43126Y-74090D01*
X44205Y-74233D01*
X45284Y-74090D01*
X46290Y-73674D01*
X47153Y-73011D01*
X47816Y-72148D01*
X48232Y-71142D01*
X48374Y-70063D01*
Y-67307D01*
X48232Y-66228D01*
X47816Y-65222D01*
X47153Y-64359D01*
X46290Y-63696D01*
X45284Y-63280D01*
X44205Y-63138D01*
D02*
G37*
G36*
X34205D02*
X33126Y-63280D01*
X32120Y-63696D01*
X31256Y-64359D01*
X30594Y-65222D01*
X30177Y-66228D01*
X30035Y-67307D01*
Y-70063D01*
X30177Y-71142D01*
X30594Y-72148D01*
X31256Y-73011D01*
X32120Y-73674D01*
X33126Y-74090D01*
X34205Y-74233D01*
X35284Y-74090D01*
X36290Y-73674D01*
X37153Y-73011D01*
X37816Y-72148D01*
X38232Y-71142D01*
X38374Y-70063D01*
Y-67307D01*
X38232Y-66228D01*
X37816Y-65222D01*
X37153Y-64359D01*
X36290Y-63696D01*
X35284Y-63280D01*
X34205Y-63138D01*
D02*
G37*
G36*
X24205D02*
X23126Y-63280D01*
X22120Y-63696D01*
X21256Y-64359D01*
X20594Y-65222D01*
X20177Y-66228D01*
X20035Y-67307D01*
Y-70063D01*
X20177Y-71142D01*
X20594Y-72148D01*
X21256Y-73011D01*
X22120Y-73674D01*
X23126Y-74090D01*
X24205Y-74233D01*
X25284Y-74090D01*
X26289Y-73674D01*
X27153Y-73011D01*
X27816Y-72148D01*
X28232Y-71142D01*
X28374Y-70063D01*
Y-67307D01*
X28232Y-66228D01*
X27816Y-65222D01*
X27153Y-64359D01*
X26289Y-63696D01*
X25284Y-63280D01*
X24205Y-63138D01*
D02*
G37*
G36*
X14205D02*
X13126Y-63280D01*
X12120Y-63696D01*
X11256Y-64359D01*
X10594Y-65222D01*
X10177Y-66228D01*
X10035Y-67307D01*
Y-70063D01*
X10177Y-71142D01*
X10594Y-72148D01*
X11256Y-73011D01*
X12120Y-73674D01*
X13126Y-74090D01*
X14205Y-74233D01*
X15284Y-74090D01*
X16289Y-73674D01*
X17153Y-73011D01*
X17816Y-72148D01*
X18232Y-71142D01*
X18374Y-70063D01*
Y-67307D01*
X18232Y-66228D01*
X17816Y-65222D01*
X17153Y-64359D01*
X16289Y-63696D01*
X15284Y-63280D01*
X14205Y-63138D01*
D02*
G37*
G36*
X74386Y-75519D02*
X73426Y-75710D01*
X72612Y-76253D01*
X72542Y-76358D01*
X72042Y-76206D01*
Y-75620D01*
X62790D01*
Y-77434D01*
X40743Y-77434D01*
Y-75709D01*
X31491D01*
Y-77434D01*
X28969D01*
X28464Y-77334D01*
X27504Y-77525D01*
X26691Y-78068D01*
X26147Y-78882D01*
X25956Y-79842D01*
X26147Y-80803D01*
X26691Y-81616D01*
X27504Y-82160D01*
X28464Y-82351D01*
X28969Y-82251D01*
X31491D01*
Y-83976D01*
X40743D01*
Y-82251D01*
X62790Y-82251D01*
Y-83888D01*
X72011D01*
Y-88898D01*
X71303D01*
Y-93425D01*
X62790D01*
Y-95151D01*
X40743D01*
Y-93425D01*
X31491D01*
Y-101693D01*
X40743D01*
Y-99967D01*
X62790D01*
Y-101693D01*
X72042D01*
Y-100709D01*
X77602D01*
Y-95197D01*
X89095D01*
Y-88898D01*
X77602D01*
Y-88898D01*
X76828D01*
Y-78364D01*
X76895Y-78028D01*
X76704Y-77068D01*
X76160Y-76253D01*
X75346Y-75710D01*
X74386Y-75519D01*
D02*
G37*
G36*
X99035Y-85354D02*
X90965D01*
Y-92441D01*
X99035D01*
Y-92047D01*
X104449D01*
Y-85748D01*
X99035D01*
Y-85354D01*
D02*
G37*
G36*
X121846Y-85843D02*
X113776D01*
Y-92929D01*
X121846D01*
Y-92535D01*
X127260D01*
Y-86236D01*
X121846D01*
Y-85843D01*
D02*
G37*
%LPD*%
G36*
X138385Y53543D02*
X129258Y44416D01*
X100398D01*
X99476Y44233D01*
X98695Y43711D01*
X96054Y41070D01*
X92629D01*
X92532Y41570D01*
X93243Y42045D01*
X93786Y42859D01*
X93977Y43819D01*
X93860Y44411D01*
Y45513D01*
X94583D01*
Y51812D01*
X93842D01*
Y52768D01*
X93796Y53001D01*
Y54005D01*
X138194D01*
X138385Y53543D01*
D02*
G37*
G36*
X331332Y9806D02*
Y4245D01*
X331231Y3740D01*
X331422Y2780D01*
X331966Y1966D01*
X332780Y1422D01*
X333740Y1231D01*
X334700Y1422D01*
X335477Y1942D01*
X335948Y1835D01*
X335977Y1826D01*
Y-8506D01*
X335910Y-8606D01*
X335719Y-9567D01*
X335910Y-10527D01*
X336454Y-11340D01*
X337268Y-11884D01*
X337418Y-11914D01*
X337563Y-12393D01*
X324550Y-25407D01*
X307190D01*
X301499Y-19715D01*
Y-2911D01*
X301999Y-2650D01*
X302874Y-2824D01*
X303834Y-2633D01*
X304648Y-2089D01*
X305192Y-1275D01*
X305383Y-315D01*
X305282Y190D01*
Y10853D01*
X316346Y21917D01*
X316774Y22202D01*
X317318Y23016D01*
X317348Y23167D01*
X317826Y23312D01*
X331332Y9806D01*
D02*
G37*
G36*
X102059Y-17379D02*
Y-45984D01*
X102168Y-46806D01*
X102485Y-47573D01*
X102990Y-48230D01*
X111662Y-56903D01*
X111434Y-57382D01*
X110646Y-57539D01*
X109865Y-58061D01*
X109386Y-58539D01*
X98590Y-47743D01*
Y-15780D01*
X98690Y-15276D01*
X98551Y-14578D01*
X99012Y-14331D01*
X102059Y-17379D01*
D02*
G37*
%LPC*%
G36*
X327646Y6942D02*
X326686Y6751D01*
X325872Y6207D01*
X325586Y5779D01*
X323829Y4023D01*
X309678D01*
X309173Y4123D01*
X308213Y3932D01*
X307399Y3388D01*
X306855Y2574D01*
X306664Y1614D01*
X306855Y654D01*
X307399Y-160D01*
X308213Y-704D01*
X309173Y-895D01*
X309678Y-794D01*
X324827D01*
X325748Y-611D01*
X326530Y-89D01*
X328992Y2373D01*
X329420Y2659D01*
X329963Y3473D01*
X330154Y4433D01*
X329963Y5393D01*
X329420Y6207D01*
X328606Y6751D01*
X327646Y6942D01*
D02*
G37*
%LPD*%
D14*
X80039Y-92047D02*
D03*
X80039Y-97559D02*
D03*
X85945Y-97559D02*
D03*
Y-92047D02*
D03*
X124110Y-89386D02*
D03*
Y-83874D02*
D03*
X101299Y-88898D02*
D03*
Y-83386D02*
D03*
X219467Y-33217D02*
D03*
Y-27706D02*
D03*
X355109Y-69014D02*
D03*
Y-63502D02*
D03*
X375945Y-69044D02*
D03*
Y-63532D02*
D03*
X293781Y60921D02*
D03*
Y66433D02*
D03*
X76016Y60890D02*
D03*
X76016Y55378D02*
D03*
X23689Y58154D02*
D03*
Y52642D02*
D03*
X38779Y57874D02*
D03*
Y52363D02*
D03*
X81669Y60922D02*
D03*
Y55410D02*
D03*
X74453Y-92047D02*
D03*
Y-97559D02*
D03*
D15*
X117811Y-81512D02*
D03*
Y-89386D02*
D03*
X95000Y-81024D02*
D03*
Y-88898D02*
D03*
X212914Y-25343D02*
D03*
Y-33217D02*
D03*
X348555Y-61140D02*
D03*
Y-69014D02*
D03*
X369391Y-61170D02*
D03*
Y-69044D02*
D03*
D16*
X288058Y-45521D02*
D03*
X293570D02*
D03*
X293564Y-39997D02*
D03*
X288052Y-39997D02*
D03*
Y-34764D02*
D03*
X293564D02*
D03*
X288052Y-382D02*
D03*
X293564D02*
D03*
X293564Y4879D02*
D03*
X288052D02*
D03*
Y10409D02*
D03*
X293564D02*
D03*
X304842Y53976D02*
D03*
X310354D02*
D03*
X33858Y46063D02*
D03*
X28346D02*
D03*
X19114Y45976D02*
D03*
X13602Y45976D02*
D03*
X91434Y48662D02*
D03*
X85922D02*
D03*
X71315Y48587D02*
D03*
X65803D02*
D03*
D17*
X299684Y66614D02*
D03*
Y62873D02*
D03*
Y59133D02*
D03*
X310314D02*
D03*
Y66614D02*
D03*
D18*
X310315Y74094D02*
D03*
X298119Y74138D02*
D03*
D19*
X30906Y57846D02*
D03*
X33465Y50563D02*
D03*
X28346D02*
D03*
X16358Y57563D02*
D03*
X18917Y50280D02*
D03*
X13799D02*
D03*
X88678Y60249D02*
D03*
X91237Y52965D02*
D03*
X86119D02*
D03*
X68559Y60173D02*
D03*
X71118Y52890D02*
D03*
X66000D02*
D03*
D20*
X67416Y-97559D02*
D03*
X36117D02*
D03*
X67416Y-79754D02*
D03*
X36117Y-79842D02*
D03*
D40*
X38232Y58421D02*
Y77219D01*
Y58421D02*
X38779Y57874D01*
X311838Y41614D02*
X341709Y11744D01*
X86020Y48761D02*
X86119Y48662D01*
X86020Y48761D02*
Y52867D01*
X341709Y-11654D02*
Y11744D01*
X86020Y52867D02*
X86119Y52965D01*
X325547Y-27815D02*
X341709Y-11654D01*
X48583Y52363D02*
X52949Y56728D01*
X38779Y52363D02*
X48583D01*
X37992Y53150D02*
X38779Y52363D01*
X36187Y53150D02*
X37992D01*
X35345Y53992D02*
X36187Y53150D01*
X26466Y53992D02*
X35345D01*
X65803Y45052D02*
Y48587D01*
X66726Y44130D02*
X84999D01*
X66000Y48587D02*
Y52890D01*
X65803Y45052D02*
X66726Y44130D01*
X43362Y48587D02*
X65803D01*
X80006Y18937D02*
X80284Y19214D01*
X81021D02*
X81059Y19252D01*
X80284Y19214D02*
X81021D01*
X63937Y18937D02*
X80006D01*
X59165Y23709D02*
X63937Y18937D01*
X59165Y41372D02*
X59366Y41573D01*
X59165Y23709D02*
Y41372D01*
X59366Y41573D02*
Y41626D01*
X91451Y43836D02*
Y48645D01*
Y43836D02*
X91469Y43819D01*
X91434Y48662D02*
X91451Y48645D01*
X64319Y38662D02*
X97051D01*
X100398Y42008D01*
X130256D01*
X88678Y60249D02*
X94387D01*
X98723Y64584D01*
X71216Y48587D02*
Y52791D01*
X77270Y48581D02*
X77276Y48575D01*
X71315Y48587D02*
X71321Y48581D01*
X77270D01*
X84999Y44130D02*
X85922Y45052D01*
Y48662D01*
X86119Y52965D02*
Y55491D01*
X40878Y46102D02*
X43362Y48587D01*
X52949Y56728D02*
X72589D01*
X73151Y56166D01*
X75260D01*
X76016Y55410D02*
X81669D01*
X75260Y56166D02*
X76016Y55410D01*
X76016Y74933D02*
X78302Y77219D01*
X88232D01*
X76016Y60890D02*
Y74933D01*
X71591Y60173D02*
X72307Y60890D01*
X76016D01*
X68559Y60173D02*
X71591D01*
X87041Y56413D02*
X204740D01*
X86119Y55491D02*
X87041Y56413D01*
X204740D02*
X217335Y43819D01*
X85819Y60922D02*
X86505Y60235D01*
X88664D01*
X88678Y60249D01*
X81669Y60922D02*
X85819D01*
X130256Y42008D02*
X141364Y53116D01*
X197514D01*
X135039Y38622D02*
X141575Y45158D01*
X103937Y38622D02*
X135039D01*
X133063Y-60543D02*
X154205D01*
X153679Y-36837D02*
X154067Y-37225D01*
X153050Y-36837D02*
X153679D01*
X127523Y-37225D02*
X139365D01*
X140054Y-36535D01*
X152323D01*
X154067Y-37225D02*
X166752D01*
X150535Y-16177D02*
Y-9051D01*
X161240Y1653D01*
X141977Y-5559D02*
X150234Y-13817D01*
X139586Y706D02*
X140370Y1489D01*
Y10858D01*
X101557Y-4695D02*
X105205D01*
X105992Y-5482D02*
X139537D01*
X101300Y-4374D02*
Y15120D01*
X101268Y-4405D02*
X101300Y-4374D01*
X101268Y-4405D02*
X101557Y-4695D01*
X105205D02*
X105992Y-5482D01*
X93853Y22567D02*
X101300Y15120D01*
X139537Y-5482D02*
X139586Y-5531D01*
X23114Y45140D02*
X24037Y46063D01*
X28346D01*
X23114Y41240D02*
Y45140D01*
X19075Y37862D02*
Y45937D01*
Y37862D02*
X24244Y32693D01*
X19075Y45937D02*
X19114Y45976D01*
X64228Y38752D02*
X64319Y38662D01*
X24244Y31315D02*
Y32693D01*
X30906Y57846D02*
X37716D01*
X25904Y53429D02*
X26466Y53992D01*
X24476Y53429D02*
X25904D01*
X23689Y52642D02*
X24476Y53429D01*
X33465Y50563D02*
X33661Y50366D01*
X33858Y46063D02*
X33858D01*
Y35441D02*
Y46063D01*
X33850Y35433D02*
X33858Y35441D01*
X19634Y57563D02*
X20225Y58154D01*
X23689D01*
X16358Y57563D02*
X19634D01*
X23555Y66790D02*
X23630Y66715D01*
Y59150D02*
Y66715D01*
X33661Y46260D02*
Y50366D01*
X13636Y41333D02*
Y45943D01*
Y41333D02*
X13669Y41299D01*
X13602Y45976D02*
X13636Y45943D01*
X13799Y45780D02*
Y50280D01*
X299684Y66614D02*
X302954D01*
X289033Y66433D02*
X293781D01*
X287985Y67480D02*
X289033Y66433D01*
X287559Y67480D02*
X287985D01*
X293962Y66614D02*
X299684D01*
X293781Y66433D02*
X293962Y66614D01*
X142102Y94165D02*
X144587Y96650D01*
X142102Y89784D02*
Y94165D01*
X144587Y96650D02*
X164594D01*
X177281Y15791D02*
X179607Y13465D01*
X217441D01*
X287217Y20854D02*
X293564Y14507D01*
X135710Y19646D02*
X136918Y20854D01*
X176854Y15791D02*
X177281D01*
X156240Y16917D02*
X176931Y-3773D01*
X190851D01*
X136918Y20854D02*
X287217D01*
X190851Y-3773D02*
X212422Y-25343D01*
X114331Y19646D02*
X135710D01*
X62268Y-103823D02*
X77382D01*
X79256Y-101949D01*
X85945Y-101026D02*
Y-97559D01*
X85022Y-101949D02*
X85945Y-101026D01*
X79256Y-101949D02*
X85022D01*
X79256D02*
X80039Y-101165D01*
Y-97559D01*
X94205Y-75032D02*
X110839D01*
X117319Y-81512D02*
X117811D01*
X110839Y-75032D02*
X117319Y-81512D01*
X164594Y96650D02*
X171079Y90165D01*
X74419Y-92014D02*
Y-78061D01*
Y-92014D02*
X74453Y-92047D01*
X74386Y-78028D02*
X74419Y-78061D01*
X309173Y1614D02*
X324827D01*
X327646Y4433D01*
X386043Y-33193D02*
Y-15240D01*
X378732Y-40504D02*
X386043Y-33193D01*
X359583Y-40504D02*
X378732D01*
X398865Y4425D02*
X402687D01*
X405283Y7022D02*
Y13873D01*
X402687Y4425D02*
X405283Y7022D01*
X392442Y-5433D02*
X396264D01*
X398861Y-2837D02*
Y4015D01*
X396264Y-5433D02*
X398861Y-2837D01*
X386043Y-15240D02*
X389865D01*
X392462Y-12644D02*
Y-5793D01*
X389865Y-15240D02*
X392462Y-12644D01*
X359583Y-40504D02*
Y58165D01*
X385688Y26032D02*
X389510D01*
X383092Y16584D02*
Y23435D01*
X385688Y26032D01*
X379289Y15575D02*
X383112D01*
X376693Y6127D02*
Y12979D01*
X379289Y15575D01*
X370270Y2730D02*
X372867Y5327D01*
X370270Y-4121D02*
Y2730D01*
X372867Y5327D02*
X376689D01*
X359583Y58165D02*
X368409Y66992D01*
Y66992D02*
X372284Y70866D01*
X324803Y64961D02*
X366378D01*
X351892Y-25746D02*
Y9833D01*
X351882Y9843D02*
X351892Y9833D01*
Y-25746D02*
X351902Y-25756D01*
X372284Y75728D02*
X377343Y80787D01*
X389843D01*
X338228Y-9567D02*
X338386Y-9409D01*
X306193Y-27815D02*
X325547D01*
X338386Y-9409D02*
Y10613D01*
X326142Y-32953D02*
X333150Y-25945D01*
X333335D01*
X304764Y-32953D02*
X326142D01*
X299091Y-20713D02*
Y-2264D01*
Y-32614D02*
Y-20713D01*
X306193Y-27815D01*
X311634Y41614D02*
X311838D01*
X309429Y43819D02*
X311634Y41614D01*
X310534Y38465D02*
X338386Y10613D01*
X212165Y38465D02*
X310534D01*
X217335Y43819D02*
X309429D01*
X303937Y60117D02*
Y65630D01*
X255512Y53976D02*
X286378D01*
X299684Y59133D02*
X302954D01*
X255433Y53898D02*
X255512Y53976D01*
X302954Y59133D02*
X303937Y60117D01*
X333740Y3740D02*
Y10804D01*
X315568Y28976D02*
X333740Y10804D01*
X210567Y28976D02*
X315568D01*
X197514Y53116D02*
X212165Y38465D01*
X293564Y-34764D02*
X296941D01*
X299091Y-32614D01*
X297209Y-382D02*
X299091Y-2264D01*
X293564Y-382D02*
X297209D01*
X372284Y70866D02*
Y75728D01*
X389843Y80787D02*
X389921Y80709D01*
X319646Y78189D02*
Y80787D01*
Y70118D02*
Y78189D01*
Y70118D02*
X324803Y64961D01*
X181732Y-34173D02*
X197677Y-50118D01*
X235945D02*
X245768Y-40295D01*
X197677Y-50118D02*
X235945D01*
X169803Y-34173D02*
X181732D01*
X277795Y-17573D02*
X288052D01*
X254016D02*
X277795D01*
X225202D02*
X254016D01*
X245768Y-40295D02*
Y-25821D01*
X254016Y-17573D01*
X355133Y-59079D02*
Y-36875D01*
X355157Y-36850D01*
X355109Y-59104D02*
X355133Y-59079D01*
X309616Y-36811D02*
X334921D01*
X300827Y-45600D02*
X309616Y-36811D01*
X300827Y-46027D02*
Y-45600D01*
X296654Y-50200D02*
X300827Y-46027D01*
X296654Y-64274D02*
Y-50200D01*
X302874Y11850D02*
X315000Y23976D01*
X302874Y-315D02*
Y11850D01*
X282413Y57941D02*
Y77035D01*
Y57941D02*
X286378Y53976D01*
X210315Y34528D02*
X298386D01*
X194386Y45158D02*
X210567Y28976D01*
X293564Y10618D02*
Y14507D01*
X286378Y53976D02*
X297205D01*
X294528Y56654D02*
Y61969D01*
Y56654D02*
X297205Y53976D01*
X304842D01*
X281016Y10559D02*
X287903D01*
X280866Y10709D02*
X281016Y10559D01*
X287903D02*
X288052Y10409D01*
X288004Y-45575D02*
X288058Y-45521D01*
X281078Y-45575D02*
X288004D01*
X281024Y-45630D02*
X281078Y-45575D01*
X296654Y-64274D02*
X297576Y-65197D01*
X279961Y-66378D02*
X293504Y-52835D01*
X297576Y-65197D02*
X325118D01*
X293570Y-49538D02*
Y-45521D01*
X293504Y-49604D02*
X293570Y-49538D01*
X293504Y-52835D02*
Y-49604D01*
X325118Y-65197D02*
X327284Y-67362D01*
Y-80787D02*
Y-67362D01*
X320587Y-87484D02*
X327284Y-80787D01*
X298705Y-87484D02*
X320587D01*
X232480Y-66378D02*
X279961D01*
X219467Y-23307D02*
X225202Y-17573D01*
X212422Y-25343D02*
X212914D01*
X375945Y-63532D02*
Y-59134D01*
X74453Y-92047D02*
X80039D01*
X85945D01*
X282413Y85486D02*
Y93937D01*
Y77035D02*
Y85486D01*
X279171Y82244D02*
X282413Y85486D01*
X237126Y82244D02*
X279171D01*
X431928Y84724D02*
X440394Y76259D01*
X359803Y84724D02*
X431928D01*
X307362D02*
X359803D01*
X307244Y84843D02*
X307362Y84724D01*
X282413Y77035D02*
X285311Y74138D01*
X298119D01*
X195748Y49095D02*
X210315Y34528D01*
X164134Y49095D02*
X195748D01*
X141575Y45158D02*
X194386D01*
X315551Y74094D02*
X319646Y78189D01*
X310315Y74094D02*
X315551D01*
X310314Y59133D02*
X310334Y59113D01*
Y53997D02*
X310354Y53976D01*
X310334Y53997D02*
Y59113D01*
X310314Y74093D02*
X310315Y74094D01*
X310314Y66614D02*
Y74093D01*
X302954Y66614D02*
X303937Y65630D01*
X297032Y62873D02*
X299684D01*
X295721Y61562D02*
X297032Y62873D01*
X299684D02*
X299684Y62873D01*
X132283Y-59764D02*
X133063Y-60543D01*
X109599Y-61732D02*
X111568Y-59764D01*
X132283D01*
X109173Y-61732D02*
X109599D01*
X129252Y-78268D02*
Y-63701D01*
X124134Y-83386D02*
X129252Y-78268D01*
X219467Y-27706D02*
Y-23307D01*
X355109Y-63502D02*
Y-59104D01*
X288052Y-34764D02*
Y-27415D01*
Y-7730D02*
Y-382D01*
X348555Y-69014D02*
X355109D01*
X369391Y-68967D02*
X375945D01*
X212914Y-33022D02*
X219467D01*
X28464Y-79842D02*
X36117D01*
X33661Y46260D02*
X33858Y46063D01*
X124205Y-68685D02*
X124327Y-68807D01*
X84244Y31315D02*
Y32299D01*
X34224Y31335D02*
X34244Y31315D01*
X94244D02*
X94244Y31315D01*
X104244Y31315D02*
Y32299D01*
X293564Y10618D02*
X293778Y10404D01*
X98469Y76984D02*
X98723Y76730D01*
Y64584D02*
Y76730D01*
X117811Y-89386D02*
X124110D01*
X95000Y-88898D02*
X101299D01*
Y-83386D02*
Y-79055D01*
X94205Y-69669D02*
Y-68685D01*
X84205Y-78102D02*
X87126Y-81024D01*
X95000D01*
X85945Y-92047D02*
X85945Y-92047D01*
X67328Y-79842D02*
X67416Y-79754D01*
X36117Y-79842D02*
X67328Y-79842D01*
X36117Y-97559D02*
X67416D01*
X96181Y-48740D02*
X109173Y-61732D01*
X96181Y-48740D02*
Y-15276D01*
X139614Y-5559D02*
X141977D01*
X139586Y-5531D02*
X139614Y-5559D01*
X139586Y-5531D02*
Y706D01*
X136825Y-21876D02*
X137126Y-21575D01*
X128858Y-32992D02*
X136825Y-25026D01*
X126539Y-36240D02*
X127523Y-37225D01*
X114390Y-36240D02*
X126539D01*
X136825Y-25026D02*
Y-21876D01*
X166752Y-37225D02*
X169803Y-34173D01*
X293570Y-45521D02*
X293570Y-40003D01*
X288052Y-39997D02*
Y-34793D01*
X293778Y4885D02*
Y10404D01*
X288301Y-353D02*
X288330Y-382D01*
X288052Y-353D02*
Y4851D01*
X288272Y4879D02*
X288301Y4851D01*
X67416Y-97559D02*
X74453Y-97559D01*
X28232Y71467D02*
Y77219D01*
X23555Y66790D02*
X28232Y71467D01*
X71118Y52890D02*
X71216Y52791D01*
X19114Y45976D02*
Y50083D01*
X91434Y48662D02*
Y52768D01*
X28346Y46063D02*
Y50563D01*
D41*
X227165Y48425D02*
X314961D01*
X346850Y-35035D02*
Y-16929D01*
Y16535D01*
X314961Y48425D02*
X346850Y16535D01*
X338779Y-43106D02*
X346850Y-35035D01*
X114776Y-55524D02*
X207610D01*
X213701Y-61614D02*
X218779D01*
X220634D01*
X207610Y-55524D02*
X213701Y-61614D01*
X105236Y-45984D02*
X114776Y-55524D01*
X338779Y-47476D02*
Y-43106D01*
Y-47476D02*
X348555Y-57252D01*
X338779Y-84409D02*
Y-47476D01*
X230201Y-71181D02*
X247502Y-88482D01*
X317835Y-76024D02*
X318032D01*
X312992Y-71181D02*
X317835Y-76024D01*
X230201Y-71181D02*
X312992D01*
X220634Y-61614D02*
X230201Y-71181D01*
X348555Y-61140D02*
Y-57252D01*
X369391Y-61170D02*
X369449Y-61112D01*
Y-52244D01*
X93819Y-4646D02*
Y1260D01*
Y-4646D02*
X105236Y-16063D01*
Y-45984D02*
Y-16063D01*
D42*
X88232Y87219D02*
D03*
X98232Y87219D02*
D03*
X108232D02*
D03*
Y77219D02*
D03*
X98232D02*
D03*
X28232Y87219D02*
D03*
X38232D02*
D03*
X48232D02*
D03*
Y77219D02*
D03*
X38232D02*
D03*
X440394Y10158D02*
D03*
Y20157D02*
D03*
Y30236D02*
D03*
Y158D02*
D03*
Y-9921D02*
D03*
Y-19921D02*
D03*
Y-29921D02*
D03*
X237126Y82244D02*
D03*
D43*
X88232Y77219D02*
D03*
X28232D02*
D03*
X237126Y72244D02*
D03*
D44*
X440394Y-39921D02*
D03*
D45*
X197457Y68795D02*
D03*
X217457D02*
D03*
X207457Y78795D02*
D03*
D46*
X171079Y90165D02*
D03*
X176000D02*
D03*
X142102Y89784D02*
D03*
X147024D02*
D03*
D47*
X180921Y90165D02*
D03*
X151945Y89784D02*
D03*
D48*
X298705Y-97685D02*
D03*
X318705D02*
D03*
X338705D02*
D03*
X282413Y93937D02*
D03*
X262413D02*
D03*
X236705Y-97685D02*
D03*
X256705D02*
D03*
X430039Y93937D02*
D03*
X410039D02*
D03*
X390039D02*
D03*
X359449D02*
D03*
X339449D02*
D03*
X319449D02*
D03*
D49*
X259509Y-41608D02*
D03*
Y6463D02*
D03*
D50*
X230966Y-7730D02*
D03*
Y-27415D02*
D03*
X288052Y-17573D02*
D03*
X288052Y-27415D02*
D03*
Y-7730D02*
D03*
D51*
X174244Y31315D02*
D03*
X14205Y-68685D02*
D03*
X24205D02*
D03*
X34205D02*
D03*
X44205D02*
D03*
X54205D02*
D03*
X64205D02*
D03*
X74205D02*
D03*
X84205D02*
D03*
X94205D02*
D03*
X104205D02*
D03*
X114205D02*
D03*
X124205D02*
D03*
X134205D02*
D03*
X144205D02*
D03*
X154205D02*
D03*
X164205D02*
D03*
X174205D02*
D03*
X184205D02*
D03*
X194205D02*
D03*
X194244Y31315D02*
D03*
X184244D02*
D03*
X164244D02*
D03*
X154244D02*
D03*
X144244D02*
D03*
X134244D02*
D03*
X124244D02*
D03*
X114244D02*
D03*
X104244D02*
D03*
X94244D02*
D03*
X84244D02*
D03*
X74244D02*
D03*
X64244D02*
D03*
X54244D02*
D03*
X44244D02*
D03*
X34244D02*
D03*
X24244D02*
D03*
X14244D02*
D03*
D52*
X64961Y120079D02*
D03*
Y-120079D02*
D03*
X411417Y-62992D02*
D03*
Y62992D02*
D03*
D53*
X227165Y48425D02*
D03*
X346850Y-16929D02*
D03*
X81059Y19252D02*
D03*
X59366Y41626D02*
D03*
X91469Y43819D02*
D03*
X77276Y48575D02*
D03*
X52949Y56728D02*
D03*
X112806Y46352D02*
D03*
X103937Y38622D02*
D03*
X154205Y-60543D02*
D03*
X152323Y-36535D02*
D03*
X150535Y-16177D02*
D03*
X140370Y10858D02*
D03*
X101268Y-4405D02*
D03*
X23114Y41240D02*
D03*
X64228Y38752D02*
D03*
X40878Y46102D02*
D03*
X13669Y41299D02*
D03*
X176854Y15791D02*
D03*
X156240Y16917D02*
D03*
X161240Y1653D02*
D03*
X62268Y-103823D02*
D03*
X74386Y-78028D02*
D03*
X404945Y-5232D02*
D03*
X405031Y-15079D02*
D03*
X405059Y-25232D02*
D03*
X326894Y11413D02*
D03*
X327685Y-9480D02*
D03*
X327646Y4433D02*
D03*
X370295Y-4146D02*
D03*
X359583Y-40504D02*
D03*
X351882Y9843D02*
D03*
X351902Y-25756D02*
D03*
X376689Y5327D02*
D03*
X383112Y15575D02*
D03*
X389510Y26032D02*
D03*
X405264Y14909D02*
D03*
X398865Y4425D02*
D03*
X392442Y-5433D02*
D03*
X386043Y-15240D02*
D03*
X338228Y-9567D02*
D03*
X333335Y-25945D02*
D03*
X304764Y-32953D02*
D03*
X255433Y53898D02*
D03*
X333740Y3740D02*
D03*
X242949Y-60587D02*
D03*
X215595Y-72583D02*
D03*
X100161Y-41142D02*
D03*
X338779Y-84409D02*
D03*
X355157Y-36850D02*
D03*
X334921Y-36811D02*
D03*
X300827Y-45600D02*
D03*
X309173Y1614D02*
D03*
X302874Y-315D02*
D03*
X277795Y-17573D02*
D03*
X280866Y10709D02*
D03*
X281024Y-45630D02*
D03*
X298705Y-87484D02*
D03*
X232480Y-66378D02*
D03*
X218779Y-61614D02*
D03*
X247502Y-88482D02*
D03*
X318032Y-76024D02*
D03*
X375945Y-59134D02*
D03*
X369449Y-52244D02*
D03*
X440394Y76259D02*
D03*
X307244Y84843D02*
D03*
X359803Y84724D02*
D03*
X287559Y67480D02*
D03*
X164134Y49095D02*
D03*
X389921Y80709D02*
D03*
X319646Y80787D02*
D03*
X355109Y-59104D02*
D03*
X28464Y-79842D02*
D03*
X94205Y-75032D02*
D03*
X84205Y-78102D02*
D03*
X298386Y34528D02*
D03*
X114331Y19646D02*
D03*
X315000Y23976D02*
D03*
X93853Y22567D02*
D03*
X217441Y13465D02*
D03*
X93819Y1260D02*
D03*
X101299Y-79055D02*
D03*
X129252Y-63701D02*
D03*
X109173Y-61732D02*
D03*
X128858Y-32992D02*
D03*
X137126Y-21575D02*
D03*
X114390Y-36240D02*
D03*
X96181Y-15276D02*
D03*
X139586Y-5531D02*
D03*
X169803Y-34173D02*
D03*
M02*
