G04*
G04 #@! TF.GenerationSoftware,Altium Limited,Altium Designer,24.3.1 (35)*
G04*
G04 Layer_Color=128*
%FSLAX25Y25*%
%MOIN*%
G70*
G04*
G04 #@! TF.SameCoordinates,5149264C-F6EF-45E8-801D-D6D5ED924B73*
G04*
G04*
G04 #@! TF.FilePolarity,Positive*
G04*
G01*
G75*
%ADD14R,0.03150X0.03150*%
%ADD16R,0.03150X0.03150*%
%ADD17R,0.03740X0.02362*%
%ADD54R,0.05118X0.05118*%
%ADD55R,0.01968X0.01968*%
%ADD56R,0.01968X0.03543*%
%ADD57R,0.05118X0.05118*%
D14*
X87520Y19370D02*
D03*
X87520Y13858D02*
D03*
X106713Y-27087D02*
D03*
Y-21575D02*
D03*
X112707Y-21575D02*
D03*
Y-27087D02*
D03*
X119114Y-21575D02*
D03*
Y-27087D02*
D03*
X131712Y-52677D02*
D03*
Y-58189D02*
D03*
X119311Y-58189D02*
D03*
Y-52677D02*
D03*
X152185Y-41653D02*
D03*
Y-47165D02*
D03*
X145394Y-16063D02*
D03*
Y-10551D02*
D03*
X146575Y5197D02*
D03*
Y-315D02*
D03*
X381366Y-15228D02*
D03*
Y-9717D02*
D03*
X374972Y-9669D02*
D03*
Y-4157D02*
D03*
X387765Y-5421D02*
D03*
Y91D02*
D03*
X381366Y-197D02*
D03*
Y5315D02*
D03*
X394188Y4437D02*
D03*
Y9949D02*
D03*
X387789Y10051D02*
D03*
Y15563D02*
D03*
X400587Y14921D02*
D03*
Y20433D02*
D03*
X394188Y20508D02*
D03*
Y26020D02*
D03*
X125305Y-52677D02*
D03*
Y-58189D02*
D03*
X139586Y-10551D02*
D03*
Y-16063D02*
D03*
D16*
X104449Y22520D02*
D03*
X98937D02*
D03*
X101300Y-9665D02*
D03*
X106811D02*
D03*
X101299Y-15276D02*
D03*
X106811D02*
D03*
X114390Y-46772D02*
D03*
X119902D02*
D03*
X114390Y-41260D02*
D03*
X119902D02*
D03*
X152480Y-31811D02*
D03*
X146968D02*
D03*
X141457Y-25807D02*
D03*
X146968D02*
D03*
X169803Y-26289D02*
D03*
X164291D02*
D03*
X164291Y-31909D02*
D03*
X158780D02*
D03*
X164291Y-37707D02*
D03*
X158780D02*
D03*
X158780Y-43917D02*
D03*
X164291D02*
D03*
X134764Y-315D02*
D03*
X140276D02*
D03*
Y5591D02*
D03*
X134764D02*
D03*
X156220Y-12421D02*
D03*
X161732D02*
D03*
X167441Y-18130D02*
D03*
X161929D02*
D03*
X161142Y11988D02*
D03*
X166654D02*
D03*
X166653Y17303D02*
D03*
X161142D02*
D03*
X161142Y6476D02*
D03*
X166654D02*
D03*
D17*
X104646Y10118D02*
D03*
Y17598D02*
D03*
X94016D02*
D03*
X94016Y13858D02*
D03*
Y10118D02*
D03*
X123543Y-6811D02*
D03*
Y-14291D02*
D03*
X134173D02*
D03*
Y-10551D02*
D03*
Y-6811D02*
D03*
X156220Y669D02*
D03*
Y-6811D02*
D03*
X166850D02*
D03*
Y-3071D02*
D03*
Y669D02*
D03*
X136142Y-37913D02*
D03*
Y-45394D02*
D03*
X146772D02*
D03*
X146772Y-41653D02*
D03*
X146772Y-37913D02*
D03*
D54*
X101308Y2398D02*
D03*
X113504Y2441D02*
D03*
X174528Y-3474D02*
D03*
X186723Y-3430D02*
D03*
D55*
X111339Y-15472D02*
D03*
Y-10354D02*
D03*
X118622Y-12913D02*
D03*
X124134Y-46772D02*
D03*
Y-41653D02*
D03*
X131417Y-44213D02*
D03*
D56*
X128858Y-28858D02*
D03*
X132598Y-19803D02*
D03*
X125118D02*
D03*
X144020Y-61335D02*
D03*
X147760Y-52280D02*
D03*
X140279D02*
D03*
D57*
X174528Y6476D02*
D03*
X174484Y18672D02*
D03*
M02*
