G04*
G04 #@! TF.GenerationSoftware,Altium Limited,Altium Designer,24.3.1 (35)*
G04*
G04 Layer_Color=32896*
%FSLAX25Y25*%
%MOIN*%
G70*
G04*
G04 #@! TF.SameCoordinates,5149264C-F6EF-45E8-801D-D6D5ED924B73*
G04*
G04*
G04 #@! TF.FilePolarity,Positive*
G04*
G01*
G75*
%ADD11C,0.00787*%
G36*
X422521Y-71134D02*
X422619Y-71156D01*
X422696Y-71178D01*
X422707Y-71189D01*
X422718D01*
X422816Y-71244D01*
X422893Y-71298D01*
X422947Y-71342D01*
X422969Y-71364D01*
X423046Y-71451D01*
X423090Y-71528D01*
X423122Y-71593D01*
X423133Y-71604D01*
Y-71615D01*
X423166Y-71724D01*
X423177Y-71823D01*
X423188Y-71867D01*
Y-71888D01*
Y-71910D01*
Y-71921D01*
X423177Y-72041D01*
X423155Y-72140D01*
X423144Y-72205D01*
X423133Y-72216D01*
Y-72227D01*
X423090Y-72326D01*
X423035Y-72402D01*
X422991Y-72457D01*
X422969Y-72479D01*
X422882Y-72544D01*
X422805Y-72599D01*
X422740Y-72632D01*
X422729Y-72643D01*
X422718D01*
X422609Y-72675D01*
X422510Y-72686D01*
X422467Y-72697D01*
X422401D01*
X422281Y-72686D01*
X422182Y-72664D01*
X422117Y-72654D01*
X422106Y-72643D01*
X422095D01*
X421996Y-72588D01*
X421920Y-72533D01*
X421865Y-72490D01*
X421843Y-72479D01*
X421767Y-72391D01*
X421723Y-72315D01*
X421690Y-72249D01*
X421679Y-72238D01*
Y-72227D01*
X421636Y-72118D01*
X421625Y-72020D01*
X421614Y-71976D01*
Y-71954D01*
Y-71932D01*
Y-71921D01*
X421625Y-71801D01*
X421647Y-71703D01*
X421669Y-71637D01*
X421679Y-71626D01*
Y-71615D01*
X421723Y-71517D01*
X421778Y-71440D01*
X421822Y-71386D01*
X421843Y-71364D01*
X421931Y-71287D01*
X422007Y-71233D01*
X422073Y-71200D01*
X422084Y-71189D01*
X422095D01*
X422204Y-71145D01*
X422302Y-71134D01*
X422346Y-71123D01*
X422401D01*
X422521Y-71134D01*
D02*
G37*
G36*
X391305Y-78075D02*
X390988Y-78173D01*
X390835Y-78206D01*
X390693Y-78239D01*
X390584Y-78261D01*
X390485Y-78282D01*
X390431Y-78293D01*
X390409D01*
X390048Y-78337D01*
X389884Y-78348D01*
X389731Y-78359D01*
X389600Y-78370D01*
X389403D01*
X389196Y-78359D01*
X389010Y-78348D01*
X388835Y-78326D01*
X388682Y-78293D01*
X388551Y-78261D01*
X388452Y-78239D01*
X388398Y-78228D01*
X388376Y-78217D01*
X388201Y-78151D01*
X388048Y-78075D01*
X387906Y-77987D01*
X387786Y-77911D01*
X387687Y-77834D01*
X387611Y-77780D01*
X387567Y-77736D01*
X387556Y-77725D01*
X387436Y-77594D01*
X387327Y-77452D01*
X387228Y-77321D01*
X387152Y-77189D01*
X387086Y-77069D01*
X387042Y-76982D01*
X387020Y-76916D01*
X387010Y-76894D01*
X386944Y-76698D01*
X386900Y-76501D01*
X386857Y-76293D01*
X386835Y-76107D01*
X386824Y-75943D01*
Y-75878D01*
X386813Y-75823D01*
Y-75769D01*
Y-75736D01*
Y-75714D01*
Y-75703D01*
Y-75495D01*
X386835Y-75299D01*
X386857Y-75124D01*
X386878Y-74971D01*
X386900Y-74840D01*
X386922Y-74741D01*
X386933Y-74686D01*
X386944Y-74665D01*
X386999Y-74490D01*
X387053Y-74337D01*
X387108Y-74206D01*
X387174Y-74085D01*
X387217Y-73998D01*
X387261Y-73921D01*
X387294Y-73878D01*
X387305Y-73867D01*
X387392Y-73747D01*
X387491Y-73648D01*
X387589Y-73561D01*
X387676Y-73495D01*
X387764Y-73440D01*
X387829Y-73397D01*
X387873Y-73375D01*
X387884Y-73364D01*
X388015Y-73298D01*
X388146Y-73255D01*
X388277Y-73222D01*
X388398Y-73200D01*
X388507Y-73189D01*
X388583Y-73178D01*
X388660D01*
X388846Y-73189D01*
X389010Y-73211D01*
X389152Y-73244D01*
X389283Y-73287D01*
X389381Y-73331D01*
X389458Y-73364D01*
X389502Y-73386D01*
X389524Y-73397D01*
X389655Y-73484D01*
X389775Y-73572D01*
X389884Y-73659D01*
X389972Y-73757D01*
X390048Y-73834D01*
X390114Y-73900D01*
X390146Y-73943D01*
X390157Y-73954D01*
X390103Y-72970D01*
Y-71331D01*
X391305D01*
Y-78075D01*
D02*
G37*
G36*
X384354Y-78282D02*
X384430Y-78446D01*
X384496Y-78578D01*
X384528Y-78621D01*
X384550Y-78665D01*
X384561Y-78687D01*
X384572Y-78698D01*
X384670Y-78829D01*
X384758Y-78938D01*
X384791Y-78982D01*
X384823Y-79015D01*
X384835Y-79026D01*
X384845Y-79037D01*
X384966Y-79135D01*
X385064Y-79201D01*
X385108Y-79223D01*
X385140Y-79244D01*
X385162Y-79255D01*
X385173D01*
X385304Y-79310D01*
X385425Y-79332D01*
X385479Y-79343D01*
X385611D01*
X385665Y-79332D01*
X385774D01*
X385829Y-79321D01*
X385884D01*
X385949Y-79310D01*
X385993D01*
X386037Y-79299D01*
X386048D01*
X386102Y-79288D01*
X386179D01*
Y-80294D01*
X386070Y-80304D01*
X385971Y-80315D01*
X385906Y-80326D01*
X385884D01*
X385785Y-80337D01*
X385698Y-80348D01*
X385611D01*
X385425Y-80337D01*
X385250Y-80315D01*
X385086Y-80294D01*
X384955Y-80261D01*
X384835Y-80228D01*
X384758Y-80195D01*
X384703Y-80184D01*
X384682Y-80173D01*
X384528Y-80108D01*
X384386Y-80031D01*
X384255Y-79944D01*
X384146Y-79867D01*
X384058Y-79791D01*
X383982Y-79736D01*
X383938Y-79692D01*
X383927Y-79681D01*
X383807Y-79550D01*
X383687Y-79419D01*
X383577Y-79277D01*
X383490Y-79146D01*
X383414Y-79037D01*
X383359Y-78938D01*
X383315Y-78884D01*
X383304Y-78862D01*
X383195Y-78676D01*
X383097Y-78479D01*
X383009Y-78293D01*
X382922Y-78118D01*
X382856Y-77965D01*
X382802Y-77845D01*
X382780Y-77802D01*
X382769Y-77769D01*
X382758Y-77747D01*
Y-77736D01*
X381009Y-73287D01*
X382299D01*
X383348Y-76162D01*
X383654Y-77036D01*
X383960Y-76129D01*
X385009Y-73287D01*
X386343D01*
X384354Y-78282D01*
D02*
G37*
G36*
X433670Y-73189D02*
X433855Y-73211D01*
X434020Y-73244D01*
X434162Y-73277D01*
X434282Y-73309D01*
X434369Y-73342D01*
X434424Y-73364D01*
X434446Y-73375D01*
X434599Y-73451D01*
X434741Y-73550D01*
X434872Y-73637D01*
X434981Y-73725D01*
X435069Y-73812D01*
X435134Y-73878D01*
X435178Y-73921D01*
X435189Y-73932D01*
X435298Y-74074D01*
X435386Y-74217D01*
X435473Y-74359D01*
X435539Y-74490D01*
X435593Y-74610D01*
X435626Y-74697D01*
X435648Y-74763D01*
X435659Y-74774D01*
Y-74785D01*
X435714Y-74971D01*
X435757Y-75167D01*
X435779Y-75353D01*
X435801Y-75517D01*
X435812Y-75670D01*
X435823Y-75790D01*
Y-75834D01*
Y-75856D01*
Y-75878D01*
Y-75889D01*
X435812Y-76107D01*
X435801Y-76315D01*
X435768Y-76501D01*
X435736Y-76654D01*
X435714Y-76785D01*
X435681Y-76883D01*
X435670Y-76949D01*
X435659Y-76960D01*
Y-76971D01*
X435593Y-77135D01*
X435517Y-77288D01*
X435429Y-77430D01*
X435353Y-77539D01*
X435287Y-77638D01*
X435233Y-77703D01*
X435189Y-77747D01*
X435178Y-77758D01*
X435058Y-77867D01*
X434927Y-77965D01*
X434796Y-78053D01*
X434675Y-78118D01*
X434566Y-78173D01*
X434489Y-78206D01*
X434435Y-78228D01*
X434413Y-78239D01*
X434238Y-78293D01*
X434063Y-78326D01*
X433888Y-78359D01*
X433735Y-78370D01*
X433593Y-78381D01*
X433484Y-78392D01*
X433222D01*
X433069Y-78381D01*
X433014D01*
X432970Y-78370D01*
X432927D01*
X432752Y-78348D01*
X432664D01*
X432599Y-78337D01*
X432533Y-78326D01*
X432489Y-78315D01*
X432446D01*
X432271Y-78293D01*
X432194Y-78282D01*
X432129Y-78272D01*
X432063Y-78261D01*
X432019Y-78250D01*
X431987D01*
X431822Y-78217D01*
X431691Y-78173D01*
X431637Y-78162D01*
X431593Y-78151D01*
X431571Y-78140D01*
X431560D01*
Y-77189D01*
X431724Y-77233D01*
X431888Y-77277D01*
X432030Y-77310D01*
X432161Y-77332D01*
X432271Y-77353D01*
X432347Y-77364D01*
X432402Y-77375D01*
X432424D01*
X432577Y-77397D01*
X432719Y-77408D01*
X432850Y-77419D01*
X432970D01*
X433069Y-77430D01*
X433200D01*
X433418Y-77419D01*
X433517Y-77397D01*
X433604Y-77386D01*
X433681Y-77364D01*
X433735Y-77353D01*
X433768Y-77342D01*
X433779D01*
X433954Y-77266D01*
X434030Y-77222D01*
X434096Y-77179D01*
X434140Y-77146D01*
X434183Y-77113D01*
X434205Y-77102D01*
X434216Y-77091D01*
X434336Y-76949D01*
X434424Y-76818D01*
X434457Y-76763D01*
X434479Y-76719D01*
X434500Y-76687D01*
Y-76676D01*
X434555Y-76479D01*
X434577Y-76381D01*
X434588Y-76282D01*
Y-76206D01*
X434599Y-76140D01*
Y-76096D01*
Y-76086D01*
X431320D01*
X431309Y-75954D01*
Y-75845D01*
X431298Y-75790D01*
Y-75758D01*
Y-75736D01*
Y-75725D01*
X431287Y-75594D01*
Y-75495D01*
Y-75430D01*
Y-75408D01*
X431298Y-75233D01*
X431309Y-75058D01*
X431331Y-74905D01*
X431363Y-74774D01*
X431396Y-74665D01*
X431418Y-74577D01*
X431429Y-74533D01*
X431440Y-74512D01*
X431495Y-74370D01*
X431560Y-74227D01*
X431637Y-74107D01*
X431702Y-74009D01*
X431757Y-73921D01*
X431812Y-73867D01*
X431844Y-73823D01*
X431855Y-73812D01*
X431965Y-73703D01*
X432074Y-73615D01*
X432194Y-73539D01*
X432303Y-73473D01*
X432402Y-73419D01*
X432478Y-73386D01*
X432522Y-73364D01*
X432544Y-73353D01*
X432697Y-73298D01*
X432861Y-73255D01*
X433014Y-73222D01*
X433156Y-73200D01*
X433287Y-73189D01*
X433386Y-73178D01*
X433473D01*
X433670Y-73189D01*
D02*
G37*
G36*
X405962Y-73189D02*
X406148Y-73211D01*
X406312Y-73244D01*
X406454Y-73277D01*
X406574Y-73309D01*
X406662Y-73342D01*
X406716Y-73364D01*
X406738Y-73375D01*
X406891Y-73451D01*
X407033Y-73550D01*
X407164Y-73637D01*
X407274Y-73725D01*
X407361Y-73812D01*
X407427Y-73878D01*
X407471Y-73921D01*
X407481Y-73932D01*
X407591Y-74074D01*
X407678Y-74217D01*
X407766Y-74359D01*
X407831Y-74490D01*
X407886Y-74610D01*
X407919Y-74697D01*
X407940Y-74763D01*
X407951Y-74774D01*
Y-74785D01*
X408006Y-74971D01*
X408050Y-75167D01*
X408072Y-75353D01*
X408094Y-75517D01*
X408104Y-75670D01*
X408115Y-75790D01*
Y-75834D01*
Y-75856D01*
Y-75878D01*
Y-75889D01*
X408104Y-76107D01*
X408094Y-76315D01*
X408061Y-76501D01*
X408028Y-76654D01*
X408006Y-76785D01*
X407973Y-76883D01*
X407962Y-76949D01*
X407951Y-76960D01*
Y-76971D01*
X407886Y-77135D01*
X407809Y-77288D01*
X407722Y-77430D01*
X407645Y-77539D01*
X407580Y-77638D01*
X407525Y-77703D01*
X407481Y-77747D01*
X407471Y-77758D01*
X407350Y-77867D01*
X407219Y-77965D01*
X407088Y-78053D01*
X406968Y-78118D01*
X406858Y-78173D01*
X406782Y-78206D01*
X406727Y-78228D01*
X406705Y-78239D01*
X406531Y-78293D01*
X406356Y-78326D01*
X406181Y-78359D01*
X406028Y-78370D01*
X405886Y-78381D01*
X405776Y-78392D01*
X405514D01*
X405361Y-78381D01*
X405306D01*
X405263Y-78370D01*
X405219D01*
X405044Y-78348D01*
X404957D01*
X404891Y-78337D01*
X404825Y-78326D01*
X404782Y-78315D01*
X404738D01*
X404563Y-78293D01*
X404487Y-78282D01*
X404421Y-78272D01*
X404355Y-78261D01*
X404312Y-78250D01*
X404279D01*
X404115Y-78217D01*
X403984Y-78173D01*
X403929Y-78162D01*
X403886Y-78151D01*
X403864Y-78140D01*
X403853D01*
Y-77189D01*
X404017Y-77233D01*
X404181Y-77277D01*
X404323Y-77310D01*
X404454Y-77332D01*
X404563Y-77353D01*
X404640Y-77364D01*
X404694Y-77375D01*
X404716D01*
X404869Y-77397D01*
X405011Y-77408D01*
X405142Y-77419D01*
X405263D01*
X405361Y-77430D01*
X405492D01*
X405711Y-77419D01*
X405809Y-77397D01*
X405897Y-77386D01*
X405973Y-77364D01*
X406028Y-77353D01*
X406061Y-77342D01*
X406072D01*
X406246Y-77266D01*
X406323Y-77222D01*
X406388Y-77179D01*
X406432Y-77146D01*
X406476Y-77113D01*
X406498Y-77102D01*
X406509Y-77091D01*
X406629Y-76949D01*
X406716Y-76818D01*
X406749Y-76763D01*
X406771Y-76719D01*
X406793Y-76687D01*
Y-76676D01*
X406847Y-76479D01*
X406869Y-76381D01*
X406880Y-76282D01*
Y-76206D01*
X406891Y-76140D01*
Y-76096D01*
Y-76086D01*
X403612D01*
X403601Y-75954D01*
Y-75845D01*
X403590Y-75790D01*
Y-75758D01*
Y-75736D01*
Y-75725D01*
X403579Y-75594D01*
Y-75495D01*
Y-75430D01*
Y-75408D01*
X403590Y-75233D01*
X403601Y-75058D01*
X403623Y-74905D01*
X403656Y-74774D01*
X403689Y-74665D01*
X403711Y-74577D01*
X403722Y-74533D01*
X403732Y-74512D01*
X403787Y-74370D01*
X403853Y-74227D01*
X403929Y-74107D01*
X403995Y-74009D01*
X404049Y-73921D01*
X404104Y-73867D01*
X404137Y-73823D01*
X404148Y-73812D01*
X404257Y-73703D01*
X404366Y-73615D01*
X404487Y-73539D01*
X404596Y-73473D01*
X404694Y-73419D01*
X404771Y-73386D01*
X404814Y-73364D01*
X404836Y-73353D01*
X404989Y-73298D01*
X405153Y-73255D01*
X405306Y-73222D01*
X405448Y-73200D01*
X405580Y-73189D01*
X405678Y-73178D01*
X405765D01*
X405962Y-73189D01*
D02*
G37*
G36*
X441441Y-78282D02*
X439812D01*
X439506Y-78272D01*
X439222Y-78250D01*
X438982Y-78206D01*
X438763Y-78162D01*
X438676Y-78151D01*
X438588Y-78129D01*
X438523Y-78108D01*
X438468Y-78086D01*
X438424Y-78075D01*
X438381Y-78064D01*
X438370Y-78053D01*
X438359D01*
X438140Y-77955D01*
X437943Y-77856D01*
X437769Y-77747D01*
X437626Y-77638D01*
X437506Y-77539D01*
X437419Y-77463D01*
X437375Y-77419D01*
X437353Y-77397D01*
X437211Y-77222D01*
X437091Y-77047D01*
X436992Y-76872D01*
X436916Y-76709D01*
X436850Y-76566D01*
X436807Y-76446D01*
X436796Y-76402D01*
X436785Y-76370D01*
X436774Y-76359D01*
Y-76348D01*
X436708Y-76118D01*
X436664Y-75878D01*
X436632Y-75648D01*
X436610Y-75441D01*
X436599Y-75255D01*
X436588Y-75178D01*
Y-75113D01*
Y-75069D01*
Y-75025D01*
Y-75003D01*
Y-74993D01*
X436599Y-74697D01*
X436621Y-74424D01*
X436643Y-74184D01*
X436676Y-73976D01*
X436719Y-73812D01*
X436730Y-73747D01*
X436741Y-73692D01*
X436752Y-73637D01*
X436763Y-73604D01*
X436774Y-73593D01*
Y-73583D01*
X436850Y-73375D01*
X436938Y-73178D01*
X437036Y-73014D01*
X437124Y-72872D01*
X437200Y-72763D01*
X437266Y-72675D01*
X437309Y-72632D01*
X437331Y-72610D01*
X437473Y-72479D01*
X437637Y-72358D01*
X437790Y-72260D01*
X437932Y-72184D01*
X438064Y-72118D01*
X438162Y-72074D01*
X438238Y-72052D01*
X438249Y-72041D01*
X438260D01*
X438468Y-71976D01*
X438687Y-71932D01*
X438905Y-71899D01*
X439102Y-71877D01*
X439277Y-71867D01*
X439353Y-71856D01*
X441441D01*
Y-78282D01*
D02*
G37*
G36*
X424357Y-74227D02*
X422947D01*
Y-77342D01*
X424532D01*
Y-78282D01*
X420269D01*
Y-77342D01*
X421712D01*
Y-73287D01*
X424357D01*
Y-74227D01*
D02*
G37*
G36*
X411023Y-73189D02*
X411099Y-73200D01*
X411176Y-73211D01*
X411230Y-73222D01*
X411274Y-73233D01*
X411307Y-73244D01*
X411318D01*
X411471Y-73298D01*
X411602Y-73353D01*
X411657Y-73375D01*
X411700Y-73397D01*
X411722Y-73408D01*
X411733Y-73419D01*
X411875Y-73506D01*
X411985Y-73593D01*
X412028Y-73626D01*
X412061Y-73659D01*
X412083Y-73670D01*
X412094Y-73681D01*
X412214Y-73801D01*
X412313Y-73910D01*
X412356Y-73965D01*
X412389Y-73998D01*
X412400Y-74020D01*
X412411Y-74031D01*
X412433Y-73287D01*
X413471D01*
Y-78282D01*
X412269D01*
Y-75124D01*
X412159Y-74971D01*
X412050Y-74840D01*
X411952Y-74730D01*
X411864Y-74632D01*
X411788Y-74555D01*
X411733Y-74501D01*
X411700Y-74468D01*
X411690Y-74457D01*
X411580Y-74370D01*
X411482Y-74315D01*
X411373Y-74271D01*
X411285Y-74238D01*
X411209Y-74217D01*
X411154Y-74206D01*
X411099D01*
X410990Y-74217D01*
X410892Y-74238D01*
X410815Y-74282D01*
X410749Y-74337D01*
X410640Y-74468D01*
X410564Y-74621D01*
X410520Y-74774D01*
X410498Y-74905D01*
X410487Y-74960D01*
Y-75003D01*
Y-75025D01*
Y-75036D01*
Y-78282D01*
X409285D01*
Y-74938D01*
Y-74796D01*
X409296Y-74654D01*
X409318Y-74533D01*
X409329Y-74424D01*
X409350Y-74337D01*
X409372Y-74271D01*
X409383Y-74227D01*
Y-74217D01*
X409427Y-74096D01*
X409471Y-73987D01*
X409514Y-73900D01*
X409569Y-73812D01*
X409613Y-73747D01*
X409646Y-73703D01*
X409667Y-73670D01*
X409678Y-73659D01*
X409831Y-73506D01*
X409984Y-73397D01*
X410050Y-73364D01*
X410105Y-73331D01*
X410137Y-73309D01*
X410148D01*
X410258Y-73266D01*
X410378Y-73233D01*
X410487Y-73211D01*
X410597Y-73189D01*
X410684D01*
X410760Y-73178D01*
X410826D01*
X411023Y-73189D01*
D02*
G37*
G36*
X428216Y-73200D02*
X428380Y-73211D01*
X428522Y-73233D01*
X428631Y-73255D01*
X428718Y-73277D01*
X428773Y-73287D01*
X428795Y-73298D01*
X428937Y-73342D01*
X429068Y-73397D01*
X429188Y-73451D01*
X429287Y-73506D01*
X429363Y-73550D01*
X429418Y-73593D01*
X429462Y-73615D01*
X429473Y-73626D01*
X429571Y-73703D01*
X429647Y-73779D01*
X429724Y-73856D01*
X429779Y-73932D01*
X429833Y-73998D01*
X429866Y-74053D01*
X429877Y-74085D01*
X429888Y-74096D01*
X429932Y-74195D01*
X429964Y-74304D01*
X429986Y-74402D01*
X429997Y-74490D01*
X430008Y-74566D01*
X430019Y-74621D01*
Y-74665D01*
Y-74676D01*
X430008Y-74894D01*
X429986Y-74982D01*
X429975Y-75058D01*
X429953Y-75135D01*
X429943Y-75178D01*
X429932Y-75211D01*
Y-75222D01*
X429855Y-75386D01*
X429757Y-75517D01*
X429724Y-75561D01*
X429691Y-75605D01*
X429669Y-75626D01*
X429658Y-75637D01*
X429505Y-75758D01*
X429363Y-75856D01*
X429298Y-75889D01*
X429243Y-75922D01*
X429210Y-75933D01*
X429199Y-75943D01*
X428981Y-76031D01*
X428871Y-76064D01*
X428773Y-76107D01*
X428686Y-76129D01*
X428620Y-76151D01*
X428565Y-76173D01*
X428554D01*
X428412Y-76217D01*
X428281Y-76249D01*
X428172Y-76282D01*
X428085Y-76315D01*
X428008Y-76348D01*
X427953Y-76359D01*
X427920Y-76381D01*
X427910D01*
X427822Y-76413D01*
X427746Y-76446D01*
X427680Y-76479D01*
X427625Y-76501D01*
X427582Y-76523D01*
X427549Y-76545D01*
X427538Y-76556D01*
X427527D01*
X427440Y-76621D01*
X427385Y-76676D01*
X427352Y-76719D01*
X427341Y-76741D01*
X427309Y-76807D01*
X427297Y-76872D01*
X427287Y-76916D01*
Y-76938D01*
X427297Y-77026D01*
X427319Y-77102D01*
X427363Y-77168D01*
X427407Y-77222D01*
X427451Y-77266D01*
X427494Y-77299D01*
X427516Y-77321D01*
X427527Y-77332D01*
X427625Y-77375D01*
X427735Y-77408D01*
X427964Y-77452D01*
X428074Y-77463D01*
X428161Y-77474D01*
X428237D01*
X428544Y-77463D01*
X428686Y-77452D01*
X428817Y-77430D01*
X428937Y-77419D01*
X429025Y-77408D01*
X429079Y-77397D01*
X429101D01*
X429440Y-77321D01*
X429593Y-77266D01*
X429735Y-77222D01*
X429844Y-77179D01*
X429943Y-77146D01*
X429997Y-77124D01*
X430019Y-77113D01*
Y-78195D01*
X429724Y-78250D01*
X429582Y-78282D01*
X429451Y-78293D01*
X429352Y-78315D01*
X429265Y-78326D01*
X429210Y-78337D01*
X429188D01*
X428839Y-78370D01*
X428675Y-78381D01*
X428522D01*
X428391Y-78392D01*
X428194D01*
X427888Y-78381D01*
X427757Y-78359D01*
X427636Y-78348D01*
X427527Y-78326D01*
X427451Y-78315D01*
X427407Y-78304D01*
X427385D01*
X427243Y-78272D01*
X427101Y-78228D01*
X426981Y-78184D01*
X426882Y-78140D01*
X426795Y-78108D01*
X426729Y-78075D01*
X426685Y-78053D01*
X426675Y-78042D01*
X426565Y-77965D01*
X426467Y-77878D01*
X426379Y-77802D01*
X426303Y-77725D01*
X426248Y-77649D01*
X426204Y-77594D01*
X426183Y-77561D01*
X426172Y-77550D01*
X426106Y-77430D01*
X426062Y-77310D01*
X426019Y-77179D01*
X425997Y-77069D01*
X425986Y-76971D01*
X425975Y-76883D01*
Y-76840D01*
Y-76818D01*
X425986Y-76610D01*
X425997Y-76523D01*
X426019Y-76446D01*
X426030Y-76392D01*
X426052Y-76348D01*
X426062Y-76315D01*
Y-76304D01*
X426139Y-76140D01*
X426226Y-76020D01*
X426259Y-75965D01*
X426292Y-75933D01*
X426314Y-75911D01*
X426325Y-75900D01*
X426390Y-75834D01*
X426467Y-75769D01*
X426620Y-75670D01*
X426696Y-75637D01*
X426740Y-75605D01*
X426784Y-75594D01*
X426795Y-75583D01*
X426915Y-75528D01*
X427035Y-75484D01*
X427155Y-75441D01*
X427276Y-75397D01*
X427374Y-75364D01*
X427451Y-75342D01*
X427505Y-75320D01*
X427527D01*
X427658Y-75277D01*
X427778Y-75244D01*
X427888Y-75211D01*
X427975Y-75178D01*
X428041Y-75156D01*
X428095Y-75135D01*
X428128Y-75124D01*
X428139D01*
X428292Y-75058D01*
X428402Y-75003D01*
X428445Y-74982D01*
X428478Y-74960D01*
X428489Y-74949D01*
X428500D01*
X428587Y-74883D01*
X428631Y-74829D01*
X428664Y-74785D01*
X428675Y-74774D01*
X428697Y-74708D01*
X428708Y-74632D01*
X428718Y-74588D01*
Y-74566D01*
X428708Y-74490D01*
X428686Y-74413D01*
X428609Y-74304D01*
X428565Y-74260D01*
X428533Y-74227D01*
X428511Y-74217D01*
X428500Y-74206D01*
X428412Y-74162D01*
X428314Y-74118D01*
X428117Y-74085D01*
X428041Y-74074D01*
X427964Y-74063D01*
X427910D01*
X427636Y-74074D01*
X427516Y-74085D01*
X427396Y-74096D01*
X427309Y-74107D01*
X427232Y-74118D01*
X427177Y-74129D01*
X427166D01*
X426882Y-74184D01*
X426740Y-74217D01*
X426620Y-74238D01*
X426511Y-74271D01*
X426434Y-74293D01*
X426379Y-74304D01*
X426358Y-74315D01*
Y-73331D01*
X426576Y-73287D01*
X426685Y-73277D01*
X426784Y-73266D01*
X426871Y-73244D01*
X426937D01*
X426981Y-73233D01*
X427002D01*
X427287Y-73200D01*
X427429Y-73189D01*
X427549D01*
X427669Y-73178D01*
X428030D01*
X428216Y-73200D01*
D02*
G37*
G36*
X399415Y-73287D02*
X399535Y-73255D01*
X399645Y-73233D01*
X399699D01*
X399732Y-73222D01*
X399765D01*
X399896Y-73200D01*
X400016Y-73189D01*
X400137D01*
X400344Y-73200D01*
X400530Y-73211D01*
X400705Y-73244D01*
X400858Y-73266D01*
X400989Y-73298D01*
X401077Y-73331D01*
X401142Y-73342D01*
X401153Y-73353D01*
X401164D01*
X401339Y-73419D01*
X401492Y-73495D01*
X401634Y-73583D01*
X401754Y-73670D01*
X401853Y-73736D01*
X401918Y-73801D01*
X401973Y-73845D01*
X401984Y-73856D01*
X402104Y-73987D01*
X402213Y-74118D01*
X402301Y-74260D01*
X402377Y-74391D01*
X402443Y-74512D01*
X402486Y-74599D01*
X402508Y-74665D01*
X402519Y-74676D01*
Y-74686D01*
X402585Y-74883D01*
X402629Y-75080D01*
X402661Y-75288D01*
X402683Y-75473D01*
X402694Y-75637D01*
Y-75703D01*
X402705Y-75758D01*
Y-75812D01*
Y-75845D01*
Y-75867D01*
Y-75878D01*
X402694Y-76086D01*
X402683Y-76282D01*
X402661Y-76468D01*
X402639Y-76621D01*
X402618Y-76752D01*
X402607Y-76840D01*
X402585Y-76905D01*
Y-76916D01*
Y-76927D01*
X402530Y-77091D01*
X402476Y-77244D01*
X402421Y-77375D01*
X402366Y-77495D01*
X402312Y-77583D01*
X402268Y-77659D01*
X402246Y-77703D01*
X402235Y-77714D01*
X402137Y-77834D01*
X402038Y-77933D01*
X401951Y-78020D01*
X401853Y-78086D01*
X401776Y-78140D01*
X401710Y-78184D01*
X401667Y-78206D01*
X401656Y-78217D01*
X401525Y-78272D01*
X401382Y-78315D01*
X401251Y-78348D01*
X401131Y-78370D01*
X401022Y-78381D01*
X400945Y-78392D01*
X400869D01*
X400672Y-78381D01*
X400596Y-78370D01*
X400519Y-78359D01*
X400464Y-78348D01*
X400410Y-78337D01*
X400388Y-78326D01*
X400377D01*
X400224Y-78282D01*
X400093Y-78228D01*
X400038Y-78195D01*
X400005Y-78184D01*
X399984Y-78162D01*
X399973D01*
X399830Y-78075D01*
X399721Y-77987D01*
X399677Y-77955D01*
X399645Y-77922D01*
X399623Y-77911D01*
X399612Y-77900D01*
X399492Y-77780D01*
X399382Y-77659D01*
X399349Y-77616D01*
X399317Y-77583D01*
X399295Y-77561D01*
X399284Y-77550D01*
X399262Y-78282D01*
X398213D01*
Y-71331D01*
X399415D01*
Y-73287D01*
D02*
G37*
G36*
X417329Y-73211D02*
X417460Y-73222D01*
X417581Y-73244D01*
X417679Y-73266D01*
X417756Y-73287D01*
X417799Y-73298D01*
X417821Y-73309D01*
X417952Y-73364D01*
X418073Y-73419D01*
X418182Y-73473D01*
X418269Y-73528D01*
X418346Y-73583D01*
X418411Y-73626D01*
X418444Y-73648D01*
X418455Y-73659D01*
X418543Y-73747D01*
X418630Y-73834D01*
X418707Y-73932D01*
X418761Y-74009D01*
X418805Y-74085D01*
X418838Y-74151D01*
X418860Y-74195D01*
X418870Y-74206D01*
X418914Y-74326D01*
X418947Y-74457D01*
X418980Y-74577D01*
X418991Y-74697D01*
X419002Y-74796D01*
X419013Y-74872D01*
Y-74927D01*
Y-74949D01*
X419002Y-75091D01*
X418991Y-75211D01*
X418969Y-75320D01*
X418947Y-75419D01*
X418925Y-75495D01*
X418914Y-75550D01*
X418892Y-75583D01*
Y-75594D01*
X418794Y-75769D01*
X418750Y-75845D01*
X418696Y-75911D01*
X418663Y-75954D01*
X418630Y-75998D01*
X418608Y-76020D01*
X418597Y-76031D01*
X418674Y-76118D01*
X418728Y-76195D01*
X418772Y-76249D01*
X418794Y-76260D01*
Y-76271D01*
X418860Y-76359D01*
X418903Y-76446D01*
X418947Y-76512D01*
X418958Y-76523D01*
Y-76534D01*
X419002Y-76632D01*
X419034Y-76719D01*
X419056Y-76785D01*
X419067Y-76796D01*
Y-76807D01*
X419089Y-76916D01*
X419100Y-77015D01*
X419111Y-77058D01*
Y-77080D01*
Y-77102D01*
Y-77113D01*
X419100Y-77200D01*
X419089Y-77288D01*
X419067Y-77375D01*
X419045Y-77441D01*
X419024Y-77495D01*
X419013Y-77539D01*
X418991Y-77572D01*
Y-77583D01*
X418936Y-77659D01*
X418881Y-77725D01*
X418761Y-77834D01*
X418717Y-77878D01*
X418674Y-77911D01*
X418641Y-77922D01*
X418630Y-77933D01*
X418750Y-78031D01*
X418849Y-78108D01*
X418914Y-78162D01*
X418925Y-78173D01*
X418936Y-78184D01*
X419024Y-78272D01*
X419089Y-78359D01*
X419144Y-78414D01*
X419155Y-78425D01*
Y-78435D01*
X419209Y-78545D01*
X419253Y-78632D01*
X419275Y-78698D01*
X419286Y-78709D01*
Y-78720D01*
X419308Y-78840D01*
X419319Y-78938D01*
X419330Y-78982D01*
Y-79015D01*
Y-79037D01*
Y-79048D01*
X419319Y-79146D01*
X419308Y-79244D01*
X419286Y-79332D01*
X419264Y-79408D01*
X419242Y-79474D01*
X419220Y-79518D01*
X419198Y-79550D01*
Y-79561D01*
X419144Y-79649D01*
X419078Y-79725D01*
X419013Y-79802D01*
X418947Y-79856D01*
X418892Y-79911D01*
X418838Y-79944D01*
X418805Y-79966D01*
X418794Y-79977D01*
X418685Y-80042D01*
X418565Y-80097D01*
X418444Y-80141D01*
X418335Y-80173D01*
X418237Y-80206D01*
X418149Y-80228D01*
X418105Y-80250D01*
X418083D01*
X417909Y-80283D01*
X417734Y-80304D01*
X417559Y-80326D01*
X417395Y-80337D01*
X417253D01*
X417144Y-80348D01*
X417045D01*
X416816Y-80337D01*
X416608Y-80326D01*
X416422Y-80304D01*
X416269Y-80272D01*
X416138Y-80250D01*
X416040Y-80228D01*
X415974Y-80217D01*
X415952Y-80206D01*
X415777Y-80151D01*
X415624Y-80097D01*
X415493Y-80031D01*
X415373Y-79977D01*
X415274Y-79922D01*
X415209Y-79878D01*
X415165Y-79856D01*
X415154Y-79845D01*
X415045Y-79758D01*
X414947Y-79660D01*
X414870Y-79572D01*
X414805Y-79485D01*
X414750Y-79408D01*
X414717Y-79354D01*
X414695Y-79310D01*
X414684Y-79299D01*
X414630Y-79179D01*
X414586Y-79069D01*
X414564Y-78960D01*
X414542Y-78851D01*
X414531Y-78774D01*
X414520Y-78698D01*
Y-78654D01*
Y-78643D01*
Y-78534D01*
X414542Y-78435D01*
X414564Y-78348D01*
X414586Y-78272D01*
X414608Y-78206D01*
X414630Y-78162D01*
X414641Y-78129D01*
X414651Y-78118D01*
X414706Y-78031D01*
X414761Y-77955D01*
X414816Y-77889D01*
X414881Y-77823D01*
X414925Y-77780D01*
X414968Y-77747D01*
X415001Y-77725D01*
X415012Y-77714D01*
X415198Y-77594D01*
X415373Y-77517D01*
X415449Y-77485D01*
X415504Y-77463D01*
X415548Y-77452D01*
X415559D01*
X415810Y-77397D01*
X415930Y-77375D01*
X416040Y-77364D01*
X416138Y-77353D01*
X416280D01*
X417460Y-77310D01*
X417548Y-77299D01*
X417625Y-77288D01*
X417679Y-77266D01*
X417701D01*
X417767Y-77233D01*
X417821Y-77200D01*
X417865Y-77179D01*
X417876Y-77168D01*
X417931Y-77113D01*
X417963Y-77069D01*
X417985Y-77036D01*
X417996Y-77026D01*
X418018Y-76960D01*
X418029Y-76905D01*
Y-76872D01*
Y-76862D01*
X418018Y-76774D01*
X417996Y-76709D01*
X417985Y-76665D01*
X417974Y-76643D01*
X417931Y-76566D01*
X417887Y-76512D01*
X417843Y-76468D01*
X417832Y-76457D01*
X417734Y-76501D01*
X417625Y-76545D01*
X417581Y-76556D01*
X417537Y-76566D01*
X417515Y-76577D01*
X417504D01*
X417340Y-76599D01*
X417176Y-76610D01*
X417122Y-76621D01*
X416859D01*
X416706Y-76599D01*
X416575Y-76588D01*
X416455Y-76566D01*
X416357Y-76545D01*
X416280Y-76534D01*
X416225Y-76512D01*
X416215D01*
X416083Y-76468D01*
X415963Y-76413D01*
X415854Y-76359D01*
X415756Y-76315D01*
X415679Y-76271D01*
X415624Y-76228D01*
X415591Y-76206D01*
X415581Y-76195D01*
X415482Y-76107D01*
X415406Y-76020D01*
X415340Y-75933D01*
X415274Y-75845D01*
X415231Y-75769D01*
X415198Y-75714D01*
X415187Y-75670D01*
X415176Y-75659D01*
X415122Y-75528D01*
X415089Y-75408D01*
X415056Y-75277D01*
X415045Y-75167D01*
X415034Y-75069D01*
X415023Y-74982D01*
Y-74938D01*
Y-74916D01*
X415034Y-74774D01*
X415056Y-74654D01*
X415067Y-74599D01*
X415078Y-74566D01*
X415089Y-74544D01*
Y-74533D01*
X415143Y-74391D01*
X415198Y-74271D01*
X415231Y-74227D01*
X415253Y-74195D01*
X415264Y-74173D01*
X415274Y-74162D01*
X414488Y-74162D01*
Y-73287D01*
X416225Y-73287D01*
X416357Y-73255D01*
X416477Y-73233D01*
X416521D01*
X416564Y-73222D01*
X416597D01*
X416750Y-73200D01*
X416892Y-73189D01*
X417176D01*
X417329Y-73211D01*
D02*
G37*
G36*
X428631Y-83492D02*
X428795Y-83514D01*
X428948Y-83525D01*
X429068Y-83546D01*
X429167Y-83568D01*
X429221Y-83579D01*
X429243D01*
X429418Y-83612D01*
X429571Y-83656D01*
X429713Y-83699D01*
X429833Y-83732D01*
X429932Y-83765D01*
X429997Y-83787D01*
X430052Y-83798D01*
X430063Y-83809D01*
Y-84771D01*
X429768Y-84650D01*
X429626Y-84607D01*
X429505Y-84563D01*
X429396Y-84541D01*
X429320Y-84519D01*
X429265Y-84497D01*
X429243D01*
X428915Y-84432D01*
X428773Y-84410D01*
X428631Y-84399D01*
X428522Y-84388D01*
X428358D01*
X428172Y-84399D01*
X428085Y-84410D01*
X428019Y-84421D01*
X427964Y-84432D01*
X427920Y-84443D01*
X427899Y-84453D01*
X427888D01*
X427757Y-84497D01*
X427658Y-84552D01*
X427593Y-84596D01*
X427571Y-84618D01*
X427494Y-84705D01*
X427440Y-84792D01*
X427407Y-84858D01*
X427396Y-84869D01*
Y-84880D01*
X427363Y-85000D01*
X427352Y-85109D01*
X427341Y-85164D01*
Y-85197D01*
Y-85219D01*
Y-85230D01*
Y-85525D01*
X428227D01*
X428434Y-85546D01*
X428620Y-85568D01*
X428773Y-85590D01*
X428904Y-85612D01*
X429003Y-85634D01*
X429068Y-85645D01*
X429079Y-85656D01*
X429090D01*
X429254Y-85700D01*
X429407Y-85754D01*
X429538Y-85820D01*
X429647Y-85874D01*
X429735Y-85918D01*
X429801Y-85962D01*
X429844Y-85984D01*
X429855Y-85995D01*
X429964Y-86071D01*
X430052Y-86159D01*
X430139Y-86246D01*
X430194Y-86334D01*
X430249Y-86399D01*
X430281Y-86454D01*
X430303Y-86497D01*
X430314Y-86508D01*
X430358Y-86618D01*
X430391Y-86738D01*
X430423Y-86847D01*
X430434Y-86946D01*
X430445Y-87033D01*
X430456Y-87099D01*
Y-87142D01*
Y-87164D01*
X430445Y-87405D01*
X430423Y-87514D01*
X430402Y-87601D01*
X430391Y-87678D01*
X430369Y-87732D01*
X430358Y-87776D01*
Y-87787D01*
X430270Y-87984D01*
X430216Y-88071D01*
X430172Y-88137D01*
X430128Y-88203D01*
X430096Y-88246D01*
X430074Y-88268D01*
X430063Y-88279D01*
X429899Y-88410D01*
X429746Y-88509D01*
X429680Y-88541D01*
X429626Y-88563D01*
X429593Y-88585D01*
X429582D01*
X429352Y-88651D01*
X429232Y-88673D01*
X429134Y-88683D01*
X429035D01*
X428970Y-88694D01*
X428904D01*
X428697Y-88683D01*
X428609Y-88673D01*
X428522Y-88662D01*
X428456D01*
X428412Y-88651D01*
X428380Y-88640D01*
X428369D01*
X428194Y-88596D01*
X428117Y-88563D01*
X428041Y-88541D01*
X427986Y-88520D01*
X427942Y-88498D01*
X427920Y-88487D01*
X427910D01*
X427768Y-88399D01*
X427647Y-88323D01*
X427604Y-88290D01*
X427571Y-88268D01*
X427549Y-88257D01*
X427538Y-88246D01*
X427407Y-88137D01*
X427297Y-88039D01*
X427265Y-87995D01*
X427232Y-87973D01*
X427210Y-87951D01*
X427199Y-87940D01*
X427177Y-88585D01*
X426139D01*
Y-85175D01*
Y-85022D01*
X426161Y-84880D01*
X426183Y-84760D01*
X426204Y-84650D01*
X426226Y-84563D01*
X426248Y-84497D01*
X426259Y-84453D01*
X426270Y-84443D01*
X426325Y-84333D01*
X426379Y-84224D01*
X426445Y-84137D01*
X426511Y-84060D01*
X426565Y-84005D01*
X426609Y-83951D01*
X426642Y-83929D01*
X426653Y-83918D01*
X426751Y-83842D01*
X426860Y-83776D01*
X426970Y-83721D01*
X427079Y-83667D01*
X427166Y-83634D01*
X427243Y-83612D01*
X427287Y-83590D01*
X427309D01*
X427461Y-83557D01*
X427625Y-83525D01*
X427778Y-83503D01*
X427931Y-83492D01*
X428063Y-83481D01*
X428445D01*
X428631Y-83492D01*
D02*
G37*
G36*
X400923Y-83492D02*
X401087Y-83514D01*
X401240Y-83525D01*
X401361Y-83546D01*
X401459Y-83568D01*
X401514Y-83579D01*
X401536D01*
X401710Y-83612D01*
X401863Y-83656D01*
X402005Y-83699D01*
X402126Y-83732D01*
X402224Y-83765D01*
X402290Y-83787D01*
X402344Y-83798D01*
X402355Y-83809D01*
Y-84771D01*
X402060Y-84650D01*
X401918Y-84607D01*
X401798Y-84563D01*
X401688Y-84541D01*
X401612Y-84519D01*
X401557Y-84497D01*
X401536D01*
X401208Y-84432D01*
X401065Y-84410D01*
X400923Y-84399D01*
X400814Y-84388D01*
X400650D01*
X400464Y-84399D01*
X400377Y-84410D01*
X400311Y-84421D01*
X400257Y-84432D01*
X400213Y-84443D01*
X400191Y-84453D01*
X400180D01*
X400049Y-84497D01*
X399951Y-84552D01*
X399885Y-84596D01*
X399863Y-84618D01*
X399787Y-84705D01*
X399732Y-84792D01*
X399699Y-84858D01*
X399688Y-84869D01*
Y-84880D01*
X399656Y-85000D01*
X399645Y-85109D01*
X399634Y-85164D01*
Y-85197D01*
Y-85219D01*
Y-85230D01*
Y-85525D01*
X400519D01*
X400727Y-85547D01*
X400913Y-85568D01*
X401065Y-85590D01*
X401197Y-85612D01*
X401295Y-85634D01*
X401361Y-85645D01*
X401372Y-85656D01*
X401382D01*
X401546Y-85700D01*
X401699Y-85754D01*
X401831Y-85820D01*
X401940Y-85874D01*
X402027Y-85918D01*
X402093Y-85962D01*
X402137Y-85984D01*
X402148Y-85995D01*
X402257Y-86071D01*
X402344Y-86159D01*
X402432Y-86246D01*
X402486Y-86334D01*
X402541Y-86399D01*
X402574Y-86454D01*
X402596Y-86497D01*
X402607Y-86508D01*
X402650Y-86618D01*
X402683Y-86738D01*
X402716Y-86847D01*
X402727Y-86946D01*
X402738Y-87033D01*
X402749Y-87099D01*
Y-87142D01*
Y-87164D01*
X402738Y-87405D01*
X402716Y-87514D01*
X402694Y-87601D01*
X402683Y-87678D01*
X402661Y-87733D01*
X402650Y-87776D01*
Y-87787D01*
X402563Y-87984D01*
X402508Y-88071D01*
X402465Y-88137D01*
X402421Y-88203D01*
X402388Y-88246D01*
X402366Y-88268D01*
X402355Y-88279D01*
X402191Y-88410D01*
X402038Y-88509D01*
X401973Y-88541D01*
X401918Y-88563D01*
X401885Y-88585D01*
X401874D01*
X401645Y-88651D01*
X401525Y-88673D01*
X401426Y-88683D01*
X401328D01*
X401262Y-88694D01*
X401197D01*
X400989Y-88683D01*
X400902Y-88673D01*
X400814Y-88662D01*
X400749D01*
X400705Y-88651D01*
X400672Y-88640D01*
X400661D01*
X400486Y-88596D01*
X400410Y-88563D01*
X400333Y-88541D01*
X400279Y-88520D01*
X400235Y-88498D01*
X400213Y-88487D01*
X400202D01*
X400060Y-88399D01*
X399940Y-88323D01*
X399896Y-88290D01*
X399863Y-88268D01*
X399841Y-88257D01*
X399830Y-88246D01*
X399699Y-88137D01*
X399590Y-88039D01*
X399557Y-87995D01*
X399524Y-87973D01*
X399502Y-87951D01*
X399492Y-87940D01*
X399470Y-88585D01*
X398431D01*
Y-85175D01*
Y-85022D01*
X398453Y-84880D01*
X398475Y-84760D01*
X398497Y-84650D01*
X398519Y-84563D01*
X398541Y-84497D01*
X398552Y-84453D01*
X398563Y-84443D01*
X398617Y-84333D01*
X398672Y-84224D01*
X398737Y-84137D01*
X398803Y-84060D01*
X398858Y-84005D01*
X398901Y-83951D01*
X398934Y-83929D01*
X398945Y-83918D01*
X399043Y-83842D01*
X399153Y-83776D01*
X399262Y-83721D01*
X399371Y-83667D01*
X399459Y-83634D01*
X399535Y-83612D01*
X399579Y-83590D01*
X399601D01*
X399754Y-83557D01*
X399918Y-83525D01*
X400071Y-83503D01*
X400224Y-83492D01*
X400355Y-83481D01*
X400738D01*
X400923Y-83492D01*
D02*
G37*
G36*
X441441Y-88585D02*
X440206D01*
Y-85481D01*
X438282Y-88585D01*
X436719D01*
X439014Y-85230D01*
X436829Y-82158D01*
X438293D01*
X440206Y-85098D01*
Y-82158D01*
X441441D01*
Y-88585D01*
D02*
G37*
G36*
X368013Y-86071D02*
X369882Y-88585D01*
X368428D01*
X367281Y-86902D01*
X366144Y-88585D01*
X364647D01*
X366472Y-86060D01*
X364745Y-83590D01*
X366101D01*
X367194Y-85241D01*
X368319Y-83590D01*
X369773D01*
X368013Y-86071D01*
D02*
G37*
G36*
X380659Y-88585D02*
X379555D01*
Y-86596D01*
Y-83929D01*
X379205Y-84760D01*
X377489Y-88585D01*
X376003D01*
Y-82158D01*
X377107D01*
Y-83940D01*
Y-86771D01*
X377424Y-86027D01*
X379173Y-82158D01*
X380659D01*
Y-88585D01*
D02*
G37*
G36*
X411711Y-83492D02*
X411897Y-83514D01*
X412061Y-83546D01*
X412203Y-83579D01*
X412323Y-83612D01*
X412411Y-83645D01*
X412465Y-83667D01*
X412487Y-83678D01*
X412640Y-83754D01*
X412782Y-83852D01*
X412914Y-83940D01*
X413023Y-84027D01*
X413110Y-84115D01*
X413176Y-84180D01*
X413220Y-84224D01*
X413231Y-84235D01*
X413340Y-84377D01*
X413427Y-84519D01*
X413515Y-84661D01*
X413580Y-84792D01*
X413635Y-84913D01*
X413668Y-85000D01*
X413690Y-85066D01*
X413701Y-85077D01*
Y-85088D01*
X413755Y-85273D01*
X413799Y-85470D01*
X413821Y-85656D01*
X413843Y-85820D01*
X413854Y-85973D01*
X413865Y-86093D01*
Y-86137D01*
Y-86159D01*
Y-86181D01*
Y-86191D01*
X413854Y-86410D01*
X413843Y-86618D01*
X413810Y-86804D01*
X413777Y-86957D01*
X413755Y-87088D01*
X413723Y-87186D01*
X413712Y-87252D01*
X413701Y-87263D01*
Y-87274D01*
X413635Y-87437D01*
X413558Y-87590D01*
X413471Y-87733D01*
X413395Y-87842D01*
X413329Y-87940D01*
X413274Y-88006D01*
X413231Y-88050D01*
X413220Y-88060D01*
X413099Y-88170D01*
X412968Y-88268D01*
X412837Y-88356D01*
X412717Y-88421D01*
X412608Y-88476D01*
X412531Y-88509D01*
X412476Y-88530D01*
X412455Y-88541D01*
X412280Y-88596D01*
X412105Y-88629D01*
X411930Y-88662D01*
X411777Y-88673D01*
X411635Y-88683D01*
X411525Y-88694D01*
X411263D01*
X411110Y-88683D01*
X411056D01*
X411012Y-88673D01*
X410968D01*
X410793Y-88651D01*
X410706D01*
X410640Y-88640D01*
X410575Y-88629D01*
X410531Y-88618D01*
X410487D01*
X410312Y-88596D01*
X410236Y-88585D01*
X410170Y-88574D01*
X410105Y-88563D01*
X410061Y-88552D01*
X410028D01*
X409864Y-88520D01*
X409733Y-88476D01*
X409678Y-88465D01*
X409635Y-88454D01*
X409613Y-88443D01*
X409602D01*
Y-87492D01*
X409766Y-87536D01*
X409930Y-87580D01*
X410072Y-87612D01*
X410203Y-87634D01*
X410312Y-87656D01*
X410389Y-87667D01*
X410443Y-87678D01*
X410465D01*
X410618Y-87700D01*
X410760Y-87711D01*
X410892Y-87722D01*
X411012D01*
X411110Y-87733D01*
X411241D01*
X411460Y-87722D01*
X411558Y-87700D01*
X411646Y-87689D01*
X411722Y-87667D01*
X411777Y-87656D01*
X411810Y-87645D01*
X411821D01*
X411996Y-87569D01*
X412072Y-87525D01*
X412138Y-87481D01*
X412181Y-87448D01*
X412225Y-87416D01*
X412247Y-87405D01*
X412258Y-87394D01*
X412378Y-87252D01*
X412465Y-87120D01*
X412498Y-87066D01*
X412520Y-87022D01*
X412542Y-86989D01*
Y-86978D01*
X412597Y-86782D01*
X412618Y-86683D01*
X412630Y-86585D01*
Y-86508D01*
X412640Y-86443D01*
Y-86399D01*
Y-86388D01*
X409361D01*
X409350Y-86257D01*
Y-86148D01*
X409340Y-86093D01*
Y-86060D01*
Y-86038D01*
Y-86027D01*
X409329Y-85896D01*
Y-85798D01*
Y-85732D01*
Y-85711D01*
X409340Y-85536D01*
X409350Y-85361D01*
X409372Y-85208D01*
X409405Y-85077D01*
X409438Y-84967D01*
X409460Y-84880D01*
X409471Y-84836D01*
X409482Y-84814D01*
X409536Y-84672D01*
X409602Y-84530D01*
X409678Y-84410D01*
X409744Y-84311D01*
X409799Y-84224D01*
X409853Y-84169D01*
X409886Y-84126D01*
X409897Y-84115D01*
X410006Y-84005D01*
X410116Y-83918D01*
X410236Y-83842D01*
X410345Y-83776D01*
X410443Y-83721D01*
X410520Y-83688D01*
X410564Y-83667D01*
X410586Y-83656D01*
X410739Y-83601D01*
X410903Y-83557D01*
X411056Y-83525D01*
X411198Y-83503D01*
X411329Y-83492D01*
X411427Y-83481D01*
X411515D01*
X411711Y-83492D01*
D02*
G37*
G36*
X361838D02*
X362024Y-83514D01*
X362188Y-83546D01*
X362330Y-83579D01*
X362450Y-83612D01*
X362537Y-83645D01*
X362592Y-83667D01*
X362614Y-83678D01*
X362767Y-83754D01*
X362909Y-83852D01*
X363040Y-83940D01*
X363149Y-84027D01*
X363237Y-84115D01*
X363302Y-84180D01*
X363346Y-84224D01*
X363357Y-84235D01*
X363466Y-84377D01*
X363554Y-84519D01*
X363641Y-84661D01*
X363707Y-84792D01*
X363761Y-84913D01*
X363794Y-85000D01*
X363816Y-85066D01*
X363827Y-85077D01*
Y-85088D01*
X363882Y-85273D01*
X363925Y-85470D01*
X363947Y-85656D01*
X363969Y-85820D01*
X363980Y-85973D01*
X363991Y-86093D01*
Y-86137D01*
Y-86159D01*
Y-86181D01*
Y-86191D01*
X363980Y-86410D01*
X363969Y-86618D01*
X363936Y-86804D01*
X363903Y-86957D01*
X363882Y-87088D01*
X363849Y-87186D01*
X363838Y-87252D01*
X363827Y-87263D01*
Y-87274D01*
X363761Y-87437D01*
X363685Y-87590D01*
X363597Y-87733D01*
X363521Y-87842D01*
X363455Y-87940D01*
X363401Y-88006D01*
X363357Y-88050D01*
X363346Y-88060D01*
X363226Y-88170D01*
X363095Y-88268D01*
X362964Y-88356D01*
X362843Y-88421D01*
X362734Y-88476D01*
X362657Y-88509D01*
X362603Y-88530D01*
X362581Y-88541D01*
X362406Y-88596D01*
X362231Y-88629D01*
X362056Y-88662D01*
X361903Y-88673D01*
X361761Y-88683D01*
X361652Y-88694D01*
X361390D01*
X361237Y-88683D01*
X361182D01*
X361138Y-88673D01*
X361094D01*
X360920Y-88651D01*
X360832D01*
X360767Y-88640D01*
X360701Y-88629D01*
X360657Y-88618D01*
X360614D01*
X360439Y-88596D01*
X360362Y-88585D01*
X360297Y-88574D01*
X360231Y-88563D01*
X360187Y-88552D01*
X360155D01*
X359991Y-88520D01*
X359859Y-88476D01*
X359805Y-88465D01*
X359761Y-88454D01*
X359739Y-88443D01*
X359728D01*
Y-87492D01*
X359892Y-87536D01*
X360056Y-87580D01*
X360198Y-87612D01*
X360329Y-87634D01*
X360439Y-87656D01*
X360515Y-87667D01*
X360570Y-87678D01*
X360592D01*
X360745Y-87700D01*
X360887Y-87711D01*
X361018Y-87722D01*
X361138D01*
X361237Y-87733D01*
X361368D01*
X361586Y-87722D01*
X361685Y-87700D01*
X361772Y-87689D01*
X361849Y-87667D01*
X361903Y-87656D01*
X361936Y-87645D01*
X361947D01*
X362122Y-87569D01*
X362198Y-87525D01*
X362264Y-87481D01*
X362308Y-87448D01*
X362351Y-87416D01*
X362373Y-87405D01*
X362384Y-87394D01*
X362505Y-87252D01*
X362592Y-87120D01*
X362625Y-87066D01*
X362647Y-87022D01*
X362668Y-86989D01*
Y-86978D01*
X362723Y-86782D01*
X362745Y-86683D01*
X362756Y-86585D01*
Y-86508D01*
X362767Y-86443D01*
Y-86399D01*
Y-86388D01*
X359488D01*
X359477Y-86257D01*
Y-86148D01*
X359466Y-86093D01*
Y-86060D01*
Y-86038D01*
Y-86027D01*
X359455Y-85896D01*
Y-85798D01*
Y-85732D01*
Y-85711D01*
X359466Y-85536D01*
X359477Y-85361D01*
X359499Y-85208D01*
X359531Y-85077D01*
X359564Y-84967D01*
X359586Y-84880D01*
X359597Y-84836D01*
X359608Y-84814D01*
X359663Y-84672D01*
X359728Y-84530D01*
X359805Y-84410D01*
X359870Y-84311D01*
X359925Y-84224D01*
X359980Y-84169D01*
X360012Y-84126D01*
X360023Y-84115D01*
X360133Y-84005D01*
X360242Y-83918D01*
X360362Y-83842D01*
X360472Y-83776D01*
X360570Y-83721D01*
X360646Y-83688D01*
X360690Y-83667D01*
X360712Y-83656D01*
X360865Y-83601D01*
X361029Y-83557D01*
X361182Y-83525D01*
X361324Y-83503D01*
X361455Y-83492D01*
X361554Y-83481D01*
X361641D01*
X361838Y-83492D01*
D02*
G37*
G36*
X357324Y-82322D02*
Y-83590D01*
X358657Y-83590D01*
Y-84530D01*
X357324Y-84530D01*
Y-86967D01*
Y-87131D01*
X357302Y-87274D01*
X357291Y-87405D01*
X357269Y-87525D01*
X357247Y-87612D01*
X357236Y-87689D01*
X357214Y-87733D01*
Y-87744D01*
X357171Y-87864D01*
X357116Y-87962D01*
X357061Y-88060D01*
X357007Y-88137D01*
X356952Y-88203D01*
X356908Y-88246D01*
X356887Y-88279D01*
X356875Y-88290D01*
X356788Y-88367D01*
X356690Y-88421D01*
X356493Y-88520D01*
X356417Y-88552D01*
X356340Y-88574D01*
X356296Y-88596D01*
X356285D01*
X356143Y-88629D01*
X356001Y-88651D01*
X355859Y-88673D01*
X355728Y-88683D01*
X355608D01*
X355520Y-88694D01*
X355433D01*
X355214Y-88683D01*
X355105Y-88673D01*
X355007Y-88662D01*
X354930D01*
X354864Y-88651D01*
X354821Y-88640D01*
X354810D01*
X354569Y-88607D01*
X354460Y-88585D01*
X354362Y-88563D01*
X354274Y-88552D01*
X354209Y-88541D01*
X354165Y-88530D01*
X354154D01*
Y-87569D01*
X354340Y-87612D01*
X354427Y-87634D01*
X354504Y-87656D01*
X354580Y-87667D01*
X354635Y-87678D01*
X354668Y-87689D01*
X354679D01*
X354886Y-87711D01*
X354974Y-87722D01*
X355061D01*
X355138Y-87733D01*
X355247D01*
X355411Y-87722D01*
X355542Y-87700D01*
X355651Y-87667D01*
X355750Y-87623D01*
X355815Y-87590D01*
X355859Y-87558D01*
X355892Y-87536D01*
X355903Y-87525D01*
X355968Y-87437D01*
X356012Y-87328D01*
X356045Y-87230D01*
X356067Y-87120D01*
X356078Y-87022D01*
X356089Y-86946D01*
Y-86902D01*
Y-86880D01*
Y-84530D01*
X354154D01*
Y-83590D01*
X356089D01*
Y-81994D01*
X357324Y-82322D01*
D02*
G37*
G36*
X433396Y-83492D02*
X433473Y-83503D01*
X433549Y-83514D01*
X433604Y-83525D01*
X433648Y-83535D01*
X433681Y-83546D01*
X433692D01*
X433845Y-83601D01*
X433976Y-83656D01*
X434030Y-83678D01*
X434074Y-83699D01*
X434096Y-83710D01*
X434107Y-83721D01*
X434249Y-83809D01*
X434358Y-83896D01*
X434402Y-83929D01*
X434435Y-83962D01*
X434457Y-83973D01*
X434468Y-83984D01*
X434588Y-84104D01*
X434686Y-84213D01*
X434730Y-84268D01*
X434763Y-84301D01*
X434774Y-84322D01*
X434785Y-84333D01*
X434806Y-83590D01*
X435845D01*
Y-88585D01*
X434643D01*
Y-85426D01*
X434533Y-85273D01*
X434424Y-85142D01*
X434326Y-85033D01*
X434238Y-84935D01*
X434162Y-84858D01*
X434107Y-84803D01*
X434074Y-84771D01*
X434063Y-84760D01*
X433954Y-84672D01*
X433855Y-84618D01*
X433746Y-84574D01*
X433659Y-84541D01*
X433582Y-84519D01*
X433528Y-84508D01*
X433473D01*
X433364Y-84519D01*
X433265Y-84541D01*
X433189Y-84585D01*
X433123Y-84639D01*
X433014Y-84771D01*
X432937Y-84923D01*
X432894Y-85076D01*
X432872Y-85208D01*
X432861Y-85262D01*
Y-85306D01*
Y-85328D01*
Y-85339D01*
Y-88585D01*
X431659D01*
Y-85241D01*
Y-85098D01*
X431670Y-84956D01*
X431691Y-84836D01*
X431702Y-84727D01*
X431724Y-84639D01*
X431746Y-84574D01*
X431757Y-84530D01*
Y-84519D01*
X431801Y-84399D01*
X431844Y-84290D01*
X431888Y-84202D01*
X431943Y-84115D01*
X431987Y-84049D01*
X432019Y-84005D01*
X432041Y-83973D01*
X432052Y-83962D01*
X432205Y-83809D01*
X432358Y-83699D01*
X432424Y-83667D01*
X432478Y-83634D01*
X432511Y-83612D01*
X432522D01*
X432631Y-83568D01*
X432752Y-83535D01*
X432861Y-83514D01*
X432970Y-83492D01*
X433058D01*
X433134Y-83481D01*
X433200D01*
X433396Y-83492D01*
D02*
G37*
G36*
X424565Y-82574D02*
X423155D01*
Y-87645D01*
X424740D01*
Y-88585D01*
X420488D01*
Y-87645D01*
X421920D01*
Y-81634D01*
X424565D01*
Y-82574D01*
D02*
G37*
G36*
X419024D02*
X417614D01*
Y-87645D01*
X419198D01*
Y-88585D01*
X414947D01*
Y-87645D01*
X416378D01*
Y-81634D01*
X419024D01*
Y-82574D01*
D02*
G37*
G36*
X394606Y-83492D02*
X394682Y-83503D01*
X394759Y-83514D01*
X394814Y-83525D01*
X394857Y-83535D01*
X394890Y-83546D01*
X394901D01*
X395054Y-83601D01*
X395185Y-83656D01*
X395240Y-83678D01*
X395284Y-83699D01*
X395305Y-83710D01*
X395316Y-83721D01*
X395458Y-83809D01*
X395568Y-83896D01*
X395612Y-83929D01*
X395644Y-83962D01*
X395666Y-83973D01*
X395677Y-83984D01*
X395797Y-84104D01*
X395896Y-84213D01*
X395939Y-84268D01*
X395972Y-84301D01*
X395983Y-84322D01*
X395994Y-84333D01*
X396016Y-83590D01*
X397054D01*
Y-88585D01*
X395852D01*
Y-85426D01*
X395743Y-85273D01*
X395633Y-85142D01*
X395535Y-85033D01*
X395447Y-84935D01*
X395371Y-84858D01*
X395316Y-84803D01*
X395284Y-84771D01*
X395273Y-84760D01*
X395163Y-84672D01*
X395065Y-84618D01*
X394956Y-84574D01*
X394868Y-84541D01*
X394792Y-84519D01*
X394737Y-84508D01*
X394682D01*
X394573Y-84519D01*
X394475Y-84541D01*
X394398Y-84585D01*
X394333Y-84639D01*
X394223Y-84771D01*
X394147Y-84923D01*
X394103Y-85077D01*
X394081Y-85208D01*
X394070Y-85262D01*
Y-85306D01*
Y-85328D01*
Y-85339D01*
Y-88585D01*
X392868D01*
Y-85241D01*
Y-85098D01*
X392879Y-84956D01*
X392901Y-84836D01*
X392912Y-84727D01*
X392934Y-84639D01*
X392955Y-84574D01*
X392966Y-84530D01*
Y-84519D01*
X393010Y-84399D01*
X393054Y-84290D01*
X393098Y-84202D01*
X393152Y-84115D01*
X393196Y-84049D01*
X393229Y-84005D01*
X393251Y-83973D01*
X393262Y-83962D01*
X393414Y-83809D01*
X393567Y-83699D01*
X393633Y-83667D01*
X393688Y-83634D01*
X393721Y-83612D01*
X393731D01*
X393841Y-83568D01*
X393961Y-83535D01*
X394070Y-83514D01*
X394180Y-83492D01*
X394267D01*
X394344Y-83481D01*
X394409D01*
X394606Y-83492D01*
D02*
G37*
G36*
X388540Y-83590D02*
X388660Y-83557D01*
X388769Y-83535D01*
X388824D01*
X388857Y-83525D01*
X388890D01*
X389021Y-83503D01*
X389141Y-83492D01*
X389261D01*
X389469Y-83503D01*
X389655Y-83514D01*
X389829Y-83546D01*
X389983Y-83568D01*
X390114Y-83601D01*
X390201Y-83634D01*
X390267Y-83645D01*
X390278Y-83656D01*
X390288D01*
X390463Y-83721D01*
X390616Y-83798D01*
X390758Y-83885D01*
X390879Y-83973D01*
X390977Y-84038D01*
X391043Y-84104D01*
X391097Y-84148D01*
X391108Y-84158D01*
X391229Y-84290D01*
X391338Y-84421D01*
X391425Y-84563D01*
X391502Y-84694D01*
X391567Y-84814D01*
X391611Y-84902D01*
X391633Y-84967D01*
X391644Y-84978D01*
Y-84989D01*
X391709Y-85186D01*
X391753Y-85383D01*
X391786Y-85590D01*
X391808Y-85776D01*
X391819Y-85940D01*
Y-86006D01*
X391830Y-86060D01*
Y-86115D01*
Y-86148D01*
Y-86170D01*
Y-86181D01*
X391819Y-86388D01*
X391808Y-86585D01*
X391786Y-86771D01*
X391764Y-86924D01*
X391742Y-87055D01*
X391731Y-87142D01*
X391709Y-87208D01*
Y-87219D01*
Y-87230D01*
X391655Y-87394D01*
X391600Y-87547D01*
X391546Y-87678D01*
X391491Y-87798D01*
X391436Y-87886D01*
X391392Y-87962D01*
X391371Y-88006D01*
X391360Y-88017D01*
X391261Y-88137D01*
X391163Y-88235D01*
X391075Y-88323D01*
X390977Y-88388D01*
X390901Y-88443D01*
X390835Y-88487D01*
X390791Y-88509D01*
X390780Y-88520D01*
X390649Y-88574D01*
X390507Y-88618D01*
X390376Y-88651D01*
X390256Y-88673D01*
X390146Y-88683D01*
X390070Y-88694D01*
X389993D01*
X389797Y-88683D01*
X389720Y-88673D01*
X389644Y-88662D01*
X389589Y-88651D01*
X389534Y-88640D01*
X389512Y-88629D01*
X389502D01*
X389349Y-88585D01*
X389217Y-88530D01*
X389163Y-88498D01*
X389130Y-88487D01*
X389108Y-88465D01*
X389097D01*
X388955Y-88377D01*
X388846Y-88290D01*
X388802Y-88257D01*
X388769Y-88224D01*
X388747Y-88213D01*
X388737Y-88203D01*
X388616Y-88082D01*
X388507Y-87962D01*
X388474Y-87918D01*
X388441Y-87886D01*
X388420Y-87864D01*
X388409Y-87853D01*
X388387Y-88585D01*
X387337D01*
Y-81634D01*
X388540D01*
Y-83590D01*
D02*
G37*
G36*
X372975Y-83492D02*
X373172Y-83514D01*
X373347Y-83546D01*
X373500Y-83579D01*
X373631Y-83612D01*
X373730Y-83645D01*
X373784Y-83667D01*
X373806Y-83678D01*
X373970Y-83754D01*
X374112Y-83842D01*
X374243Y-83929D01*
X374353Y-84016D01*
X374451Y-84093D01*
X374517Y-84158D01*
X374560Y-84202D01*
X374571Y-84213D01*
X374680Y-84344D01*
X374779Y-84486D01*
X374866Y-84628D01*
X374932Y-84760D01*
X374987Y-84869D01*
X375030Y-84956D01*
X375052Y-85022D01*
X375063Y-85033D01*
Y-85044D01*
X375118Y-85230D01*
X375161Y-85415D01*
X375183Y-85590D01*
X375205Y-85754D01*
X375216Y-85907D01*
X375227Y-86016D01*
Y-86060D01*
Y-86093D01*
Y-86104D01*
Y-86115D01*
X375216Y-86344D01*
X375205Y-86563D01*
X375183Y-86760D01*
X375150Y-86924D01*
X375118Y-87066D01*
X375096Y-87164D01*
X375085Y-87230D01*
X375074Y-87241D01*
Y-87252D01*
X375008Y-87427D01*
X374932Y-87580D01*
X374855Y-87722D01*
X374779Y-87831D01*
X374713Y-87929D01*
X374659Y-88006D01*
X374615Y-88050D01*
X374604Y-88060D01*
X374484Y-88170D01*
X374363Y-88268D01*
X374232Y-88356D01*
X374112Y-88421D01*
X374014Y-88476D01*
X373937Y-88509D01*
X373883Y-88530D01*
X373861Y-88541D01*
X373697Y-88596D01*
X373522Y-88629D01*
X373358Y-88662D01*
X373194Y-88673D01*
X373063Y-88683D01*
X372965Y-88694D01*
X372866D01*
X372648Y-88683D01*
X372451Y-88662D01*
X372276Y-88640D01*
X372123Y-88596D01*
X372003Y-88563D01*
X371904Y-88541D01*
X371850Y-88520D01*
X371828Y-88509D01*
X371664Y-88432D01*
X371511Y-88345D01*
X371380Y-88257D01*
X371270Y-88170D01*
X371172Y-88093D01*
X371106Y-88028D01*
X371063Y-87984D01*
X371052Y-87973D01*
X370942Y-87831D01*
X370844Y-87689D01*
X370757Y-87558D01*
X370691Y-87416D01*
X370636Y-87306D01*
X370604Y-87208D01*
X370582Y-87153D01*
X370571Y-87131D01*
X370516Y-86946D01*
X370473Y-86760D01*
X370440Y-86574D01*
X370418Y-86410D01*
X370407Y-86257D01*
X370396Y-86148D01*
Y-86104D01*
Y-86071D01*
Y-86060D01*
Y-86049D01*
X370407Y-85820D01*
X370418Y-85612D01*
X370451Y-85426D01*
X370473Y-85262D01*
X370505Y-85131D01*
X370538Y-85033D01*
X370549Y-84967D01*
X370560Y-84945D01*
X370625Y-84771D01*
X370702Y-84618D01*
X370778Y-84486D01*
X370855Y-84366D01*
X370921Y-84268D01*
X370975Y-84202D01*
X371019Y-84158D01*
X371030Y-84148D01*
X371150Y-84027D01*
X371270Y-83929D01*
X371402Y-83852D01*
X371511Y-83776D01*
X371620Y-83721D01*
X371697Y-83688D01*
X371751Y-83667D01*
X371773Y-83656D01*
X371937Y-83601D01*
X372112Y-83557D01*
X372276Y-83525D01*
X372429Y-83503D01*
X372571Y-83492D01*
X372669Y-83481D01*
X372768D01*
X372975Y-83492D01*
D02*
G37*
G36*
X429505Y-97040D02*
X425636D01*
Y-96013D01*
X428270D01*
Y-94231D01*
X425756D01*
Y-93237D01*
X428270D01*
Y-91641D01*
X425636D01*
Y-90614D01*
X429505D01*
Y-97040D01*
D02*
G37*
G36*
X424478Y-91619D02*
X422718D01*
Y-97040D01*
X421483D01*
Y-91619D01*
X419723D01*
Y-90614D01*
X424478D01*
Y-91619D01*
D02*
G37*
G36*
X418422Y-97040D02*
X417187D01*
Y-94406D01*
X414761Y-94406D01*
Y-93412D01*
X417187Y-93412D01*
Y-91641D01*
X414619Y-91641D01*
Y-90614D01*
X418422Y-90614D01*
Y-97040D01*
D02*
G37*
G36*
X438479Y-89991D02*
X438643Y-90013D01*
X438796Y-90045D01*
X438927Y-90078D01*
X439036Y-90111D01*
X439113Y-90144D01*
X439167Y-90166D01*
X439189Y-90176D01*
X439342Y-90253D01*
X439485Y-90340D01*
X439616Y-90428D01*
X439725Y-90515D01*
X439823Y-90592D01*
X439889Y-90657D01*
X439944Y-90701D01*
X439955Y-90712D01*
X440086Y-90843D01*
X440195Y-90985D01*
X440304Y-91127D01*
X440392Y-91259D01*
X440468Y-91368D01*
X440534Y-91455D01*
X440567Y-91521D01*
X440578Y-91532D01*
Y-91543D01*
X440763Y-91914D01*
X440851Y-92089D01*
X440916Y-92253D01*
X440971Y-92406D01*
X441015Y-92515D01*
X441026Y-92559D01*
X441037Y-92592D01*
X441047Y-92603D01*
Y-92614D01*
X441179Y-93062D01*
X441233Y-93281D01*
X441277Y-93477D01*
X441310Y-93641D01*
X441321Y-93718D01*
X441332Y-93773D01*
X441343Y-93827D01*
X441354Y-93860D01*
Y-93882D01*
Y-93893D01*
X441386Y-94144D01*
X441408Y-94396D01*
X441419Y-94636D01*
X441430Y-94854D01*
X441441Y-95040D01*
Y-95117D01*
Y-95182D01*
Y-95237D01*
Y-95281D01*
Y-95303D01*
Y-95314D01*
X441430Y-95652D01*
X441419Y-95969D01*
X441397Y-96254D01*
X441375Y-96385D01*
X441364Y-96505D01*
X441354Y-96603D01*
X441332Y-96702D01*
X441321Y-96778D01*
X441310Y-96844D01*
X441299Y-96898D01*
Y-96942D01*
X441288Y-96964D01*
Y-96975D01*
X441222Y-97226D01*
X441146Y-97456D01*
X441080Y-97653D01*
X441004Y-97817D01*
X440938Y-97959D01*
X440883Y-98057D01*
X440840Y-98123D01*
X440829Y-98133D01*
Y-98145D01*
X440709Y-98308D01*
X440567Y-98461D01*
X440435Y-98582D01*
X440315Y-98680D01*
X440206Y-98768D01*
X440118Y-98822D01*
X440064Y-98855D01*
X440042Y-98866D01*
X439856Y-98942D01*
X439659Y-99008D01*
X439473Y-99052D01*
X439299Y-99073D01*
X439146Y-99095D01*
X439025Y-99106D01*
X438741D01*
X438588Y-99084D01*
X438435Y-99073D01*
X438304Y-99052D01*
X438195Y-99030D01*
X438107Y-99019D01*
X438053Y-98997D01*
X438031D01*
X437867Y-98953D01*
X437725Y-98899D01*
X437583Y-98855D01*
X437462Y-98800D01*
X437364Y-98756D01*
X437288Y-98724D01*
X437244Y-98702D01*
X437222Y-98691D01*
Y-97751D01*
X437397Y-97849D01*
X437473Y-97882D01*
X437550Y-97915D01*
X437605Y-97948D01*
X437648Y-97970D01*
X437670Y-97980D01*
X437681D01*
X437834Y-98046D01*
X437965Y-98090D01*
X438009Y-98112D01*
X438053Y-98123D01*
X438074Y-98133D01*
X438085D01*
X438228Y-98166D01*
X438348Y-98188D01*
X438402Y-98199D01*
X438435Y-98210D01*
X438468D01*
X438599Y-98232D01*
X438719Y-98243D01*
X438840D01*
X438982Y-98232D01*
X439113Y-98210D01*
X439222Y-98177D01*
X439331Y-98145D01*
X439408Y-98112D01*
X439473Y-98079D01*
X439517Y-98057D01*
X439528Y-98046D01*
X439638Y-97970D01*
X439736Y-97882D01*
X439823Y-97784D01*
X439900Y-97696D01*
X439965Y-97620D01*
X440009Y-97554D01*
X440042Y-97500D01*
X440053Y-97489D01*
X440129Y-97347D01*
X440195Y-97194D01*
X440239Y-97040D01*
X440293Y-96898D01*
X440326Y-96778D01*
X440348Y-96669D01*
X440370Y-96603D01*
Y-96592D01*
Y-96582D01*
X440403Y-96374D01*
X440435Y-96155D01*
X440457Y-95937D01*
X440468Y-95740D01*
Y-95565D01*
X440479Y-95489D01*
Y-95423D01*
Y-95368D01*
Y-95336D01*
Y-95314D01*
Y-95303D01*
Y-95073D01*
X440468Y-94866D01*
X440457Y-94669D01*
X440435Y-94483D01*
X440424Y-94341D01*
X440414Y-94231D01*
Y-94188D01*
X440403Y-94155D01*
Y-94144D01*
Y-94133D01*
X440370Y-93925D01*
X440337Y-93729D01*
X440304Y-93543D01*
X440261Y-93390D01*
X440228Y-93259D01*
X440206Y-93160D01*
X440195Y-93095D01*
X440184Y-93073D01*
X440129Y-92887D01*
X440075Y-92723D01*
X440020Y-92559D01*
X439965Y-92428D01*
X439922Y-92319D01*
X439889Y-92231D01*
X439867Y-92188D01*
X439856Y-92166D01*
X439780Y-92024D01*
X439703Y-91882D01*
X439627Y-91761D01*
X439561Y-91663D01*
X439506Y-91575D01*
X439463Y-91521D01*
X439430Y-91477D01*
X439419Y-91466D01*
X439331Y-91357D01*
X439233Y-91269D01*
X439157Y-91193D01*
X439080Y-91127D01*
X439014Y-91073D01*
X438960Y-91040D01*
X438927Y-91018D01*
X438916Y-91007D01*
X438818Y-90952D01*
X438708Y-90909D01*
X438621Y-90887D01*
X438534Y-90865D01*
X438457Y-90854D01*
X438402Y-90843D01*
X438348D01*
X438217Y-90854D01*
X438096Y-90876D01*
X437987Y-90898D01*
X437889Y-90931D01*
X437812Y-90974D01*
X437757Y-90996D01*
X437725Y-91018D01*
X437714Y-91029D01*
X437615Y-91106D01*
X437528Y-91193D01*
X437452Y-91280D01*
X437397Y-91368D01*
X437342Y-91455D01*
X437309Y-91521D01*
X437288Y-91565D01*
X437277Y-91575D01*
X437211Y-91718D01*
X437167Y-91860D01*
X437124Y-92002D01*
X437080Y-92144D01*
X437058Y-92264D01*
X437036Y-92362D01*
X437025Y-92428D01*
Y-92439D01*
Y-92450D01*
X437003Y-92647D01*
X436981Y-92854D01*
X436971Y-93051D01*
X436960Y-93248D01*
X436949Y-93412D01*
Y-93477D01*
Y-93532D01*
Y-93587D01*
Y-93619D01*
Y-93641D01*
Y-93652D01*
Y-93860D01*
X436960Y-94046D01*
Y-94231D01*
X436971Y-94396D01*
X436981Y-94548D01*
X436992Y-94680D01*
X437003Y-94811D01*
X437014Y-94920D01*
X437036Y-95019D01*
X437047Y-95106D01*
X437058Y-95182D01*
X437069Y-95237D01*
X437080Y-95281D01*
Y-95324D01*
X437091Y-95336D01*
Y-95346D01*
X437113Y-95445D01*
X437146Y-95532D01*
X437167Y-95609D01*
X437200Y-95663D01*
X437244Y-95773D01*
X437298Y-95838D01*
X437342Y-95871D01*
X437375Y-95893D01*
X437397Y-95904D01*
X437408D01*
X437452Y-95893D01*
X437495Y-95871D01*
X437506Y-95860D01*
X437517Y-95849D01*
X437528Y-95827D01*
X437539Y-95784D01*
X437550Y-95707D01*
Y-95631D01*
Y-95609D01*
Y-95598D01*
Y-95499D01*
Y-95412D01*
Y-95346D01*
Y-95336D01*
Y-95324D01*
X437539Y-95204D01*
X437528Y-95117D01*
X437517Y-95051D01*
Y-95040D01*
Y-95029D01*
X437255Y-92341D01*
X437998Y-92494D01*
X438085Y-92461D01*
X438162Y-92439D01*
X438228Y-92417D01*
X438260D01*
X438370Y-92395D01*
X438479Y-92373D01*
X438697D01*
X438807Y-92395D01*
X438905Y-92417D01*
X438982Y-92439D01*
X439047Y-92461D01*
X439102Y-92483D01*
X439135Y-92494D01*
X439146Y-92505D01*
X439310Y-92603D01*
X439430Y-92712D01*
X439485Y-92756D01*
X439517Y-92800D01*
X439539Y-92822D01*
X439550Y-92832D01*
X439659Y-92985D01*
X439747Y-93150D01*
X439780Y-93215D01*
X439802Y-93270D01*
X439823Y-93303D01*
Y-93313D01*
X439900Y-93521D01*
X439922Y-93619D01*
X439955Y-93707D01*
X439976Y-93783D01*
X439987Y-93849D01*
X439998Y-93893D01*
Y-93904D01*
X440042Y-94133D01*
X440053Y-94242D01*
X440064Y-94341D01*
X440075Y-94428D01*
X440086Y-94494D01*
Y-94538D01*
Y-94548D01*
X440097Y-94789D01*
Y-94898D01*
X440107Y-94997D01*
Y-95073D01*
Y-95139D01*
Y-95182D01*
Y-95193D01*
Y-95346D01*
X440097Y-95489D01*
X440086Y-95620D01*
X440075Y-95729D01*
X440064Y-95816D01*
X440053Y-95882D01*
X440042Y-95926D01*
Y-95937D01*
X440020Y-96046D01*
X439987Y-96144D01*
X439955Y-96232D01*
X439922Y-96297D01*
X439900Y-96363D01*
X439878Y-96407D01*
X439856Y-96428D01*
Y-96439D01*
X439758Y-96570D01*
X439648Y-96658D01*
X439616Y-96680D01*
X439583Y-96702D01*
X439561Y-96724D01*
X439550D01*
X439419Y-96778D01*
X439288Y-96800D01*
X439233Y-96811D01*
X439157D01*
X439058Y-96800D01*
X438960Y-96789D01*
X438883Y-96767D01*
X438807Y-96734D01*
X438752Y-96713D01*
X438697Y-96691D01*
X438676Y-96680D01*
X438665Y-96669D01*
X438577Y-96614D01*
X438512Y-96549D01*
X438391Y-96407D01*
X438348Y-96352D01*
X438315Y-96297D01*
X438304Y-96264D01*
X438293Y-96254D01*
X438260Y-96352D01*
X438217Y-96439D01*
X438162Y-96516D01*
X438107Y-96570D01*
X437987Y-96680D01*
X437856Y-96745D01*
X437747Y-96778D01*
X437637Y-96800D01*
X437572Y-96811D01*
X437550D01*
X437408Y-96800D01*
X437277Y-96778D01*
X437167Y-96756D01*
X437058Y-96713D01*
X436981Y-96680D01*
X436927Y-96658D01*
X436883Y-96636D01*
X436872Y-96625D01*
X436763Y-96549D01*
X436676Y-96461D01*
X436588Y-96363D01*
X436522Y-96264D01*
X436468Y-96177D01*
X436424Y-96112D01*
X436402Y-96068D01*
X436391Y-96046D01*
X436326Y-95893D01*
X436260Y-95718D01*
X436216Y-95554D01*
X436173Y-95390D01*
X436140Y-95259D01*
X436118Y-95139D01*
Y-95095D01*
X436107Y-95062D01*
Y-95051D01*
Y-95040D01*
X436074Y-94800D01*
X436053Y-94548D01*
X436031Y-94308D01*
X436020Y-94078D01*
X436009Y-93882D01*
X435998Y-93794D01*
Y-93718D01*
Y-93663D01*
Y-93608D01*
Y-93587D01*
Y-93576D01*
X436009Y-93259D01*
X436020Y-92975D01*
X436041Y-92712D01*
X436074Y-92483D01*
X436085Y-92384D01*
X436107Y-92297D01*
X436118Y-92231D01*
X436129Y-92166D01*
X436140Y-92111D01*
Y-92078D01*
X436151Y-92056D01*
Y-92045D01*
X436205Y-91805D01*
X436282Y-91587D01*
X436348Y-91390D01*
X436413Y-91226D01*
X436479Y-91095D01*
X436533Y-90996D01*
X436566Y-90942D01*
X436577Y-90920D01*
X436686Y-90756D01*
X436807Y-90614D01*
X436927Y-90494D01*
X437047Y-90395D01*
X437146Y-90319D01*
X437222Y-90264D01*
X437277Y-90231D01*
X437298Y-90220D01*
X437462Y-90144D01*
X437637Y-90078D01*
X437812Y-90034D01*
X437965Y-90013D01*
X438107Y-89991D01*
X438217Y-89980D01*
X438315D01*
X438479Y-89991D01*
D02*
G37*
%LPC*%
G36*
X388999Y-74206D02*
X388944D01*
X388802Y-74217D01*
X388682Y-74249D01*
X388638Y-74260D01*
X388605Y-74282D01*
X388583Y-74293D01*
X388573D01*
X388463Y-74370D01*
X388376Y-74457D01*
X388321Y-74533D01*
X388299Y-74555D01*
Y-74566D01*
X388223Y-74719D01*
X388179Y-74872D01*
X388157Y-74949D01*
X388146Y-74993D01*
X388135Y-75036D01*
Y-75047D01*
X388092Y-75277D01*
X388081Y-75397D01*
Y-75506D01*
X388070Y-75605D01*
Y-75681D01*
Y-75725D01*
Y-75747D01*
Y-75889D01*
X388081Y-76020D01*
X388103Y-76140D01*
X388113Y-76249D01*
X388135Y-76337D01*
X388157Y-76402D01*
X388168Y-76446D01*
Y-76457D01*
X388201Y-76566D01*
X388245Y-76665D01*
X388288Y-76752D01*
X388321Y-76829D01*
X388365Y-76894D01*
X388387Y-76938D01*
X388409Y-76971D01*
X388420Y-76982D01*
X388551Y-77124D01*
X388682Y-77233D01*
X388737Y-77266D01*
X388769Y-77299D01*
X388802Y-77310D01*
X388813Y-77321D01*
X388988Y-77386D01*
X389163Y-77419D01*
X389228D01*
X389283Y-77430D01*
X389338D01*
X389491Y-77419D01*
X389622Y-77408D01*
X389676D01*
X389720Y-77397D01*
X389753D01*
X389895Y-77364D01*
X390004Y-77342D01*
X390048Y-77332D01*
X390081Y-77321D01*
X390092Y-77310D01*
X390103D01*
Y-75124D01*
X389993Y-74971D01*
X389884Y-74840D01*
X389786Y-74730D01*
X389698Y-74632D01*
X389622Y-74555D01*
X389567Y-74501D01*
X389534Y-74468D01*
X389524Y-74457D01*
X389414Y-74370D01*
X389316Y-74315D01*
X389217Y-74271D01*
X389130Y-74238D01*
X389054Y-74217D01*
X388999Y-74206D01*
D02*
G37*
G36*
X433582Y-74074D02*
X433506D01*
X433353Y-74085D01*
X433232Y-74107D01*
X433189Y-74129D01*
X433156Y-74140D01*
X433134Y-74151D01*
X433123D01*
X432992Y-74206D01*
X432894Y-74282D01*
X432828Y-74337D01*
X432817Y-74348D01*
X432806Y-74359D01*
X432708Y-74479D01*
X432642Y-74588D01*
X432620Y-74643D01*
X432599Y-74686D01*
X432588Y-74708D01*
Y-74719D01*
X432544Y-74894D01*
X432522Y-75047D01*
X432511Y-75124D01*
Y-75178D01*
Y-75211D01*
Y-75222D01*
X434588D01*
X434555Y-75025D01*
X434511Y-74861D01*
X434457Y-74719D01*
X434402Y-74599D01*
X434336Y-74501D01*
X434293Y-74435D01*
X434260Y-74391D01*
X434249Y-74380D01*
X434129Y-74282D01*
X434009Y-74206D01*
X433888Y-74151D01*
X433768Y-74107D01*
X433659Y-74085D01*
X433582Y-74074D01*
D02*
G37*
G36*
X405875Y-74074D02*
X405798D01*
X405645Y-74085D01*
X405525Y-74107D01*
X405481Y-74129D01*
X405448Y-74140D01*
X405427Y-74151D01*
X405416D01*
X405285Y-74206D01*
X405186Y-74282D01*
X405121Y-74337D01*
X405110Y-74348D01*
X405099Y-74359D01*
X405000Y-74479D01*
X404935Y-74588D01*
X404913Y-74643D01*
X404891Y-74686D01*
X404880Y-74708D01*
Y-74719D01*
X404836Y-74894D01*
X404814Y-75047D01*
X404804Y-75124D01*
Y-75178D01*
Y-75211D01*
Y-75222D01*
X406880D01*
X406847Y-75025D01*
X406804Y-74861D01*
X406749Y-74719D01*
X406695Y-74599D01*
X406629Y-74501D01*
X406585Y-74435D01*
X406552Y-74391D01*
X406541Y-74380D01*
X406421Y-74282D01*
X406301Y-74206D01*
X406181Y-74151D01*
X406061Y-74107D01*
X405951Y-74085D01*
X405875Y-74074D01*
D02*
G37*
G36*
X440228Y-72872D02*
X439616D01*
X439441Y-72883D01*
X439277Y-72894D01*
X439135Y-72916D01*
X439025Y-72949D01*
X438927Y-72981D01*
X438850Y-73003D01*
X438807Y-73014D01*
X438796Y-73025D01*
X438676Y-73080D01*
X438566Y-73156D01*
X438479Y-73222D01*
X438402Y-73287D01*
X438337Y-73353D01*
X438293Y-73408D01*
X438271Y-73440D01*
X438260Y-73451D01*
X438195Y-73561D01*
X438129Y-73681D01*
X438085Y-73801D01*
X438042Y-73910D01*
X438009Y-74009D01*
X437987Y-74085D01*
X437976Y-74129D01*
Y-74151D01*
X437921Y-74468D01*
X437911Y-74621D01*
X437900Y-74763D01*
X437889Y-74883D01*
Y-74982D01*
Y-75047D01*
Y-75058D01*
Y-75069D01*
Y-75277D01*
X437911Y-75463D01*
X437932Y-75648D01*
X437965Y-75812D01*
X437998Y-75965D01*
X438042Y-76096D01*
X438074Y-76217D01*
X438118Y-76326D01*
X438162Y-76424D01*
X438206Y-76512D01*
X438249Y-76577D01*
X438282Y-76643D01*
X438315Y-76687D01*
X438337Y-76719D01*
X438348Y-76730D01*
X438359Y-76741D01*
X438446Y-76829D01*
X438545Y-76916D01*
X438763Y-77047D01*
X438982Y-77135D01*
X439200Y-77200D01*
X439397Y-77233D01*
X439485Y-77255D01*
X439561D01*
X439616Y-77266D01*
X440228D01*
Y-72872D01*
D02*
G37*
G36*
X400246Y-74129D02*
X400191D01*
X400038Y-74140D01*
X399907Y-74151D01*
X399852Y-74162D01*
X399809D01*
X399787Y-74173D01*
X399776D01*
X399634Y-74195D01*
X399514Y-74227D01*
X399470Y-74238D01*
X399437Y-74249D01*
X399426Y-74260D01*
X399415D01*
Y-76446D01*
X399535Y-76599D01*
X399645Y-76730D01*
X399743Y-76851D01*
X399830Y-76949D01*
X399907Y-77026D01*
X399962Y-77080D01*
X399994Y-77113D01*
X400005Y-77124D01*
X400104Y-77200D01*
X400213Y-77266D01*
X400311Y-77310D01*
X400399Y-77332D01*
X400475Y-77353D01*
X400530Y-77364D01*
X400585D01*
X400727Y-77353D01*
X400847Y-77321D01*
X400891Y-77310D01*
X400923Y-77299D01*
X400945Y-77288D01*
X400956D01*
X401065Y-77211D01*
X401153Y-77113D01*
X401208Y-77047D01*
X401229Y-77026D01*
Y-77015D01*
X401306Y-76851D01*
X401350Y-76698D01*
X401372Y-76632D01*
X401382Y-76577D01*
X401393Y-76545D01*
Y-76534D01*
X401415Y-76413D01*
X401426Y-76293D01*
X401437Y-76184D01*
Y-76064D01*
X401448Y-75965D01*
Y-75889D01*
Y-75845D01*
Y-75823D01*
Y-75681D01*
X401437Y-75550D01*
X401415Y-75430D01*
X401404Y-75320D01*
X401382Y-75244D01*
X401372Y-75178D01*
X401361Y-75135D01*
Y-75124D01*
X401328Y-75014D01*
X401284Y-74905D01*
X401240Y-74818D01*
X401197Y-74741D01*
X401164Y-74676D01*
X401131Y-74632D01*
X401120Y-74599D01*
X401109Y-74588D01*
X400978Y-74446D01*
X400847Y-74337D01*
X400792Y-74304D01*
X400749Y-74271D01*
X400727Y-74249D01*
X400716D01*
X400628Y-74206D01*
X400541Y-74184D01*
X400366Y-74140D01*
X400300D01*
X400246Y-74129D01*
D02*
G37*
G36*
X417100Y-74031D02*
X417023D01*
X416881Y-74042D01*
X416750Y-74063D01*
X416641Y-74107D01*
X416542Y-74151D01*
X416477Y-74195D01*
X416422Y-74238D01*
X416389Y-74260D01*
X416378Y-74271D01*
X416302Y-74370D01*
X416236Y-74468D01*
X416193Y-74577D01*
X416171Y-74676D01*
X416149Y-74774D01*
X416138Y-74850D01*
Y-74894D01*
Y-74916D01*
X416149Y-75047D01*
X416160Y-75146D01*
X416171Y-75189D01*
X416182Y-75222D01*
X416193Y-75244D01*
Y-75255D01*
X416236Y-75364D01*
X416291Y-75463D01*
X416335Y-75517D01*
X416357Y-75528D01*
Y-75539D01*
X416444Y-75616D01*
X416532Y-75681D01*
X416597Y-75725D01*
X416619Y-75736D01*
X416630D01*
X416761Y-75769D01*
X416892Y-75790D01*
X416947Y-75801D01*
X417023D01*
X417165Y-75790D01*
X417297Y-75769D01*
X417406Y-75725D01*
X417504Y-75681D01*
X417570Y-75648D01*
X417625Y-75605D01*
X417657Y-75583D01*
X417668Y-75572D01*
X417745Y-75473D01*
X417799Y-75375D01*
X417843Y-75277D01*
X417865Y-75178D01*
X417887Y-75080D01*
X417898Y-75014D01*
Y-74971D01*
Y-74949D01*
X417887Y-74818D01*
X417876Y-74708D01*
X417865Y-74665D01*
Y-74632D01*
X417854Y-74610D01*
Y-74599D01*
X417810Y-74490D01*
X417756Y-74391D01*
X417712Y-74337D01*
X417690Y-74315D01*
X417603Y-74227D01*
X417515Y-74162D01*
X417439Y-74118D01*
X417428Y-74107D01*
X417417D01*
X417286Y-74063D01*
X417155Y-74042D01*
X417100Y-74031D01*
D02*
G37*
G36*
X417646Y-78228D02*
X417635D01*
X416586Y-78250D01*
X416455D01*
X416357Y-78261D01*
X416313Y-78272D01*
X416280D01*
X416269Y-78282D01*
X416258D01*
X416149Y-78304D01*
X416072Y-78337D01*
X416018Y-78359D01*
X415996Y-78370D01*
X415919Y-78425D01*
X415865Y-78468D01*
X415832Y-78512D01*
X415821Y-78523D01*
X415777Y-78588D01*
X415766Y-78665D01*
X415756Y-78720D01*
Y-78731D01*
Y-78742D01*
X415766Y-78851D01*
X415788Y-78938D01*
X415810Y-79004D01*
X415821Y-79015D01*
Y-79026D01*
X415887Y-79124D01*
X415952Y-79201D01*
X416018Y-79244D01*
X416029Y-79266D01*
X416040D01*
X416160Y-79343D01*
X416280Y-79397D01*
X416335Y-79419D01*
X416378Y-79430D01*
X416411Y-79441D01*
X416422D01*
X416608Y-79474D01*
X416794Y-79496D01*
X416870Y-79507D01*
X416991D01*
X417176Y-79496D01*
X417340Y-79485D01*
X417482Y-79463D01*
X417592Y-79430D01*
X417690Y-79408D01*
X417756Y-79386D01*
X417799Y-79375D01*
X417810Y-79365D01*
X417909Y-79310D01*
X417974Y-79233D01*
X418029Y-79168D01*
X418062Y-79102D01*
X418083Y-79037D01*
X418094Y-78982D01*
Y-78949D01*
Y-78938D01*
Y-78873D01*
X418083Y-78807D01*
Y-78763D01*
Y-78752D01*
X418062Y-78687D01*
X418040Y-78632D01*
X418029Y-78588D01*
X418018Y-78578D01*
X417974Y-78512D01*
X417931Y-78457D01*
X417887Y-78414D01*
X417876Y-78403D01*
X417799Y-78337D01*
X417723Y-78282D01*
X417657Y-78239D01*
X417646Y-78228D01*
D02*
G37*
G36*
X428194Y-86377D02*
X427341D01*
Y-87044D01*
X427461Y-87164D01*
X427571Y-87274D01*
X427680Y-87361D01*
X427768Y-87437D01*
X427833Y-87492D01*
X427899Y-87536D01*
X427931Y-87558D01*
X427942Y-87569D01*
X428041Y-87623D01*
X428139Y-87667D01*
X428227Y-87700D01*
X428303Y-87722D01*
X428369Y-87732D01*
X428423Y-87744D01*
X428467D01*
X428587Y-87732D01*
X428697Y-87722D01*
X428784Y-87700D01*
X428861Y-87667D01*
X428926Y-87634D01*
X428970Y-87612D01*
X428992Y-87601D01*
X429003Y-87590D01*
X429068Y-87525D01*
X429112Y-87448D01*
X429156Y-87372D01*
X429178Y-87295D01*
X429188Y-87230D01*
X429199Y-87175D01*
Y-87142D01*
Y-87131D01*
X429188Y-87022D01*
X429167Y-86935D01*
X429156Y-86869D01*
X429145Y-86858D01*
Y-86847D01*
X429090Y-86749D01*
X429025Y-86672D01*
X428970Y-86629D01*
X428948Y-86607D01*
X428839Y-86530D01*
X428729Y-86487D01*
X428686Y-86465D01*
X428642Y-86454D01*
X428620Y-86443D01*
X428609D01*
X428434Y-86399D01*
X428259Y-86388D01*
X428194Y-86377D01*
D02*
G37*
G36*
X400486Y-86377D02*
X399634D01*
Y-87044D01*
X399754Y-87164D01*
X399863Y-87274D01*
X399973Y-87361D01*
X400060Y-87437D01*
X400126Y-87492D01*
X400191Y-87536D01*
X400224Y-87558D01*
X400235Y-87569D01*
X400333Y-87623D01*
X400432Y-87667D01*
X400519Y-87700D01*
X400596Y-87722D01*
X400661Y-87733D01*
X400716Y-87744D01*
X400760D01*
X400880Y-87733D01*
X400989Y-87722D01*
X401077Y-87700D01*
X401153Y-87667D01*
X401219Y-87634D01*
X401262Y-87612D01*
X401284Y-87601D01*
X401295Y-87590D01*
X401361Y-87525D01*
X401404Y-87448D01*
X401448Y-87372D01*
X401470Y-87295D01*
X401481Y-87230D01*
X401492Y-87175D01*
Y-87142D01*
Y-87131D01*
X401481Y-87022D01*
X401459Y-86935D01*
X401448Y-86869D01*
X401437Y-86858D01*
Y-86847D01*
X401382Y-86749D01*
X401317Y-86672D01*
X401262Y-86629D01*
X401240Y-86607D01*
X401131Y-86530D01*
X401022Y-86487D01*
X400978Y-86465D01*
X400934Y-86454D01*
X400913Y-86443D01*
X400902D01*
X400727Y-86399D01*
X400552Y-86388D01*
X400486Y-86377D01*
D02*
G37*
G36*
X411624Y-84377D02*
X411547D01*
X411394Y-84388D01*
X411274Y-84410D01*
X411230Y-84432D01*
X411198Y-84443D01*
X411176Y-84453D01*
X411165D01*
X411034Y-84508D01*
X410935Y-84585D01*
X410870Y-84639D01*
X410859Y-84650D01*
X410848Y-84661D01*
X410749Y-84781D01*
X410684Y-84891D01*
X410662Y-84945D01*
X410640Y-84989D01*
X410629Y-85011D01*
Y-85022D01*
X410586Y-85197D01*
X410564Y-85350D01*
X410553Y-85426D01*
Y-85481D01*
Y-85514D01*
Y-85525D01*
X412630D01*
X412597Y-85328D01*
X412553Y-85164D01*
X412498Y-85022D01*
X412444Y-84902D01*
X412378Y-84803D01*
X412334Y-84738D01*
X412302Y-84694D01*
X412291Y-84683D01*
X412170Y-84585D01*
X412050Y-84508D01*
X411930Y-84453D01*
X411810Y-84410D01*
X411700Y-84388D01*
X411624Y-84377D01*
D02*
G37*
G36*
X361750D02*
X361674D01*
X361521Y-84388D01*
X361401Y-84410D01*
X361357Y-84432D01*
X361324Y-84443D01*
X361302Y-84453D01*
X361291D01*
X361160Y-84508D01*
X361062Y-84585D01*
X360996Y-84639D01*
X360985Y-84650D01*
X360974Y-84661D01*
X360876Y-84781D01*
X360810Y-84891D01*
X360788Y-84945D01*
X360767Y-84989D01*
X360756Y-85011D01*
Y-85022D01*
X360712Y-85197D01*
X360690Y-85350D01*
X360679Y-85426D01*
Y-85481D01*
Y-85514D01*
Y-85525D01*
X362756D01*
X362723Y-85328D01*
X362679Y-85164D01*
X362625Y-85022D01*
X362570Y-84902D01*
X362505Y-84803D01*
X362461Y-84738D01*
X362428Y-84694D01*
X362417Y-84683D01*
X362297Y-84585D01*
X362177Y-84508D01*
X362056Y-84453D01*
X361936Y-84410D01*
X361827Y-84388D01*
X361750Y-84377D01*
D02*
G37*
G36*
X389370Y-84432D02*
X389316D01*
X389163Y-84443D01*
X389032Y-84453D01*
X388977Y-84465D01*
X388933D01*
X388911Y-84475D01*
X388900D01*
X388758Y-84497D01*
X388638Y-84530D01*
X388594Y-84541D01*
X388562Y-84552D01*
X388551Y-84563D01*
X388540D01*
Y-86749D01*
X388660Y-86902D01*
X388769Y-87033D01*
X388868Y-87153D01*
X388955Y-87252D01*
X389032Y-87328D01*
X389086Y-87383D01*
X389119Y-87416D01*
X389130Y-87427D01*
X389228Y-87503D01*
X389338Y-87569D01*
X389436Y-87612D01*
X389524Y-87634D01*
X389600Y-87656D01*
X389655Y-87667D01*
X389709D01*
X389851Y-87656D01*
X389972Y-87623D01*
X390015Y-87612D01*
X390048Y-87601D01*
X390070Y-87590D01*
X390081D01*
X390190Y-87514D01*
X390278Y-87416D01*
X390332Y-87350D01*
X390354Y-87328D01*
Y-87317D01*
X390431Y-87153D01*
X390474Y-87000D01*
X390496Y-86935D01*
X390507Y-86880D01*
X390518Y-86847D01*
Y-86836D01*
X390540Y-86716D01*
X390551Y-86596D01*
X390562Y-86487D01*
Y-86366D01*
X390573Y-86268D01*
Y-86191D01*
Y-86148D01*
Y-86126D01*
Y-85984D01*
X390562Y-85853D01*
X390540Y-85732D01*
X390529Y-85623D01*
X390507Y-85547D01*
X390496Y-85481D01*
X390485Y-85437D01*
Y-85426D01*
X390453Y-85317D01*
X390409Y-85208D01*
X390365Y-85120D01*
X390321Y-85044D01*
X390288Y-84978D01*
X390256Y-84935D01*
X390245Y-84902D01*
X390234Y-84891D01*
X390103Y-84749D01*
X389972Y-84639D01*
X389917Y-84607D01*
X389873Y-84574D01*
X389851Y-84552D01*
X389840D01*
X389753Y-84508D01*
X389666Y-84486D01*
X389491Y-84443D01*
X389425D01*
X389370Y-84432D01*
D02*
G37*
G36*
X372866Y-84519D02*
X372812D01*
X372604Y-84541D01*
X372429Y-84585D01*
X372276Y-84639D01*
X372156Y-84716D01*
X372057Y-84792D01*
X371992Y-84847D01*
X371948Y-84891D01*
X371937Y-84913D01*
X371839Y-85077D01*
X371762Y-85262D01*
X371719Y-85459D01*
X371675Y-85645D01*
X371653Y-85820D01*
Y-85885D01*
X371642Y-85951D01*
Y-86006D01*
Y-86049D01*
Y-86071D01*
Y-86082D01*
X371653Y-86323D01*
X371664Y-86421D01*
X371675Y-86519D01*
X371697Y-86596D01*
X371708Y-86651D01*
X371719Y-86694D01*
Y-86705D01*
X371773Y-86902D01*
X371817Y-86989D01*
X371850Y-87066D01*
X371882Y-87120D01*
X371904Y-87164D01*
X371915Y-87197D01*
X371926Y-87208D01*
X372035Y-87350D01*
X372156Y-87448D01*
X372210Y-87481D01*
X372243Y-87514D01*
X372276Y-87525D01*
X372287Y-87536D01*
X372374Y-87580D01*
X372462Y-87601D01*
X372626Y-87645D01*
X372702D01*
X372757Y-87656D01*
X372812D01*
X373008Y-87634D01*
X373172Y-87590D01*
X373325Y-87536D01*
X373445Y-87459D01*
X373544Y-87383D01*
X373620Y-87328D01*
X373664Y-87284D01*
X373675Y-87263D01*
X373773Y-87099D01*
X373850Y-86913D01*
X373904Y-86716D01*
X373937Y-86530D01*
X373959Y-86355D01*
X373970Y-86290D01*
X373981Y-86224D01*
Y-86170D01*
Y-86126D01*
Y-86104D01*
Y-86093D01*
X373970Y-85864D01*
X373959Y-85754D01*
X373948Y-85667D01*
X373937Y-85590D01*
X373926Y-85525D01*
X373915Y-85492D01*
Y-85481D01*
X373850Y-85284D01*
X373817Y-85197D01*
X373784Y-85131D01*
X373751Y-85066D01*
X373730Y-85022D01*
X373719Y-85000D01*
X373708Y-84989D01*
X373587Y-84847D01*
X373478Y-84738D01*
X373424Y-84705D01*
X373380Y-84672D01*
X373358Y-84650D01*
X373347D01*
X373260Y-84607D01*
X373161Y-84574D01*
X372997Y-84530D01*
X372921D01*
X372866Y-84519D01*
D02*
G37*
G36*
X438577Y-93270D02*
X438555D01*
X438479Y-93281D01*
X438457Y-93291D01*
X438446D01*
X438413Y-93303D01*
X438391Y-93324D01*
X438370Y-93335D01*
X438545Y-95412D01*
X438588Y-95499D01*
X438632Y-95587D01*
X438665Y-95652D01*
X438708Y-95696D01*
X438730Y-95740D01*
X438752Y-95773D01*
X438774Y-95784D01*
Y-95794D01*
X438840Y-95860D01*
X438894Y-95893D01*
X438927Y-95904D01*
X438938D01*
X438982Y-95893D01*
X438993Y-95882D01*
X439004D01*
X439025Y-95860D01*
X439047Y-95816D01*
X439058Y-95784D01*
Y-95773D01*
X439069Y-95696D01*
X439080Y-95620D01*
X439091Y-95554D01*
Y-95543D01*
Y-95532D01*
X439102Y-95401D01*
Y-95259D01*
Y-95193D01*
Y-95150D01*
Y-95117D01*
Y-95106D01*
Y-94887D01*
X439091Y-94778D01*
Y-94691D01*
Y-94614D01*
X439080Y-94548D01*
Y-94505D01*
Y-94494D01*
X439058Y-94264D01*
X439047Y-94166D01*
X439025Y-94078D01*
X439014Y-94002D01*
X439004Y-93947D01*
X438993Y-93915D01*
Y-93904D01*
X438971Y-93805D01*
X438938Y-93718D01*
X438916Y-93641D01*
X438883Y-93576D01*
X438862Y-93521D01*
X438840Y-93488D01*
X438829Y-93466D01*
Y-93455D01*
X438785Y-93390D01*
X438741Y-93346D01*
X438697Y-93313D01*
X438654Y-93291D01*
X438577Y-93270D01*
D02*
G37*
%LPD*%
D11*
X114817Y6876D02*
X117869D01*
X114817Y-2179D02*
X117869D01*
X96969Y6876D02*
X100021D01*
X96969Y6482D02*
Y6876D01*
X96969Y5567D02*
X96969Y6482D01*
X96969Y-2179D02*
X100021D01*
X96969D02*
X96969Y-772D01*
X96969Y5567D02*
X96969Y-772D01*
X117869Y6876D02*
X117869Y-2179D01*
X97362Y19961D02*
X101299D01*
X97362Y7756D02*
X101299D01*
X122953Y-27087D02*
Y-21575D01*
X134764Y-27087D02*
Y-21575D01*
X138114Y-54051D02*
X138114Y-59563D01*
X149925Y-54051D02*
X149925Y-59563D01*
X126890Y-16654D02*
X130827D01*
X126890Y-4449D02*
X130827D01*
X125315Y-11732D02*
Y-9370D01*
X159567Y-9173D02*
X163504D01*
X159567Y3032D02*
X163504D01*
X157992Y-4252D02*
Y-1890D01*
X188037Y1005D02*
X191089D01*
X188037Y-8050D02*
X191089D01*
X170189Y1005D02*
X173241D01*
X170189Y611D02*
Y1005D01*
Y-304D02*
Y611D01*
Y-8050D02*
X173241D01*
X170189D02*
Y-6643D01*
Y-304D01*
X191089Y-8050D02*
Y1005D01*
X170049Y19985D02*
Y23037D01*
X179104Y19985D02*
Y23037D01*
X170049Y2137D02*
Y5189D01*
Y2137D02*
X170443D01*
X171358D01*
X179104D02*
Y5189D01*
X177697Y2137D02*
X179104D01*
X171358D02*
X177697D01*
X170049Y23037D02*
X179104D01*
X139488Y-47756D02*
X143425D01*
X139488Y-35551D02*
X143425D01*
X137913Y-42835D02*
Y-40472D01*
M02*
