G04*
G04 #@! TF.GenerationSoftware,Altium Limited,Altium Designer,24.3.1 (35)*
G04*
G04 Layer_Color=8421504*
%FSLAX25Y25*%
%MOIN*%
G70*
G04*
G04 #@! TF.SameCoordinates,5149264C-F6EF-45E8-801D-D6D5ED924B73*
G04*
G04*
G04 #@! TF.FilePolarity,Positive*
G04*
G01*
G75*
%ADD14R,0.03150X0.03150*%
%ADD15R,0.04921X0.03937*%
%ADD16R,0.03150X0.03150*%
%ADD17R,0.03740X0.02362*%
%ADD18R,0.05118X0.05906*%
%ADD19R,0.01968X0.01968*%
%ADD20R,0.06102X0.05118*%
D14*
X80039Y-92047D02*
D03*
X80039Y-97559D02*
D03*
X85945Y-97559D02*
D03*
Y-92047D02*
D03*
X124110Y-89386D02*
D03*
Y-83874D02*
D03*
X101299Y-88898D02*
D03*
Y-83386D02*
D03*
X219467Y-33217D02*
D03*
Y-27706D02*
D03*
X355109Y-69014D02*
D03*
Y-63502D02*
D03*
X375945Y-69044D02*
D03*
Y-63532D02*
D03*
X293781Y60921D02*
D03*
Y66433D02*
D03*
X76016Y60890D02*
D03*
X76016Y55378D02*
D03*
X23689Y58154D02*
D03*
Y52642D02*
D03*
X38779Y57874D02*
D03*
Y52363D02*
D03*
X81669Y60922D02*
D03*
Y55410D02*
D03*
X74453Y-92047D02*
D03*
Y-97559D02*
D03*
D15*
X117811Y-81512D02*
D03*
Y-89386D02*
D03*
X95000Y-81024D02*
D03*
Y-88898D02*
D03*
X212914Y-25343D02*
D03*
Y-33217D02*
D03*
X348555Y-61140D02*
D03*
Y-69014D02*
D03*
X369391Y-61170D02*
D03*
Y-69044D02*
D03*
D16*
X288058Y-45521D02*
D03*
X293570D02*
D03*
X293564Y-39997D02*
D03*
X288052Y-39997D02*
D03*
Y-34764D02*
D03*
X293564D02*
D03*
X288052Y-382D02*
D03*
X293564D02*
D03*
X293564Y4879D02*
D03*
X288052D02*
D03*
Y10409D02*
D03*
X293564D02*
D03*
X304842Y53976D02*
D03*
X310354D02*
D03*
X33858Y46063D02*
D03*
X28346D02*
D03*
X19114Y45976D02*
D03*
X13602Y45976D02*
D03*
X91434Y48662D02*
D03*
X85922D02*
D03*
X71315Y48587D02*
D03*
X65803D02*
D03*
D17*
X299684Y66614D02*
D03*
Y62873D02*
D03*
Y59133D02*
D03*
X310314D02*
D03*
Y66614D02*
D03*
D18*
X310315Y74094D02*
D03*
X298119Y74138D02*
D03*
D19*
X30906Y57846D02*
D03*
X33465Y50563D02*
D03*
X28346D02*
D03*
X16358Y57563D02*
D03*
X18917Y50280D02*
D03*
X13799D02*
D03*
X88678Y60249D02*
D03*
X91237Y52965D02*
D03*
X86119D02*
D03*
X68559Y60173D02*
D03*
X71118Y52890D02*
D03*
X66000D02*
D03*
D20*
X67416Y-97559D02*
D03*
X36117D02*
D03*
X67416Y-79754D02*
D03*
X36117Y-79842D02*
D03*
M02*
