G04*
G04 #@! TF.GenerationSoftware,Altium Limited,Altium Designer,24.3.1 (35)*
G04*
G04 Layer_Physical_Order=2*
G04 Layer_Color=16711680*
%FSLAX25Y25*%
%MOIN*%
G70*
G04*
G04 #@! TF.SameCoordinates,5149264C-F6EF-45E8-801D-D6D5ED924B73*
G04*
G04*
G04 #@! TF.FilePolarity,Positive*
G04*
G01*
G75*
%ADD14R,0.03150X0.03150*%
%ADD16R,0.03150X0.03150*%
%ADD17R,0.03740X0.02362*%
%ADD40C,0.01575*%
%ADD41C,0.03150*%
%ADD42C,0.07874*%
%ADD43R,0.07874X0.07874*%
%ADD44R,0.07874X0.07874*%
%ADD45C,0.05118*%
%ADD46C,0.03347*%
%ADD47R,0.03347X0.03347*%
%ADD48C,0.09843*%
%ADD49C,0.21654*%
%ADD50O,0.11811X0.07874*%
%ADD51O,0.05118X0.07874*%
%ADD52C,0.12598*%
%ADD53C,0.01772*%
%ADD54R,0.05118X0.05118*%
%ADD55R,0.01968X0.01968*%
%ADD56R,0.01968X0.03543*%
%ADD57R,0.05118X0.05118*%
G36*
X59366Y114484D02*
X60565Y113500D01*
X61933Y112769D01*
X63417Y112319D01*
X64961Y112167D01*
X66504Y112319D01*
X67989Y112769D01*
X69356Y113500D01*
X70555Y114484D01*
X71342Y115443D01*
X71900Y115334D01*
X72544Y113435D01*
X73549Y111399D01*
X74810Y109511D01*
X76307Y107803D01*
X78015Y106306D01*
X79903Y105044D01*
X81939Y104040D01*
X84090Y103310D01*
X86317Y102867D01*
X88425Y102729D01*
X88583Y102708D01*
X445228D01*
Y23733D01*
X444728Y23563D01*
X444325Y24089D01*
X443173Y24972D01*
X441833Y25528D01*
X440394Y25717D01*
X438955Y25528D01*
X437614Y24972D01*
X436463Y24089D01*
X435579Y22937D01*
X435482Y22704D01*
X403736D01*
Y23583D01*
X397437D01*
X397337Y23658D01*
Y23658D01*
X391038D01*
Y23034D01*
X350626D01*
X350294Y22968D01*
X350048Y23429D01*
X369662Y43043D01*
X370300Y43170D01*
X371082Y43692D01*
X411742Y84353D01*
X412264Y85134D01*
X412448Y86056D01*
Y87879D01*
X412537Y87906D01*
X413666Y88510D01*
X414655Y89321D01*
X415467Y90311D01*
X416070Y91439D01*
X416441Y92664D01*
X416567Y93937D01*
X416441Y95210D01*
X416070Y96435D01*
X415467Y97563D01*
X414655Y98553D01*
X413666Y99365D01*
X412537Y99968D01*
X411313Y100339D01*
X410039Y100464D01*
X408766Y100339D01*
X407541Y99968D01*
X406413Y99365D01*
X405424Y98553D01*
X404612Y97563D01*
X404009Y96435D01*
X403637Y95210D01*
X403512Y93937D01*
X403637Y92664D01*
X404009Y91439D01*
X404612Y90311D01*
X405424Y89321D01*
X406413Y88510D01*
X407541Y87906D01*
X407631Y87879D01*
Y87054D01*
X368324Y47747D01*
X367686Y47620D01*
X366905Y47098D01*
X326299Y6493D01*
X325872Y6207D01*
X325328Y5393D01*
X325137Y4433D01*
X325172Y4256D01*
X324711Y4010D01*
X324180Y4541D01*
Y11142D01*
X323997Y12064D01*
X323475Y12845D01*
X315302Y21018D01*
X315466Y21560D01*
X315960Y21659D01*
X316774Y22202D01*
X317060Y22630D01*
X341152Y46722D01*
X341674Y47504D01*
X341857Y48425D01*
Y87879D01*
X341947Y87906D01*
X343075Y88510D01*
X344064Y89321D01*
X344876Y90311D01*
X345479Y91439D01*
X345851Y92664D01*
X345976Y93937D01*
X345851Y95210D01*
X345479Y96435D01*
X344876Y97563D01*
X344064Y98553D01*
X343075Y99365D01*
X341947Y99968D01*
X340722Y100339D01*
X339449Y100464D01*
X338175Y100339D01*
X336951Y99968D01*
X335822Y99365D01*
X334833Y98553D01*
X334021Y97563D01*
X333418Y96435D01*
X333047Y95210D01*
X332921Y93937D01*
X333047Y92664D01*
X333418Y91439D01*
X334021Y90311D01*
X334833Y89321D01*
X335822Y88510D01*
X336951Y87906D01*
X337040Y87879D01*
Y49423D01*
X313654Y26036D01*
X313226Y25750D01*
X312682Y24937D01*
X312584Y24443D01*
X312041Y24278D01*
X300446Y35874D01*
X300160Y36302D01*
X299346Y36845D01*
X298386Y37036D01*
X297426Y36845D01*
X296612Y36302D01*
X296068Y35488D01*
X295877Y34528D01*
X296068Y33568D01*
X296612Y32754D01*
X297040Y32468D01*
X319363Y10144D01*
Y8060D01*
X318901Y7869D01*
X265590Y61180D01*
Y69664D01*
X266052Y69856D01*
X270130Y65777D01*
X270912Y65255D01*
X271833Y65072D01*
X287055D01*
X287559Y64972D01*
X288519Y65162D01*
X289333Y65706D01*
X289877Y66520D01*
X290068Y67480D01*
X289877Y68441D01*
X289333Y69254D01*
X288519Y69798D01*
X287559Y69989D01*
X287055Y69889D01*
X272831D01*
X265590Y77130D01*
Y88269D01*
X266040Y88510D01*
X267029Y89321D01*
X267841Y90311D01*
X268444Y91439D01*
X268815Y92664D01*
X268941Y93937D01*
X268815Y95210D01*
X268444Y96435D01*
X267841Y97563D01*
X267029Y98553D01*
X266040Y99365D01*
X264911Y99968D01*
X263687Y100339D01*
X262413Y100464D01*
X261140Y100339D01*
X259915Y99968D01*
X258787Y99365D01*
X257798Y98553D01*
X256986Y97563D01*
X256383Y96435D01*
X256011Y95210D01*
X255886Y93937D01*
X256011Y92664D01*
X256383Y91439D01*
X256986Y90311D01*
X257798Y89321D01*
X258787Y88510D01*
X259237Y88269D01*
Y76901D01*
Y59864D01*
X259345Y59042D01*
X259662Y58276D01*
X260167Y57617D01*
X314658Y3127D01*
Y-506D01*
X314158Y-555D01*
X314075Y-141D01*
X313553Y640D01*
X311233Y2960D01*
X310947Y3388D01*
X310133Y3932D01*
X309173Y4123D01*
X308213Y3932D01*
X307399Y3388D01*
X306855Y2574D01*
X306664Y1614D01*
X306855Y654D01*
X307399Y-160D01*
X307827Y-446D01*
X309442Y-2061D01*
Y-9481D01*
X308980Y-9672D01*
X305282Y-5975D01*
Y-819D01*
X305383Y-315D01*
X305192Y645D01*
X304648Y1459D01*
X303834Y2003D01*
X302874Y2194D01*
X301914Y2003D01*
X301100Y1459D01*
X300556Y645D01*
X300365Y-315D01*
X300465Y-819D01*
Y-6972D01*
X300649Y-7894D01*
X301171Y-8675D01*
X306292Y-13797D01*
Y-30484D01*
X305851Y-30720D01*
X305724Y-30635D01*
X304764Y-30444D01*
X303804Y-30635D01*
X302990Y-31179D01*
X302446Y-31993D01*
X302255Y-32953D01*
X302355Y-33457D01*
Y-47917D01*
X294452Y-55820D01*
X250411D01*
X245360Y-50769D01*
X244579Y-50247D01*
X243657Y-50064D01*
X195567D01*
X194645Y-50247D01*
X193864Y-50769D01*
X187580Y-57053D01*
X187058Y-57834D01*
X186875Y-58756D01*
Y-63580D01*
X186426Y-63801D01*
X186290Y-63696D01*
X185284Y-63280D01*
X184205Y-63138D01*
X183126Y-63280D01*
X182120Y-63696D01*
X181256Y-64359D01*
X180594Y-65222D01*
X180177Y-66228D01*
X180035Y-67307D01*
Y-70063D01*
X180177Y-71142D01*
X180594Y-72148D01*
X181256Y-73011D01*
X182120Y-73674D01*
X183054Y-74061D01*
X183269Y-74552D01*
X179159Y-78662D01*
X138939D01*
X136613Y-76336D01*
Y-73426D01*
X137153Y-73011D01*
X137816Y-72148D01*
X138232Y-71142D01*
X138374Y-70063D01*
Y-67307D01*
X138232Y-66228D01*
X137816Y-65222D01*
X137153Y-64359D01*
X136290Y-63696D01*
X135284Y-63280D01*
X134205Y-63138D01*
X133126Y-63280D01*
X132120Y-63696D01*
X131256Y-64359D01*
X130594Y-65222D01*
X130177Y-66228D01*
X130035Y-67307D01*
Y-70063D01*
X130177Y-71142D01*
X130594Y-72148D01*
X131256Y-73011D01*
X131796Y-73426D01*
Y-77334D01*
X131980Y-78256D01*
X132502Y-79037D01*
X136239Y-82774D01*
X137020Y-83296D01*
X137942Y-83479D01*
X180157D01*
X181078Y-83296D01*
X181860Y-82774D01*
X190987Y-73647D01*
X191080Y-73506D01*
X191731Y-73376D01*
X192120Y-73674D01*
X193126Y-74090D01*
X194205Y-74233D01*
X195284Y-74090D01*
X196290Y-73674D01*
X197153Y-73011D01*
X197816Y-72148D01*
X197934Y-71862D01*
X199709D01*
X199900Y-72324D01*
X187388Y-84836D01*
X133084D01*
X126735Y-78487D01*
Y-73332D01*
X127153Y-73011D01*
X127816Y-72148D01*
X128232Y-71142D01*
X128374Y-70063D01*
Y-67307D01*
X128232Y-66228D01*
X127816Y-65222D01*
X127153Y-64359D01*
X126289Y-63696D01*
X125284Y-63280D01*
X124205Y-63138D01*
X123126Y-63280D01*
X122120Y-63696D01*
X121256Y-64359D01*
X120594Y-65222D01*
X120177Y-66228D01*
X120035Y-67307D01*
Y-70063D01*
X120177Y-71142D01*
X120594Y-72148D01*
X121256Y-73011D01*
X121918Y-73519D01*
Y-79484D01*
X122102Y-80406D01*
X122624Y-81187D01*
X129906Y-88469D01*
X129699Y-88969D01*
X122854D01*
X122834Y-88956D01*
X121913Y-88773D01*
X75525D01*
X66613Y-79861D01*
Y-73426D01*
X67153Y-73011D01*
X67816Y-72148D01*
X68232Y-71142D01*
X68374Y-70063D01*
Y-67307D01*
X68232Y-66228D01*
X67816Y-65222D01*
X67153Y-64359D01*
X66290Y-63696D01*
X65284Y-63280D01*
X64205Y-63138D01*
X63126Y-63280D01*
X62120Y-63696D01*
X61256Y-64359D01*
X60594Y-65222D01*
X60177Y-66228D01*
X60035Y-67307D01*
Y-70063D01*
X60177Y-71142D01*
X60594Y-72148D01*
X61256Y-73011D01*
X61796Y-73426D01*
Y-80858D01*
X61980Y-81780D01*
X62502Y-82561D01*
X71440Y-91500D01*
X71249Y-91962D01*
X70407D01*
X56613Y-78168D01*
Y-73426D01*
X57153Y-73011D01*
X57816Y-72148D01*
X58232Y-71142D01*
X58374Y-70063D01*
Y-67307D01*
X58232Y-66228D01*
X57816Y-65222D01*
X57153Y-64359D01*
X56289Y-63696D01*
X55284Y-63280D01*
X54205Y-63138D01*
X53126Y-63280D01*
X52120Y-63696D01*
X51256Y-64359D01*
X50594Y-65222D01*
X50177Y-66228D01*
X50035Y-67307D01*
Y-70063D01*
X50177Y-71142D01*
X50594Y-72148D01*
X51256Y-73011D01*
X51796Y-73426D01*
Y-79165D01*
X51980Y-80087D01*
X52502Y-80868D01*
X67706Y-96073D01*
X68488Y-96595D01*
X69409Y-96779D01*
X120013D01*
X120805Y-96936D01*
X191417D01*
X192339Y-96753D01*
X193120Y-96231D01*
X205547Y-83804D01*
X310128D01*
X311050Y-83621D01*
X311831Y-83099D01*
X313554Y-81376D01*
X314076Y-80595D01*
X314158Y-80181D01*
X314658Y-80230D01*
Y-92603D01*
X314089Y-93069D01*
X313277Y-94059D01*
X312674Y-95187D01*
X312303Y-96412D01*
X312177Y-97685D01*
X312303Y-98958D01*
X312674Y-100183D01*
X313277Y-101312D01*
X314013Y-102208D01*
X313872Y-102708D01*
X261538D01*
X261396Y-102208D01*
X262132Y-101312D01*
X262735Y-100183D01*
X263107Y-98958D01*
X263232Y-97685D01*
X263107Y-96412D01*
X262735Y-95187D01*
X262132Y-94059D01*
X261320Y-93069D01*
X260331Y-92258D01*
X259203Y-91654D01*
X257978Y-91283D01*
X256705Y-91158D01*
X255431Y-91283D01*
X254943Y-91431D01*
X249748Y-86236D01*
X249090Y-85731D01*
X248324Y-85414D01*
X247502Y-85306D01*
X246680Y-85414D01*
X245914Y-85731D01*
X245256Y-86236D01*
X244751Y-86894D01*
X244433Y-87660D01*
X244325Y-88482D01*
X244433Y-89305D01*
X244751Y-90071D01*
X245256Y-90729D01*
X250451Y-95924D01*
X250303Y-96412D01*
X250177Y-97685D01*
X250303Y-98958D01*
X250674Y-100183D01*
X251277Y-101312D01*
X252013Y-102208D01*
X251872Y-102708D01*
X88583D01*
X88425Y-102729D01*
X86317Y-102867D01*
X84090Y-103310D01*
X81939Y-104040D01*
X79903Y-105044D01*
X78015Y-106306D01*
X76307Y-107803D01*
X74810Y-109511D01*
X73549Y-111399D01*
X72544Y-113435D01*
X71900Y-115334D01*
X71342Y-115443D01*
X70555Y-114484D01*
X69356Y-113500D01*
X67989Y-112769D01*
X66504Y-112319D01*
X64961Y-112167D01*
X63417Y-112319D01*
X61933Y-112769D01*
X60565Y-113500D01*
X59366Y-114484D01*
X58579Y-115443D01*
X58022Y-115334D01*
X57377Y-113435D01*
X56373Y-111399D01*
X55111Y-109511D01*
X53614Y-107803D01*
X51907Y-106306D01*
X50019Y-105044D01*
X47982Y-104040D01*
X45832Y-103310D01*
X43604Y-102867D01*
X41496Y-102729D01*
X41339Y-102708D01*
X7528D01*
Y-54501D01*
X7990Y-54309D01*
X11796Y-58116D01*
Y-63945D01*
X11256Y-64359D01*
X10594Y-65222D01*
X10177Y-66228D01*
X10035Y-67307D01*
Y-70063D01*
X10177Y-71142D01*
X10594Y-72148D01*
X11256Y-73011D01*
X11796Y-73426D01*
Y-76409D01*
X11980Y-77331D01*
X12502Y-78113D01*
X15935Y-81546D01*
X16716Y-82068D01*
X17638Y-82251D01*
X27960D01*
X28464Y-82351D01*
X29425Y-82160D01*
X30239Y-81616D01*
X30782Y-80803D01*
X30973Y-79842D01*
X30782Y-78882D01*
X30239Y-78068D01*
X29425Y-77525D01*
X28464Y-77334D01*
X27960Y-77434D01*
X18635D01*
X16613Y-75412D01*
Y-73426D01*
X17153Y-73011D01*
X17816Y-72148D01*
X18232Y-71142D01*
X18374Y-70063D01*
Y-67307D01*
X18232Y-66228D01*
X17816Y-65222D01*
X17153Y-64359D01*
X16613Y-63945D01*
Y-57118D01*
X16430Y-56196D01*
X15908Y-55415D01*
X11542Y-51050D01*
Y35766D01*
X14627Y38851D01*
X22511D01*
X23114Y38731D01*
X23718Y38851D01*
X36035D01*
X36957Y39035D01*
X37738Y39557D01*
X42224Y44043D01*
X42652Y44328D01*
X43196Y45142D01*
X43387Y46102D01*
X43196Y47063D01*
X42652Y47876D01*
X41838Y48420D01*
X40878Y48611D01*
X39918Y48420D01*
X39104Y47876D01*
X38818Y47449D01*
X35038Y43668D01*
X23519D01*
X23114Y43749D01*
X22709Y43668D01*
X14372D01*
X13669Y43808D01*
X12709Y43617D01*
X11895Y43073D01*
X11609Y42645D01*
X7990Y39026D01*
X7528Y39217D01*
Y99725D01*
Y102708D01*
X41339D01*
X41496Y102729D01*
X43604Y102867D01*
X45832Y103310D01*
X47982Y104040D01*
X50019Y105044D01*
X51907Y106306D01*
X53614Y107803D01*
X55111Y109511D01*
X56373Y111399D01*
X57377Y113435D01*
X58022Y115334D01*
X58579Y115443D01*
X59366Y114484D01*
D02*
G37*
G36*
X391038Y17358D02*
X397337D01*
X397437Y16900D01*
Y13557D01*
X397337Y13098D01*
X391038D01*
X390938Y13201D01*
Y13201D01*
X384639D01*
Y12355D01*
X351986D01*
X351924Y12343D01*
X351882Y12351D01*
X350922Y12160D01*
X350108Y11616D01*
X349564Y10803D01*
X349373Y9843D01*
X349564Y8882D01*
X350108Y8068D01*
X350922Y7525D01*
X351882Y7334D01*
X352842Y7525D01*
X352863Y7538D01*
X384639D01*
Y6902D01*
X390938D01*
X391038Y6443D01*
Y3689D01*
X390915Y3240D01*
X384615D01*
X384516Y2953D01*
X378217D01*
Y2212D01*
X336325D01*
X336118Y2712D01*
X351624Y18217D01*
X391038D01*
Y17358D01*
D02*
G37*
G36*
X323809Y-1900D02*
X324590Y-2422D01*
X325512Y-2605D01*
X378217D01*
Y-3347D01*
X384516D01*
X384615Y-3805D01*
Y-6108D01*
X384516Y-6567D01*
X378217D01*
X378122Y-6520D01*
Y-6520D01*
X371823D01*
Y-7209D01*
X338991D01*
X338228Y-7058D01*
X337268Y-7249D01*
X336454Y-7792D01*
X335910Y-8606D01*
X335719Y-9567D01*
X335910Y-10527D01*
X336454Y-11340D01*
X337268Y-11884D01*
X338228Y-12075D01*
X338474Y-12026D01*
X371823D01*
Y-12819D01*
X378122D01*
X378217Y-13280D01*
Y-16776D01*
X350402D01*
X349947Y-16321D01*
X349919Y-16107D01*
X349602Y-15341D01*
X349097Y-14683D01*
X348439Y-14178D01*
X347673Y-13861D01*
X346850Y-13752D01*
X346028Y-13861D01*
X345262Y-14178D01*
X344604Y-14683D01*
X344099Y-15341D01*
X343782Y-16107D01*
X343674Y-16929D01*
Y-17717D01*
X343782Y-18539D01*
X344099Y-19305D01*
X344604Y-19963D01*
X346840Y-22199D01*
X347498Y-22704D01*
X348073Y-22942D01*
X347973Y-23442D01*
X333430D01*
X333397Y-23448D01*
X333335Y-23436D01*
X332375Y-23627D01*
X331561Y-24171D01*
X331017Y-24985D01*
X330826Y-25945D01*
X331017Y-26905D01*
X331115Y-27051D01*
X330879Y-27492D01*
X329544D01*
X321011Y-18960D01*
Y244D01*
X321473Y435D01*
X323809Y-1900D01*
D02*
G37*
G36*
X435579Y-2622D02*
X436463Y-3774D01*
X437536Y-4598D01*
X437580Y-4882D01*
X437536Y-5166D01*
X436463Y-5990D01*
X435579Y-7141D01*
X435466Y-7414D01*
X394679D01*
X394412Y-6914D01*
X394760Y-6393D01*
X394951Y-5433D01*
X394760Y-4473D01*
X394216Y-3659D01*
X393402Y-3115D01*
X392442Y-2924D01*
X391967Y-3019D01*
X390915D01*
Y-2284D01*
X435439D01*
X435579Y-2622D01*
D02*
G37*
G36*
Y-12701D02*
X436463Y-13852D01*
X437470Y-14625D01*
X437510Y-14760D01*
Y-15082D01*
X437470Y-15217D01*
X436463Y-15990D01*
X435860Y-16776D01*
X388507D01*
X388271Y-16335D01*
X388361Y-16200D01*
X388552Y-15240D01*
X388361Y-14280D01*
X387817Y-13466D01*
X387003Y-12922D01*
X386043Y-12731D01*
X385568Y-12826D01*
X384516D01*
Y-12231D01*
X435385D01*
X435579Y-12701D01*
D02*
G37*
G36*
X436463Y-23852D02*
X437470Y-24625D01*
X437510Y-24760D01*
Y-25082D01*
X437470Y-25217D01*
X436463Y-25990D01*
X435579Y-27141D01*
X435434Y-27492D01*
X354231D01*
X353995Y-27051D01*
X354219Y-26716D01*
X354410Y-25756D01*
X354219Y-24796D01*
X353676Y-23982D01*
X353148Y-23630D01*
X353300Y-23130D01*
X435908D01*
X436463Y-23852D01*
D02*
G37*
G36*
X325982Y-32916D02*
X326640Y-33420D01*
X327406Y-33738D01*
X328228Y-33846D01*
X436074D01*
X436120Y-33909D01*
X435863Y-34409D01*
X434882D01*
Y-38096D01*
X360087D01*
X359583Y-37995D01*
X358623Y-38186D01*
X357809Y-38730D01*
X357265Y-39544D01*
X357074Y-40504D01*
X357265Y-41464D01*
X357809Y-42278D01*
X358623Y-42822D01*
X359583Y-43013D01*
X360087Y-42912D01*
X434882D01*
Y-45433D01*
X445228D01*
Y-102708D01*
X343537D01*
X343396Y-102208D01*
X344132Y-101312D01*
X344735Y-100183D01*
X345107Y-98958D01*
X345232Y-97685D01*
X345107Y-96412D01*
X344735Y-95187D01*
X344132Y-94059D01*
X343320Y-93069D01*
X342331Y-92258D01*
X341881Y-92017D01*
Y-84484D01*
X341773Y-83662D01*
X341456Y-82896D01*
X340951Y-82238D01*
X340293Y-81733D01*
X339527Y-81416D01*
X338705Y-81307D01*
X337882Y-81416D01*
X337116Y-81733D01*
X336458Y-82238D01*
X335954Y-82896D01*
X335636Y-83662D01*
X335528Y-84484D01*
Y-92017D01*
X335078Y-92258D01*
X334089Y-93069D01*
X333277Y-94059D01*
X332674Y-95187D01*
X332303Y-96412D01*
X332177Y-97685D01*
X332303Y-98958D01*
X332674Y-100183D01*
X333277Y-101312D01*
X334013Y-102208D01*
X333872Y-102708D01*
X323537D01*
X323396Y-102208D01*
X324132Y-101312D01*
X324735Y-100183D01*
X325107Y-98958D01*
X325232Y-97685D01*
X325107Y-96412D01*
X324735Y-95187D01*
X324132Y-94059D01*
X323320Y-93069D01*
X322331Y-92258D01*
X321203Y-91654D01*
X321011Y-91596D01*
Y-64072D01*
X329662Y-55421D01*
X369449D01*
X370271Y-55313D01*
X371037Y-54995D01*
X371695Y-54490D01*
X372200Y-53832D01*
X372517Y-53066D01*
X372626Y-52244D01*
X372517Y-51422D01*
X372200Y-50656D01*
X371695Y-49998D01*
X371037Y-49493D01*
X370271Y-49176D01*
X369449Y-49067D01*
X328346D01*
X327524Y-49176D01*
X326758Y-49493D01*
X326100Y-49998D01*
X321473Y-54624D01*
X321011Y-54433D01*
Y-28598D01*
X321473Y-28407D01*
X325982Y-32916D01*
D02*
G37*
G36*
X306292Y-51445D02*
Y-75544D01*
X204145D01*
X203954Y-75082D01*
X210250Y-68786D01*
X231976D01*
X232480Y-68887D01*
X233440Y-68696D01*
X234254Y-68152D01*
X234798Y-67338D01*
X234989Y-66378D01*
X234798Y-65418D01*
X234254Y-64604D01*
X233440Y-64060D01*
X232480Y-63869D01*
X231976Y-63969D01*
X221572D01*
X221326Y-63469D01*
X221531Y-63203D01*
X221848Y-62436D01*
X221956Y-61614D01*
X221848Y-60792D01*
X221531Y-60026D01*
X221026Y-59368D01*
X220368Y-58863D01*
X219602Y-58546D01*
X218779Y-58437D01*
X208448D01*
X207626Y-58546D01*
X206860Y-58863D01*
X206202Y-59368D01*
X200061Y-65508D01*
X197934D01*
X197816Y-65222D01*
X197153Y-64359D01*
X196290Y-63696D01*
X195284Y-63280D01*
X194205Y-63138D01*
X193126Y-63280D01*
X192192Y-63666D01*
X191692Y-63471D01*
Y-59754D01*
X196565Y-54881D01*
X242659D01*
X247710Y-59931D01*
X248491Y-60453D01*
X249413Y-60637D01*
X295450D01*
X296371Y-60453D01*
X297153Y-59931D01*
X305830Y-51254D01*
X306292Y-51445D01*
D02*
G37*
%LPC*%
G36*
X38232Y82779D02*
X36793Y82589D01*
X35453Y82034D01*
X34301Y81150D01*
X34218Y81041D01*
X33744Y81202D01*
Y82731D01*
X22720D01*
Y71707D01*
X33744D01*
Y73237D01*
X34218Y73397D01*
X34301Y73288D01*
X35453Y72405D01*
X36793Y71849D01*
X38232Y71660D01*
X39671Y71849D01*
X41012Y72405D01*
X42163Y73288D01*
X43047Y74440D01*
X43602Y75780D01*
X43792Y77219D01*
X43602Y78658D01*
X43047Y79999D01*
X42163Y81150D01*
X41012Y82034D01*
X39671Y82589D01*
X38232Y82779D01*
D02*
G37*
G36*
X98232Y82779D02*
X96793Y82589D01*
X95453Y82034D01*
X94301Y81150D01*
X94218Y81041D01*
X93744Y81202D01*
Y82731D01*
X82721D01*
Y71707D01*
X93744D01*
Y73237D01*
X94218Y73397D01*
X94301Y73288D01*
X95453Y72405D01*
X96793Y71849D01*
X98232Y71660D01*
X99671Y71849D01*
X101012Y72405D01*
X102163Y73288D01*
X103047Y74440D01*
X103602Y75780D01*
X103792Y77219D01*
X103602Y78658D01*
X103047Y79999D01*
X102163Y81150D01*
X101012Y82034D01*
X99671Y82589D01*
X98232Y82779D01*
D02*
G37*
G36*
X319449Y100464D02*
X318175Y100339D01*
X316951Y99968D01*
X315822Y99365D01*
X314833Y98553D01*
X314021Y97563D01*
X313418Y96435D01*
X313047Y95210D01*
X312921Y93937D01*
X313047Y92664D01*
X313418Y91439D01*
X314021Y90311D01*
X314833Y89321D01*
X315822Y88510D01*
X316951Y87906D01*
X317139Y87849D01*
Y80886D01*
X317148Y80841D01*
X317137Y80787D01*
X317328Y79827D01*
X317872Y79013D01*
X318686Y78470D01*
X319646Y78279D01*
X320606Y78470D01*
X321420Y79013D01*
X321964Y79827D01*
X322154Y80787D01*
X321964Y81748D01*
X321956Y81759D01*
Y87911D01*
X323075Y88510D01*
X324064Y89321D01*
X324876Y90311D01*
X325479Y91439D01*
X325851Y92664D01*
X325976Y93937D01*
X325851Y95210D01*
X325479Y96435D01*
X324876Y97563D01*
X324064Y98553D01*
X323075Y99365D01*
X321947Y99968D01*
X320722Y100339D01*
X319449Y100464D01*
D02*
G37*
G36*
X390039D02*
X388766Y100339D01*
X387541Y99968D01*
X386413Y99365D01*
X385424Y98553D01*
X384612Y97563D01*
X384009Y96435D01*
X383637Y95210D01*
X383512Y93937D01*
X383637Y92664D01*
X384009Y91439D01*
X384612Y90311D01*
X385424Y89321D01*
X386413Y88510D01*
X387541Y87906D01*
X387572Y87897D01*
Y81510D01*
X387412Y80709D01*
X387603Y79749D01*
X388147Y78935D01*
X388961Y78391D01*
X389921Y78200D01*
X390881Y78391D01*
X391695Y78935D01*
X392239Y79749D01*
X392430Y80709D01*
X392389Y80916D01*
Y87861D01*
X392537Y87906D01*
X393666Y88510D01*
X394655Y89321D01*
X395467Y90311D01*
X396070Y91439D01*
X396441Y92664D01*
X396567Y93937D01*
X396441Y95210D01*
X396070Y96435D01*
X395467Y97563D01*
X394655Y98553D01*
X393666Y99365D01*
X392537Y99968D01*
X391313Y100339D01*
X390039Y100464D01*
D02*
G37*
G36*
X207457Y82965D02*
X206378Y82823D01*
X205372Y82406D01*
X204508Y81744D01*
X203846Y80880D01*
X203429Y79874D01*
X203287Y78795D01*
X203429Y77716D01*
X203846Y76710D01*
X204508Y75847D01*
X205048Y75433D01*
Y70856D01*
X202001Y67808D01*
X201527Y68042D01*
X201626Y68795D01*
X201484Y69874D01*
X201068Y70880D01*
X200405Y71744D01*
X199541Y72406D01*
X198536Y72823D01*
X197457Y72965D01*
X196378Y72823D01*
X195372Y72406D01*
X194508Y71744D01*
X194094Y71204D01*
X188685D01*
X187763Y71020D01*
X186982Y70498D01*
X177620Y61136D01*
X177098Y60355D01*
X176914Y59433D01*
Y36420D01*
X176466Y36199D01*
X176329Y36304D01*
X175323Y36720D01*
X174244Y36862D01*
X173165Y36720D01*
X172159Y36304D01*
X171296Y35641D01*
X170633Y34778D01*
X170217Y33772D01*
X170075Y32693D01*
Y29937D01*
X170217Y28858D01*
X170633Y27852D01*
X171296Y26989D01*
X172159Y26326D01*
X173165Y25910D01*
X174244Y25767D01*
X175323Y25910D01*
X176329Y26326D01*
X176651Y26573D01*
X177278Y26425D01*
X177620Y25914D01*
X178383Y25150D01*
Y22806D01*
X170350D01*
Y19712D01*
X169803D01*
Y20453D01*
X157992D01*
Y19237D01*
X157551Y19001D01*
X157200Y19235D01*
X156240Y19426D01*
X155736Y19326D01*
X132311D01*
X131389Y19142D01*
X130608Y18620D01*
X121840Y9853D01*
X121318Y9071D01*
X121135Y8150D01*
Y4791D01*
X120694Y4555D01*
X120528Y4666D01*
X119606Y4849D01*
X117638D01*
Y6575D01*
X113038D01*
X112654Y6831D01*
X111872Y6987D01*
X108091Y10768D01*
Y12874D01*
X101346D01*
Y14842D01*
X108091D01*
Y20354D01*
X107598D01*
Y25669D01*
X106050D01*
X105950Y26169D01*
X106329Y26326D01*
X107192Y26989D01*
X107855Y27852D01*
X108272Y28858D01*
X108414Y29937D01*
Y32693D01*
X108272Y33772D01*
X107855Y34778D01*
X107192Y35641D01*
X106499Y36173D01*
Y38469D01*
X106316Y39390D01*
X106283Y39439D01*
X106255Y39582D01*
X105711Y40396D01*
X104897Y40940D01*
X103937Y41131D01*
X102977Y40940D01*
X102163Y40396D01*
X101619Y39582D01*
X101428Y38622D01*
X101619Y37662D01*
X101682Y37568D01*
Y35938D01*
X101296Y35641D01*
X100633Y34778D01*
X100217Y33772D01*
X100075Y32693D01*
Y29937D01*
X100217Y28858D01*
X100633Y27852D01*
X101296Y26989D01*
X102159Y26326D01*
X102538Y26169D01*
X102438Y25669D01*
X101299D01*
Y20354D01*
X101201D01*
Y18440D01*
X100701Y18288D01*
X100640Y18379D01*
X99718Y19301D01*
X98936Y19824D01*
X98014Y20007D01*
X97461D01*
Y20354D01*
X93977D01*
X93258Y21073D01*
X92477Y21595D01*
X91555Y21779D01*
X90669D01*
Y22520D01*
X84370D01*
Y21779D01*
X81230D01*
X81100Y21753D01*
X81059Y21761D01*
X80099Y21570D01*
X79285Y21026D01*
X78741Y20212D01*
X78550Y19252D01*
X78741Y18292D01*
X79285Y17478D01*
X80099Y16934D01*
X81059Y16743D01*
X82019Y16934D01*
X82060Y16962D01*
X84370D01*
Y16220D01*
X90571D01*
Y14842D01*
X96529D01*
Y12874D01*
X90571D01*
Y7362D01*
X90839D01*
Y2296D01*
X90750Y2082D01*
X90642Y1260D01*
X90750Y438D01*
X91068Y-329D01*
X91573Y-986D01*
X92230Y-1491D01*
X92997Y-1809D01*
X93819Y-1917D01*
X94641Y-1809D01*
X95407Y-1491D01*
X96065Y-986D01*
X96262Y-790D01*
X96767Y-132D01*
X97084Y635D01*
X97193Y1457D01*
Y7362D01*
X97461D01*
Y7710D01*
X97953D01*
X98874Y7893D01*
X99656Y8415D01*
X100640Y9399D01*
X100701Y9490D01*
X101201Y9339D01*
Y7362D01*
X104684D01*
X109143Y2903D01*
X109370Y2752D01*
Y-1693D01*
X117638D01*
Y33D01*
X118609D01*
X121135Y-2494D01*
Y-4055D01*
X120098D01*
Y-9567D01*
X123582D01*
X125089Y-11073D01*
X124897Y-11535D01*
X121181D01*
Y-10354D01*
X116063D01*
Y-15472D01*
X116410D01*
Y-18295D01*
X116400Y-18298D01*
X115910Y-18425D01*
X115856Y-18425D01*
Y-18425D01*
X115464Y-18425D01*
X114154D01*
X113898Y-18032D01*
X113898Y-17925D01*
Y-13413D01*
X113898Y-12913D01*
X113898D01*
Y-12913D01*
X113898D01*
Y-7795D01*
X111374D01*
X111142Y-7749D01*
X109961D01*
Y-6516D01*
X103662D01*
Y-12126D01*
X98150D01*
Y-12867D01*
X96686D01*
X96181Y-12767D01*
X95221Y-12958D01*
X94407Y-13501D01*
X93863Y-14315D01*
X93672Y-15276D01*
X93863Y-16236D01*
X94407Y-17050D01*
X95221Y-17593D01*
X96181Y-17784D01*
X96686Y-17684D01*
X98150D01*
Y-18425D01*
X103063D01*
X103563Y-18425D01*
X103563Y-19186D01*
X102740Y-19350D01*
X101958Y-19872D01*
X99990Y-21840D01*
X99468Y-22622D01*
X99284Y-23543D01*
Y-32598D01*
X99468Y-33520D01*
X99990Y-34301D01*
X101796Y-36108D01*
Y-63945D01*
X101256Y-64359D01*
X100594Y-65222D01*
X100177Y-66228D01*
X100035Y-67307D01*
Y-70063D01*
X100177Y-71142D01*
X100594Y-72148D01*
X101256Y-73011D01*
X102120Y-73674D01*
X103126Y-74090D01*
X104205Y-74233D01*
X105284Y-74090D01*
X106290Y-73674D01*
X107153Y-73011D01*
X107816Y-72148D01*
X108232Y-71142D01*
X108374Y-70063D01*
Y-67307D01*
X108232Y-66228D01*
X107816Y-65222D01*
X107153Y-64359D01*
X106613Y-63945D01*
Y-63230D01*
X107113Y-63078D01*
X107399Y-63506D01*
X108213Y-64050D01*
X109173Y-64241D01*
X110133Y-64050D01*
X110947Y-63506D01*
X111296Y-62984D01*
X111796Y-63136D01*
Y-63945D01*
X111256Y-64359D01*
X110594Y-65222D01*
X110177Y-66228D01*
X110035Y-67307D01*
Y-70063D01*
X110177Y-71142D01*
X110594Y-72148D01*
X111256Y-73011D01*
X112120Y-73674D01*
X113126Y-74090D01*
X114205Y-74233D01*
X115284Y-74090D01*
X116289Y-73674D01*
X117153Y-73011D01*
X117816Y-72148D01*
X118232Y-71142D01*
X118374Y-70063D01*
Y-67307D01*
X118232Y-66228D01*
X117816Y-65222D01*
X117153Y-64359D01*
X116613Y-63945D01*
Y-55827D01*
X128455D01*
X128563Y-56282D01*
Y-61339D01*
X134862D01*
Y-60598D01*
X135810D01*
X138250Y-63038D01*
X139031Y-63560D01*
X139953Y-63743D01*
X141461D01*
Y-64681D01*
X146579D01*
Y-63743D01*
X146618D01*
X147540Y-63560D01*
X148321Y-63038D01*
X151278Y-60081D01*
X151739Y-60327D01*
X151696Y-60543D01*
X151796Y-61048D01*
Y-63945D01*
X151256Y-64359D01*
X150594Y-65222D01*
X150177Y-66228D01*
X150035Y-67307D01*
Y-70063D01*
X150177Y-71142D01*
X150594Y-72148D01*
X151256Y-73011D01*
X152120Y-73674D01*
X153126Y-74090D01*
X154205Y-74233D01*
X155284Y-74090D01*
X156290Y-73674D01*
X157153Y-73011D01*
X157816Y-72148D01*
X158232Y-71142D01*
X158374Y-70063D01*
Y-67307D01*
X158232Y-66228D01*
X157816Y-65222D01*
X157153Y-64359D01*
X156613Y-63945D01*
Y-61048D01*
X156714Y-60543D01*
X156523Y-59583D01*
X155979Y-58769D01*
X155165Y-58225D01*
X154205Y-58034D01*
X153886Y-58098D01*
X153586Y-57648D01*
X153855Y-57244D01*
X154038Y-56323D01*
Y-50315D01*
X155334D01*
Y-47445D01*
X155630Y-47067D01*
X155834Y-47067D01*
X167441D01*
Y-46424D01*
X170197D01*
X171118Y-46241D01*
X171900Y-45719D01*
X175443Y-42175D01*
X175965Y-41394D01*
X176149Y-40472D01*
Y-23736D01*
X175965Y-22814D01*
X175443Y-22033D01*
X173818Y-20408D01*
X173037Y-19886D01*
X172115Y-19703D01*
X170590D01*
Y-14980D01*
X170590D01*
X170435Y-14605D01*
X172029Y-13010D01*
X175858D01*
X176780Y-12827D01*
X177561Y-12305D01*
X182152Y-7714D01*
X182589Y-7564D01*
X182589Y-7564D01*
Y-7564D01*
X182589Y-7564D01*
X190857D01*
Y704D01*
X189132D01*
Y24459D01*
X191026Y26353D01*
X191195Y26606D01*
X191688Y26687D01*
X192159Y26326D01*
X193165Y25910D01*
X194244Y25767D01*
X195323Y25910D01*
X196329Y26326D01*
X197192Y26989D01*
X197855Y27852D01*
X198272Y28858D01*
X198414Y29937D01*
Y32693D01*
X198272Y33772D01*
X197855Y34778D01*
X197192Y35641D01*
X196329Y36304D01*
X195323Y36720D01*
X194244Y36862D01*
X193165Y36720D01*
X192231Y36334D01*
X191731Y36529D01*
Y50727D01*
X209160Y68155D01*
X209682Y68937D01*
X209865Y69858D01*
Y72327D01*
X210327Y72519D01*
X213376Y69470D01*
X213287Y68795D01*
X213429Y67716D01*
X213846Y66711D01*
X214508Y65847D01*
X215372Y65184D01*
X216377Y64768D01*
X217457Y64626D01*
X218536Y64768D01*
X219541Y65184D01*
X220405Y65847D01*
X221068Y66711D01*
X221484Y67716D01*
X221626Y68795D01*
X221484Y69874D01*
X221068Y70880D01*
X220405Y71744D01*
X219541Y72406D01*
X218536Y72823D01*
X217457Y72965D01*
X216782Y72876D01*
X211537Y78121D01*
X211626Y78795D01*
X211484Y79874D01*
X211068Y80880D01*
X210405Y81744D01*
X209541Y82406D01*
X208536Y82823D01*
X207457Y82965D01*
D02*
G37*
G36*
X411417Y70904D02*
X409874Y70752D01*
X408390Y70302D01*
X407022Y69571D01*
X405823Y68587D01*
X404839Y67388D01*
X404108Y66020D01*
X403657Y64536D01*
X403505Y62992D01*
X403657Y61449D01*
X404108Y59964D01*
X404839Y58596D01*
X405823Y57397D01*
X407022Y56414D01*
X408390Y55682D01*
X409874Y55232D01*
X411417Y55080D01*
X412961Y55232D01*
X414445Y55682D01*
X415813Y56414D01*
X417012Y57397D01*
X417996Y58596D01*
X418727Y59964D01*
X419177Y61449D01*
X419329Y62992D01*
X419177Y64536D01*
X418727Y66020D01*
X417996Y67388D01*
X417012Y68587D01*
X415813Y69571D01*
X414445Y70302D01*
X412961Y70752D01*
X411417Y70904D01*
D02*
G37*
G36*
X213779Y100027D02*
X165354D01*
X164532Y99919D01*
X163766Y99602D01*
X163108Y99097D01*
X156972Y92960D01*
X155193D01*
Y93032D01*
X148697D01*
Y93032D01*
X148197Y92813D01*
X147871Y92948D01*
X147024Y93059D01*
X146176Y92948D01*
X145386Y92621D01*
X144707Y92100D01*
X144186Y91422D01*
X143859Y90631D01*
X143748Y89784D01*
X143859Y88936D01*
X144186Y88145D01*
X144615Y87587D01*
Y72549D01*
X122541Y50475D01*
X122019Y49693D01*
X121836Y48772D01*
Y36055D01*
X121296Y35641D01*
X120633Y34778D01*
X120217Y33772D01*
X120075Y32693D01*
Y29937D01*
X120217Y28858D01*
X120633Y27852D01*
X121296Y26989D01*
X122159Y26326D01*
X123165Y25910D01*
X124244Y25767D01*
X125323Y25910D01*
X126329Y26326D01*
X127192Y26989D01*
X127855Y27852D01*
X128272Y28858D01*
X128414Y29937D01*
Y32693D01*
X128272Y33772D01*
X127855Y34778D01*
X127192Y35641D01*
X126653Y36055D01*
Y47774D01*
X148727Y69848D01*
X159356Y80477D01*
X173067D01*
X173989Y80661D01*
X174770Y81183D01*
X177703Y84116D01*
X178225Y84897D01*
X178409Y85819D01*
Y86917D01*
X184169D01*
Y88921D01*
X188922Y93674D01*
X212464D01*
X224028Y82109D01*
Y48724D01*
X223989Y48425D01*
X224097Y47603D01*
X224414Y46837D01*
X224919Y46179D01*
X225577Y45674D01*
X226343Y45357D01*
X227165Y45248D01*
X227988Y45357D01*
X228754Y45674D01*
X229412Y46179D01*
X229451Y46218D01*
X229956Y46876D01*
X230273Y47642D01*
X230381Y48465D01*
Y83425D01*
X230273Y84247D01*
X229956Y85014D01*
X229451Y85672D01*
X216026Y99097D01*
X215368Y99602D01*
X214602Y99919D01*
X213779Y100027D01*
D02*
G37*
G36*
X52949Y59237D02*
X51989Y59046D01*
X51175Y58502D01*
X50631Y57688D01*
X50440Y56728D01*
X50631Y55768D01*
X51175Y54954D01*
X51603Y54669D01*
X56958Y49313D01*
Y42131D01*
X56857Y41626D01*
X57048Y40666D01*
X57592Y39852D01*
X58406Y39308D01*
X59366Y39117D01*
X60326Y39308D01*
X61140Y39852D01*
X61684Y40666D01*
X61875Y41626D01*
X61775Y42131D01*
Y50311D01*
X61591Y51233D01*
X61069Y52014D01*
X55009Y58075D01*
X54723Y58502D01*
X53909Y59046D01*
X52949Y59237D01*
D02*
G37*
G36*
X164134Y51603D02*
X163174Y51412D01*
X162360Y50868D01*
X161816Y50055D01*
X161625Y49095D01*
X161725Y48590D01*
Y44425D01*
X161781Y44148D01*
Y36013D01*
X161296Y35641D01*
X160633Y34778D01*
X160217Y33772D01*
X160075Y32693D01*
Y29937D01*
X160217Y28858D01*
X160633Y27852D01*
X161296Y26989D01*
X162159Y26326D01*
X163165Y25910D01*
X164244Y25767D01*
X165323Y25910D01*
X166329Y26326D01*
X167192Y26989D01*
X167855Y27852D01*
X168272Y28858D01*
X168414Y29937D01*
Y32693D01*
X168272Y33772D01*
X167855Y34778D01*
X167192Y35641D01*
X166597Y36098D01*
Y44370D01*
X166542Y44647D01*
Y48590D01*
X166643Y49095D01*
X166452Y50055D01*
X165908Y50868D01*
X165094Y51412D01*
X164134Y51603D01*
D02*
G37*
G36*
X154244Y36862D02*
X153165Y36720D01*
X152159Y36304D01*
X151296Y35641D01*
X150633Y34778D01*
X150217Y33772D01*
X150075Y32693D01*
Y29937D01*
X150217Y28858D01*
X150633Y27852D01*
X151296Y26989D01*
X152159Y26326D01*
X153165Y25910D01*
X154244Y25767D01*
X155323Y25910D01*
X156329Y26326D01*
X157192Y26989D01*
X157855Y27852D01*
X158272Y28858D01*
X158414Y29937D01*
Y32693D01*
X158272Y33772D01*
X157855Y34778D01*
X157192Y35641D01*
X156329Y36304D01*
X155323Y36720D01*
X154244Y36862D01*
D02*
G37*
G36*
X144244D02*
X143165Y36720D01*
X142159Y36304D01*
X141296Y35641D01*
X140633Y34778D01*
X140217Y33772D01*
X140075Y32693D01*
Y29937D01*
X140217Y28858D01*
X140633Y27852D01*
X141296Y26989D01*
X142159Y26326D01*
X143165Y25910D01*
X144244Y25767D01*
X145323Y25910D01*
X146329Y26326D01*
X147192Y26989D01*
X147855Y27852D01*
X148272Y28858D01*
X148414Y29937D01*
Y32693D01*
X148272Y33772D01*
X147855Y34778D01*
X147192Y35641D01*
X146329Y36304D01*
X145323Y36720D01*
X144244Y36862D01*
D02*
G37*
G36*
X134244D02*
X133165Y36720D01*
X132159Y36304D01*
X131296Y35641D01*
X130633Y34778D01*
X130217Y33772D01*
X130075Y32693D01*
Y29937D01*
X130217Y28858D01*
X130633Y27852D01*
X131296Y26989D01*
X132159Y26326D01*
X133165Y25910D01*
X134244Y25767D01*
X135323Y25910D01*
X136329Y26326D01*
X137192Y26989D01*
X137855Y27852D01*
X138272Y28858D01*
X138414Y29937D01*
Y32693D01*
X138272Y33772D01*
X137855Y34778D01*
X137192Y35641D01*
X136329Y36304D01*
X135323Y36720D01*
X134244Y36862D01*
D02*
G37*
G36*
X91469Y46328D02*
X90508Y46137D01*
X89694Y45593D01*
X89151Y44779D01*
X88960Y43819D01*
X89151Y42859D01*
X89694Y42045D01*
X90122Y41759D01*
X91836Y40046D01*
Y36055D01*
X91296Y35641D01*
X90633Y34778D01*
X90217Y33772D01*
X90075Y32693D01*
Y29937D01*
X90217Y28858D01*
X90633Y27852D01*
X91296Y26989D01*
X92159Y26326D01*
X93165Y25910D01*
X94244Y25767D01*
X95323Y25910D01*
X96329Y26326D01*
X97192Y26989D01*
X97855Y27852D01*
X98272Y28858D01*
X98414Y29937D01*
Y32693D01*
X98272Y33772D01*
X97855Y34778D01*
X97192Y35641D01*
X96653Y36055D01*
Y41043D01*
X96469Y41965D01*
X95947Y42746D01*
X93528Y45165D01*
X93243Y45593D01*
X92429Y46137D01*
X91469Y46328D01*
D02*
G37*
G36*
X77276Y51084D02*
X76315Y50893D01*
X75502Y50349D01*
X74958Y49535D01*
X74767Y48575D01*
X74958Y47615D01*
X75502Y46801D01*
X75929Y46515D01*
X81836Y40609D01*
Y36055D01*
X81296Y35641D01*
X80633Y34778D01*
X80217Y33772D01*
X80075Y32693D01*
Y29937D01*
X80217Y28858D01*
X80633Y27852D01*
X81296Y26989D01*
X82159Y26326D01*
X83165Y25910D01*
X84244Y25767D01*
X85323Y25910D01*
X86329Y26326D01*
X87192Y26989D01*
X87855Y27852D01*
X88272Y28858D01*
X88414Y29937D01*
Y32693D01*
X88272Y33772D01*
X87855Y34778D01*
X87192Y35641D01*
X86653Y36055D01*
Y41606D01*
X86469Y42528D01*
X85947Y43309D01*
X79335Y49921D01*
X79050Y50349D01*
X78236Y50893D01*
X77276Y51084D01*
D02*
G37*
G36*
X64228Y41261D02*
X63268Y41070D01*
X62454Y40526D01*
X61910Y39712D01*
X61720Y38752D01*
X61828Y38208D01*
Y36049D01*
X61296Y35641D01*
X60633Y34778D01*
X60217Y33772D01*
X60075Y32693D01*
Y29937D01*
X60217Y28858D01*
X60633Y27852D01*
X61296Y26989D01*
X62159Y26326D01*
X63165Y25910D01*
X64244Y25767D01*
X65323Y25910D01*
X66329Y26326D01*
X67192Y26989D01*
X67855Y27852D01*
X68272Y28858D01*
X68414Y29937D01*
Y32693D01*
X68272Y33772D01*
X67855Y34778D01*
X67192Y35641D01*
X66645Y36061D01*
Y38287D01*
X66737Y38752D01*
X66546Y39712D01*
X66002Y40526D01*
X65188Y41070D01*
X64228Y41261D01*
D02*
G37*
G36*
X54244Y36862D02*
X53165Y36720D01*
X52159Y36304D01*
X51296Y35641D01*
X50633Y34778D01*
X50217Y33772D01*
X50075Y32693D01*
Y29937D01*
X50217Y28858D01*
X50633Y27852D01*
X51296Y26989D01*
X52159Y26326D01*
X53165Y25910D01*
X54244Y25767D01*
X55323Y25910D01*
X56329Y26326D01*
X57192Y26989D01*
X57855Y27852D01*
X58272Y28858D01*
X58414Y29937D01*
Y32693D01*
X58272Y33772D01*
X57855Y34778D01*
X57192Y35641D01*
X56329Y36304D01*
X55323Y36720D01*
X54244Y36862D01*
D02*
G37*
G36*
X44244D02*
X43165Y36720D01*
X42159Y36304D01*
X41296Y35641D01*
X40633Y34778D01*
X40217Y33772D01*
X40075Y32693D01*
Y29937D01*
X40217Y28858D01*
X40633Y27852D01*
X41296Y26989D01*
X42159Y26326D01*
X43165Y25910D01*
X44244Y25767D01*
X45323Y25910D01*
X46329Y26326D01*
X47192Y26989D01*
X47855Y27852D01*
X48272Y28858D01*
X48414Y29937D01*
Y32693D01*
X48272Y33772D01*
X47855Y34778D01*
X47192Y35641D01*
X46329Y36304D01*
X45323Y36720D01*
X44244Y36862D01*
D02*
G37*
G36*
X33850Y37841D02*
X32928Y37658D01*
X32147Y37136D01*
X31625Y36354D01*
X31517Y35811D01*
X31296Y35641D01*
X30633Y34778D01*
X30217Y33772D01*
X30075Y32693D01*
Y29937D01*
X30217Y28858D01*
X30633Y27852D01*
X31296Y26989D01*
X32159Y26326D01*
X33165Y25910D01*
X34244Y25767D01*
X35323Y25910D01*
X36329Y26326D01*
X37192Y26989D01*
X37855Y27852D01*
X38272Y28858D01*
X38414Y29937D01*
Y32693D01*
X38272Y33772D01*
X37855Y34778D01*
X37192Y35641D01*
X36329Y36304D01*
X36026Y36429D01*
X35557Y37132D01*
X35553Y37136D01*
X34772Y37658D01*
X33850Y37841D01*
D02*
G37*
G36*
X24244Y36862D02*
X23165Y36720D01*
X22159Y36304D01*
X21296Y35641D01*
X20633Y34778D01*
X20217Y33772D01*
X20075Y32693D01*
Y29937D01*
X20217Y28858D01*
X20633Y27852D01*
X21296Y26989D01*
X22159Y26326D01*
X23165Y25910D01*
X24244Y25767D01*
X25323Y25910D01*
X26329Y26326D01*
X27192Y26989D01*
X27855Y27852D01*
X28272Y28858D01*
X28414Y29937D01*
Y32693D01*
X28272Y33772D01*
X27855Y34778D01*
X27192Y35641D01*
X26329Y36304D01*
X25323Y36720D01*
X24244Y36862D01*
D02*
G37*
G36*
X114244D02*
X113165Y36720D01*
X112159Y36304D01*
X111296Y35641D01*
X110633Y34778D01*
X110217Y33772D01*
X110075Y32693D01*
Y29937D01*
X110217Y28858D01*
X110633Y27852D01*
X111296Y26989D01*
X111879Y26541D01*
Y19932D01*
X111822Y19646D01*
X112013Y18686D01*
X112557Y17872D01*
X113371Y17328D01*
X114331Y17137D01*
X115291Y17328D01*
X116105Y17872D01*
X116649Y18686D01*
X116840Y19646D01*
X116696Y20368D01*
Y26608D01*
X117192Y26989D01*
X117855Y27852D01*
X118272Y28858D01*
X118414Y29937D01*
Y32693D01*
X118272Y33772D01*
X117855Y34778D01*
X117192Y35641D01*
X116329Y36304D01*
X115323Y36720D01*
X114244Y36862D01*
D02*
G37*
G36*
X242638Y77756D02*
X231614D01*
Y66732D01*
X234717D01*
Y25683D01*
X224908Y15873D01*
X217945D01*
X217441Y15973D01*
X216481Y15782D01*
X215667Y15239D01*
X215123Y14425D01*
X214932Y13465D01*
X215123Y12505D01*
X215667Y11691D01*
X216481Y11147D01*
X217441Y10956D01*
X217945Y11056D01*
X225905D01*
X226827Y11240D01*
X227609Y11762D01*
X238829Y22982D01*
X239351Y23763D01*
X239534Y24685D01*
Y66732D01*
X242638D01*
Y77756D01*
D02*
G37*
G36*
X259509Y18902D02*
X257563Y18749D01*
X255665Y18293D01*
X253861Y17547D01*
X252197Y16527D01*
X250713Y15259D01*
X249445Y13774D01*
X248425Y12110D01*
X247678Y10307D01*
X247222Y8409D01*
X247069Y6463D01*
X247222Y4516D01*
X247678Y2618D01*
X248425Y815D01*
X249445Y-850D01*
X250713Y-2334D01*
X252197Y-3602D01*
X253861Y-4622D01*
X255665Y-5369D01*
X257563Y-5824D01*
X259509Y-5977D01*
X261455Y-5824D01*
X263353Y-5369D01*
X265157Y-4622D01*
X266821Y-3602D01*
X268305Y-2334D01*
X269573Y-850D01*
X270593Y815D01*
X271340Y2618D01*
X271796Y4516D01*
X271949Y6463D01*
X271796Y8409D01*
X271340Y10307D01*
X270593Y12110D01*
X269573Y13774D01*
X268305Y15259D01*
X266821Y16527D01*
X265157Y17547D01*
X263353Y18293D01*
X261455Y18749D01*
X259509Y18902D01*
D02*
G37*
G36*
X290021Y-2171D02*
X286084D01*
X284645Y-2361D01*
X283304Y-2916D01*
X282153Y-3799D01*
X281269Y-4951D01*
X280714Y-6292D01*
X280524Y-7730D01*
X280714Y-9169D01*
X281269Y-10510D01*
X282153Y-11661D01*
X283304Y-12545D01*
X284645Y-13100D01*
X286084Y-13290D01*
X290021D01*
X291460Y-13100D01*
X292801Y-12545D01*
X293952Y-11661D01*
X294835Y-10510D01*
X295391Y-9169D01*
X295580Y-7730D01*
X295391Y-6292D01*
X294835Y-4951D01*
X293952Y-3799D01*
X292801Y-2916D01*
X291460Y-2361D01*
X290021Y-2171D01*
D02*
G37*
G36*
X232934D02*
X228997D01*
X227558Y-2361D01*
X226218Y-2916D01*
X225066Y-3799D01*
X224183Y-4951D01*
X223627Y-6292D01*
X223438Y-7730D01*
X223627Y-9169D01*
X224183Y-10510D01*
X225066Y-11661D01*
X226218Y-12545D01*
X227558Y-13100D01*
X228997Y-13290D01*
X232934D01*
X234373Y-13100D01*
X235714Y-12545D01*
X236865Y-11661D01*
X237749Y-10510D01*
X238304Y-9169D01*
X238494Y-7730D01*
X238304Y-6292D01*
X237749Y-4951D01*
X236865Y-3799D01*
X235714Y-2916D01*
X234373Y-2361D01*
X232934Y-2171D01*
D02*
G37*
G36*
X290021Y-21856D02*
X286084D01*
X284645Y-22046D01*
X283304Y-22601D01*
X282153Y-23484D01*
X281269Y-24636D01*
X280714Y-25977D01*
X280524Y-27415D01*
X280714Y-28854D01*
X281269Y-30195D01*
X282153Y-31346D01*
X283304Y-32230D01*
X284645Y-32785D01*
X286084Y-32975D01*
X290021D01*
X291460Y-32785D01*
X292801Y-32230D01*
X293952Y-31346D01*
X294835Y-30195D01*
X295391Y-28854D01*
X295580Y-27415D01*
X295391Y-25977D01*
X294835Y-24636D01*
X293952Y-23484D01*
X292801Y-22601D01*
X291460Y-22046D01*
X290021Y-21856D01*
D02*
G37*
G36*
X232934D02*
X228997D01*
X227558Y-22046D01*
X226218Y-22601D01*
X225066Y-23484D01*
X224183Y-24636D01*
X223627Y-25977D01*
X223438Y-27415D01*
X223627Y-28854D01*
X224183Y-30195D01*
X225066Y-31346D01*
X226218Y-32230D01*
X227558Y-32785D01*
X228997Y-32975D01*
X232934D01*
X234373Y-32785D01*
X235714Y-32230D01*
X236865Y-31346D01*
X237749Y-30195D01*
X238304Y-28854D01*
X238494Y-27415D01*
X238304Y-25977D01*
X237749Y-24636D01*
X236865Y-23484D01*
X235714Y-22601D01*
X234373Y-22046D01*
X232934Y-21856D01*
D02*
G37*
G36*
X259509Y-29168D02*
X257563Y-29322D01*
X255665Y-29777D01*
X253861Y-30524D01*
X252197Y-31544D01*
X250713Y-32812D01*
X249445Y-34296D01*
X248425Y-35961D01*
X247678Y-37764D01*
X247222Y-39662D01*
X247069Y-41608D01*
X247222Y-43554D01*
X247678Y-45452D01*
X248425Y-47256D01*
X249445Y-48920D01*
X250713Y-50405D01*
X252197Y-51673D01*
X253861Y-52692D01*
X255665Y-53439D01*
X257563Y-53895D01*
X259509Y-54048D01*
X261455Y-53895D01*
X263353Y-53439D01*
X265157Y-52692D01*
X266821Y-51673D01*
X268305Y-50405D01*
X269573Y-48920D01*
X270593Y-47256D01*
X271340Y-45452D01*
X271796Y-43554D01*
X271949Y-41608D01*
X271796Y-39662D01*
X271340Y-37764D01*
X270593Y-35961D01*
X269573Y-34296D01*
X268305Y-32812D01*
X266821Y-31544D01*
X265157Y-30524D01*
X263353Y-29777D01*
X261455Y-29322D01*
X259509Y-29168D01*
D02*
G37*
G36*
X174205Y-63138D02*
X173126Y-63280D01*
X172120Y-63696D01*
X171256Y-64359D01*
X170594Y-65222D01*
X170177Y-66228D01*
X170035Y-67307D01*
Y-70063D01*
X170177Y-71142D01*
X170594Y-72148D01*
X171256Y-73011D01*
X172120Y-73674D01*
X173126Y-74090D01*
X174205Y-74233D01*
X175284Y-74090D01*
X176289Y-73674D01*
X177153Y-73011D01*
X177816Y-72148D01*
X178232Y-71142D01*
X178374Y-70063D01*
Y-67307D01*
X178232Y-66228D01*
X177816Y-65222D01*
X177153Y-64359D01*
X176289Y-63696D01*
X175284Y-63280D01*
X174205Y-63138D01*
D02*
G37*
G36*
X164205D02*
X163126Y-63280D01*
X162120Y-63696D01*
X161256Y-64359D01*
X160594Y-65222D01*
X160177Y-66228D01*
X160035Y-67307D01*
Y-70063D01*
X160177Y-71142D01*
X160594Y-72148D01*
X161256Y-73011D01*
X162120Y-73674D01*
X163126Y-74090D01*
X164205Y-74233D01*
X165284Y-74090D01*
X166289Y-73674D01*
X167153Y-73011D01*
X167816Y-72148D01*
X168232Y-71142D01*
X168374Y-70063D01*
Y-67307D01*
X168232Y-66228D01*
X167816Y-65222D01*
X167153Y-64359D01*
X166289Y-63696D01*
X165284Y-63280D01*
X164205Y-63138D01*
D02*
G37*
G36*
X44205D02*
X43126Y-63280D01*
X42120Y-63696D01*
X41256Y-64359D01*
X40594Y-65222D01*
X40177Y-66228D01*
X40035Y-67307D01*
Y-70063D01*
X40177Y-71142D01*
X40594Y-72148D01*
X41256Y-73011D01*
X42120Y-73674D01*
X43126Y-74090D01*
X44205Y-74233D01*
X45284Y-74090D01*
X46290Y-73674D01*
X47153Y-73011D01*
X47816Y-72148D01*
X48232Y-71142D01*
X48374Y-70063D01*
Y-67307D01*
X48232Y-66228D01*
X47816Y-65222D01*
X47153Y-64359D01*
X46290Y-63696D01*
X45284Y-63280D01*
X44205Y-63138D01*
D02*
G37*
G36*
X34205D02*
X33126Y-63280D01*
X32120Y-63696D01*
X31256Y-64359D01*
X30594Y-65222D01*
X30177Y-66228D01*
X30035Y-67307D01*
Y-70063D01*
X30177Y-71142D01*
X30594Y-72148D01*
X31256Y-73011D01*
X32120Y-73674D01*
X33126Y-74090D01*
X34205Y-74233D01*
X35284Y-74090D01*
X36290Y-73674D01*
X37153Y-73011D01*
X37816Y-72148D01*
X38232Y-71142D01*
X38374Y-70063D01*
Y-67307D01*
X38232Y-66228D01*
X37816Y-65222D01*
X37153Y-64359D01*
X36290Y-63696D01*
X35284Y-63280D01*
X34205Y-63138D01*
D02*
G37*
G36*
X24205D02*
X23126Y-63280D01*
X22120Y-63696D01*
X21256Y-64359D01*
X20594Y-65222D01*
X20177Y-66228D01*
X20035Y-67307D01*
Y-70063D01*
X20177Y-71142D01*
X20594Y-72148D01*
X21256Y-73011D01*
X22120Y-73674D01*
X23126Y-74090D01*
X24205Y-74233D01*
X25284Y-74090D01*
X26289Y-73674D01*
X27153Y-73011D01*
X27816Y-72148D01*
X28232Y-71142D01*
X28374Y-70063D01*
Y-67307D01*
X28232Y-66228D01*
X27816Y-65222D01*
X27153Y-64359D01*
X26289Y-63696D01*
X25284Y-63280D01*
X24205Y-63138D01*
D02*
G37*
G36*
X94205D02*
X93126Y-63280D01*
X92120Y-63696D01*
X91256Y-64359D01*
X90594Y-65222D01*
X90177Y-66228D01*
X90035Y-67307D01*
Y-70063D01*
X90177Y-71142D01*
X90594Y-72148D01*
X91256Y-73011D01*
X91796Y-73426D01*
Y-74527D01*
X91696Y-75032D01*
X91887Y-75991D01*
X92431Y-76806D01*
X93245Y-77349D01*
X94205Y-77540D01*
X95165Y-77349D01*
X95979Y-76806D01*
X96523Y-75991D01*
X96714Y-75032D01*
X96613Y-74527D01*
Y-73426D01*
X97153Y-73011D01*
X97816Y-72148D01*
X98232Y-71142D01*
X98374Y-70063D01*
Y-67307D01*
X98232Y-66228D01*
X97816Y-65222D01*
X97153Y-64359D01*
X96289Y-63696D01*
X95284Y-63280D01*
X94205Y-63138D01*
D02*
G37*
G36*
X74205D02*
X73126Y-63280D01*
X72120Y-63696D01*
X71256Y-64359D01*
X70594Y-65222D01*
X70177Y-66228D01*
X70035Y-67307D01*
Y-70063D01*
X70177Y-71142D01*
X70594Y-72148D01*
X71256Y-73011D01*
X71887Y-73495D01*
Y-77937D01*
X71891Y-77958D01*
X71877Y-78028D01*
X72068Y-78988D01*
X72612Y-79802D01*
X73426Y-80345D01*
X74386Y-80536D01*
X75346Y-80345D01*
X76160Y-79802D01*
X76704Y-78988D01*
X76895Y-78028D01*
X76704Y-77068D01*
Y-73356D01*
X77153Y-73011D01*
X77816Y-72148D01*
X78232Y-71142D01*
X78374Y-70063D01*
Y-67307D01*
X78232Y-66228D01*
X77816Y-65222D01*
X77153Y-64359D01*
X76289Y-63696D01*
X75284Y-63280D01*
X74205Y-63138D01*
D02*
G37*
G36*
X84205D02*
X83126Y-63280D01*
X82120Y-63696D01*
X81256Y-64359D01*
X80594Y-65222D01*
X80177Y-66228D01*
X80035Y-67307D01*
Y-70063D01*
X80177Y-71142D01*
X80594Y-72148D01*
X81256Y-73011D01*
X81796Y-73426D01*
Y-77598D01*
X81696Y-78102D01*
X81887Y-79062D01*
X82431Y-79876D01*
X83245Y-80420D01*
X84205Y-80611D01*
X85165Y-80420D01*
X85979Y-79876D01*
X86523Y-79062D01*
X86713Y-78102D01*
X86613Y-77598D01*
Y-73426D01*
X87153Y-73011D01*
X87816Y-72148D01*
X88232Y-71142D01*
X88374Y-70063D01*
Y-67307D01*
X88232Y-66228D01*
X87816Y-65222D01*
X87153Y-64359D01*
X86290Y-63696D01*
X85284Y-63280D01*
X84205Y-63138D01*
D02*
G37*
%LPD*%
G36*
X153812Y11066D02*
Y5666D01*
X153312Y5514D01*
X153002Y5977D01*
X152080Y6900D01*
X151298Y7422D01*
X150377Y7605D01*
X149724D01*
Y8347D01*
X143425D01*
Y3335D01*
X143425Y2835D01*
X137913D01*
Y8740D01*
X131614D01*
Y2441D01*
Y-3464D01*
X132355D01*
Y-4055D01*
X130728D01*
Y-9279D01*
X130228Y-9431D01*
X130168Y-9340D01*
X126988Y-6161D01*
Y-4055D01*
X125952D01*
Y-1496D01*
Y7152D01*
X133309Y14509D01*
X153812D01*
Y11066D01*
D02*
G37*
G36*
X163504Y3425D02*
X163406D01*
Y-2087D01*
X170295D01*
Y1883D01*
X170394Y2342D01*
X178383D01*
Y-4671D01*
X174860Y-8193D01*
X171031D01*
X170682Y-8263D01*
X170295Y-7946D01*
Y-4055D01*
X163406D01*
Y-6972D01*
X163359Y-7205D01*
Y-7388D01*
X161476Y-9272D01*
X159665D01*
Y-4055D01*
X153708D01*
Y-2087D01*
X159665D01*
Y3425D01*
X158629D01*
Y8839D01*
X163504D01*
Y3425D01*
D02*
G37*
G36*
X143271Y-3965D02*
X143168Y-4118D01*
X142985Y-5039D01*
Y-7401D01*
X142244D01*
Y-12913D01*
X137618D01*
Y-11535D01*
X130873D01*
Y-11043D01*
X130690Y-10122D01*
X130624Y-10024D01*
X130920Y-9567D01*
X137618D01*
Y-4055D01*
X137172D01*
Y-3464D01*
X143004D01*
X143271Y-3965D01*
D02*
G37*
G36*
X148891Y-5544D02*
Y-5889D01*
X149074Y-6810D01*
X149596Y-7592D01*
X150519Y-8514D01*
X151300Y-9036D01*
X152222Y-9219D01*
X152776D01*
Y-9567D01*
X153071D01*
Y-15571D01*
X153812D01*
Y-18912D01*
X153995Y-19833D01*
X154517Y-20615D01*
X157284Y-23381D01*
X157077Y-23881D01*
X153403D01*
X152481Y-24064D01*
X151700Y-24586D01*
X150777Y-25509D01*
X150618Y-25747D01*
X150118Y-25595D01*
Y-22658D01*
X143819D01*
Y-28957D01*
Y-34961D01*
X143401Y-35157D01*
X143327D01*
Y-40669D01*
X150216D01*
Y-35157D01*
X150635Y-34961D01*
X155630D01*
Y-40768D01*
X155630D01*
Y-43638D01*
X155334Y-44016D01*
X155130Y-44016D01*
X150216D01*
Y-42638D01*
X143327D01*
Y-48149D01*
X146269D01*
X146525Y-48472D01*
X146323Y-48933D01*
X145201D01*
Y-55626D01*
X148267D01*
X148459Y-56088D01*
X146558Y-57988D01*
X141461D01*
Y-58926D01*
X140950D01*
X138510Y-56486D01*
X137971Y-56126D01*
X138123Y-55626D01*
X142839D01*
Y-48933D01*
X138550D01*
Y-48149D01*
X139587D01*
Y-42638D01*
X133976D01*
Y-41653D01*
X128858D01*
Y-46772D01*
X129009D01*
Y-49397D01*
X129004Y-49399D01*
X128509Y-49528D01*
X128455Y-49528D01*
Y-49528D01*
X128063Y-49528D01*
X127111D01*
X126693Y-49331D01*
Y-44713D01*
X126693Y-44213D01*
X126693D01*
Y-44212D01*
X126693D01*
Y-39094D01*
X124751D01*
X124662Y-39035D01*
X123740Y-38851D01*
X123051D01*
Y-38110D01*
X116752D01*
Y-43622D01*
X111240D01*
Y-44363D01*
X111142D01*
X110220Y-44546D01*
X109439Y-45069D01*
X107470Y-47037D01*
X107113Y-47571D01*
X106613Y-47420D01*
Y-35110D01*
X106430Y-34189D01*
X105908Y-33407D01*
X104101Y-31601D01*
Y-24725D01*
X109862D01*
Y-24724D01*
X115856D01*
X115964Y-25180D01*
Y-30237D01*
X118858D01*
X119182Y-30561D01*
X119964Y-31083D01*
X120885Y-31267D01*
X126299D01*
Y-32205D01*
X126299D01*
X126407Y-32705D01*
X126349Y-32992D01*
X126540Y-33952D01*
X127084Y-34766D01*
X127898Y-35310D01*
X128858Y-35501D01*
X129818Y-35310D01*
X130632Y-34766D01*
X131176Y-33952D01*
X131367Y-32992D01*
X131310Y-32705D01*
X131417Y-32205D01*
X131417D01*
Y-28430D01*
X131802Y-28114D01*
X133733D01*
Y-35157D01*
X132697D01*
Y-40669D01*
X139587D01*
Y-35157D01*
X138550D01*
Y-26628D01*
X138367Y-25706D01*
X137845Y-24925D01*
X137449Y-24529D01*
X137613Y-23987D01*
X138086Y-23893D01*
X138900Y-23349D01*
X139186Y-22921D01*
X141289Y-20817D01*
X141812Y-20036D01*
X141975Y-19213D01*
X142736D01*
Y-13701D01*
X148543D01*
Y-7401D01*
X147802D01*
Y-6037D01*
X148278Y-5561D01*
X148391Y-5392D01*
X148891Y-5544D01*
D02*
G37*
G36*
X171332Y-24734D02*
Y-39475D01*
X169199Y-41607D01*
X167441D01*
Y-40768D01*
X161929D01*
Y-35059D01*
X167441D01*
Y-28760D01*
X167441D01*
Y-24520D01*
X171118D01*
X171332Y-24734D01*
D02*
G37*
G36*
X174775Y93174D02*
X174362Y93002D01*
X173684Y92482D01*
X173163Y91803D01*
X172836Y91013D01*
X172724Y90165D01*
X172836Y89317D01*
X173163Y88527D01*
X173591Y87969D01*
Y86817D01*
X172069Y85294D01*
X158358D01*
X157437Y85111D01*
X156655Y84589D01*
X149894Y77828D01*
X149432Y78019D01*
Y86535D01*
X155193D01*
Y86607D01*
X158287D01*
X159110Y86715D01*
X159876Y87032D01*
X160534Y87537D01*
X166670Y93674D01*
X174676D01*
X174775Y93174D01*
D02*
G37*
%LPC*%
G36*
X411417Y-55080D02*
X409874Y-55232D01*
X408390Y-55682D01*
X407022Y-56414D01*
X405823Y-57397D01*
X404839Y-58596D01*
X404108Y-59964D01*
X403657Y-61449D01*
X403505Y-62992D01*
X403657Y-64536D01*
X404108Y-66020D01*
X404839Y-67388D01*
X405823Y-68587D01*
X407022Y-69571D01*
X408390Y-70302D01*
X409874Y-70752D01*
X411417Y-70904D01*
X412961Y-70752D01*
X414445Y-70302D01*
X415813Y-69571D01*
X417012Y-68587D01*
X417996Y-67388D01*
X418727Y-66020D01*
X419177Y-64536D01*
X419329Y-62992D01*
X419177Y-61449D01*
X418727Y-59964D01*
X417996Y-58596D01*
X417012Y-57397D01*
X415813Y-56414D01*
X414445Y-55682D01*
X412961Y-55232D01*
X411417Y-55080D01*
D02*
G37*
%LPD*%
D14*
X87520Y19370D02*
D03*
X87520Y13858D02*
D03*
X106713Y-27087D02*
D03*
Y-21575D02*
D03*
X112707Y-21575D02*
D03*
Y-27087D02*
D03*
X119114Y-21575D02*
D03*
Y-27087D02*
D03*
X131712Y-52677D02*
D03*
Y-58189D02*
D03*
X119311Y-58189D02*
D03*
Y-52677D02*
D03*
X152185Y-41653D02*
D03*
Y-47165D02*
D03*
X145394Y-16063D02*
D03*
Y-10551D02*
D03*
X146575Y5197D02*
D03*
Y-315D02*
D03*
X381366Y-15228D02*
D03*
Y-9717D02*
D03*
X374972Y-9669D02*
D03*
Y-4157D02*
D03*
X387765Y-5421D02*
D03*
Y91D02*
D03*
X381366Y-197D02*
D03*
Y5315D02*
D03*
X394188Y4437D02*
D03*
Y9949D02*
D03*
X387789Y10051D02*
D03*
Y15563D02*
D03*
X400587Y14921D02*
D03*
Y20433D02*
D03*
X394188Y20508D02*
D03*
Y26020D02*
D03*
X125305Y-52677D02*
D03*
Y-58189D02*
D03*
X139586Y-10551D02*
D03*
Y-16063D02*
D03*
D16*
X104449Y22520D02*
D03*
X98937D02*
D03*
X101300Y-9665D02*
D03*
X106811D02*
D03*
X101299Y-15276D02*
D03*
X106811D02*
D03*
X114390Y-46772D02*
D03*
X119902D02*
D03*
X114390Y-41260D02*
D03*
X119902D02*
D03*
X152480Y-31811D02*
D03*
X146968D02*
D03*
X141457Y-25807D02*
D03*
X146968D02*
D03*
X169803Y-26289D02*
D03*
X164291D02*
D03*
X164291Y-31909D02*
D03*
X158780D02*
D03*
X164291Y-37707D02*
D03*
X158780D02*
D03*
X158780Y-43917D02*
D03*
X164291D02*
D03*
X134764Y-315D02*
D03*
X140276D02*
D03*
Y5591D02*
D03*
X134764D02*
D03*
X156220Y-12421D02*
D03*
X161732D02*
D03*
X167441Y-18130D02*
D03*
X161929D02*
D03*
X161142Y11988D02*
D03*
X166654D02*
D03*
X166653Y17303D02*
D03*
X161142D02*
D03*
X161142Y6476D02*
D03*
X166654D02*
D03*
D17*
X104646Y10118D02*
D03*
Y17598D02*
D03*
X94016D02*
D03*
X94016Y13858D02*
D03*
Y10118D02*
D03*
X123543Y-6811D02*
D03*
Y-14291D02*
D03*
X134173D02*
D03*
Y-10551D02*
D03*
Y-6811D02*
D03*
X156220Y669D02*
D03*
Y-6811D02*
D03*
X166850D02*
D03*
Y-3071D02*
D03*
Y669D02*
D03*
X136142Y-37913D02*
D03*
Y-45394D02*
D03*
X146772D02*
D03*
X146772Y-41653D02*
D03*
X146772Y-37913D02*
D03*
D40*
X81059Y19252D02*
X81112D01*
X81230Y19370D02*
X91555D01*
X81112Y19252D02*
X81230Y19370D01*
X80726Y14058D02*
X87320D01*
X74244Y20539D02*
X80726Y14058D01*
X9134Y-52047D02*
Y36764D01*
X13669Y41299D01*
X72027Y22756D02*
X74244Y20539D01*
Y31315D01*
X87320Y14058D02*
X87520Y13858D01*
X59366Y41626D02*
Y50311D01*
X52949Y56728D02*
X59366Y50311D01*
X91469Y43819D02*
X94244Y41043D01*
Y31315D02*
Y41043D01*
X84244Y31315D02*
Y41606D01*
X77276Y48575D02*
X84244Y41606D01*
X104091Y31468D02*
X104244Y31315D01*
X104091Y31468D02*
Y38469D01*
X103937Y38622D02*
X104091Y38469D01*
X151630Y-47720D02*
X152185Y-47165D01*
X151630Y-56323D02*
Y-47720D01*
X146618Y-61335D02*
X151630Y-56323D01*
X144020Y-61335D02*
X146618D01*
X154205Y-68685D02*
Y-60543D01*
X136142Y-50902D02*
Y-45394D01*
Y-50902D02*
X137520Y-52280D01*
X140279D01*
X139953Y-61335D02*
X144020D01*
X136807Y-58189D02*
X139953Y-61335D01*
X131712Y-58189D02*
X136807D01*
X129252Y-63701D02*
X129305D01*
X129383Y-63779D01*
X130773D01*
X132166Y-62386D01*
X139126Y-68822D02*
Y-65269D01*
Y-68822D02*
X140049Y-69744D01*
X143146D01*
X136243Y-62386D02*
X139126Y-65269D01*
X143146Y-69744D02*
X144205Y-68685D01*
X132166Y-62386D02*
X136243D01*
X152254Y-36604D02*
X152323Y-36535D01*
X152254Y-41585D02*
Y-36604D01*
X150478Y-16120D02*
X150535Y-16177D01*
X145394Y-16063D02*
X145451Y-16120D01*
X150478D01*
X140323Y5638D02*
Y10811D01*
X140370Y10858D01*
X140276Y5591D02*
X140323Y5638D01*
X101284Y-9650D02*
X101300Y-9665D01*
X101268Y-4405D02*
X101284Y-4421D01*
Y-9650D02*
Y-4421D01*
X101268Y-4405D02*
X101300Y-4374D01*
Y1995D01*
X23134Y41260D02*
X36035D01*
X13709D02*
X23095D01*
X23114Y41240D01*
X64236Y31323D02*
Y38744D01*
Y31323D02*
X64244Y31315D01*
X64228Y38752D02*
X64236Y38744D01*
X36035Y41260D02*
X40878Y46102D01*
X13669Y41299D02*
X13709Y41260D01*
X33850Y35433D02*
X33854Y35429D01*
X34240Y31319D02*
X34244Y31315D01*
X176553Y16093D02*
X176854Y15791D01*
X132311Y16917D02*
X156240D01*
X156220Y11066D02*
Y16898D01*
X179323Y59433D02*
X188685Y68795D01*
X179323Y27617D02*
X180791Y26148D01*
X156220Y669D02*
Y11066D01*
X176553Y16093D02*
Y16603D01*
X123543Y8150D02*
X132311Y16917D01*
X180791Y-5669D02*
Y26148D01*
X175858Y-10602D02*
X180791Y-5669D01*
X156220Y16898D02*
X156240Y16917D01*
X174484Y18672D02*
X176553Y16603D01*
X179323Y27617D02*
Y59433D01*
X161240Y1555D02*
X161541Y1254D01*
X161191Y1702D02*
Y6427D01*
X161541Y-414D02*
Y1254D01*
X161240Y1555D02*
Y1653D01*
X161191Y1702D02*
X161240Y1653D01*
X49283Y-90839D02*
X62268Y-103823D01*
X49283Y-90839D02*
Y-63591D01*
X69409Y-94370D02*
X120647D01*
X120805Y-94528D02*
X191417D01*
X54205Y-79165D02*
X69409Y-94370D01*
X191417Y-94528D02*
X204549Y-81396D01*
X120647Y-94370D02*
X120805Y-94528D01*
X189488Y-91378D02*
X202913Y-77953D01*
X74528Y-91181D02*
X121913D01*
X122109Y-91378D01*
X64205Y-80858D02*
X74528Y-91181D01*
X122109Y-91378D02*
X189488D01*
X188386Y-87244D02*
X209252Y-66378D01*
X132087Y-87244D02*
X188386D01*
X124327Y-79484D02*
X132087Y-87244D01*
X119283Y-73646D02*
Y-58217D01*
X119311Y-58189D01*
X113874Y-79055D02*
X119283Y-73646D01*
X101299Y-79055D02*
X113874D01*
X124327Y-79484D02*
Y-68807D01*
X142024Y89862D02*
X142102Y89784D01*
X173067Y82886D02*
X176000Y85819D01*
Y90165D01*
X158358Y82886D02*
X173067D01*
X147024Y71551D02*
X158358Y82886D01*
X147024Y71551D02*
Y89784D01*
X124244Y48772D02*
X147024Y71551D01*
X207457Y78795D02*
X207457D01*
X217457Y68795D01*
X189323Y51724D02*
X207457Y69858D01*
Y78795D01*
X188685Y68795D02*
X197457D01*
X74205Y-68685D02*
X74295Y-68776D01*
Y-77937D02*
X74386Y-78028D01*
X74295Y-77937D02*
Y-68776D01*
X368608Y45395D02*
X369378D01*
X327646Y4433D02*
X368608Y45395D01*
X369378D02*
X410039Y86056D01*
X381378Y-15240D02*
X381384Y-15234D01*
X387621Y-53D02*
X387799Y124D01*
X440360D01*
X440394Y158D01*
X387621Y-53D02*
X387765Y91D01*
X338228Y-9567D02*
X338279Y-9618D01*
X374921D01*
X374972Y-9669D01*
X325512Y-197D02*
X381366D01*
X381366Y-197D01*
X321772Y3543D02*
X325512Y-197D01*
X321772Y3543D02*
Y11142D01*
X298386Y34528D02*
X321772Y11142D01*
X381343Y-9693D02*
X381366Y-9717D01*
X375626Y-9693D02*
X381343D01*
X440295Y-9823D02*
X440394Y-9921D01*
X381543Y-9823D02*
X440295D01*
X370301Y-4152D02*
X374955D01*
X439811Y-40504D02*
X440394Y-39921D01*
X359583Y-40504D02*
X439811D01*
X387684Y9947D02*
X387789Y10051D01*
X351986Y9947D02*
X387684D01*
X351882Y9843D02*
X351986Y9947D01*
X333430Y-25850D02*
X351807D01*
X333335Y-25945D02*
X333430Y-25850D01*
X351807D02*
X351902Y-25756D01*
X376695Y5321D02*
X381348D01*
X383117Y15569D02*
X387771D01*
X389516Y26026D02*
X394170D01*
X381581Y-53D02*
X387621D01*
X381402Y-232D02*
X381581Y-53D01*
X394137Y10000D02*
X394258Y9878D01*
X387789Y10051D02*
X387840Y10000D01*
X394137D01*
X394258Y9878D02*
X416135D01*
X440303Y10067D02*
X440394Y10158D01*
X416324Y10067D02*
X440303D01*
X350626Y20626D02*
X394070D01*
X394188Y20508D01*
X400549Y20470D02*
X400587Y20433D01*
X400546Y20470D02*
X400549D01*
X333740Y3740D02*
X350626Y20626D01*
X400748Y20269D02*
X400775Y20295D01*
X440256D01*
X440394Y20157D01*
X400546Y20470D02*
X400748Y20269D01*
X394471Y20470D02*
X400546D01*
X400604Y14915D02*
X405258D01*
X394205Y4431D02*
X398859D01*
X387783Y-5427D02*
X392436D01*
X386037Y-15234D02*
X386043Y-15240D01*
X381384Y-15234D02*
X386037D01*
X381366Y-15228D02*
X381378Y-15240D01*
X304764Y-48914D02*
Y-32953D01*
X255433Y42913D02*
Y53898D01*
X189284Y-71944D02*
Y-58756D01*
X180157Y-81071D02*
X189284Y-71944D01*
X137942Y-81071D02*
X180157D01*
X134205Y-77334D02*
X137942Y-81071D01*
X134205Y-77334D02*
Y-68685D01*
X243657Y-52472D02*
X249413Y-58228D01*
X189284Y-58756D02*
X195567Y-52472D01*
X243657D01*
X98232Y87219D02*
Y87219D01*
X124244Y31315D02*
Y48772D01*
X88232Y87219D02*
X98232D01*
X108232D01*
X48232Y77219D02*
Y87219D01*
X108232D02*
Y87219D01*
Y77219D02*
Y87219D01*
X48232D02*
X88232D01*
X38232D02*
X48232D01*
X28232D02*
X38232D01*
X204549Y-81396D02*
X310128D01*
X202913Y-77953D02*
X307778D01*
X338705Y-84484D02*
X338779Y-84409D01*
X355118Y-36811D02*
X355157Y-36850D01*
X334921Y-36811D02*
X355118D01*
X309173Y1614D02*
X311850Y-1063D01*
Y-79673D02*
Y-1063D01*
X308701Y-77030D02*
Y-12799D01*
X302874Y-6972D02*
X308701Y-12799D01*
X295450Y-58228D02*
X304764Y-48914D01*
X281038Y-45615D02*
X300812D01*
X300827Y-45600D01*
X281024Y-45630D02*
X281038Y-45615D01*
X307778Y-77953D02*
X308701Y-77030D01*
X310128Y-81396D02*
X311850Y-79673D01*
X302874Y-6972D02*
Y-315D01*
X249413Y-58228D02*
X295450D01*
X277795Y-17573D02*
Y1496D01*
X280866Y4567D02*
Y10709D01*
X277795Y1496D02*
X280866Y4567D01*
X277795Y-42401D02*
Y-17573D01*
X280866Y10709D02*
Y17480D01*
X255433Y42913D02*
X280866Y17480D01*
X277795Y-42401D02*
X281024Y-45630D01*
X298705Y-97685D02*
Y-87484D01*
X209252Y-66378D02*
X232480D01*
X236705Y-87350D02*
X239510Y-84545D01*
X295766D02*
X298705Y-87484D01*
X239510Y-84545D02*
X295766D01*
X355109Y-59104D02*
X375915D01*
X375945Y-59134D01*
X64205Y-80858D02*
Y-68685D01*
X410039Y86056D02*
Y93937D01*
X294016D02*
X303110Y84843D01*
X307244D01*
X359449Y93937D02*
X359626Y93760D01*
Y84902D02*
Y93760D01*
Y84902D02*
X359803Y84724D01*
X282413Y93937D02*
X294016D01*
X262413Y76901D02*
X271833Y67480D01*
X287559D01*
X9134Y-52047D02*
X14205Y-57118D01*
Y-68685D02*
Y-57118D01*
X94244Y31315D02*
X94248Y31319D01*
X108232Y48587D02*
Y77219D01*
X99323Y28056D02*
Y39677D01*
X108232Y48587D01*
X189323Y28056D02*
Y51724D01*
X186723Y25457D02*
X189323Y28056D01*
X164134Y44425D02*
Y49095D01*
Y44425D02*
X164189Y44370D01*
X167441Y-14193D02*
X171031Y-10602D01*
X164189Y31370D02*
Y44370D01*
X171031Y-10602D02*
X175858D01*
X389980Y80768D02*
Y93878D01*
X389921Y80709D02*
X389980Y80768D01*
Y93878D02*
X390039Y93937D01*
X339449Y48425D02*
Y93937D01*
X315000Y23976D02*
X339449Y48425D01*
X319547Y80886D02*
X319646Y80787D01*
X319449Y93937D02*
X319547Y93839D01*
Y80886D02*
Y93839D01*
X98937Y27670D02*
X99323Y28056D01*
X98937Y22520D02*
Y27670D01*
X430039Y86614D02*
Y93937D01*
X217441Y13465D02*
X225905D01*
X237126Y24685D02*
Y72244D01*
X225905Y13465D02*
X237126Y24685D01*
X186723Y-3430D02*
Y25457D01*
X167441Y-18130D02*
Y-14193D01*
X124205Y-68685D02*
X124327Y-68807D01*
X99126Y-71944D02*
Y-63457D01*
X101299Y-79055D02*
Y-74117D01*
X99126Y-71944D02*
X101299Y-74117D01*
X96496Y-60827D02*
X99126Y-63457D01*
X52047Y-60827D02*
X96496D01*
X49283Y-63591D02*
X52047Y-60827D01*
X14205Y-76409D02*
Y-68685D01*
Y-76409D02*
X17638Y-79842D01*
X28464D01*
X15315Y22756D02*
X72027D01*
X14244Y23827D02*
X15315Y22756D01*
X14244Y23827D02*
Y31315D01*
X94205Y-75032D02*
Y-68685D01*
X84205Y-78102D02*
Y-68685D01*
X114287Y19689D02*
X114331Y19646D01*
X114244Y31315D02*
X114287Y31272D01*
Y19689D02*
Y31272D01*
X164189Y31370D02*
X164244Y31315D01*
X430039Y86614D02*
X440394Y76259D01*
Y30236D02*
Y76259D01*
X74244Y31315D02*
Y39417D01*
X54205Y-79165D02*
Y-68685D01*
X96627Y-2677D02*
X101300Y1995D01*
X101308Y2004D01*
X93853Y22567D02*
X93876Y22543D01*
X98913D01*
X98937Y22520D01*
X236705Y-97685D02*
Y-87350D01*
X87520Y1260D02*
Y13858D01*
Y1260D02*
X91457Y-2677D01*
X96627D01*
X101308Y2004D02*
Y2398D01*
X98937Y11102D02*
Y16676D01*
X94016Y17598D02*
X98014D01*
X98937Y16676D01*
X97953Y10118D02*
X98937Y11102D01*
X94016Y10118D02*
X97953D01*
X113504Y2441D02*
X119606D01*
X123543Y-1496D01*
X103661Y-21575D02*
X112707D01*
X126092Y-60541D02*
X129252Y-63701D01*
X125305Y-58189D02*
X126092Y-58977D01*
Y-60541D02*
Y-58977D01*
X114205Y-68685D02*
Y-54339D01*
X104205Y-68685D02*
Y-35110D01*
X101693Y-23543D02*
X103661Y-21575D01*
X101693Y-32598D02*
Y-23543D01*
Y-32598D02*
X104205Y-35110D01*
X115866Y-52677D02*
X119311D01*
X114205Y-54339D02*
X115866Y-52677D01*
X109173Y-61732D02*
Y-48740D01*
X111142Y-46772D01*
X152222Y-6811D02*
X156220D01*
X151299Y-5889D02*
X152222Y-6811D01*
X156220D02*
X156405Y-6627D01*
X151299Y-5889D02*
Y4274D01*
X123543Y-1496D02*
Y8150D01*
Y-6417D02*
Y-1496D01*
X93327Y17598D02*
X94016Y17598D01*
X87520Y13858D02*
X94016D01*
X91555Y19370D02*
X93327Y17598D01*
X104449Y22520D02*
X104547Y22421D01*
Y17697D02*
X104646Y17598D01*
X104547Y17697D02*
Y22421D01*
X110846Y4606D02*
X111732Y4606D01*
X113504Y2441D02*
Y2835D01*
X104646Y10118D02*
X105335D01*
X110846Y4606D01*
X111732Y4606D02*
X113504Y2835D01*
X157143Y11988D02*
X161142D01*
X156220Y11066D02*
X157143Y11988D01*
X131802Y-25706D02*
X135219D01*
X136142Y-37913D02*
Y-26628D01*
X135219Y-25706D02*
X136142Y-26628D01*
X128858Y-32992D02*
Y-28858D01*
X128465Y-22368D02*
Y-11043D01*
Y-22368D02*
X131802Y-25706D01*
X137126Y-21575D02*
X139586Y-19114D01*
Y-16063D01*
X145394Y-18425D02*
Y-16063D01*
X141457Y-25807D02*
Y-22362D01*
X145394Y-18425D01*
X112707Y-34557D02*
X114390Y-36240D01*
X112707Y-34557D02*
Y-27087D01*
X114390Y-41260D02*
Y-36240D01*
X119311Y-58189D02*
X125305D01*
X123543Y-6417D02*
X123937Y-6811D01*
X124232D01*
X128465Y-11043D01*
X96181Y-15276D02*
X101299D01*
X112707Y-21575D02*
X112707Y-21575D01*
X111142Y-46772D02*
X114390D01*
X141457Y-40079D02*
Y-25807D01*
Y-40079D02*
X143032Y-41653D01*
X146772D01*
X164002Y-2874D02*
X166654D01*
X166850Y-3071D01*
X161541Y-414D02*
X164002Y-2874D01*
X161142Y6476D02*
X161191Y6427D01*
X146575Y5197D02*
X150377D01*
X151299Y4274D01*
X145394Y-5039D02*
X146575Y-3858D01*
Y-315D01*
X145394Y-10551D02*
Y-5039D01*
X139586Y-10551D02*
Y-5531D01*
X161831Y-12323D02*
X165768Y-8386D01*
Y-7205D01*
X161831Y-12520D02*
Y-12323D01*
X165768Y-7205D02*
X166161Y-6811D01*
X166850D01*
X156220Y-18912D02*
X159420Y-22111D01*
X156220Y-18912D02*
Y-12421D01*
X159420Y-22111D02*
X172115D01*
X156220Y-12421D02*
Y-6811D01*
X161732Y-12421D02*
X161929Y-12618D01*
Y-18130D02*
Y-12618D01*
X169803Y-34173D02*
Y-26289D01*
X166981Y-36919D02*
X169728Y-34173D01*
X164291Y-37707D02*
X165079Y-36919D01*
X166981D01*
X169728Y-34173D02*
X169803D01*
X173740Y-40472D02*
Y-23736D01*
X172115Y-22111D02*
X173740Y-23736D01*
X170197Y-44016D02*
X173740Y-40472D01*
X164390Y-44016D02*
X170197D01*
X164291Y-43917D02*
X164390Y-44016D01*
X153403Y-26289D02*
X164291D01*
X152480Y-27212D02*
X153403Y-26289D01*
X152480Y-31811D02*
Y-27212D01*
X164291Y-31909D02*
Y-26289D01*
X146870Y-37815D02*
Y-25906D01*
X146968Y-25807D01*
X146772Y-37913D02*
X146870Y-37815D01*
X158780Y-43917D02*
Y-37707D01*
X158780Y-43917D02*
X158780Y-43917D01*
Y-37707D02*
Y-31909D01*
X140276Y-315D02*
X146575D01*
X134764D02*
Y5591D01*
X134173Y-6811D02*
X134370D01*
X134764Y-6417D02*
Y-315D01*
X134370Y-6811D02*
X134764Y-6417D01*
X119902Y-46772D02*
X124134D01*
X124134Y-46772D01*
X119902Y-41260D02*
X123740D01*
X119311Y-52677D02*
X125305D01*
X125305D02*
X131712D01*
X131417Y-52382D02*
Y-44213D01*
X146772Y-41653D02*
X152185D01*
X146772Y-45394D02*
X147461D01*
X147854Y-46243D02*
Y-45787D01*
Y-46243D02*
X148777Y-47165D01*
X152185D01*
X147461Y-45394D02*
X147854Y-45787D01*
X107303Y-10158D02*
X111142D01*
X106811Y-9665D02*
X107303Y-10158D01*
X111142D02*
X111339Y-10354D01*
X106811Y-15276D02*
X106909Y-15374D01*
X111240D02*
X111339Y-15472D01*
X106909Y-15374D02*
X111240D01*
X118819Y-21280D02*
X119114Y-21575D01*
X119114Y-21575D01*
X112707Y-21575D02*
X119114D01*
X112707Y-21575D02*
X112707Y-21575D01*
X106713Y-27087D02*
X112707D01*
X106713Y-27087D02*
X106713Y-27087D01*
X118622Y-12913D02*
X118819Y-13110D01*
Y-21280D02*
Y-13110D01*
X119114Y-27087D02*
X120885Y-28858D01*
X128858D01*
X123543Y-17835D02*
X124528Y-18819D01*
X124921D02*
X125118Y-19016D01*
Y-19803D02*
Y-19016D01*
X123543Y-17835D02*
Y-14291D01*
X124528Y-18819D02*
X124921D01*
X134862Y-14291D02*
X135256Y-14685D01*
X136178Y-16063D02*
X139586D01*
X135256Y-15141D02*
X136178Y-16063D01*
X135256Y-15141D02*
Y-14685D01*
X134173Y-14291D02*
X134862D01*
X134173Y-10551D02*
X139586D01*
X166752Y768D02*
Y6378D01*
Y768D02*
X166850Y669D01*
X166654Y6476D02*
X166752Y6378D01*
X169905Y-3474D02*
X174528D01*
X169699Y-3268D02*
X169905Y-3474D01*
X167047Y-3268D02*
X169699D01*
X166850Y-3071D02*
X167047Y-3268D01*
X161142Y17303D02*
X161142Y17303D01*
Y11988D02*
Y17303D01*
X166654Y6476D02*
Y11988D01*
Y6476D02*
X174528D01*
X166653Y17303D02*
X173116D01*
X174484Y18672D01*
D41*
X187402Y96850D02*
X213779D01*
X165354D02*
X187402D01*
Y96646D02*
Y96850D01*
X180921Y90165D02*
X187402Y96646D01*
X151945Y89784D02*
X158287D01*
X165354Y96850D01*
X213779D02*
X227205Y83425D01*
Y48465D02*
Y83425D01*
X227165Y48425D02*
X227205Y48465D01*
X346850Y-17717D02*
Y-16929D01*
Y-17717D02*
X349087Y-19953D01*
X440362D01*
X440394Y-19921D01*
X317835Y-20276D02*
X328228Y-30669D01*
X439646D01*
X440394Y-29921D01*
X338705Y-97685D02*
Y-84484D01*
X317835Y-62756D02*
Y-20276D01*
Y4443D01*
Y-96815D02*
Y-62756D01*
X201377Y-68685D02*
X208448Y-61614D01*
X218779D01*
X194205Y-68685D02*
X201377D01*
X247502Y-88482D02*
X256705Y-97685D01*
X317835Y-96815D02*
X318705Y-97685D01*
X328346Y-52244D02*
X369449D01*
X317835Y-62756D02*
X328346Y-52244D01*
X262413Y76901D02*
Y93937D01*
Y59864D02*
Y76901D01*
Y59864D02*
X317835Y4443D01*
X94016Y1457D02*
Y9134D01*
X93819Y1260D02*
X94016Y1457D01*
D42*
X88232Y87219D02*
D03*
X98232Y87219D02*
D03*
X108232D02*
D03*
Y77219D02*
D03*
X98232D02*
D03*
X28232Y87219D02*
D03*
X38232D02*
D03*
X48232D02*
D03*
Y77219D02*
D03*
X38232D02*
D03*
X440394Y10158D02*
D03*
Y20157D02*
D03*
Y30236D02*
D03*
Y158D02*
D03*
Y-9921D02*
D03*
Y-19921D02*
D03*
Y-29921D02*
D03*
X237126Y82244D02*
D03*
D43*
X88232Y77219D02*
D03*
X28232D02*
D03*
X237126Y72244D02*
D03*
D44*
X440394Y-39921D02*
D03*
D45*
X197457Y68795D02*
D03*
X217457D02*
D03*
X207457Y78795D02*
D03*
D46*
X171079Y90165D02*
D03*
X176000D02*
D03*
X142102Y89784D02*
D03*
X147024D02*
D03*
D47*
X180921Y90165D02*
D03*
X151945Y89784D02*
D03*
D48*
X298705Y-97685D02*
D03*
X318705D02*
D03*
X338705D02*
D03*
X282413Y93937D02*
D03*
X262413D02*
D03*
X236705Y-97685D02*
D03*
X256705D02*
D03*
X430039Y93937D02*
D03*
X410039D02*
D03*
X390039D02*
D03*
X359449D02*
D03*
X339449D02*
D03*
X319449D02*
D03*
D49*
X259509Y-41608D02*
D03*
Y6463D02*
D03*
D50*
X230966Y-7730D02*
D03*
Y-27415D02*
D03*
X288052Y-17573D02*
D03*
X288052Y-27415D02*
D03*
Y-7730D02*
D03*
D51*
X174244Y31315D02*
D03*
X14205Y-68685D02*
D03*
X24205D02*
D03*
X34205D02*
D03*
X44205D02*
D03*
X54205D02*
D03*
X64205D02*
D03*
X74205D02*
D03*
X84205D02*
D03*
X94205D02*
D03*
X104205D02*
D03*
X114205D02*
D03*
X124205D02*
D03*
X134205D02*
D03*
X144205D02*
D03*
X154205D02*
D03*
X164205D02*
D03*
X174205D02*
D03*
X184205D02*
D03*
X194205D02*
D03*
X194244Y31315D02*
D03*
X184244D02*
D03*
X164244D02*
D03*
X154244D02*
D03*
X144244D02*
D03*
X134244D02*
D03*
X124244D02*
D03*
X114244D02*
D03*
X104244D02*
D03*
X94244D02*
D03*
X84244D02*
D03*
X74244D02*
D03*
X64244D02*
D03*
X54244D02*
D03*
X44244D02*
D03*
X34244D02*
D03*
X24244D02*
D03*
X14244D02*
D03*
D52*
X64961Y120079D02*
D03*
Y-120079D02*
D03*
X411417Y-62992D02*
D03*
Y62992D02*
D03*
D53*
X227165Y48425D02*
D03*
X346850Y-16929D02*
D03*
X81059Y19252D02*
D03*
X59366Y41626D02*
D03*
X91469Y43819D02*
D03*
X77276Y48575D02*
D03*
X52949Y56728D02*
D03*
X112806Y46352D02*
D03*
X103937Y38622D02*
D03*
X154205Y-60543D02*
D03*
X152323Y-36535D02*
D03*
X150535Y-16177D02*
D03*
X140370Y10858D02*
D03*
X101268Y-4405D02*
D03*
X23114Y41240D02*
D03*
X64228Y38752D02*
D03*
X40878Y46102D02*
D03*
X13669Y41299D02*
D03*
X176854Y15791D02*
D03*
X156240Y16917D02*
D03*
X161240Y1653D02*
D03*
X62268Y-103823D02*
D03*
X74386Y-78028D02*
D03*
X404945Y-5232D02*
D03*
X405031Y-15079D02*
D03*
X405059Y-25232D02*
D03*
X326894Y11413D02*
D03*
X327685Y-9480D02*
D03*
X327646Y4433D02*
D03*
X370295Y-4146D02*
D03*
X359583Y-40504D02*
D03*
X351882Y9843D02*
D03*
X351902Y-25756D02*
D03*
X376689Y5327D02*
D03*
X383112Y15575D02*
D03*
X389510Y26032D02*
D03*
X405264Y14909D02*
D03*
X398865Y4425D02*
D03*
X392442Y-5433D02*
D03*
X386043Y-15240D02*
D03*
X338228Y-9567D02*
D03*
X333335Y-25945D02*
D03*
X304764Y-32953D02*
D03*
X255433Y53898D02*
D03*
X333740Y3740D02*
D03*
X242949Y-60587D02*
D03*
X215595Y-72583D02*
D03*
X100161Y-41142D02*
D03*
X338779Y-84409D02*
D03*
X355157Y-36850D02*
D03*
X334921Y-36811D02*
D03*
X300827Y-45600D02*
D03*
X309173Y1614D02*
D03*
X302874Y-315D02*
D03*
X277795Y-17573D02*
D03*
X280866Y10709D02*
D03*
X281024Y-45630D02*
D03*
X298705Y-87484D02*
D03*
X232480Y-66378D02*
D03*
X218779Y-61614D02*
D03*
X247502Y-88482D02*
D03*
X318032Y-76024D02*
D03*
X375945Y-59134D02*
D03*
X369449Y-52244D02*
D03*
X440394Y76259D02*
D03*
X307244Y84843D02*
D03*
X359803Y84724D02*
D03*
X287559Y67480D02*
D03*
X164134Y49095D02*
D03*
X389921Y80709D02*
D03*
X319646Y80787D02*
D03*
X355109Y-59104D02*
D03*
X28464Y-79842D02*
D03*
X94205Y-75032D02*
D03*
X84205Y-78102D02*
D03*
X298386Y34528D02*
D03*
X114331Y19646D02*
D03*
X315000Y23976D02*
D03*
X93853Y22567D02*
D03*
X217441Y13465D02*
D03*
X93819Y1260D02*
D03*
X101299Y-79055D02*
D03*
X129252Y-63701D02*
D03*
X109173Y-61732D02*
D03*
X128858Y-32992D02*
D03*
X137126Y-21575D02*
D03*
X114390Y-36240D02*
D03*
X96181Y-15276D02*
D03*
X139586Y-5531D02*
D03*
X169803Y-34173D02*
D03*
D54*
X101308Y2398D02*
D03*
X113504Y2441D02*
D03*
X174528Y-3474D02*
D03*
X186723Y-3430D02*
D03*
D55*
X111339Y-15472D02*
D03*
Y-10354D02*
D03*
X118622Y-12913D02*
D03*
X124134Y-46772D02*
D03*
Y-41653D02*
D03*
X131417Y-44213D02*
D03*
D56*
X128858Y-28858D02*
D03*
X132598Y-19803D02*
D03*
X125118D02*
D03*
X144020Y-61335D02*
D03*
X147760Y-52280D02*
D03*
X140279D02*
D03*
D57*
X174528Y6476D02*
D03*
X174484Y18672D02*
D03*
M02*
