M48
;Layer_Color=9474304
;FILE_FORMAT=2:4
INCH,TZ
;TYPE=PLATED
T01F00S00C0.0118
T02F00S00C0.0197
T03F00S00C0.0236
T04F00S00C0.0394
T05F00S00C0.0591
T06F00S00C0.1260
T07F00S00C0.1378
%
T01
X2846Y-7984
X6227Y-10382
X7439Y-7803
X8420Y-7810
X9420Y-7503
X10130Y-7906
X10917Y-6173
X12925Y-6370
X15420Y-6054
X15232Y-3654
X16980Y-3417
X15054Y-1618
X13713Y-2157
X13959Y-553
X14037Y1086
X15624Y1692
X16124Y165
X17685Y1579
X21744Y1346
X21878Y-6161
X21559Y-7258
X12886Y-3299
X11439Y-3624
X10016Y-4114
X9618Y-1528
X10127Y-441
X9382Y126
X9385Y2257
X8106Y1925
X11433Y1965
X28087Y1071
X27780Y-1757
X28102Y-4563
X30083Y-4560
X30476Y-3295
X33492Y-3681
X33334Y-2594
X35190Y-2576
X34685Y-1693
X33823Y-957
X32768Y-948
X32765Y443
X33374Y374
X32689Y1141
X31500Y2398
X30917Y161
X30287Y-31
X35188Y984
X37030Y-415
X35958Y-4050
X35516Y-3685
X35511Y-5910
X37594Y-5913
X36945Y-5224
X33878Y-8441
X31803Y-7602
X29870Y-8748
X24750Y-8848
X24295Y-6059
X23248Y-6638
X38604Y-1524
X39244Y-543
X40494Y-523
X40503Y-1508
X40506Y-2523
X39886Y443
X40526Y1491
X38311Y1557
X37669Y533
X38951Y2603
X38992Y8071
X44039Y7626
X35980Y8472
X31965Y8079
X30724Y8484
X28756Y6748
X29839Y3453
X25543Y5390
X22717Y4843
X16413Y4909
X11281Y4635
X10394Y3862
X9147Y4382
X7728Y4857
X6423Y3875
X5937Y4163
X5295Y5673
X4088Y4610
X2311Y4124
X1367Y4130
T02
X14210Y8978
X14702
X15194
X17108Y9017
X17600
X18092
T03
X19746Y6880
X20746Y7880
X21746Y6880
T04
X1420Y-6869
X2420
X3420
X4420
X5420
X6420
X7420
X8420
X9420
X10420
X11420
X12420
X13420
X14420
X15420
X16420
X17420
X18420
X19420
X23097Y-2742
Y-773
X28805
X28805Y-1757
X28805Y-2742
X44039Y-2992
Y-1992
Y-992
Y16
Y1016
Y2016
Y-3992
Y3024
X23713Y7224
Y8224
X19424Y3131
X18424
X17424
X16424
X15424
X14424
X13424
X12424
X11424
X10424
X9424
X8424
X7424
X6424
X8823Y7722
X8823Y8722
X9823Y8722
X10823
Y7722
X9823
X4823Y7722
Y8722
X3823
Y7722
X2823Y7722
X2823Y8722
X2424Y3131
X3424
X4424
X5424
X1424
T05
X23670Y-9768
X25670
X29870
X31870
X33870
X39004Y9394
X41004
X43004
X35945
X33945
X31945
X28241
X26241
T06
X6496Y-12008
X41142Y-6299
Y6299
X6496Y12008
T07
X25951Y-4161
Y646
M30
