G04*
G04 #@! TF.GenerationSoftware,Altium Limited,Altium Designer,24.3.1 (35)*
G04*
G04 Layer_Color=16711935*
%FSLAX25Y25*%
%MOIN*%
G70*
G04*
G04 #@! TF.SameCoordinates,5149264C-F6EF-45E8-801D-D6D5ED924B73*
G04*
G04*
G04 #@! TF.FilePolarity,Positive*
G04*
G01*
G75*
%ADD74C,0.07874*%
D74*
X450787Y108268D02*
X450787Y108268D01*
X41339Y108268D02*
X41339D01*
X64961Y131890D02*
X63985Y131849D01*
X63017Y131729D01*
X62061Y131528D01*
X61126Y131250D01*
X60216Y130895D01*
X59339Y130466D01*
X58501Y129966D01*
X57706Y129399D01*
X56961Y128768D01*
X56271Y128078D01*
X55640Y127333D01*
X55073Y126539D01*
X54573Y125700D01*
X54144Y124823D01*
X53790Y123914D01*
X53511Y122978D01*
X53311Y122023D01*
X53190Y121054D01*
X53150Y120079D01*
X76772D02*
X76731Y121054D01*
X76611Y122023D01*
X76410Y122978D01*
X76132Y123914D01*
X75777Y124823D01*
X75348Y125700D01*
X74848Y126539D01*
X74281Y127333D01*
X73650Y128078D01*
X72960Y128768D01*
X72215Y129399D01*
X71421Y129966D01*
X70582Y130466D01*
X69705Y130895D01*
X68796Y131250D01*
X67860Y131528D01*
X66905Y131729D01*
X65936Y131849D01*
X64961Y131890D01*
X76772Y120079D02*
X76812Y119103D01*
X76933Y118135D01*
X77133Y117179D01*
X77412Y116244D01*
X77767Y115334D01*
X78195Y114457D01*
X78695Y113619D01*
X79262Y112824D01*
X79893Y112079D01*
X80583Y111389D01*
X81328Y110758D01*
X82123Y110191D01*
X82961Y109691D01*
X83838Y109263D01*
X84748Y108908D01*
X85683Y108629D01*
X86639Y108429D01*
X87607Y108308D01*
X88583Y108268D01*
X41339D02*
X42314Y108308D01*
X43283Y108429D01*
X44238Y108629D01*
X45174Y108908D01*
X46083Y109263D01*
X46960Y109691D01*
X47799Y110191D01*
X48593Y110758D01*
X49338Y111389D01*
X50028Y112079D01*
X50659Y112824D01*
X51226Y113619D01*
X51726Y114457D01*
X52155Y115334D01*
X52510Y116244D01*
X52788Y117179D01*
X52988Y118135D01*
X53109Y119103D01*
X53150Y120079D01*
Y-120079D02*
X53109Y-119103D01*
X52988Y-118135D01*
X52788Y-117179D01*
X52510Y-116244D01*
X52155Y-115334D01*
X51726Y-114457D01*
X51226Y-113619D01*
X50659Y-112824D01*
X50028Y-112079D01*
X49338Y-111389D01*
X48593Y-110758D01*
X47799Y-110191D01*
X46960Y-109691D01*
X46083Y-109263D01*
X45174Y-108908D01*
X44238Y-108629D01*
X43283Y-108429D01*
X42314Y-108308D01*
X41339Y-108268D01*
X88583D02*
X87607Y-108308D01*
X86639Y-108429D01*
X85683Y-108629D01*
X84748Y-108908D01*
X83838Y-109263D01*
X82961Y-109691D01*
X82123Y-110191D01*
X81328Y-110758D01*
X80583Y-111389D01*
X79893Y-112079D01*
X79262Y-112824D01*
X78695Y-113619D01*
X78195Y-114457D01*
X77767Y-115334D01*
X77412Y-116244D01*
X77133Y-117179D01*
X76933Y-118135D01*
X76812Y-119103D01*
X76772Y-120079D01*
X64961Y-131890D02*
X65936Y-131849D01*
X66905Y-131729D01*
X67860Y-131528D01*
X68796Y-131250D01*
X69705Y-130895D01*
X70582Y-130466D01*
X71421Y-129966D01*
X72215Y-129399D01*
X72960Y-128768D01*
X73650Y-128078D01*
X74281Y-127333D01*
X74848Y-126539D01*
X75348Y-125700D01*
X75777Y-124823D01*
X76132Y-123914D01*
X76410Y-122978D01*
X76611Y-122023D01*
X76731Y-121054D01*
X76772Y-120079D01*
X53150D02*
X53190Y-121054D01*
X53311Y-122023D01*
X53511Y-122978D01*
X53790Y-123914D01*
X54144Y-124823D01*
X54573Y-125700D01*
X55073Y-126539D01*
X55640Y-127333D01*
X56271Y-128078D01*
X56961Y-128768D01*
X57706Y-129399D01*
X58501Y-129966D01*
X59339Y-130466D01*
X60216Y-130895D01*
X61126Y-131250D01*
X62061Y-131528D01*
X63017Y-131729D01*
X63985Y-131849D01*
X64961Y-131890D01*
X88583Y-108268D02*
X450787D01*
X1969D02*
X41339D01*
X88583Y108268D02*
X450787D01*
X1969Y108268D02*
X41339D01*
X450787Y-108268D02*
Y108268D01*
X1969Y99725D02*
Y108268D01*
Y-108268D02*
Y99725D01*
M02*
