M48
;Layer_Color=9474304
;FILE_FORMAT=4:4
METRIC,LZ
;TYPE=PLATED
T1F00S00C0.4000
T2F00S00C1.0000
T3F00S00C1.5000
T4F00S00C4.0000
%
T01
X01624025Y00416815
X01590025Y00538435
X01767975Y00500285
X01794Y00458
X01749975Y00612275
X01731975Y00730595
X01753Y0077
Y00784
X01765Y00778
Y00793
X01533025Y00751655
X01521Y00713
X01506
X01492
X01499Y00701
X01514
X01445Y00686
X01494Y00607
Y00594
X01507
Y00607
X01561025Y00647455
X01419Y00578
X01368Y00471
X01265Y00404
X01226Y00506
X01278Y00554
X01245Y00651
Y00662
X01233
Y00651
X01295Y00673
X01468Y00793
X01525Y00821
X01543798Y0080879
X01506025Y00912
X01485
X01473Y01007
X01553Y0108
X0133Y01068
X01329Y01183
X01196Y01171
X01319Y00954
X01298Y00836
X0171Y00854
X01753Y00798
X01645Y00991
X0164Y01043
X01776Y01157
X0175877Y0118877
X0185646Y0110946
X01802Y01197
X01787565Y01303
X01773746Y01409746
X0173752Y01531972
X01666975Y01569158
X01637885Y01449975
X01655125Y01270025
X01629Y01225
X01537975Y01231935
X01515005Y01313025
X01326Y01293
X01346Y01365
X01342Y01476
X01247Y01506
X0122Y01397
X01207Y01288
X01495465Y01507975
X01510465Y01565025
X01514Y0176
X01526
X01537
X01544Y01741
X01446Y01755
X01443Y01857
X0146Y01848
X01459975Y01922
X01460336Y01937372
X01467Y0197
X01432Y0196
X014Y01978
X01346Y01679
X01314Y01631
X01271Y01628
X01691Y01648
X01705Y01635
X0172
X01712Y01626
X01695Y01763
X01684
X01673
X01626Y01795
X0164Y01895
X0153577Y0200077
T02
X01817Y010366
X01817Y01062
X018424Y01062
X018678
Y010366
X018424
T03
X018282Y00889
X01879
T04
X0165862Y0042672
X0173279Y0049097
X017145Y0060325
X0169723Y0072084
X0159639Y0065659
X0162484Y0054812
X0179578Y0042291
X01352Y00425
X0127635Y0049022
X0129337Y0060123
X0131115Y0072061
X0141275Y0065457
X0138481Y0054939
X0144069Y0076021
X0156845Y0076073
X0121487Y0042088
X0117983Y0112395
X0136398Y0107696
X0135382Y0096393
X013335Y0084455
X0146939Y0086614
X0154051Y0086741
X0150443Y0097206
X0150316Y0109677
X0164084Y0107823
X0165862Y0096012
X0167767Y0084201
X0182499Y0114046
X0181356Y0124587
X0180264Y0135457
X0178994Y0145848
X0174752Y0157861
X0164973Y01524
X0164719Y0141478
X016454Y013048
X0164286Y0119431
X0150419Y0122122
X0150495Y0134747
X0150443Y0147244
X0135763Y0152527
X013589Y0141351
X0136144Y0130175
X0136398Y0119253
X0119126Y0124206
X0120396Y0135128
X0121539Y0145796
X0125476Y0157988
X0136398Y0161417
X0129794Y0169545
X0143002Y0170815
X0142748Y0180975
X0141605Y0191135
X0150241Y0187833
Y0196977
X0157861Y0181102
X015748Y0170942
X0150114Y016002
X0164262Y0161492
X0170688Y0169799
X0158877Y0191262
M30
