M48
;Layer_Color=9474304
;FILE_FORMAT=4:4
METRIC,LZ
;TYPE=PLATED
T1F00S00C0.4000
T2F00S00C0.6000
T3F00S00C1.0000
T4F00S00C1.5000
T5F00S00C3.2000
T6F00S00C3.5000
T7F00S00C4.0000
%
T01
X01349507Y00506921
X01335918Y0053575
X01291468Y00600392
X0123508Y00697802
X01414531Y00728155
X01459108Y00626936
X01571757Y00586931
X01552959Y00540827
X01178946Y00793432
X00918088Y00791908
X00862843Y0069577
X00802391Y00651447
X00818393Y00599884
X00802135Y00558725
X00834774Y00538037
X00699269Y00560262
X00621416Y00529146
X00685805Y00690309
X00667517Y00718756
X00717428Y00792719
X00772292Y00843851
X00760989Y00914336
X00644784Y00925132
X00818393Y009565
X00810773Y01015048
X00869701Y01066102
X00858144Y01130237
X01005972Y01093201
X01028578Y0114827
X00970793Y01040193
X01020831Y00989139
X01065027Y00990536
X01052992Y01005111
X0112078Y00893254
X00969142Y00893
X01323599Y00923354
X01274577Y01018476
X01227206Y01115378
X01370208Y00825436
X01373383Y01392238
X01348491Y01425385
X01347381Y01489901
X01374145Y01529778
X01301628Y01458277
X0127191Y01444942
X01196726Y01449895
X012046Y01551241
X01500649Y01383208
X01501018Y01336866
X01468125Y01348804
X01554866Y01310069
X01190122Y01334579
X01086363Y01307401
X01068202Y01258887
X0106109Y0123082
X00998755Y01229782
X00892591Y01261778
X00914786Y01363282
X0092012Y01475804
X00932959Y0155504
X00844936Y01575224
X00811408Y01584008
X01098047Y01527746
X01114811Y01497775
X01093983Y01420305
X01179835Y01212914
X00696473Y01191069
X00679328Y01241616
X00696993Y01267154
X00685805Y01300163
X0069152Y01369886
X007093Y01404556
X00740669Y01502854
X00773689Y01579689
X00871872Y0164625
X00883925Y01675448
X00933074Y01640903
X00947046Y01632646
X00966221Y01694879
X00948453Y01720417
X00982193Y01752126
X01008766Y01812988
X01010036Y01877746
X00977143Y01877504
X01037849Y01895665
X01038103Y01912303
X01041659Y01857704
X01081537Y01863154
X01080394Y01840928
X01120653Y01864805
X01155578Y0185655
X01117097Y01932876
X01103254Y01788096
X0110859Y01684843
X0112459Y01684973
X010776Y01673542
X01082774Y0164103
Y01607249
X01172723Y0160039
X01172471Y01625412
X01184915Y0162071
X01159769Y01641411
X01169019Y01668589
X01064392Y01701355
X01044578Y01689162
X01192662Y01712278
X01192525Y0173711
X01215014Y0169907
X01260986Y0165259
X01260734Y01611947
X0120154Y01600403
X01218316Y01856042
X01225047Y01956499
X01197363Y01985961
X0127314Y0229592
X0132223Y0232503
X0137493Y0230373
X01416406Y02368006
X0146933Y0236793
X0113152Y0236424
X0110493Y0234953
X0107013Y0236163
X0106204Y0233377
X01143085Y02293385
X0090611Y0236435
X0084273Y0235633
X0081573Y0230633
X0103315Y02010347
X01121288Y02001203
X0072513Y0226843
X0072831Y0231975
X0075371Y0232755
X0077173Y0231733
X0079173Y0236133
X0070323Y0230263
X0058673Y0231533
X0076884Y0241363
X0075873Y0247933
X00771731Y02504329
X0075273Y0252133
X00752816Y0257545
X0073673Y0257703
X0066563Y0257743
X0067743Y0262463
X0070213Y0263543
X00716151Y02635309
X0072836Y02647632
X0075383Y0263793
X0077843Y0261623
X0063247Y0264736
X0061443Y0263553
X0060141Y0262075
X0057601Y0262125
X0057601Y0264773
X0055013Y0263563
X0064833Y0266363
X0080382Y02633
X0080483Y0256803
X0087073Y0254333
X0088673Y0255333
X0086898Y02504081
X0086273Y0246333
X0089473Y0247733
X0090098Y0242358
X0094573Y0243133
X0084173Y0243433
X0080498Y0242608
X0092398Y02522329
X0095773Y0255233
X0106673
X01071877Y0245893
X0109153Y0263943
X0116323Y0265503
X0093133Y0264283
X009458Y0268223
X0124483Y0268953
X0129483Y0273363
X0132633Y0272333
X0142833Y0273333
X0150483Y0272313
X01503787Y0258425
X01487533Y0255769
X0147122Y0253166
X0145498Y025076
X01511233Y0250433
X0154299Y0250484
X0154321Y0247983
X0154328Y0245404
X0149498Y0247942
X01527547Y0252937
X015438Y02556
X0140821Y0254313
X0136213Y0252763
X0134665Y0252939
X0134474Y0254712
X0134675Y0249405
X01373529Y02493831
X0139237Y0247728
X0140826Y0245271
X0141653Y0242453
X0142777Y0241525
X0145283Y0238543
X0136513Y0242463
X01361101Y0245223
X0128853Y0243443
X0127853Y02402305
X0122823Y0240223
X0122003Y02473495
X0122783Y0254533
X0128373Y0251733
X0129973Y0252223
X0131453Y0257903
X0127233Y0260583
X0163303Y02711828
T02
X0101373Y0271583
X0103913Y0274123
X0106453Y0271583
T03
X00567695Y00976312
X00593095
X00618495
X00618495Y01001712
X00593095Y01001712
X00567695
X0080451Y0234367
X0082991
X0085531
X0088071
X0090611
X0093151
X0095691
X0098231
X0100771
X0077911
X0075371
X0072831
X0070291
X0067751
X0065211
X0062671
X0060131
X0057591
X0055051
X0055061Y0259767
X0057601
X0060141
X0062681
X0065221
X0067761
X0070301
X0072841
X0075381
X0077921
X0078934Y02714267
X0076394
Y02739667
X0078934
X0073854Y02739667
X0073854Y02714267
X0063694Y02714267
X0061154
X0058614Y02714267
X0058614Y02739667
X0061154
X0063694
X0089303Y0275673
X0091843
X0094383
X0096923
X0092103Y0268223
X0089563
X0087023
X0088081Y0259767
X0085541
X0083001
X0080461
X0090621
X0093161
X0095701
X0098241
X0100781
X01101083Y02498495
Y02448495
X0111673Y0270163
Y0272703
X01246083Y02498495
X01246083Y02473495
X01246083Y02448495
X0163303Y0244213
Y0241673
Y0246753
Y0249293
Y0251853
Y0254393
Y0256933
Y0259493
T04
X00567695Y01143571
X00618495
X0127314Y0227001
X0132394
X0137474
X0116646
X0111566
X0118096Y0275673
X0123176
X0132583
X0137663
X0142743
X0150513
X0155593
X0160673
T05
X0155943Y0235813
X0067943Y0221313
X0155943Y0267813
X0067943Y0282313
T06
X01173583Y02412445
Y02534545
T07
X01384559Y00504888
X01325464Y00599969
X01426088Y00628078
X01381003Y00729678
X01268608Y00697293
X0121222Y0079229
X01536959Y0058782
X0082995Y00697674
X00884433Y00793687
X00833252Y00472884
X00786135Y00589725
X00652404Y00576263
X00718698Y00687642
X00750194Y00796861
X00793882Y00910145
X00935995Y00892747
X00986541Y0099079
X01097666Y00987869
X01153633Y00890881
X01039246Y01088326
X00892815Y01128967
X00844301Y01020255
X01241811Y01019874
X01289817Y00923607
X01337061Y0082658
X01194059Y01116775
X01303533Y01489901
X01258575Y01579055
X01379606Y01425511
X01469649Y01382585
X01552961Y01343215
X01156975Y01335596
X0116396Y01450531
X01172469Y01569402
X01065281Y01528763
X01060582Y01422083
X01051692Y01308418
X01044707Y01199452
X0114745Y01213549
X00937392Y0124479
X00947806Y01358074
X0095314Y01470977
X00963046Y01586039
X00773689Y01534223
X00738002Y01435798
X00725429Y01331532
X00712856Y01236154
X00844809Y01615249
X00917326Y01689418
X01017656Y01657413
X01028578Y01735518
X0112459Y01729169
X01128019Y01641411
X0113475Y0181756
X01041659Y01826705
X01010036Y01908746
X01098555Y01896808
X01186935Y01888428
X0115253Y0196996
X01064519Y01978342
X01215268Y01668589
M30
