  0
SECTION
  2
HEADER
  9
$ACADVER
  1
AC1024
  9
$ACADMAINTVER
 70
     6
  9
$DWGCODEPAGE
  3
ANSI_1252
  9
$INSBASE
 10
0.0
 20
0.0
 30
0.0
  9
$EXTMIN
 10
1.000000000000000E+20
 20
1.000000000000000E+20
 30
1.000000000000000E+20
  9
$EXTMAX
 10
-1.000000000000000E+20
 20
-1.000000000000000E+20
 30
-1.000000000000000E+20
  9
$LIMMIN
 10
0.0
 20
0.0
  9
$LIMMAX
 10
12.0
 20
9.0
  9
$ORTHOMODE
 70
     0
  9
$REGENMODE
 70
     1
  9
$FILLMODE
 70
     1
  9
$QTEXTMODE
 70
     0
  9
$MIRRTEXT
 70
     1
  9
$LTSCALE
 40
1.0
  9
$ATTMODE
 70
     1
  9
$TEXTSIZE
 40
0.2
  9
$TRACEWID
 40
0.05
  9
$TEXTSTYLE
  7
Standard
  9
$CLAYER
  8
0
  9
$CELTYPE
  6
ByLayer
  9
$CECOLOR
 62
   256
  9
$CELTSCALE
 40
1.0
  9
$DISPSILH
 70
     0
  9
$DIMSCALE
 40
1.0
  9
$DIMASZ
 40
0.18
  9
$DIMEXO
 40
0.0625
  9
$DIMDLI
 40
0.38
  9
$DIMRND
 40
0.0
  9
$DIMDLE
 40
0.0
  9
$DIMEXE
 40
0.18
  9
$DIMTP
 40
0.0
  9
$DIMTM
 40
0.0
  9
$DIMTXT
 40
0.18
  9
$DIMCEN
 40
0.09
  9
$DIMTSZ
 40
0.0
  9
$DIMTOL
 70
     0
  9
$DIMLIM
 70
     0
  9
$DIMTIH
 70
     1
  9
$DIMTOH
 70
     1
  9
$DIMSE1
 70
     0
  9
$DIMSE2
 70
     0
  9
$DIMTAD
 70
     0
  9
$DIMZIN
 70
     0
  9
$DIMBLK
  1

  9
$DIMASO
 70
     1
  9
$DIMSHO
 70
     1
  9
$DIMPOST
  1

  9
$DIMAPOST
  1

  9
$DIMALT
 70
     0
  9
$DIMALTD
 70
     2
  9
$DIMALTF
 40
25.4
  9
$DIMLFAC
 40
1.0
  9
$DIMTOFL
 70
     0
  9
$DIMTVP
 40
0.0
  9
$DIMTIX
 70
     0
  9
$DIMSOXD
 70
     0
  9
$DIMSAH
 70
     0
  9
$DIMBLK1
  1

  9
$DIMBLK2
  1

  9
$DIMSTYLE
  2
Standard
  9
$DIMCLRD
 70
     0
  9
$DIMCLRE
 70
     0
  9
$DIMCLRT
 70
     0
  9
$DIMTFAC
 40
1.0
  9
$DIMGAP
 40
0.09
  9
$DIMJUST
 70
     0
  9
$DIMSD1
 70
     0
  9
$DIMSD2
 70
     0
  9
$DIMTOLJ
 70
     1
  9
$DIMTZIN
 70
     0
  9
$DIMALTZ
 70
     0
  9
$DIMALTTZ
 70
     0
  9
$DIMUPT
 70
     0
  9
$DIMDEC
 70
     4
  9
$DIMTDEC
 70
     4
  9
$DIMALTU
 70
     2
  9
$DIMALTTD
 70
     2
  9
$DIMTXSTY
  7
Standard
  9
$DIMAUNIT
 70
     0
  9
$DIMADEC
 70
     0
  9
$DIMALTRND
 40
0.0
  9
$DIMAZIN
 70
     0
  9
$DIMDSEP
 70
    46
  9
$DIMATFIT
 70
     3
  9
$DIMFRAC
 70
     0
  9
$DIMLDRBLK
  1

  9
$DIMLUNIT
 70
     2
  9
$DIMLWD
 70
    -2
  9
$DIMLWE
 70
    -2
  9
$DIMTMOVE
 70
     0
  9
$DIMFXL
 40
1.0
  9
$DIMFXLON
 70
     0
  9
$DIMJOGANG
 40
0.7853981633974483
  9
$DIMTFILL
 70
     0
  9
$DIMTFILLCLR
 70
     0
  9
$DIMARCSYM
 70
     0
  9
$DIMLTYPE
  6

  9
$DIMLTEX1
  6

  9
$DIMLTEX2
  6

  9
$DIMTXTDIRECTION
 70
     0
  9
$LUNITS
 70
     2
  9
$LUPREC
 70
     4
  9
$SKETCHINC
 40
0.1
  9
$FILLETRAD
 40
0.5
  9
$AUNITS
 70
     0
  9
$AUPREC
 70
     0
  9
$MENU
  1
.
  9
$ELEVATION
 40
0.0
  9
$PELEVATION
 40
0.0
  9
$THICKNESS
 40
0.0
  9
$LIMCHECK
 70
     0
  9
$CHAMFERA
 40
0.5
  9
$CHAMFERB
 40
0.5
  9
$CHAMFERC
 40
1.0
  9
$CHAMFERD
 40
0.0
  9
$SKPOLY
 70
     0
  9
$TDCREATE
 40
2459602.84174515
  9
$TDUCREATE
 40
2459602.800078484
  9
$TDUPDATE
 40
2459602.841763276
  9
$TDUUPDATE
 40
2459602.800096609
  9
$TDINDWG
 40
0.0000000116
  9
$TDUSRTIMER
 40
0.0000000116
  9
$USRTIMER
 70
     1
  9
$ANGBASE
 50
0.0
  9
$ANGDIR
 70
     0
  9
$PDMODE
 70
     0
  9
$PDSIZE
 40
0.0
  9
$PLINEWID
 40
0.0
  9
$SPLFRAME
 70
     0
  9
$SPLINETYPE
 70
     6
  9
$SPLINESEGS
 70
     8
  9
$HANDSEED
  5
200
  9
$SURFTAB1
 70
     6
  9
$SURFTAB2
 70
     6
  9
$SURFTYPE
 70
     6
  9
$SURFU
 70
     6
  9
$SURFV
 70
     6
  9
$UCSBASE
  2

  9
$UCSNAME
  2

  9
$UCSORG
 10
0.0
 20
0.0
 30
0.0
  9
$UCSXDIR
 10
1.0
 20
0.0
 30
0.0
  9
$UCSYDIR
 10
0.0
 20
1.0
 30
0.0
  9
$UCSORTHOREF
  2

  9
$UCSORTHOVIEW
 70
     0
  9
$UCSORGTOP
 10
0.0
 20
0.0
 30
0.0
  9
$UCSORGBOTTOM
 10
0.0
 20
0.0
 30
0.0
  9
$UCSORGLEFT
 10
0.0
 20
0.0
 30
0.0
  9
$UCSORGRIGHT
 10
0.0
 20
0.0
 30
0.0
  9
$UCSORGFRONT
 10
0.0
 20
0.0
 30
0.0
  9
$UCSORGBACK
 10
0.0
 20
0.0
 30
0.0
  9
$PUCSBASE
  2

  9
$PUCSNAME
  2

  9
$PUCSORG
 10
0.0
 20
0.0
 30
0.0
  9
$PUCSXDIR
 10
1.0
 20
0.0
 30
0.0
  9
$PUCSYDIR
 10
0.0
 20
1.0
 30
0.0
  9
$PUCSORTHOREF
  2

  9
$PUCSORTHOVIEW
 70
     0
  9
$PUCSORGTOP
 10
0.0
 20
0.0
 30
0.0
  9
$PUCSORGBOTTOM
 10
0.0
 20
0.0
 30
0.0
  9
$PUCSORGLEFT
 10
0.0
 20
0.0
 30
0.0
  9
$PUCSORGRIGHT
 10
0.0
 20
0.0
 30
0.0
  9
$PUCSORGFRONT
 10
0.0
 20
0.0
 30
0.0
  9
$PUCSORGBACK
 10
0.0
 20
0.0
 30
0.0
  9
$USERI1
 70
     0
  9
$USERI2
 70
     0
  9
$USERI3
 70
     0
  9
$USERI4
 70
     0
  9
$USERI5
 70
     0
  9
$USERR1
 40
0.0
  9
$USERR2
 40
0.0
  9
$USERR3
 40
0.0
  9
$USERR4
 40
0.0
  9
$USERR5
 40
0.0
  9
$WORLDVIEW
 70
     1
  9
$SHADEDGE
 70
     3
  9
$SHADEDIF
 70
    70
  9
$TILEMODE
 70
     1
  9
$MAXACTVP
 70
    64
  9
$PINSBASE
 10
0.0
 20
0.0
 30
0.0
  9
$PLIMCHECK
 70
     0
  9
$PEXTMIN
 10
1.000000000000000E+20
 20
1.000000000000000E+20
 30
1.000000000000000E+20
  9
$PEXTMAX
 10
-1.000000000000000E+20
 20
-1.000000000000000E+20
 30
-1.000000000000000E+20
  9
$PLIMMIN
 10
0.0
 20
0.0
  9
$PLIMMAX
 10
12.0
 20
9.0
  9
$UNITMODE
 70
     0
  9
$VISRETAIN
 70
     1
  9
$PLINEGEN
 70
     0
  9
$PSLTSCALE
 70
     1
  9
$TREEDEPTH
 70
  3020
  9
$CMLSTYLE
  2
Standard
  9
$CMLJUST
 70
     0
  9
$CMLSCALE
 40
1.0
  9
$PROXYGRAPHICS
 70
     1
  9
$MEASUREMENT
 70
     0
  9
$CELWEIGHT
370
    -1
  9
$ENDCAPS
280
     0
  9
$JOINSTYLE
280
     0
  9
$LWDISPLAY
290
     1
  9
$INSUNITS
 70
     4
  9
$HYPERLINKBASE
  1

  9
$STYLESHEET
  1

  9
$XEDIT
290
     1
  9
$CEPSNTYPE
380
     0
  9
$PSTYLEMODE
290
     1
  9
$FINGERPRINTGUID
  2
{01F798EB-1320-45BE-A574-CAC2FF91A8FE}
  9
$VERSIONGUID
  2
{FAEB1C32-E019-11D5-929B-00C0DF256EC4}
  9
$EXTNAMES
290
     1
  9
$PSVPSCALE
 40
0.0
  9
$OLESTARTUP
290
     0
  9
$SORTENTS
280
   127
  9
$INDEXCTL
280
     0
  9
$HIDETEXT
280
     1
  9
$XCLIPFRAME
280
     2
  9
$HALOGAP
280
     0
  9
$OBSCOLOR
 70
   257
  9
$OBSLTYPE
280
     0
  9
$INTERSECTIONDISPLAY
280
     0
  9
$INTERSECTIONCOLOR
 70
   257
  9
$DIMASSOC
280
     2
  9
$PROJECTNAME
  1

  9
$CAMERADISPLAY
290
     0
  9
$LENSLENGTH
 40
50.0
  9
$CAMERAHEIGHT
 40
0.0
  9
$STEPSPERSEC
 40
2.0
  9
$STEPSIZE
 40
6.0
  9
$3DDWFPREC
 40
2.0
  9
$PSOLWIDTH
 40
0.25
  9
$PSOLHEIGHT
 40
4.0
  9
$LOFTANG1
 40
1.570796326794897
  9
$LOFTANG2
 40
1.570796326794897
  9
$LOFTMAG1
 40
0.0
  9
$LOFTMAG2
 40
0.0
  9
$LOFTPARAM
 70
     7
  9
$LOFTNORMALS
280
     1
  9
$LATITUDE
 40
37.795
  9
$LONGITUDE
 40
-122.394
  9
$NORTHDIRECTION
 40
0.0
  9
$TIMEZONE
 70
 -8000
  9
$LIGHTGLYPHDISPLAY
280
     1
  9
$TILEMODELIGHTSYNCH
280
     1
  9
$CMATERIAL
347
3C
  9
$SOLIDHIST
280
     1
  9
$SHOWHIST
280
     1
  9
$DWFFRAME
280
     2
  9
$DGNFRAME
280
     2
  9
$REALWORLDSCALE
290
     1
  9
$INTERFERECOLOR
 62
   256
  9
$CSHADOW
280
     0
  9
$SHADOWPLANELOCATION
 40
0.0
  0
ENDSEC
  0
SECTION
  2
CLASSES
  0
CLASS
  1
ACDBDICTIONARYWDFLT
  2
AcDbDictionaryWithDefault
  3
ObjectDBX Classes
 90
        0
 91
        4
280
     0
281
     0
  0
CLASS
  1
VISUALSTYLE
  2
AcDbVisualStyle
  3
ObjectDBX Classes
 90
     4095
 91
        4
280
     0
281
     0
  0
CLASS
  1
MATERIAL
  2
AcDbMaterial
  3
ObjectDBX Classes
 90
     1153
 91
        4
280
     0
281
     0
  0
CLASS
  1
SUN
  2
AcDbSun
  3
SCENEOE
 90
     1024
 91
        4
280
     0
281
     0
  0
CLASS
  1
IMAGEDEF
  2
AcDbRasterImageDef
  3
ISM
 90
        0
 91
        4
280
     0
281
     0
  0
CLASS
  1
RASTERVARIABLES
  2
AcDbRasterVariables
  3
ISM
 90
        0
 91
        4
280
     0
281
     0
  0
CLASS
  1
IMAGE
  2
AcDbRasterImage
  3
ISM
 90
      127
 91
        5
280
     0
281
     1
  0
CLASS
  1
IMAGEDEF_REACTOR
  2
AcDbRasterImageDefReactor
  3
ISM
 90
        1
 91
        4
280
     0
281
     0
  0
ENDSEC
  0
SECTION
  2
TABLES
  0
TABLE
  2
VPORT
  5
8
330
0
100
AcDbSymbolTable
 70
     1
  0
VPORT
  5
29
330
8
100
AcDbSymbolTableRecord
100
AcDbViewportTableRecord
  2
*Active
 70
     0
 10
0.0
 20
0.0
 11
1.0
 21
1.0
 12
0.0
 22
0.0
 13
0.0
 23
0.0
 14
0.5
 24
0.5
 15
0.5
 25
0.5
 16
0.0
 26
0.0
 36
1.0
 17
104.9999999737534
 27
-148.4999999628701
 37
0.0
 40
296.9999999257402
 41
0.7070707070707533
 42
50.0
 43
0.0
 44
0.0
 50
0.0
 51
0.0
 71
     0
 72
   100
 73
     1
 74
     3
 75
     0
 76
     0
 77
     0
 78
     0
281
     0
 65
     1
110
0.0
120
0.0
130
0.0
111
1.0
121
0.0
131
0.0
112
0.0
122
1.0
132
0.0
 79
     0
146
0.0
 60
     3
 61
     5
292
     1
282
     1
141
0.0
142
0.0
 63
   250
361
3F
  0
ENDTAB
  0
TABLE
  2
LTYPE
  5
5
330
0
100
AcDbSymbolTable
 70
     1
  0
LTYPE
  5
14
330
5
100
AcDbSymbolTableRecord
100
AcDbLinetypeTableRecord
  2
ByBlock
 70
     0
  3

 72
    65
 73
     0
 40
0.0
  0
LTYPE
  5
15
330
5
100
AcDbSymbolTableRecord
100
AcDbLinetypeTableRecord
  2
ByLayer
 70
     0
  3

 72
    65
 73
     0
 40
0.0
  0
LTYPE
  5
16
330
5
100
AcDbSymbolTableRecord
100
AcDbLinetypeTableRecord
  2
Continuous
 70
     0
  3
Solid line
 72
    65
 73
     0
 40
0.0
  0
ENDTAB
  0
TABLE
  2
LAYER
  5
2
330
0
100
AcDbSymbolTable
 70
     2
  0
LAYER
  5
10
330
2
100
AcDbSymbolTableRecord
100
AcDbLayerTableRecord
  2
0
 70
     0
 62
     7
  6
Continuous
370
    -3
390
F
347
3E
  0
LAYER
  5
40
330
2
100
AcDbSymbolTableRecord
100
AcDbLayerTableRecord
  2
Layer 1
 70
     0
 62
     7
  6
Continuous
370
    -3
390
F
347
3E
  0
ENDTAB
  0
TABLE
  2
STYLE
  5
3
330
0
100
AcDbSymbolTable
 70
     1
  0
STYLE
  5
11
330
3
100
AcDbSymbolTableRecord
100
AcDbTextStyleTableRecord
  2
Standard
 70
     0
 40
0.0
 41
1.0
 50
0.0
 71
     0
 42
0.2
  3
txt
  4

  0
ENDTAB
  0
TABLE
  2
VIEW
  5
6
330
0
100
AcDbSymbolTable
 70
     0
  0
ENDTAB
  0
TABLE
  2
UCS
  5
7
330
0
100
AcDbSymbolTable
 70
     0
  0
ENDTAB
  0
TABLE
  2
APPID
  5
9
330
0
100
AcDbSymbolTable
 70
     1
  0
APPID
  5
12
330
9
100
AcDbSymbolTableRecord
100
AcDbRegAppTableRecord
  2
ACAD
 70
     0
  0
ENDTAB
  0
TABLE
  2
DIMSTYLE
  5
A
330
0
100
AcDbSymbolTable
 70
     1
100
AcDbDimStyleTable
  0
DIMSTYLE
105
27
330
A
100
AcDbSymbolTableRecord
100
AcDbDimStyleTableRecord
  2
Standard
 70
     0
178
     0
340
11
  0
ENDTAB
  0
TABLE
  2
BLOCK_RECORD
  5
1
330
0
100
AcDbSymbolTable
 70
     5
  0
BLOCK_RECORD
  5
1F
330
1
100
AcDbSymbolTableRecord
100
AcDbBlockTableRecord
  2
*Model_Space
340
22
 70
     0
280
     1
281
     0
  0
BLOCK_RECORD
  5
1B
330
1
100
AcDbSymbolTableRecord
100
AcDbBlockTableRecord
  2
*Paper_Space
340
1E
 70
     0
280
     1
281
     0
  0
BLOCK_RECORD
  5
23
330
1
100
AcDbSymbolTableRecord
100
AcDbBlockTableRecord
  2
*Paper_Space0
340
26
 70
     0
280
     1
281
     0
  0
BLOCK_RECORD
  5
41
330
1
100
AcDbSymbolTableRecord
100
AcDbBlockTableRecord
  2
block 2
340
0
102
{BLKREFS
331
42
102
}
 70
     0
280
     1
281
     0
  0
BLOCK_RECORD
  5
4C
330
1
100
AcDbSymbolTableRecord
100
AcDbBlockTableRecord
  2
block 3
340
0
102
{BLKREFS
331
4D
102
}
 70
     0
280
     1
281
     0
  0
BLOCK_RECORD
  5
50
330
1
100
AcDbSymbolTableRecord
100
AcDbBlockTableRecord
  2
block 4
340
0
102
{BLKREFS
331
51
102
}
 70
     0
280
     1
281
     0
  0
BLOCK_RECORD
  5
1FA
330
1
100
AcDbSymbolTableRecord
100
AcDbBlockTableRecord
  2
block 5
340
0
102
{BLKREFS
331
1FB
102
}
 70
     0
280
     1
281
     0
  0
ENDTAB
  0
ENDSEC
  0
SECTION
  2
BLOCKS
  0
BLOCK
  5
20
330
1F
100
AcDbEntity
  8
0
100
AcDbBlockBegin
  2
*Model_Space
 70
     0
 10
0.0
 20
0.0
 30
0.0
  3
*Model_Space
  1

  0
ENDBLK
  5
21
330
1F
100
AcDbEntity
  8
0
100
AcDbBlockEnd
  0
BLOCK
  5
1C
330
1B
100
AcDbEntity
 67
     1
  8
0
100
AcDbBlockBegin
  2
*Paper_Space
 70
     0
 10
0.0
 20
0.0
 30
0.0
  3
*Paper_Space
  1

  0
ENDBLK
  5
1D
330
1B
100
AcDbEntity
 67
     1
  8
0
100
AcDbBlockEnd
  0
BLOCK
  5
24
330
23
100
AcDbEntity
  8
0
100
AcDbBlockBegin
  2
*Paper_Space0
 70
     0
 10
0.0
 20
0.0
 30
0.0
  3
*Paper_Space0
  1

  0
ENDBLK
  5
25
330
23
100
AcDbEntity
  8
0
100
AcDbBlockEnd
  0
BLOCK
  5
43
330
41
100
AcDbEntity
  8
0
100
AcDbBlockBegin
  2
block 2
 70
     0
 10
0.0
 20
0.0
 30
0.0
  3
block 2
  1

  0
IMAGE
  5
48
330
41
100
AcDbEntity
  8
Layer 1
160
                 8
310
0800000000000000
100
AcDbRasterImage
 90
        0
 10
-224.0138888328854
 20
-352.4249999118937
 30
0.0
 11
0.3527777776895833
 21
0.0
 31
0.0
 12
0.0
 22
0.3527777776895833
 32
0.0
 13
1306.0
 23
1014.0
340
46
 70
     3
280
     0
281
    50
282
    50
283
     0
360
49
 71
     1
 91
        2
 14
-0.5
 24
-0.5
 14
1305.5
 24
1013.5
290
     0
  0
ENDBLK
  5
44
330
41
100
AcDbEntity
  8
0
100
AcDbBlockEnd
  0
BLOCK
  5
4E
330
4C
100
AcDbEntity
  8
0
100
AcDbBlockBegin
  2
block 3
 70
     0
 10
0.0
 20
0.0
 30
0.0
  3
block 3
  1

  0
INSERT
  5
51
330
4C
100
AcDbEntity
  8
Layer 1
100
AcDbBlockReference
  2
block 4
 10
0.0
 20
0.0
 30
0.0
  0
ENDBLK
  5
4F
330
4C
100
AcDbEntity
  8
0
100
AcDbBlockEnd
  0
BLOCK
  5
52
330
50
100
AcDbEntity
  8
0
100
AcDbBlockBegin
  2
block 4
 70
     0
 10
0.0
 20
0.0
 30
0.0
  3
block 4
  1

  0
SPLINE
  5
54
330
50
100
AcDbEntity
  8
Layer 1
 62
   240
420
 16717136
370
    70
100
AcDbSpline
210
0.0
220
0.0
230
1.0
 70
    11
 71
     3
 72
   110
 73
   106
 74
     0
 42
0.0000000001
 43
0.0000000001
 12
1.0
 22
0.0
 32
0.0
 13
1.0
 23
0.0
 33
0.0
 40
0.0
 40
0.0
 40
0.0
 40
0.0
 40
1.0
 40
1.0
 40
1.0
 40
2.0
 40
2.0
 40
2.0
 40
3.0
 40
3.0
 40
3.0
 40
4.0
 40
4.0
 40
4.0
 40
5.0
 40
5.0
 40
5.0
 40
6.0
 40
6.0
 40
6.0
 40
7.0
 40
7.0
 40
7.0
 40
8.0
 40
8.0
 40
8.0
 40
9.0
 40
9.0
 40
9.0
 40
10.0
 40
10.0
 40
10.0
 40
11.0
 40
11.0
 40
11.0
 40
12.0
 40
12.0
 40
12.0
 40
13.0
 40
13.0
 40
13.0
 40
14.0
 40
14.0
 40
14.0
 40
15.0
 40
15.0
 40
15.0
 40
16.0
 40
16.0
 40
16.0
 40
17.0
 40
17.0
 40
17.0
 40
18.0
 40
18.0
 40
18.0
 40
19.0
 40
19.0
 40
19.0
 40
20.0
 40
20.0
 40
20.0
 40
21.0
 40
21.0
 40
21.0
 40
22.0
 40
22.0
 40
22.0
 40
23.0
 40
23.0
 40
23.0
 40
24.0
 40
24.0
 40
24.0
 40
25.0
 40
25.0
 40
25.0
 40
26.0
 40
26.0
 40
26.0
 40
27.0
 40
27.0
 40
27.0
 40
28.0
 40
28.0
 40
28.0
 40
29.0
 40
29.0
 40
29.0
 40
30.0
 40
30.0
 40
30.0
 40
31.0
 40
31.0
 40
31.0
 40
32.0
 40
32.0
 40
32.0
 40
33.0
 40
33.0
 40
33.0
 40
34.0
 40
34.0
 40
34.0
 40
35.0
 40
35.0
 40
35.0
 40
35.0
 10
198.448761106258
 20
-153.8448730084138
 30
0.0
 10
199.8379312651447
 20
-153.8448730084138
 30
0.0
 10
200.9814445840862
 20
-154.8894259595415
 30
0.0
 10
201.1412324190615
 20
-156.2356400840965
 30
0.0
 10
201.5297745942573
 20
-152.7614766056898
 30
0.0
 10
201.7363511322916
 20
-149.2323207905999
 30
0.0
 10
201.7363511322916
 20
-145.6544168743937
 30
0.0
 10
201.7363511322916
 20
-131.5772614891869
 30
0.0
 10
198.6421601540613
 20
-118.2245235571409
 30
0.0
 10
193.1052457538613
 20
-106.2310265169535
 30
0.0
 10
192.1607943584268
 20
-107.4527219715635
 30
0.0
 10
190.6850015799329
 20
-108.2427254300248
 30
0.0
 10
189.021343438259
 20
-108.2427254300248
 30
0.0
 10
186.1692996089481
 20
-108.2427254300248
 30
0.0
 10
183.8572744969502
 20
-105.9307003180269
 30
0.0
 10
183.8572744969502
 20
-103.078656488716
 30
0.0
 10
183.8572744969502
 20
-100.3163143331024
 30
0.0
 10
186.0279215029722
 20
-98.06714068186342
 30
0.0
 10
188.7556835126527
 20
-97.9280018879529
 30
0.0
 10
172.3835131744063
 20
-70.13717022307986
 30
0.0
 10
142.1559224091225
 20
-51.48527254300976
 30
0.0
 10
107.5672068009077
 20
-51.48527254300976
 30
0.0
 10
90.87662351243709
 20
-51.48527254300976
 30
0.0
 10
75.20389368508359
 20
-55.83326295940324
 30
0.0
 10
61.6096976232152
 20
-63.4496369945
 30
0.0
 10
62.83490276885074
 20
-64.39385153961986
 30
0.0
 10
63.62759770815995
 20
-65.87173290725168
 30
0.0
 10
63.62759770815995
 20
-67.5381686571606
 30
0.0
 10
63.62759770815995
 20
-70.39021248647146
 30
0.0
 10
61.31557259616199
 20
-72.70223759846941
 30
0.0
 10
58.46352876685113
 20
-72.70223759846941
 30
0.0
 10
55.97933500797782
 20
-72.70223759846941
 30
0.0
 10
53.90627033157552
 20
-70.94758587229131
 30
0.0
 10
53.4124804893053
 20
-68.61036849955748
 30
0.0
 10
39.73885344465513
 20
-78.23936731713721
 30
0.0
 10
28.74213018758443
 20
-91.41345551642615
 30
0.0
 10
21.76365864527523
 20
-106.799639526794
 30
0.0
 10
22.20172406807153
 20
-106.4962558056242
 30
0.0
 10
22.73263481419531
 20
-106.3174553499397
 30
0.0
 10
23.30585563924732
 20
-106.3174553499397
 30
0.0
 10
24.80440757979065
 20
-106.3174553499397
 30
0.0
 10
26.01923437527688
 20
-107.532282145426
 30
0.0
 10
26.01923437527688
 20
-109.0308556178161
 30
0.0
 10
26.01923437527688
 20
-110.5294075583594
 30
0.0
 10
24.80440757979065
 20
-111.7442343538456
 30
0.0
 10
23.30585563924732
 20
-111.7442343538456
 30
0.0
 10
21.94164089078195
 20
-111.7442343538456
 30
0.0
 10
20.81584828174265
 20
-110.7364362651761
 30
0.0
 10
20.62434403645633
 20
-109.4253621145707
 30
0.0
 10
17.69441951733204
 20
-116.4484045797204
 30
0.0
 10
15.59024132232857
 20
-123.901308834042
 30
0.0
 10
14.43393808639803
 20
-131.6644654686572
 30
0.0
 10
14.93151753370202
 20
-131.0556525008732
 30
0.0
 10
15.6879097793354
 20
-130.6666366250482
 30
0.0
 10
16.53551092794078
 20
-130.6666366250482
 30
0.0
 10
18.03408440033089
 20
-130.6666366250482
 30
0.0
 10
19.24891119581712
 20
-131.8814634205344
 30
0.0
 10
19.24891119581712
 20
-133.3800153610777
 30
0.0
 10
19.24891119581712
 20
-134.8785888334679
 30
0.0
 10
18.03408440033089
 20
-136.0933940971073
 30
0.0
 10
16.53551092794078
 20
-136.0933940971073
 30
0.0
 10
15.43187458924099
 20
-136.0933940971073
 30
0.0
 10
14.48404269386163
 20
-135.4334429932141
 30
0.0
 10
14.06010216255485
 20
-134.487570495892
 30
0.0
 10
13.62729051037356
 20
-138.1502668247289
 30
0.0
 10
13.39804093767697
 20
-141.8753409136957
 30
0.0
 10
13.39804093767697
 20
-145.6544168743937
 30
0.0
 10
13.39804093767697
 20
-159.5581978293053
 30
0.0
 10
16.41366220699685
 20
-172.756896929467
 30
0.0
 10
21.82274203284727
 20
-184.6357153536892
 30
0.0
 10
22.76452347928066
 20
-183.3770712499999
 30
0.0
 10
24.26251559180763
 20
-182.5587318811724
 30
0.0
 10
25.95543551325941
 20
-182.5587318811724
 30
0.0
 10
28.80747934257027
 20
-182.5587318811724
 30
0.0
 10
31.11950445456822
 20
-184.8707785250171
 30
0.0
 10
31.11950445456822
 20
-187.7228008224812
 30
0.0
 10
31.11950445456822
 20
-190.53182402192
 30
0.0
 10
28.8754553828636
 20
-192.8121327236069
 30
0.0
 10
26.08286098252009
 20
-192.8804317416019
 30
0.0
 10
42.38550498750475
 20
-220.9483998064165
 30
0.0
 10
72.7706442756984
 20
-239.8235827376244
 30
0.0
 10
107.5672068009077
 20
-239.8235827376244
 30
0.0
 10
124.4797188341687
 20
-239.8235827376244
 30
0.0
 10
140.3486468494072
 20
-235.3616027243627
 30
0.0
 10
154.0672969856802
 20
-227.5559206923515
 30
0.0
 10
152.4614518526182
 20
-226.6802635473881
 30
0.0
 10
151.3716820232465
 20
-224.9772021261016
 30
0.0
 10
151.3716820232465
 20
-223.0193543618342
 30
0.0
 10
151.3716820232465
 20
-220.1673105325233
 30
0.0
 10
153.6837286670912
 20
-217.8552854205253
 30
0.0
 10
156.5357509645553
 20
-217.8552854205253
 30
0.0
 10
159.2881238751085
 20
-217.8552854205253
 30
0.0
 10
161.5310748226272
 20
-220.0102787739362
 30
0.0
 10
161.6849198678904
 20
-222.724131210595
 30
0.0
 10
182.8629338125199
 20
-207.8256435298578
 30
0.0
 10
197.6241559700167
 20
-184.4225931342329
 30
0.0
 10
200.9993806124563
 20
-157.4765850097303
 30
0.0
 10
200.6226378892975
 20
-158.5224729353585
 30
0.0
 10
199.6244645361399
 20
-159.2716520123197
 30
0.0
 10
198.448761106258
 20
-159.2716520123197
 30
0.0
 10
196.9501876338679
 20
-159.2716520123197
 30
0.0
 10
195.7353823702285
 20
-158.0568252168335
 30
0.0
 10
195.7353823702285
 20
-156.5582732762901
 30
0.0
 10
195.7353823702285
 20
-155.0596998039
 30
0.0
 10
196.9501876338679
 20
-153.8448730084138
 30
0.0
 10
198.448761106258
 20
-153.8448730084138
 30
0.0
  0
SPLINE
  5
55
330
50
100
AcDbEntity
  8
Layer 1
 62
   240
420
 16717136
370
    70
100
AcDbSpline
210
0.0
220
0.0
230
1.0
 70
    11
 71
     3
 72
    17
 73
    13
 74
     0
 42
0.0000000001
 43
0.0000000001
 12
1.0
 22
0.0
 32
0.0
 13
1.0
 23
0.0
 33
0.0
 40
0.0
 40
0.0
 40
0.0
 40
0.0
 40
1.0
 40
1.0
 40
1.0
 40
2.0
 40
2.0
 40
2.0
 40
3.0
 40
3.0
 40
3.0
 40
4.0
 40
4.0
 40
4.0
 40
4.0
 10
191.8397975865887
 20
-183.665856379051
 30
0.0
 10
190.3412455847624
 20
-183.665856379051
 30
0.0
 10
189.1264188505591
 20
-182.4510296728841
 30
0.0
 10
189.1264188505591
 20
-180.9524776430214
 30
0.0
 10
189.1264188505591
 20
-179.4539041706313
 30
0.0
 10
190.3412456460453
 20
-178.2390989069919
 30
0.0
 10
191.8397975865887
 20
-178.2390989069919
 30
0.0
 10
193.3383715284137
 20
-178.2390989069919
 30
0.0
 10
194.553197854465
 20
-179.4539038133346
 30
0.0
 10
194.553197854465
 20
-180.9524776430214
 30
0.0
 10
194.553197854465
 20
-182.4510296728841
 30
0.0
 10
193.3383711763385
 20
-183.665856379051
 30
0.0
 10
191.8397975865887
 20
-183.665856379051
 30
0.0
  0
ENDBLK
  5
53
330
50
100
AcDbEntity
  8
0
100
AcDbBlockEnd
  0
BLOCK
  5
1FC
330
1FA
100
AcDbEntity
  8
0
100
AcDbBlockBegin
  2
block 5
 70
     0
 10
0.0
 20
0.0
 30
0.0
  3
block 5
  1

  0
ENDBLK
  5
1FD
330
1FA
100
AcDbEntity
  8
0
100
AcDbBlockEnd
  0
ENDSEC
  0
SECTION
  2
ENTITIES
  0
INSERT
  5
42
330
1F
100
AcDbEntity
  8
Layer 1
100
AcDbBlockReference
  2
block 2
 10
0.0
 20
0.0
 30
0.0
  0
SPLINE
  5
4A
330
1F
100
AcDbEntity
  8
Layer 1
 62
   240
420
 16717136
370
    70
100
AcDbSpline
210
0.0
220
0.0
230
1.0
 70
    11
 71
     3
 72
    17
 73
    13
 74
     0
 42
0.0000000001
 43
0.0000000001
 12
1.0
 22
0.0
 32
0.0
 13
1.0
 23
0.0
 33
0.0
 40
0.0
 40
0.0
 40
0.0
 40
0.0
 40
1.0
 40
1.0
 40
1.0
 40
2.0
 40
2.0
 40
2.0
 40
3.0
 40
3.0
 40
3.0
 40
4.0
 40
4.0
 40
4.0
 40
4.0
 10
110.5357860245758
 20
-231.4222221643673
 30
0.0
 10
110.5357860245758
 20
-233.0948909501782
 30
0.0
 10
109.1798200591708
 20
-234.4508569155831
 30
0.0
 10
107.50715127336
 20
-234.4508569155831
 30
0.0
 10
105.8344824875492
 20
-234.4508569155831
 30
0.0
 10
104.4785165221439
 20
-233.0948909501782
 30
0.0
 10
104.4785165221439
 20
-231.4222221643673
 30
0.0
 10
104.4785165221439
 20
-229.7495533785565
 30
0.0
 10
105.8344824875492
 20
-228.3935874131516
 30
0.0
 10
107.50715127336
 20
-228.3935874131516
 30
0.0
 10
109.1798200591708
 20
-228.3935874131516
 30
0.0
 10
110.5357860245758
 20
-229.7495533785565
 30
0.0
 10
110.5357860245758
 20
-231.4222221643673
 30
0.0
  0
SPLINE
  5
4B
330
1F
100
AcDbEntity
  8
Layer 1
 62
   240
420
 16717136
370
    35
100
AcDbSpline
210
0.0
220
0.0
230
1.0
 70
    11
 71
     3
 72
    17
 73
    13
 74
     0
 42
0.0000000001
 43
0.0000000001
 12
1.0
 22
0.0
 32
0.0
 13
1.0
 23
0.0
 33
0.0
 40
0.0
 40
0.0
 40
0.0
 40
0.0
 40
1.0
 40
1.0
 40
1.0
 40
2.0
 40
2.0
 40
2.0
 40
3.0
 40
3.0
 40
3.0
 40
4.0
 40
4.0
 40
4.0
 40
4.0
 10
110.4532210127756
 20
-59.17659572988741
 30
0.0
 10
110.4532210127756
 20
-60.84926451569824
 30
0.0
 10
109.0972550473706
 20
-62.20523048110316
 30
0.0
 10
107.4245862615598
 20
-62.20523048110316
 30
0.0
 10
105.751917475749
 20
-62.20523048110316
 30
0.0
 10
104.3959515103434
 20
-60.84926451569824
 30
0.0
 10
104.3959515103434
 20
-59.17659572988741
 30
0.0
 10
104.3959515103434
 20
-57.50392694407658
 30
0.0
 10
105.751917475749
 20
-56.14796097867165
 30
0.0
 10
107.4245862615598
 20
-56.14796097867165
 30
0.0
 10
109.0972550473706
 20
-56.14796097867165
 30
0.0
 10
110.4532210127756
 20
-57.50392694407658
 30
0.0
 10
110.4532210127756
 20
-59.17659572988741
 30
0.0
  0
INSERT
  5
4D
330
1F
100
AcDbEntity
  8
Layer 1
100
AcDbBlockReference
  2
block 3
 10
0.0
 20
0.0
 30
0.0
  0
POLYLINE
  5
56
330
1F
100
AcDbEntity
  8
Layer 1
 62
   240
420
 16717136
370
    70
100
AcDb2dPolyline
 66
     1
 10
0.0
 20
0.0
 30
0.0
  0
VERTEX
  5
57
330
56
100
AcDbEntity
  8
Layer 1
 62
   240
420
 16717136
370
    70
100
AcDbVertex
100
AcDb2dVertex
 10
104.6859928816308
 20
-73.76914891772849
 30
0.0
  0
VERTEX
  5
58
330
56
100
AcDbEntity
  8
Layer 1
 62
   240
420
 16717136
370
    70
100
AcDbVertex
100
AcDb2dVertex
 10
99.68599288288067
 20
-73.76914891772849
 30
0.0
  0
VERTEX
  5
59
330
56
100
AcDbEntity
  8
Layer 1
 62
   240
420
 16717136
370
    70
100
AcDbVertex
100
AcDb2dVertex
 10
99.68599288288067
 20
-68.76914891897835
 30
0.0
  0
VERTEX
  5
5A
330
56
100
AcDbEntity
  8
Layer 1
 62
   240
420
 16717136
370
    70
100
AcDbVertex
100
AcDb2dVertex
 10
104.6859928816308
 20
-68.76914891897835
 30
0.0
  0
VERTEX
  5
5B
330
56
100
AcDbEntity
  8
Layer 1
 62
   240
420
 16717136
370
    70
100
AcDbVertex
100
AcDb2dVertex
 10
104.6859928816308
 20
-73.76914891772849
 30
0.0
  0
SEQEND
  5
5C
330
56
100
AcDbEntity
  8
Layer 1
 62
   240
420
 16717136
370
    70
  0
POLYLINE
  5
5D
330
1F
100
AcDbEntity
  8
Layer 1
 62
   240
420
 16717136
370
    70
100
AcDb2dPolyline
 66
     1
 10
0.0
 20
0.0
 30
0.0
  0
VERTEX
  5
5E
330
5D
100
AcDbEntity
  8
Layer 1
 62
   240
420
 16717136
370
    70
100
AcDbVertex
100
AcDb2dVertex
 10
113.4898935886491
 20
-72.9354609746741
 30
0.0
  0
VERTEX
  5
5F
330
5D
100
AcDbEntity
  8
Layer 1
 62
   240
420
 16717136
370
    70
100
AcDbVertex
100
AcDb2dVertex
 10
108.4898935898996
 20
-72.9354609746741
 30
0.0
  0
VERTEX
  5
60
330
5D
100
AcDbEntity
  8
Layer 1
 62
   240
420
 16717136
370
    70
100
AcDbVertex
100
AcDb2dVertex
 10
108.4898935898996
 20
-67.93546097592395
 30
0.0
  0
VERTEX
  5
61
330
5D
100
AcDbEntity
  8
Layer 1
 62
   240
420
 16717136
370
    70
100
AcDbVertex
100
AcDb2dVertex
 10
113.4898935886491
 20
-67.93546097592395
 30
0.0
  0
VERTEX
  5
62
330
5D
100
AcDbEntity
  8
Layer 1
 62
   240
420
 16717136
370
    70
100
AcDbVertex
100
AcDb2dVertex
 10
113.4898935886491
 20
-72.9354609746741
 30
0.0
  0
SEQEND
  5
63
330
5D
100
AcDbEntity
  8
Layer 1
 62
   240
420
 16717136
370
    70
  0
POLYLINE
  5
64
330
1F
100
AcDbEntity
  8
Layer 1
 62
   240
420
 16717136
370
    70
100
AcDb2dPolyline
 66
     1
 10
0.0
 20
0.0
 30
0.0
  0
VERTEX
  5
65
330
64
100
AcDbEntity
  8
Layer 1
 62
   240
420
 16717136
370
    70
100
AcDbVertex
100
AcDb2dVertex
 10
118.8941489064472
 20
-79.87092196584811
 30
0.0
  0
VERTEX
  5
66
330
64
100
AcDbEntity
  8
Layer 1
 62
   240
420
 16717136
370
    70
100
AcDbVertex
100
AcDb2dVertex
 10
113.8941489076977
 20
-79.87092196584811
 30
0.0
  0
VERTEX
  5
67
330
64
100
AcDbEntity
  8
Layer 1
 62
   240
420
 16717136
370
    70
100
AcDbVertex
100
AcDb2dVertex
 10
113.8941489076977
 20
-74.87092196709797
 30
0.0
  0
VERTEX
  5
68
330
64
100
AcDbEntity
  8
Layer 1
 62
   240
420
 16717136
370
    70
100
AcDbVertex
100
AcDb2dVertex
 10
118.8941489064472
 20
-74.87092196709797
 30
0.0
  0
VERTEX
  5
69
330
64
100
AcDbEntity
  8
Layer 1
 62
   240
420
 16717136
370
    70
100
AcDbVertex
100
AcDb2dVertex
 10
118.8941489064472
 20
-79.87092196584811
 30
0.0
  0
SEQEND
  5
6A
330
64
100
AcDbEntity
  8
Layer 1
 62
   240
420
 16717136
370
    70
  0
POLYLINE
  5
6B
330
1F
100
AcDbEntity
  8
Layer 1
 62
   240
420
 16717136
370
    70
100
AcDb2dPolyline
 66
     1
 10
0.0
 20
0.0
 30
0.0
  0
VERTEX
  5
6C
330
6B
100
AcDbEntity
  8
Layer 1
 62
   240
420
 16717136
370
    70
100
AcDbVertex
100
AcDb2dVertex
 10
115.7416666377317
 20
-88.06737586450808
 30
0.0
  0
VERTEX
  5
6D
330
6B
100
AcDbEntity
  8
Layer 1
 62
   240
420
 16717136
370
    70
100
AcDbVertex
100
AcDb2dVertex
 10
110.7416666389821
 20
-88.06737586450808
 30
0.0
  0
VERTEX
  5
6E
330
6B
100
AcDbEntity
  8
Layer 1
 62
   240
420
 16717136
370
    70
100
AcDbVertex
100
AcDb2dVertex
 10
110.7416666389821
 20
-83.06737586575794
 30
0.0
  0
VERTEX
  5
6F
330
6B
100
AcDbEntity
  8
Layer 1
 62
   240
420
 16717136
370
    70
100
AcDbVertex
100
AcDb2dVertex
 10
115.7416666377317
 20
-83.06737586575794
 30
0.0
  0
VERTEX
  5
70
330
6B
100
AcDbEntity
  8
Layer 1
 62
   240
420
 16717136
370
    70
100
AcDbVertex
100
AcDb2dVertex
 10
115.7416666377317
 20
-88.06737586450808
 30
0.0
  0
SEQEND
  5
71
330
6B
100
AcDbEntity
  8
Layer 1
 62
   240
420
 16717136
370
    70
  0
POLYLINE
  5
72
330
1F
100
AcDbEntity
  8
Layer 1
 62
   240
420
 16717136
370
    70
100
AcDb2dPolyline
 66
     1
 10
0.0
 20
0.0
 30
0.0
  0
VERTEX
  5
73
330
72
100
AcDbEntity
  8
Layer 1
 62
   240
420
 16717136
370
    70
100
AcDbVertex
100
AcDb2dVertex
 10
101.240248201641
 20
-81.94255317100351
 30
0.0
  0
VERTEX
  5
74
330
72
100
AcDbEntity
  8
Layer 1
 62
   240
420
 16717136
370
    70
100
AcDbVertex
100
AcDb2dVertex
 10
96.24024820289145
 20
-81.94255317100351
 30
0.0
  0
VERTEX
  5
75
330
72
100
AcDbEntity
  8
Layer 1
 62
   240
420
 16717136
370
    70
100
AcDbVertex
100
AcDb2dVertex
 10
96.24024820289145
 20
-76.94255317225337
 30
0.0
  0
VERTEX
  5
76
330
72
100
AcDbEntity
  8
Layer 1
 62
   240
420
 16717136
370
    70
100
AcDbVertex
100
AcDb2dVertex
 10
101.240248201641
 20
-76.94255317225337
 30
0.0
  0
VERTEX
  5
77
330
72
100
AcDbEntity
  8
Layer 1
 62
   240
420
 16717136
370
    70
100
AcDbVertex
100
AcDb2dVertex
 10
101.240248201641
 20
-81.94255317100351
 30
0.0
  0
SEQEND
  5
78
330
72
100
AcDbEntity
  8
Layer 1
 62
   240
420
 16717136
370
    70
  0
POLYLINE
  5
79
330
1F
100
AcDbEntity
  8
Layer 1
 62
   240
420
 16717136
370
    70
100
AcDb2dPolyline
 66
     1
 10
0.0
 20
0.0
 30
0.0
  0
VERTEX
  5
7A
330
79
100
AcDbEntity
  8
Layer 1
 62
   240
420
 16717136
370
    70
100
AcDbVertex
100
AcDb2dVertex
 10
106.4643616755122
 20
-88.9680850841411
 30
0.0
  0
VERTEX
  5
7B
330
79
100
AcDbEntity
  8
Layer 1
 62
   240
420
 16717136
370
    70
100
AcDbVertex
100
AcDb2dVertex
 10
101.4643616767627
 20
-88.9680850841411
 30
0.0
  0
VERTEX
  5
7C
330
79
100
AcDbEntity
  8
Layer 1
 62
   240
420
 16717136
370
    70
100
AcDbVertex
100
AcDb2dVertex
 10
101.4643616767627
 20
-83.96808508539094
 30
0.0
  0
VERTEX
  5
7D
330
79
100
AcDbEntity
  8
Layer 1
 62
   240
420
 16717136
370
    70
100
AcDbVertex
100
AcDb2dVertex
 10
106.4643616755122
 20
-83.96808508539094
 30
0.0
  0
VERTEX
  5
7E
330
79
100
AcDbEntity
  8
Layer 1
 62
   240
420
 16717136
370
    70
100
AcDbVertex
100
AcDb2dVertex
 10
106.4643616755122
 20
-88.9680850841411
 30
0.0
  0
SEQEND
  5
7F
330
79
100
AcDbEntity
  8
Layer 1
 62
   240
420
 16717136
370
    70
  0
POLYLINE
  5
80
330
1F
100
AcDbEntity
  8
Layer 1
 62
   240
420
 16717136
370
    70
100
AcDb2dPolyline
 66
     1
 10
0.0
 20
0.0
 30
0.0
  0
VERTEX
  5
81
330
80
100
AcDbEntity
  8
Layer 1
 62
   240
420
 16717136
370
    70
100
AcDbVertex
100
AcDb2dVertex
 10
107.4776595475995
 20
-97.8175531670354
 30
0.0
  0
VERTEX
  5
82
330
80
100
AcDbEntity
  8
Layer 1
 62
   240
420
 16717136
370
    70
100
AcDbVertex
100
AcDb2dVertex
 10
102.47765954885
 20
-97.8175531670354
 30
0.0
  0
VERTEX
  5
83
330
80
100
AcDbEntity
  8
Layer 1
 62
   240
420
 16717136
370
    70
100
AcDbVertex
100
AcDb2dVertex
 10
102.47765954885
 20
-92.81755316828526
 30
0.0
  0
VERTEX
  5
84
330
80
100
AcDbEntity
  8
Layer 1
 62
   240
420
 16717136
370
    70
100
AcDbVertex
100
AcDb2dVertex
 10
107.4776595475995
 20
-92.81755316828526
 30
0.0
  0
VERTEX
  5
85
330
80
100
AcDbEntity
  8
Layer 1
 62
   240
420
 16717136
370
    70
100
AcDbVertex
100
AcDb2dVertex
 10
107.4776595475995
 20
-97.8175531670354
 30
0.0
  0
SEQEND
  5
86
330
80
100
AcDbEntity
  8
Layer 1
 62
   240
420
 16717136
370
    70
  0
POLYLINE
  5
87
330
1F
100
AcDbEntity
  8
Layer 1
 62
   240
420
 16717136
370
    70
100
AcDb2dPolyline
 66
     1
 10
0.0
 20
0.0
 30
0.0
  0
VERTEX
  5
88
330
87
100
AcDbEntity
  8
Layer 1
 62
   240
420
 16717136
370
    70
100
AcDbVertex
100
AcDb2dVertex
 10
117.1152481976719
 20
-97.23209217427389
 30
0.0
  0
VERTEX
  5
89
330
87
100
AcDbEntity
  8
Layer 1
 62
   240
420
 16717136
370
    70
100
AcDbVertex
100
AcDb2dVertex
 10
112.1152481989224
 20
-97.23209217427389
 30
0.0
  0
VERTEX
  5
8A
330
87
100
AcDbEntity
  8
Layer 1
 62
   240
420
 16717136
370
    70
100
AcDbVertex
100
AcDb2dVertex
 10
112.1152481989224
 20
-92.23209217552375
 30
0.0
  0
VERTEX
  5
8B
330
87
100
AcDbEntity
  8
Layer 1
 62
   240
420
 16717136
370
    70
100
AcDbVertex
100
AcDb2dVertex
 10
117.1152481976719
 20
-92.23209217552375
 30
0.0
  0
VERTEX
  5
8C
330
87
100
AcDbEntity
  8
Layer 1
 62
   240
420
 16717136
370
    70
100
AcDbVertex
100
AcDb2dVertex
 10
117.1152481976719
 20
-97.23209217427389
 30
0.0
  0
SEQEND
  5
8D
330
87
100
AcDbEntity
  8
Layer 1
 62
   240
420
 16717136
370
    70
  0
POLYLINE
  5
8E
330
1F
100
AcDbEntity
  8
Layer 1
 62
   240
420
 16717136
370
    70
100
AcDb2dPolyline
 66
     1
 10
0.0
 20
0.0
 30
0.0
  0
VERTEX
  5
8F
330
8E
100
AcDbEntity
  8
Layer 1
 62
   240
420
 16717136
370
    70
100
AcDbVertex
100
AcDb2dVertex
 10
128.1939715991574
 20
-101.8257091944022
 30
0.0
  0
VERTEX
  5
90
330
8E
100
AcDbEntity
  8
Layer 1
 62
   240
420
 16717136
370
    70
100
AcDbVertex
100
AcDb2dVertex
 10
123.1939716004078
 20
-101.8257091944022
 30
0.0
  0
VERTEX
  5
91
330
8E
100
AcDbEntity
  8
Layer 1
 62
   240
420
 16717136
370
    70
100
AcDbVertex
100
AcDb2dVertex
 10
123.1939716004078
 20
-96.82570919565201
 30
0.0
  0
VERTEX
  5
92
330
8E
100
AcDbEntity
  8
Layer 1
 62
   240
420
 16717136
370
    70
100
AcDbVertex
100
AcDb2dVertex
 10
128.1939715991574
 20
-96.82570919565201
 30
0.0
  0
VERTEX
  5
93
330
8E
100
AcDbEntity
  8
Layer 1
 62
   240
420
 16717136
370
    70
100
AcDbVertex
100
AcDb2dVertex
 10
128.1939715991574
 20
-101.8257091944022
 30
0.0
  0
SEQEND
  5
94
330
8E
100
AcDbEntity
  8
Layer 1
 62
   240
420
 16717136
370
    70
  0
POLYLINE
  5
95
330
1F
100
AcDbEntity
  8
Layer 1
 62
   240
420
 16717136
370
    70
100
AcDb2dPolyline
 66
     1
 10
0.0
 20
0.0
 30
0.0
  0
VERTEX
  5
96
330
95
100
AcDbEntity
  8
Layer 1
 62
   240
420
 16717136
370
    70
100
AcDbVertex
100
AcDb2dVertex
 10
118.331205644177
 20
-105.1132978460624
 30
0.0
  0
VERTEX
  5
97
330
95
100
AcDbEntity
  8
Layer 1
 62
   240
420
 16717136
370
    70
100
AcDbVertex
100
AcDb2dVertex
 10
113.3312056454275
 20
-105.1132978460624
 30
0.0
  0
VERTEX
  5
98
330
95
100
AcDbEntity
  8
Layer 1
 62
   240
420
 16717136
370
    70
100
AcDbVertex
100
AcDb2dVertex
 10
113.3312056454275
 20
-100.1132978473122
 30
0.0
  0
VERTEX
  5
99
330
95
100
AcDbEntity
  8
Layer 1
 62
   240
420
 16717136
370
    70
100
AcDbVertex
100
AcDb2dVertex
 10
118.331205644177
 20
-100.1132978473122
 30
0.0
  0
VERTEX
  5
9A
330
95
100
AcDbEntity
  8
Layer 1
 62
   240
420
 16717136
370
    70
100
AcDbVertex
100
AcDb2dVertex
 10
118.331205644177
 20
-105.1132978460624
 30
0.0
  0
SEQEND
  5
9B
330
95
100
AcDbEntity
  8
Layer 1
 62
   240
420
 16717136
370
    70
  0
POLYLINE
  5
9C
330
1F
100
AcDbEntity
  8
Layer 1
 62
   240
420
 16717136
370
    70
100
AcDb2dPolyline
 66
     1
 10
0.0
 20
0.0
 30
0.0
  0
VERTEX
  5
9D
330
9C
100
AcDbEntity
  8
Layer 1
 62
   240
420
 16717136
370
    70
100
AcDbVertex
100
AcDb2dVertex
 10
107.1173758597459
 20
-106.5994680584569
 30
0.0
  0
VERTEX
  5
9E
330
9C
100
AcDbEntity
  8
Layer 1
 62
   240
420
 16717136
370
    70
100
AcDbVertex
100
AcDb2dVertex
 10
102.1173758609967
 20
-106.5994680584569
 30
0.0
  0
VERTEX
  5
9F
330
9C
100
AcDbEntity
  8
Layer 1
 62
   240
420
 16717136
370
    70
100
AcDbVertex
100
AcDb2dVertex
 10
102.1173758609967
 20
-101.5994680597068
 30
0.0
  0
VERTEX
  5
A0
330
9C
100
AcDbEntity
  8
Layer 1
 62
   240
420
 16717136
370
    70
100
AcDbVertex
100
AcDb2dVertex
 10
107.1173758597459
 20
-101.5994680597068
 30
0.0
  0
VERTEX
  5
A1
330
9C
100
AcDbEntity
  8
Layer 1
 62
   240
420
 16717136
370
    70
100
AcDbVertex
100
AcDb2dVertex
 10
107.1173758597459
 20
-106.5994680584569
 30
0.0
  0
SEQEND
  5
A2
330
9C
100
AcDbEntity
  8
Layer 1
 62
   240
420
 16717136
370
    70
  0
POLYLINE
  5
A3
330
1F
100
AcDbEntity
  8
Layer 1
 62
   240
420
 16717136
370
    70
100
AcDb2dPolyline
 66
     1
 10
0.0
 20
0.0
 30
0.0
  0
VERTEX
  5
A4
330
A3
100
AcDbEntity
  8
Layer 1
 62
   240
420
 16717136
370
    70
100
AcDbVertex
100
AcDb2dVertex
 10
98.3579786988145
 20
-103.9198581300489
 30
0.0
  0
VERTEX
  5
A5
330
A3
100
AcDbEntity
  8
Layer 1
 62
   240
420
 16717136
370
    70
100
AcDbVertex
100
AcDb2dVertex
 10
93.357978700065
 20
-103.9198581300489
 30
0.0
  0
VERTEX
  5
A6
330
A3
100
AcDbEntity
  8
Layer 1
 62
   240
420
 16717136
370
    70
100
AcDbVertex
100
AcDb2dVertex
 10
93.357978700065
 20
-98.91985813129878
 30
0.0
  0
VERTEX
  5
A7
330
A3
100
AcDbEntity
  8
Layer 1
 62
   240
420
 16717136
370
    70
100
AcDbVertex
100
AcDb2dVertex
 10
98.3579786988145
 20
-98.91985813129878
 30
0.0
  0
VERTEX
  5
A8
330
A3
100
AcDbEntity
  8
Layer 1
 62
   240
420
 16717136
370
    70
100
AcDbVertex
100
AcDb2dVertex
 10
98.3579786988145
 20
-103.9198581300489
 30
0.0
  0
SEQEND
  5
A9
330
A3
100
AcDbEntity
  8
Layer 1
 62
   240
420
 16717136
370
    70
  0
POLYLINE
  5
AA
330
1F
100
AcDbEntity
  8
Layer 1
 62
   240
420
 16717136
370
    70
100
AcDb2dPolyline
 66
     1
 10
0.0
 20
0.0
 30
0.0
  0
VERTEX
  5
AB
330
AA
100
AcDbEntity
  8
Layer 1
 62
   240
420
 16717136
370
    70
100
AcDbVertex
100
AcDb2dVertex
 10
94.03457444457659
 20
-112.8368794044154
 30
0.0
  0
VERTEX
  5
AC
330
AA
100
AcDbEntity
  8
Layer 1
 62
   240
420
 16717136
370
    70
100
AcDbVertex
100
AcDb2dVertex
 10
89.03457444582709
 20
-112.8368794044154
 30
0.0
  0
VERTEX
  5
AD
330
AA
100
AcDbEntity
  8
Layer 1
 62
   240
420
 16717136
370
    70
100
AcDbVertex
100
AcDb2dVertex
 10
89.03457444582709
 20
-107.8368794056653
 30
0.0
  0
VERTEX
  5
AE
330
AA
100
AcDbEntity
  8
Layer 1
 62
   240
420
 16717136
370
    70
100
AcDbVertex
100
AcDb2dVertex
 10
94.03457444457659
 20
-107.8368794056653
 30
0.0
  0
VERTEX
  5
AF
330
AA
100
AcDbEntity
  8
Layer 1
 62
   240
420
 16717136
370
    70
100
AcDbVertex
100
AcDb2dVertex
 10
94.03457444457659
 20
-112.8368794044154
 30
0.0
  0
SEQEND
  5
B0
330
AA
100
AcDbEntity
  8
Layer 1
 62
   240
420
 16717136
370
    70
  0
POLYLINE
  5
B1
330
1F
100
AcDbEntity
  8
Layer 1
 62
   240
420
 16717136
370
    70
100
AcDb2dPolyline
 66
     1
 10
0.0
 20
0.0
 30
0.0
  0
VERTEX
  5
B2
330
B1
100
AcDbEntity
  8
Layer 1
 62
   240
420
 16717136
370
    70
100
AcDbVertex
100
AcDb2dVertex
 10
102.6813829530531
 20
-113.8276595460117
 30
0.0
  0
VERTEX
  5
B3
330
B1
100
AcDbEntity
  8
Layer 1
 62
   240
420
 16717136
370
    70
100
AcDbVertex
100
AcDb2dVertex
 10
97.68138295430356
 20
-113.8276595460117
 30
0.0
  0
VERTEX
  5
B4
330
B1
100
AcDbEntity
  8
Layer 1
 62
   240
420
 16717136
370
    70
100
AcDbVertex
100
AcDb2dVertex
 10
97.68138295430356
 20
-108.8276595472615
 30
0.0
  0
VERTEX
  5
B5
330
B1
100
AcDbEntity
  8
Layer 1
 62
   240
420
 16717136
370
    70
100
AcDbVertex
100
AcDb2dVertex
 10
102.6813829530531
 20
-108.8276595472615
 30
0.0
  0
VERTEX
  5
B6
330
B1
100
AcDbEntity
  8
Layer 1
 62
   240
420
 16717136
370
    70
100
AcDbVertex
100
AcDb2dVertex
 10
102.6813829530531
 20
-113.8276595460117
 30
0.0
  0
SEQEND
  5
B7
330
B1
100
AcDbEntity
  8
Layer 1
 62
   240
420
 16717136
370
    70
  0
POLYLINE
  5
B8
330
1F
100
AcDbEntity
  8
Layer 1
 62
   240
420
 16717136
370
    70
100
AcDb2dPolyline
 66
     1
 10
0.0
 20
0.0
 30
0.0
  0
VERTEX
  5
B9
330
B8
100
AcDbEntity
  8
Layer 1
 62
   240
420
 16717136
370
    70
100
AcDbVertex
100
AcDb2dVertex
 10
113.3998226666849
 20
-117.6106382684702
 30
0.0
  0
VERTEX
  5
BA
330
B8
100
AcDbEntity
  8
Layer 1
 62
   240
420
 16717136
370
    70
100
AcDbVertex
100
AcDb2dVertex
 10
108.3998226679354
 20
-117.6106382684702
 30
0.0
  0
VERTEX
  5
BB
330
B8
100
AcDbEntity
  8
Layer 1
 62
   240
420
 16717136
370
    70
100
AcDbVertex
100
AcDb2dVertex
 10
108.3998226679354
 20
-112.61063826972
 30
0.0
  0
VERTEX
  5
BC
330
B8
100
AcDbEntity
  8
Layer 1
 62
   240
420
 16717136
370
    70
100
AcDbVertex
100
AcDb2dVertex
 10
113.3998226666849
 20
-112.61063826972
 30
0.0
  0
VERTEX
  5
BD
330
B8
100
AcDbEntity
  8
Layer 1
 62
   240
420
 16717136
370
    70
100
AcDbVertex
100
AcDb2dVertex
 10
113.3998226666849
 20
-117.6106382684702
 30
0.0
  0
SEQEND
  5
BE
330
B8
100
AcDbEntity
  8
Layer 1
 62
   240
420
 16717136
370
    70
  0
POLYLINE
  5
BF
330
1F
100
AcDbEntity
  8
Layer 1
 62
   240
420
 16717136
370
    70
100
AcDb2dPolyline
 66
     1
 10
0.0
 20
0.0
 30
0.0
  0
VERTEX
  5
C0
330
BF
100
AcDbEntity
  8
Layer 1
 62
   240
420
 16717136
370
    70
100
AcDbVertex
100
AcDb2dVertex
 10
123.6679077705016
 20
-112.2063829506724
 30
0.0
  0
VERTEX
  5
C1
330
BF
100
AcDbEntity
  8
Layer 1
 62
   240
420
 16717136
370
    70
100
AcDbVertex
100
AcDb2dVertex
 10
118.6679077717521
 20
-112.2063829506724
 30
0.0
  0
VERTEX
  5
C2
330
BF
100
AcDbEntity
  8
Layer 1
 62
   240
420
 16717136
370
    70
100
AcDbVertex
100
AcDb2dVertex
 10
118.6679077717521
 20
-107.2063829519223
 30
0.0
  0
VERTEX
  5
C3
330
BF
100
AcDbEntity
  8
Layer 1
 62
   240
420
 16717136
370
    70
100
AcDbVertex
100
AcDb2dVertex
 10
123.6679077705016
 20
-107.2063829519223
 30
0.0
  0
VERTEX
  5
C4
330
BF
100
AcDbEntity
  8
Layer 1
 62
   240
420
 16717136
370
    70
100
AcDbVertex
100
AcDb2dVertex
 10
123.6679077705016
 20
-112.2063829506724
 30
0.0
  0
SEQEND
  5
C5
330
BF
100
AcDbEntity
  8
Layer 1
 62
   240
420
 16717136
370
    70
  0
POLYLINE
  5
C6
330
1F
100
AcDbEntity
  8
Layer 1
 62
   240
420
 16717136
370
    70
100
AcDb2dPolyline
 66
     1
 10
0.0
 20
0.0
 30
0.0
  0
VERTEX
  5
C7
330
C6
100
AcDbEntity
  8
Layer 1
 62
   240
420
 16717136
370
    70
100
AcDbVertex
100
AcDb2dVertex
 10
135.4671985476929
 20
-109.2340425258834
 30
0.0
  0
VERTEX
  5
C8
330
C6
100
AcDbEntity
  8
Layer 1
 62
   240
420
 16717136
370
    70
100
AcDbVertex
100
AcDb2dVertex
 10
130.4671985489434
 20
-109.2340425258834
 30
0.0
  0
VERTEX
  5
C9
330
C6
100
AcDbEntity
  8
Layer 1
 62
   240
420
 16717136
370
    70
100
AcDbVertex
100
AcDb2dVertex
 10
130.4671985489434
 20
-104.2340425271333
 30
0.0
  0
VERTEX
  5
CA
330
C6
100
AcDbEntity
  8
Layer 1
 62
   240
420
 16717136
370
    70
100
AcDbVertex
100
AcDb2dVertex
 10
135.4671985476929
 20
-104.2340425271333
 30
0.0
  0
VERTEX
  5
CB
330
C6
100
AcDbEntity
  8
Layer 1
 62
   240
420
 16717136
370
    70
100
AcDbVertex
100
AcDb2dVertex
 10
135.4671985476929
 20
-109.2340425258834
 30
0.0
  0
SEQEND
  5
CC
330
C6
100
AcDbEntity
  8
Layer 1
 62
   240
420
 16717136
370
    70
  0
POLYLINE
  5
CD
330
1F
100
AcDbEntity
  8
Layer 1
 62
   240
420
 16717136
370
    70
100
AcDb2dPolyline
 66
     1
 10
0.0
 20
0.0
 30
0.0
  0
VERTEX
  5
CE
330
CD
100
AcDbEntity
  8
Layer 1
 62
   240
420
 16717136
370
    70
100
AcDbVertex
100
AcDb2dVertex
 10
142.5828013827941
 20
-117.3404255025805
 30
0.0
  0
VERTEX
  5
CF
330
CD
100
AcDbEntity
  8
Layer 1
 62
   240
420
 16717136
370
    70
100
AcDbVertex
100
AcDb2dVertex
 10
137.5828013840446
 20
-117.3404255025805
 30
0.0
  0
VERTEX
  5
D0
330
CD
100
AcDbEntity
  8
Layer 1
 62
   240
420
 16717136
370
    70
100
AcDbVertex
100
AcDb2dVertex
 10
137.5828013840446
 20
-112.3404255038303
 30
0.0
  0
VERTEX
  5
D1
330
CD
100
AcDbEntity
  8
Layer 1
 62
   240
420
 16717136
370
    70
100
AcDbVertex
100
AcDb2dVertex
 10
142.5828013827941
 20
-112.3404255038303
 30
0.0
  0
VERTEX
  5
D2
330
CD
100
AcDbEntity
  8
Layer 1
 62
   240
420
 16717136
370
    70
100
AcDbVertex
100
AcDb2dVertex
 10
142.5828013827941
 20
-117.3404255025805
 30
0.0
  0
SEQEND
  5
D3
330
CD
100
AcDbEntity
  8
Layer 1
 62
   240
420
 16717136
370
    70
  0
POLYLINE
  5
D4
330
1F
100
AcDbEntity
  8
Layer 1
 62
   240
420
 16717136
370
    70
100
AcDb2dPolyline
 66
     1
 10
0.0
 20
0.0
 30
0.0
  0
VERTEX
  5
D5
330
D4
100
AcDbEntity
  8
Layer 1
 62
   240
420
 16717136
370
    70
100
AcDbVertex
100
AcDb2dVertex
 10
124.5686169901346
 20
-123.6453900400118
 30
0.0
  0
VERTEX
  5
D6
330
D4
100
AcDbEntity
  8
Layer 1
 62
   240
420
 16717136
370
    70
100
AcDbVertex
100
AcDb2dVertex
 10
119.5686169913851
 20
-123.6453900400118
 30
0.0
  0
VERTEX
  5
D7
330
D4
100
AcDbEntity
  8
Layer 1
 62
   240
420
 16717136
370
    70
100
AcDbVertex
100
AcDb2dVertex
 10
119.5686169913851
 20
-118.6453900412617
 30
0.0
  0
VERTEX
  5
D8
330
D4
100
AcDbEntity
  8
Layer 1
 62
   240
420
 16717136
370
    70
100
AcDbVertex
100
AcDb2dVertex
 10
124.5686169901346
 20
-118.6453900412617
 30
0.0
  0
VERTEX
  5
D9
330
D4
100
AcDbEntity
  8
Layer 1
 62
   240
420
 16717136
370
    70
100
AcDbVertex
100
AcDb2dVertex
 10
124.5686169901346
 20
-123.6453900400118
 30
0.0
  0
SEQEND
  5
DA
330
D4
100
AcDbEntity
  8
Layer 1
 62
   240
420
 16717136
370
    70
  0
POLYLINE
  5
DB
330
1F
100
AcDbEntity
  8
Layer 1
 62
   240
420
 16717136
370
    70
100
AcDb2dPolyline
 66
     1
 10
0.0
 20
0.0
 30
0.0
  0
VERTEX
  5
DC
330
DB
100
AcDbEntity
  8
Layer 1
 62
   240
420
 16717136
370
    70
100
AcDbVertex
100
AcDb2dVertex
 10
146.0955673393625
 20
-127.1581559965806
 30
0.0
  0
VERTEX
  5
DD
330
DB
100
AcDbEntity
  8
Layer 1
 62
   240
420
 16717136
370
    70
100
AcDbVertex
100
AcDb2dVertex
 10
141.095567340613
 20
-127.1581559965806
 30
0.0
  0
VERTEX
  5
DE
330
DB
100
AcDbEntity
  8
Layer 1
 62
   240
420
 16717136
370
    70
100
AcDbVertex
100
AcDb2dVertex
 10
141.095567340613
 20
-122.1581559978305
 30
0.0
  0
VERTEX
  5
DF
330
DB
100
AcDbEntity
  8
Layer 1
 62
   240
420
 16717136
370
    70
100
AcDbVertex
100
AcDb2dVertex
 10
146.0955673393625
 20
-122.1581559978305
 30
0.0
  0
VERTEX
  5
E0
330
DB
100
AcDbEntity
  8
Layer 1
 62
   240
420
 16717136
370
    70
100
AcDbVertex
100
AcDb2dVertex
 10
146.0955673393625
 20
-127.1581559965806
 30
0.0
  0
SEQEND
  5
E1
330
DB
100
AcDbEntity
  8
Layer 1
 62
   240
420
 16717136
370
    70
  0
POLYLINE
  5
E2
330
1F
100
AcDbEntity
  8
Layer 1
 62
   240
420
 16717136
370
    70
100
AcDb2dPolyline
 66
     1
 10
0.0
 20
0.0
 30
0.0
  0
VERTEX
  5
E3
330
E2
100
AcDbEntity
  8
Layer 1
 62
   240
420
 16717136
370
    70
100
AcDbVertex
100
AcDb2dVertex
 10
113.9402481984656
 20
-128.6893616699566
 30
0.0
  0
VERTEX
  5
E4
330
E2
100
AcDbEntity
  8
Layer 1
 62
   240
420
 16717136
370
    70
100
AcDbVertex
100
AcDb2dVertex
 10
108.9402481997161
 20
-128.6893616699566
 30
0.0
  0
VERTEX
  5
E5
330
E2
100
AcDbEntity
  8
Layer 1
 62
   240
420
 16717136
370
    70
100
AcDbVertex
100
AcDb2dVertex
 10
108.9402481997161
 20
-123.6893616712064
 30
0.0
  0
VERTEX
  5
E6
330
E2
100
AcDbEntity
  8
Layer 1
 62
   240
420
 16717136
370
    70
100
AcDbVertex
100
AcDb2dVertex
 10
113.9402481984656
 20
-123.6893616712064
 30
0.0
  0
VERTEX
  5
E7
330
E2
100
AcDbEntity
  8
Layer 1
 62
   240
420
 16717136
370
    70
100
AcDbVertex
100
AcDb2dVertex
 10
113.9402481984656
 20
-128.6893616699566
 30
0.0
  0
SEQEND
  5
E8
330
E2
100
AcDbEntity
  8
Layer 1
 62
   240
420
 16717136
370
    70
  0
POLYLINE
  5
E9
330
1F
100
AcDbEntity
  8
Layer 1
 62
   240
420
 16717136
370
    70
100
AcDb2dPolyline
 66
     1
 10
0.0
 20
0.0
 30
0.0
  0
VERTEX
  5
EA
330
E9
100
AcDbEntity
  8
Layer 1
 62
   240
420
 16717136
370
    70
100
AcDbVertex
100
AcDb2dVertex
 10
103.5820921726861
 20
-125.6269503232046
 30
0.0
  0
VERTEX
  5
EB
330
E9
100
AcDbEntity
  8
Layer 1
 62
   240
420
 16717136
370
    70
100
AcDbVertex
100
AcDb2dVertex
 10
98.58209217393656
 20
-125.6269503232046
 30
0.0
  0
VERTEX
  5
EC
330
E9
100
AcDbEntity
  8
Layer 1
 62
   240
420
 16717136
370
    70
100
AcDbVertex
100
AcDb2dVertex
 10
98.58209217393656
 20
-120.6269503244545
 30
0.0
  0
VERTEX
  5
ED
330
E9
100
AcDbEntity
  8
Layer 1
 62
   240
420
 16717136
370
    70
100
AcDbVertex
100
AcDb2dVertex
 10
103.5820921726861
 20
-120.6269503244545
 30
0.0
  0
VERTEX
  5
EE
330
E9
100
AcDbEntity
  8
Layer 1
 62
   240
420
 16717136
370
    70
100
AcDbVertex
100
AcDb2dVertex
 10
103.5820921726861
 20
-125.6269503232046
 30
0.0
  0
SEQEND
  5
EF
330
E9
100
AcDbEntity
  8
Layer 1
 62
   240
420
 16717136
370
    70
  0
POLYLINE
  5
F0
330
1F
100
AcDbEntity
  8
Layer 1
 62
   240
420
 16717136
370
    70
100
AcDb2dPolyline
 66
     1
 10
0.0
 20
0.0
 30
0.0
  0
VERTEX
  5
F1
330
F0
100
AcDbEntity
  8
Layer 1
 62
   240
420
 16717136
370
    70
100
AcDbVertex
100
AcDb2dVertex
 10
89.54604016673828
 20
-121.7539006787813
 30
0.0
  0
VERTEX
  5
F2
330
F0
100
AcDbEntity
  8
Layer 1
 62
   240
420
 16717136
370
    70
100
AcDbVertex
100
AcDb2dVertex
 10
84.54604016798878
 20
-121.7539006787813
 30
0.0
  0
VERTEX
  5
F3
330
F0
100
AcDbEntity
  8
Layer 1
 62
   240
420
 16717136
370
    70
100
AcDbVertex
100
AcDb2dVertex
 10
84.54604016798878
 20
-116.7539006800312
 30
0.0
  0
VERTEX
  5
F4
330
F0
100
AcDbEntity
  8
Layer 1
 62
   240
420
 16717136
370
    70
100
AcDbVertex
100
AcDb2dVertex
 10
89.54604016673828
 20
-116.7539006800312
 30
0.0
  0
VERTEX
  5
F5
330
F0
100
AcDbEntity
  8
Layer 1
 62
   240
420
 16717136
370
    70
100
AcDbVertex
100
AcDb2dVertex
 10
89.54604016673828
 20
-121.7539006787813
 30
0.0
  0
SEQEND
  5
F6
330
F0
100
AcDbEntity
  8
Layer 1
 62
   240
420
 16717136
370
    70
  0
POLYLINE
  5
F7
330
1F
100
AcDbEntity
  8
Layer 1
 62
   240
420
 16717136
370
    70
100
AcDb2dPolyline
 66
     1
 10
0.0
 20
0.0
 30
0.0
  0
VERTEX
  5
F8
330
F7
100
AcDbEntity
  8
Layer 1
 62
   240
420
 16717136
370
    70
100
AcDbVertex
100
AcDb2dVertex
 10
81.94255317100384
 20
-128.2164893296484
 30
0.0
  0
VERTEX
  5
F9
330
F7
100
AcDbEntity
  8
Layer 1
 62
   240
420
 16717136
370
    70
100
AcDbVertex
100
AcDb2dVertex
 10
76.94255317225434
 20
-128.2164893296484
 30
0.0
  0
VERTEX
  5
FA
330
F7
100
AcDbEntity
  8
Layer 1
 62
   240
420
 16717136
370
    70
100
AcDbVertex
100
AcDb2dVertex
 10
76.94255317225434
 20
-123.2164893308983
 30
0.0
  0
VERTEX
  5
FB
330
F7
100
AcDbEntity
  8
Layer 1
 62
   240
420
 16717136
370
    70
100
AcDbVertex
100
AcDb2dVertex
 10
81.94255317100384
 20
-123.2164893308983
 30
0.0
  0
VERTEX
  5
FC
330
F7
100
AcDbEntity
  8
Layer 1
 62
   240
420
 16717136
370
    70
100
AcDbVertex
100
AcDb2dVertex
 10
81.94255317100384
 20
-128.2164893296484
 30
0.0
  0
SEQEND
  5
FD
330
F7
100
AcDbEntity
  8
Layer 1
 62
   240
420
 16717136
370
    70
  0
POLYLINE
  5
FE
330
1F
100
AcDbEntity
  8
Layer 1
 62
   240
420
 16717136
370
    70
100
AcDb2dPolyline
 66
     1
 10
0.0
 20
0.0
 30
0.0
  0
VERTEX
  5
FF
330
FE
100
AcDbEntity
  8
Layer 1
 62
   240
420
 16717136
370
    70
100
AcDbVertex
100
AcDb2dVertex
 10
72.89042551369263
 20
-132.4948581229052
 30
0.0
  0
VERTEX
  5
100
330
FE
100
AcDbEntity
  8
Layer 1
 62
   240
420
 16717136
370
    70
100
AcDbVertex
100
AcDb2dVertex
 10
67.89042551494313
 20
-132.4948581229052
 30
0.0
  0
VERTEX
  5
101
330
FE
100
AcDbEntity
  8
Layer 1
 62
   240
420
 16717136
370
    70
100
AcDbVertex
100
AcDb2dVertex
 10
67.89042551494313
 20
-127.494858124155
 30
0.0
  0
VERTEX
  5
102
330
FE
100
AcDbEntity
  8
Layer 1
 62
   240
420
 16717136
370
    70
100
AcDbVertex
100
AcDb2dVertex
 10
72.89042551369263
 20
-127.494858124155
 30
0.0
  0
VERTEX
  5
103
330
FE
100
AcDbEntity
  8
Layer 1
 62
   240
420
 16717136
370
    70
100
AcDbVertex
100
AcDb2dVertex
 10
72.89042551369263
 20
-132.4948581229052
 30
0.0
  0
SEQEND
  5
104
330
FE
100
AcDbEntity
  8
Layer 1
 62
   240
420
 16717136
370
    70
  0
POLYLINE
  5
105
330
1F
100
AcDbEntity
  8
Layer 1
 62
   240
420
 16717136
370
    70
100
AcDb2dPolyline
 66
     1
 10
0.0
 20
0.0
 30
0.0
  0
VERTEX
  5
106
330
105
100
AcDbEntity
  8
Layer 1
 62
   240
420
 16717136
370
    70
100
AcDbVertex
100
AcDb2dVertex
 10
64.4687943101241
 20
-136.4129432283087
 30
0.0
  0
VERTEX
  5
107
330
105
100
AcDbEntity
  8
Layer 1
 62
   240
420
 16717136
370
    70
100
AcDbVertex
100
AcDb2dVertex
 10
59.46879431137459
 20
-136.4129432283087
 30
0.0
  0
VERTEX
  5
108
330
105
100
AcDbEntity
  8
Layer 1
 62
   240
420
 16717136
370
    70
100
AcDbVertex
100
AcDb2dVertex
 10
59.46879431137459
 20
-131.4129432295586
 30
0.0
  0
VERTEX
  5
109
330
105
100
AcDbEntity
  8
Layer 1
 62
   240
420
 16717136
370
    70
100
AcDbVertex
100
AcDb2dVertex
 10
64.4687943101241
 20
-131.4129432295586
 30
0.0
  0
VERTEX
  5
10A
330
105
100
AcDbEntity
  8
Layer 1
 62
   240
420
 16717136
370
    70
100
AcDbVertex
100
AcDb2dVertex
 10
64.4687943101241
 20
-136.4129432283087
 30
0.0
  0
SEQEND
  5
10B
330
105
100
AcDbEntity
  8
Layer 1
 62
   240
420
 16717136
370
    70
  0
POLYLINE
  5
10C
330
1F
100
AcDbEntity
  8
Layer 1
 62
   240
420
 16717136
370
    70
100
AcDb2dPolyline
 66
     1
 10
0.0
 20
0.0
 30
0.0
  0
VERTEX
  5
10D
330
10C
100
AcDbEntity
  8
Layer 1
 62
   240
420
 16717136
370
    70
100
AcDbVertex
100
AcDb2dVertex
 10
104.2276004467564
 20
-137.18605197516
 30
0.0
  0
VERTEX
  5
10E
330
10C
100
AcDbEntity
  8
Layer 1
 62
   240
420
 16717136
370
    70
100
AcDbVertex
100
AcDb2dVertex
 10
99.22760044800691
 20
-137.18605197516
 30
0.0
  0
VERTEX
  5
10F
330
10C
100
AcDbEntity
  8
Layer 1
 62
   240
420
 16717136
370
    70
100
AcDbVertex
100
AcDb2dVertex
 10
99.22760044800691
 20
-132.1860519764099
 30
0.0
  0
VERTEX
  5
110
330
10C
100
AcDbEntity
  8
Layer 1
 62
   240
420
 16717136
370
    70
100
AcDbVertex
100
AcDb2dVertex
 10
104.2276004467564
 20
-132.1860519764099
 30
0.0
  0
VERTEX
  5
111
330
10C
100
AcDbEntity
  8
Layer 1
 62
   240
420
 16717136
370
    70
100
AcDbVertex
100
AcDb2dVertex
 10
104.2276004467564
 20
-137.18605197516
 30
0.0
  0
SEQEND
  5
112
330
10C
100
AcDbEntity
  8
Layer 1
 62
   240
420
 16717136
370
    70
  0
POLYLINE
  5
113
330
1F
100
AcDbEntity
  8
Layer 1
 62
   240
420
 16717136
370
    70
100
AcDb2dPolyline
 66
     1
 10
0.0
 20
0.0
 30
0.0
  0
VERTEX
  5
114
330
113
100
AcDbEntity
  8
Layer 1
 62
   240
420
 16717136
370
    70
100
AcDbVertex
100
AcDb2dVertex
 10
114.7283687656444
 20
-139.8356382629139
 30
0.0
  0
VERTEX
  5
115
330
113
100
AcDbEntity
  8
Layer 1
 62
   240
420
 16717136
370
    70
100
AcDbVertex
100
AcDb2dVertex
 10
109.7283687668948
 20
-139.8356382629139
 30
0.0
  0
VERTEX
  5
116
330
113
100
AcDbEntity
  8
Layer 1
 62
   240
420
 16717136
370
    70
100
AcDbVertex
100
AcDb2dVertex
 10
109.7283687668948
 20
-134.8356382641638
 30
0.0
  0
VERTEX
  5
117
330
113
100
AcDbEntity
  8
Layer 1
 62
   240
420
 16717136
370
    70
100
AcDbVertex
100
AcDb2dVertex
 10
114.7283687656444
 20
-134.8356382641638
 30
0.0
  0
VERTEX
  5
118
330
113
100
AcDbEntity
  8
Layer 1
 62
   240
420
 16717136
370
    70
100
AcDbVertex
100
AcDb2dVertex
 10
114.7283687656444
 20
-139.8356382629139
 30
0.0
  0
SEQEND
  5
119
330
113
100
AcDbEntity
  8
Layer 1
 62
   240
420
 16717136
370
    70
  0
POLYLINE
  5
11A
330
1F
100
AcDbEntity
  8
Layer 1
 62
   240
420
 16717136
370
    70
100
AcDb2dPolyline
 66
     1
 10
0.0
 20
0.0
 30
0.0
  0
VERTEX
  5
11B
330
11A
100
AcDbEntity
  8
Layer 1
 62
   240
420
 16717136
370
    70
100
AcDbVertex
100
AcDb2dVertex
 10
125.2216311743689
 20
-134.9267730159142
 30
0.0
  0
VERTEX
  5
11C
330
11A
100
AcDbEntity
  8
Layer 1
 62
   240
420
 16717136
370
    70
100
AcDbVertex
100
AcDb2dVertex
 10
120.2216311756194
 20
-134.9267730159142
 30
0.0
  0
VERTEX
  5
11D
330
11A
100
AcDbEntity
  8
Layer 1
 62
   240
420
 16717136
370
    70
100
AcDbVertex
100
AcDb2dVertex
 10
120.2216311756194
 20
-129.926773017164
 30
0.0
  0
VERTEX
  5
11E
330
11A
100
AcDbEntity
  8
Layer 1
 62
   240
420
 16717136
370
    70
100
AcDbVertex
100
AcDb2dVertex
 10
125.2216311743689
 20
-129.926773017164
 30
0.0
  0
VERTEX
  5
11F
330
11A
100
AcDbEntity
  8
Layer 1
 62
   240
420
 16717136
370
    70
100
AcDbVertex
100
AcDb2dVertex
 10
125.2216311743689
 20
-134.9267730159142
 30
0.0
  0
SEQEND
  5
120
330
11A
100
AcDbEntity
  8
Layer 1
 62
   240
420
 16717136
370
    70
  0
POLYLINE
  5
121
330
1F
100
AcDbEntity
  8
Layer 1
 62
   240
420
 16717136
370
    70
100
AcDb2dPolyline
 66
     1
 10
0.0
 20
0.0
 30
0.0
  0
VERTEX
  5
122
330
121
100
AcDbEntity
  8
Layer 1
 62
   240
420
 16717136
370
    70
100
AcDbVertex
100
AcDb2dVertex
 10
126.122340394002
 20
-146.2757091832893
 30
0.0
  0
VERTEX
  5
123
330
121
100
AcDbEntity
  8
Layer 1
 62
   240
420
 16717136
370
    70
100
AcDbVertex
100
AcDb2dVertex
 10
121.1223403952524
 20
-146.2757091832893
 30
0.0
  0
VERTEX
  5
124
330
121
100
AcDbEntity
  8
Layer 1
 62
   240
420
 16717136
370
    70
100
AcDbVertex
100
AcDb2dVertex
 10
121.1223403952524
 20
-141.2757091845392
 30
0.0
  0
VERTEX
  5
125
330
121
100
AcDbEntity
  8
Layer 1
 62
   240
420
 16717136
370
    70
100
AcDbVertex
100
AcDb2dVertex
 10
126.122340394002
 20
-141.2757091845392
 30
0.0
  0
VERTEX
  5
126
330
121
100
AcDbEntity
  8
Layer 1
 62
   240
420
 16717136
370
    70
100
AcDbVertex
100
AcDb2dVertex
 10
126.122340394002
 20
-146.2757091832893
 30
0.0
  0
SEQEND
  5
127
330
121
100
AcDbEntity
  8
Layer 1
 62
   240
420
 16717136
370
    70
  0
POLYLINE
  5
128
330
1F
100
AcDbEntity
  8
Layer 1
 62
   240
420
 16717136
370
    70
100
AcDb2dPolyline
 66
     1
 10
0.0
 20
0.0
 30
0.0
  0
VERTEX
  5
129
330
128
100
AcDbEntity
  8
Layer 1
 62
   240
420
 16717136
370
    70
100
AcDbVertex
100
AcDb2dVertex
 10
105.1808510375352
 20
-149.3831559910224
 30
0.0
  0
VERTEX
  5
12A
330
128
100
AcDbEntity
  8
Layer 1
 62
   240
420
 16717136
370
    70
100
AcDbVertex
100
AcDb2dVertex
 10
100.1808510387857
 20
-149.3831559910224
 30
0.0
  0
VERTEX
  5
12B
330
128
100
AcDbEntity
  8
Layer 1
 62
   240
420
 16717136
370
    70
100
AcDbVertex
100
AcDb2dVertex
 10
100.1808510387857
 20
-144.3831559922723
 30
0.0
  0
VERTEX
  5
12C
330
128
100
AcDbEntity
  8
Layer 1
 62
   240
420
 16717136
370
    70
100
AcDbVertex
100
AcDb2dVertex
 10
105.1808510375352
 20
-144.3831559922723
 30
0.0
  0
VERTEX
  5
12D
330
128
100
AcDbEntity
  8
Layer 1
 62
   240
420
 16717136
370
    70
100
AcDbVertex
100
AcDb2dVertex
 10
105.1808510375352
 20
-149.3831559910224
 30
0.0
  0
SEQEND
  5
12E
330
128
100
AcDbEntity
  8
Layer 1
 62
   240
420
 16717136
370
    70
  0
POLYLINE
  5
12F
330
1F
100
AcDbEntity
  8
Layer 1
 62
   240
420
 16717136
370
    70
100
AcDb2dPolyline
 66
     1
 10
0.0
 20
0.0
 30
0.0
  0
VERTEX
  5
130
330
12F
100
AcDbEntity
  8
Layer 1
 62
   240
420
 16717136
370
    70
100
AcDbVertex
100
AcDb2dVertex
 10
115.4489361413515
 20
-150.7792552814534
 30
0.0
  0
VERTEX
  5
131
330
12F
100
AcDbEntity
  8
Layer 1
 62
   240
420
 16717136
370
    70
100
AcDbVertex
100
AcDb2dVertex
 10
110.448936142602
 20
-150.7792552814534
 30
0.0
  0
VERTEX
  5
132
330
12F
100
AcDbEntity
  8
Layer 1
 62
   240
420
 16717136
370
    70
100
AcDbVertex
100
AcDb2dVertex
 10
110.448936142602
 20
-145.7792552827032
 30
0.0
  0
VERTEX
  5
133
330
12F
100
AcDbEntity
  8
Layer 1
 62
   240
420
 16717136
370
    70
100
AcDbVertex
100
AcDb2dVertex
 10
115.4489361413515
 20
-145.7792552827032
 30
0.0
  0
VERTEX
  5
134
330
12F
100
AcDbEntity
  8
Layer 1
 62
   240
420
 16717136
370
    70
100
AcDbVertex
100
AcDb2dVertex
 10
115.4489361413515
 20
-150.7792552814534
 30
0.0
  0
SEQEND
  5
135
330
12F
100
AcDbEntity
  8
Layer 1
 62
   240
420
 16717136
370
    70
  0
POLYLINE
  5
136
330
1F
100
AcDbEntity
  8
Layer 1
 62
   240
420
 16717136
370
    70
100
AcDb2dPolyline
 66
     1
 10
0.0
 20
0.0
 30
0.0
  0
VERTEX
  5
137
330
136
100
AcDbEntity
  8
Layer 1
 62
   240
420
 16717136
370
    70
100
AcDbVertex
100
AcDb2dVertex
 10
100.4971630954434
 20
-159.0657801020769
 30
0.0
  0
VERTEX
  5
138
330
136
100
AcDbEntity
  8
Layer 1
 62
   240
420
 16717136
370
    70
100
AcDbVertex
100
AcDb2dVertex
 10
95.49716309669387
 20
-159.0657801020769
 30
0.0
  0
VERTEX
  5
139
330
136
100
AcDbEntity
  8
Layer 1
 62
   240
420
 16717136
370
    70
100
AcDbVertex
100
AcDb2dVertex
 10
95.49716309669387
 20
-154.0657801033268
 30
0.0
  0
VERTEX
  5
13A
330
136
100
AcDbEntity
  8
Layer 1
 62
   240
420
 16717136
370
    70
100
AcDbVertex
100
AcDb2dVertex
 10
100.4971630954434
 20
-154.0657801033268
 30
0.0
  0
VERTEX
  5
13B
330
136
100
AcDbEntity
  8
Layer 1
 62
   240
420
 16717136
370
    70
100
AcDbVertex
100
AcDb2dVertex
 10
100.4971630954434
 20
-159.0657801020769
 30
0.0
  0
SEQEND
  5
13C
330
136
100
AcDbEntity
  8
Layer 1
 62
   240
420
 16717136
370
    70
  0
POLYLINE
  5
13D
330
1F
100
AcDbEntity
  8
Layer 1
 62
   240
420
 16717136
370
    70
100
AcDb2dPolyline
 66
     1
 10
0.0
 20
0.0
 30
0.0
  0
VERTEX
  5
13E
330
13D
100
AcDbEntity
  8
Layer 1
 62
   240
420
 16717136
370
    70
100
AcDbVertex
100
AcDb2dVertex
 10
115.9893616731309
 20
-162.1281914488295
 30
0.0
  0
VERTEX
  5
13F
330
13D
100
AcDbEntity
  8
Layer 1
 62
   240
420
 16717136
370
    70
100
AcDbVertex
100
AcDb2dVertex
 10
110.9893616743814
 20
-162.1281914488295
 30
0.0
  0
VERTEX
  5
140
330
13D
100
AcDbEntity
  8
Layer 1
 62
   240
420
 16717136
370
    70
100
AcDbVertex
100
AcDb2dVertex
 10
110.9893616743814
 20
-157.1281914500788
 30
0.0
  0
VERTEX
  5
141
330
13D
100
AcDbEntity
  8
Layer 1
 62
   240
420
 16717136
370
    70
100
AcDbVertex
100
AcDb2dVertex
 10
115.9893616731309
 20
-157.1281914500788
 30
0.0
  0
VERTEX
  5
142
330
13D
100
AcDbEntity
  8
Layer 1
 62
   240
420
 16717136
370
    70
100
AcDbVertex
100
AcDb2dVertex
 10
115.9893616731309
 20
-162.1281914488295
 30
0.0
  0
SEQEND
  5
143
330
13D
100
AcDbEntity
  8
Layer 1
 62
   240
420
 16717136
370
    70
  0
POLYLINE
  5
144
330
1F
100
AcDbEntity
  8
Layer 1
 62
   240
420
 16717136
370
    70
100
AcDb2dPolyline
 66
     1
 10
0.0
 20
0.0
 30
0.0
  0
VERTEX
  5
145
330
144
100
AcDbEntity
  8
Layer 1
 62
   240
420
 16717136
370
    70
100
AcDbVertex
100
AcDb2dVertex
 10
130.8510637970749
 20
-157.7597517336089
 30
0.0
  0
VERTEX
  5
146
330
144
100
AcDbEntity
  8
Layer 1
 62
   240
420
 16717136
370
    70
100
AcDbVertex
100
AcDb2dVertex
 10
125.8510637983254
 20
-157.7597517336089
 30
0.0
  0
VERTEX
  5
147
330
144
100
AcDbEntity
  8
Layer 1
 62
   240
420
 16717136
370
    70
100
AcDbVertex
100
AcDb2dVertex
 10
125.8510637983254
 20
-152.7597517348594
 30
0.0
  0
VERTEX
  5
148
330
144
100
AcDbEntity
  8
Layer 1
 62
   240
420
 16717136
370
    70
100
AcDbVertex
100
AcDb2dVertex
 10
130.8510637970749
 20
-152.7597517348594
 30
0.0
  0
VERTEX
  5
149
330
144
100
AcDbEntity
  8
Layer 1
 62
   240
420
 16717136
370
    70
100
AcDbVertex
100
AcDb2dVertex
 10
130.8510637970749
 20
-157.7597517336089
 30
0.0
  0
SEQEND
  5
14A
330
144
100
AcDbEntity
  8
Layer 1
 62
   240
420
 16717136
370
    70
  0
POLYLINE
  5
14B
330
1F
100
AcDbEntity
  8
Layer 1
 62
   240
420
 16717136
370
    70
100
AcDb2dPolyline
 66
     1
 10
0.0
 20
0.0
 30
0.0
  0
VERTEX
  5
14C
330
14B
100
AcDbEntity
  8
Layer 1
 62
   240
420
 16717136
370
    70
100
AcDbVertex
100
AcDb2dVertex
 10
95.72340423138799
 20
-168.7484042131308
 30
0.0
  0
VERTEX
  5
14D
330
14B
100
AcDbEntity
  8
Layer 1
 62
   240
420
 16717136
370
    70
100
AcDbVertex
100
AcDb2dVertex
 10
90.72340423263849
 20
-168.7484042131308
 30
0.0
  0
VERTEX
  5
14E
330
14B
100
AcDbEntity
  8
Layer 1
 62
   240
420
 16717136
370
    70
100
AcDbVertex
100
AcDb2dVertex
 10
90.72340423263849
 20
-163.74840421438
 30
0.0
  0
VERTEX
  5
14F
330
14B
100
AcDbEntity
  8
Layer 1
 62
   240
420
 16717136
370
    70
100
AcDbVertex
100
AcDb2dVertex
 10
95.72340423138799
 20
-163.74840421438
 30
0.0
  0
VERTEX
  5
150
330
14B
100
AcDbEntity
  8
Layer 1
 62
   240
420
 16717136
370
    70
100
AcDbVertex
100
AcDb2dVertex
 10
95.72340423138799
 20
-168.7484042131308
 30
0.0
  0
SEQEND
  5
151
330
14B
100
AcDbEntity
  8
Layer 1
 62
   240
420
 16717136
370
    70
  0
POLYLINE
  5
152
330
1F
100
AcDbEntity
  8
Layer 1
 62
   240
420
 16717136
370
    70
100
AcDb2dPolyline
 66
     1
 10
0.0
 20
0.0
 30
0.0
  0
VERTEX
  5
153
330
152
100
AcDbEntity
  8
Layer 1
 62
   240
420
 16717136
370
    70
100
AcDbVertex
100
AcDb2dVertex
 10
110.1797872064972
 20
-171.8558510208649
 30
0.0
  0
VERTEX
  5
154
330
152
100
AcDbEntity
  8
Layer 1
 62
   240
420
 16717136
370
    70
100
AcDbVertex
100
AcDb2dVertex
 10
105.1797872077477
 20
-171.8558510208649
 30
0.0
  0
VERTEX
  5
155
330
152
100
AcDbEntity
  8
Layer 1
 62
   240
420
 16717136
370
    70
100
AcDbVertex
100
AcDb2dVertex
 10
105.1797872077477
 20
-166.8558510221141
 30
0.0
  0
VERTEX
  5
156
330
152
100
AcDbEntity
  8
Layer 1
 62
   240
420
 16717136
370
    70
100
AcDbVertex
100
AcDb2dVertex
 10
110.1797872064972
 20
-166.8558510221141
 30
0.0
  0
VERTEX
  5
157
330
152
100
AcDbEntity
  8
Layer 1
 62
   240
420
 16717136
370
    70
100
AcDbVertex
100
AcDb2dVertex
 10
110.1797872064972
 20
-171.8558510208649
 30
0.0
  0
SEQEND
  5
158
330
152
100
AcDbEntity
  8
Layer 1
 62
   240
420
 16717136
370
    70
  0
POLYLINE
  5
159
330
1F
100
AcDbEntity
  8
Layer 1
 62
   240
420
 16717136
370
    70
100
AcDb2dPolyline
 66
     1
 10
0.0
 20
0.0
 30
0.0
  0
VERTEX
  5
15A
330
159
100
AcDbEntity
  8
Layer 1
 62
   240
420
 16717136
370
    70
100
AcDbVertex
100
AcDb2dVertex
 10
121.1684396860198
 20
-171.7207446379198
 30
0.0
  0
VERTEX
  5
15B
330
159
100
AcDbEntity
  8
Layer 1
 62
   240
420
 16717136
370
    70
100
AcDbVertex
100
AcDb2dVertex
 10
116.1684396872703
 20
-171.7207446379198
 30
0.0
  0
VERTEX
  5
15C
330
159
100
AcDbEntity
  8
Layer 1
 62
   240
420
 16717136
370
    70
100
AcDbVertex
100
AcDb2dVertex
 10
116.1684396872703
 20
-166.7207446391691
 30
0.0
  0
VERTEX
  5
15D
330
159
100
AcDbEntity
  8
Layer 1
 62
   240
420
 16717136
370
    70
100
AcDbVertex
100
AcDb2dVertex
 10
121.1684396860198
 20
-166.7207446391691
 30
0.0
  0
VERTEX
  5
15E
330
159
100
AcDbEntity
  8
Layer 1
 62
   240
420
 16717136
370
    70
100
AcDbVertex
100
AcDb2dVertex
 10
121.1684396860198
 20
-171.7207446379198
 30
0.0
  0
SEQEND
  5
15F
330
159
100
AcDbEntity
  8
Layer 1
 62
   240
420
 16717136
370
    70
  0
POLYLINE
  5
160
330
1F
100
AcDbEntity
  8
Layer 1
 62
   240
420
 16717136
370
    70
100
AcDb2dPolyline
 66
     1
 10
0.0
 20
0.0
 30
0.0
  0
VERTEX
  5
161
330
160
100
AcDbEntity
  8
Layer 1
 62
   240
420
 16717136
370
    70
100
AcDbVertex
100
AcDb2dVertex
 10
135.5797872001479
 20
-168.7484042131308
 30
0.0
  0
VERTEX
  5
162
330
160
100
AcDbEntity
  8
Layer 1
 62
   240
420
 16717136
370
    70
100
AcDbVertex
100
AcDb2dVertex
 10
130.5797872013984
 20
-168.7484042131308
 30
0.0
  0
VERTEX
  5
163
330
160
100
AcDbEntity
  8
Layer 1
 62
   240
420
 16717136
370
    70
100
AcDbVertex
100
AcDb2dVertex
 10
130.5797872013984
 20
-163.74840421438
 30
0.0
  0
VERTEX
  5
164
330
160
100
AcDbEntity
  8
Layer 1
 62
   240
420
 16717136
370
    70
100
AcDbVertex
100
AcDb2dVertex
 10
135.5797872001479
 20
-163.74840421438
 30
0.0
  0
VERTEX
  5
165
330
160
100
AcDbEntity
  8
Layer 1
 62
   240
420
 16717136
370
    70
100
AcDbVertex
100
AcDb2dVertex
 10
135.5797872001479
 20
-168.7484042131308
 30
0.0
  0
SEQEND
  5
166
330
160
100
AcDbEntity
  8
Layer 1
 62
   240
420
 16717136
370
    70
  0
POLYLINE
  5
167
330
1F
100
AcDbEntity
  8
Layer 1
 62
   240
420
 16717136
370
    70
100
AcDb2dPolyline
 66
     1
 10
0.0
 20
0.0
 30
0.0
  0
VERTEX
  5
168
330
167
100
AcDbEntity
  8
Layer 1
 62
   240
420
 16717136
370
    70
100
AcDbVertex
100
AcDb2dVertex
 10
90.94964536733293
 20
-178.3859928632038
 30
0.0
  0
VERTEX
  5
169
330
167
100
AcDbEntity
  8
Layer 1
 62
   240
420
 16717136
370
    70
100
AcDbVertex
100
AcDb2dVertex
 10
85.94964536858343
 20
-178.3859928632038
 30
0.0
  0
VERTEX
  5
16A
330
167
100
AcDbEntity
  8
Layer 1
 62
   240
420
 16717136
370
    70
100
AcDbVertex
100
AcDb2dVertex
 10
85.94964536858343
 20
-173.385992864453
 30
0.0
  0
VERTEX
  5
16B
330
167
100
AcDbEntity
  8
Layer 1
 62
   240
420
 16717136
370
    70
100
AcDbVertex
100
AcDb2dVertex
 10
90.94964536733293
 20
-173.385992864453
 30
0.0
  0
VERTEX
  5
16C
330
167
100
AcDbEntity
  8
Layer 1
 62
   240
420
 16717136
370
    70
100
AcDbVertex
100
AcDb2dVertex
 10
90.94964536733293
 20
-178.3859928632038
 30
0.0
  0
SEQEND
  5
16D
330
167
100
AcDbEntity
  8
Layer 1
 62
   240
420
 16717136
370
    70
  0
POLYLINE
  5
16E
330
1F
100
AcDbEntity
  8
Layer 1
 62
   240
420
 16717136
370
    70
100
AcDb2dPolyline
 66
     1
 10
0.0
 20
0.0
 30
0.0
  0
VERTEX
  5
16F
330
16E
100
AcDbEntity
  8
Layer 1
 62
   240
420
 16717136
370
    70
100
AcDbVertex
100
AcDb2dVertex
 10
104.5053191228095
 20
-181.4934396709379
 30
0.0
  0
VERTEX
  5
170
330
16E
100
AcDbEntity
  8
Layer 1
 62
   240
420
 16717136
370
    70
100
AcDbVertex
100
AcDb2dVertex
 10
99.50531912405998
 20
-181.4934396709379
 30
0.0
  0
VERTEX
  5
171
330
16E
100
AcDbEntity
  8
Layer 1
 62
   240
420
 16717136
370
    70
100
AcDbVertex
100
AcDb2dVertex
 10
99.50531912405998
 20
-176.4934396721871
 30
0.0
  0
VERTEX
  5
172
330
16E
100
AcDbEntity
  8
Layer 1
 62
   240
420
 16717136
370
    70
100
AcDbVertex
100
AcDb2dVertex
 10
104.5053191228095
 20
-176.4934396721871
 30
0.0
  0
VERTEX
  5
173
330
16E
100
AcDbEntity
  8
Layer 1
 62
   240
420
 16717136
370
    70
100
AcDbVertex
100
AcDb2dVertex
 10
104.5053191228095
 20
-181.4934396709379
 30
0.0
  0
SEQEND
  5
174
330
16E
100
AcDbEntity
  8
Layer 1
 62
   240
420
 16717136
370
    70
  0
POLYLINE
  5
175
330
1F
100
AcDbEntity
  8
Layer 1
 62
   240
420
 16717136
370
    70
100
AcDb2dPolyline
 66
     1
 10
0.0
 20
0.0
 30
0.0
  0
VERTEX
  5
176
330
175
100
AcDbEntity
  8
Layer 1
 62
   240
420
 16717136
370
    70
100
AcDbVertex
100
AcDb2dVertex
 10
126.3475176989092
 20
-181.4484042099558
 30
0.0
  0
VERTEX
  5
177
330
175
100
AcDbEntity
  8
Layer 1
 62
   240
420
 16717136
370
    70
100
AcDbVertex
100
AcDb2dVertex
 10
121.3475177001597
 20
-181.4484042099558
 30
0.0
  0
VERTEX
  5
178
330
175
100
AcDbEntity
  8
Layer 1
 62
   240
420
 16717136
370
    70
100
AcDbVertex
100
AcDb2dVertex
 10
121.3475177001597
 20
-176.448404211205
 30
0.0
  0
VERTEX
  5
179
330
175
100
AcDbEntity
  8
Layer 1
 62
   240
420
 16717136
370
    70
100
AcDbVertex
100
AcDb2dVertex
 10
126.3475176989092
 20
-176.448404211205
 30
0.0
  0
VERTEX
  5
17A
330
175
100
AcDbEntity
  8
Layer 1
 62
   240
420
 16717136
370
    70
100
AcDbVertex
100
AcDb2dVertex
 10
126.3475176989092
 20
-181.4484042099558
 30
0.0
  0
SEQEND
  5
17B
330
175
100
AcDbEntity
  8
Layer 1
 62
   240
420
 16717136
370
    70
  0
POLYLINE
  5
17C
330
1F
100
AcDbEntity
  8
Layer 1
 62
   240
420
 16717136
370
    70
100
AcDb2dPolyline
 66
     1
 10
0.0
 20
0.0
 30
0.0
  0
VERTEX
  5
17D
330
17C
100
AcDbEntity
  8
Layer 1
 62
   240
420
 16717136
370
    70
100
AcDbVertex
100
AcDb2dVertex
 10
147.446631168812
 20
-137.6063829443221
 30
0.0
  0
VERTEX
  5
17E
330
17C
100
AcDbEntity
  8
Layer 1
 62
   240
420
 16717136
370
    70
100
AcDbVertex
100
AcDb2dVertex
 10
142.4466311700625
 20
-137.6063829443221
 30
0.0
  0
VERTEX
  5
17F
330
17C
100
AcDbEntity
  8
Layer 1
 62
   240
420
 16717136
370
    70
100
AcDbVertex
100
AcDb2dVertex
 10
142.4466311700625
 20
-132.6063829455726
 30
0.0
  0
VERTEX
  5
180
330
17C
100
AcDbEntity
  8
Layer 1
 62
   240
420
 16717136
370
    70
100
AcDbVertex
100
AcDb2dVertex
 10
147.446631168812
 20
-132.6063829455726
 30
0.0
  0
VERTEX
  5
181
330
17C
100
AcDbEntity
  8
Layer 1
 62
   240
420
 16717136
370
    70
100
AcDbVertex
100
AcDb2dVertex
 10
147.446631168812
 20
-137.6063829443221
 30
0.0
  0
SEQEND
  5
182
330
17C
100
AcDbEntity
  8
Layer 1
 62
   240
420
 16717136
370
    70
  0
POLYLINE
  5
183
330
1F
100
AcDbEntity
  8
Layer 1
 62
   240
420
 16717136
370
    70
100
AcDb2dPolyline
 66
     1
 10
0.0
 20
0.0
 30
0.0
  0
VERTEX
  5
184
330
183
100
AcDbEntity
  8
Layer 1
 62
   240
420
 16717136
370
    70
100
AcDbVertex
100
AcDb2dVertex
 10
148.6175531543351
 20
-147.1539006724316
 30
0.0
  0
VERTEX
  5
185
330
183
100
AcDbEntity
  8
Layer 1
 62
   240
420
 16717136
370
    70
100
AcDbVertex
100
AcDb2dVertex
 10
143.6175531555856
 20
-147.1539006724316
 30
0.0
  0
VERTEX
  5
186
330
183
100
AcDbEntity
  8
Layer 1
 62
   240
420
 16717136
370
    70
100
AcDbVertex
100
AcDb2dVertex
 10
143.6175531555856
 20
-142.1539006736821
 30
0.0
  0
VERTEX
  5
187
330
183
100
AcDbEntity
  8
Layer 1
 62
   240
420
 16717136
370
    70
100
AcDbVertex
100
AcDb2dVertex
 10
148.6175531543351
 20
-142.1539006736821
 30
0.0
  0
VERTEX
  5
188
330
183
100
AcDbEntity
  8
Layer 1
 62
   240
420
 16717136
370
    70
100
AcDbVertex
100
AcDb2dVertex
 10
148.6175531543351
 20
-147.1539006724316
 30
0.0
  0
SEQEND
  5
189
330
183
100
AcDbEntity
  8
Layer 1
 62
   240
420
 16717136
370
    70
  0
POLYLINE
  5
18A
330
1F
100
AcDbEntity
  8
Layer 1
 62
   240
420
 16717136
370
    70
100
AcDb2dPolyline
 66
     1
 10
0.0
 20
0.0
 30
0.0
  0
VERTEX
  5
18B
330
18A
100
AcDbEntity
  8
Layer 1
 62
   240
420
 16717136
370
    70
100
AcDbVertex
100
AcDb2dVertex
 10
140.4811465369846
 20
-179.7295507824913
 30
0.0
  0
VERTEX
  5
18C
330
18A
100
AcDbEntity
  8
Layer 1
 62
   240
420
 16717136
370
    70
100
AcDbVertex
100
AcDb2dVertex
 10
135.4811465382351
 20
-179.7295507824913
 30
0.0
  0
VERTEX
  5
18D
330
18A
100
AcDbEntity
  8
Layer 1
 62
   240
420
 16717136
370
    70
100
AcDbVertex
100
AcDb2dVertex
 10
135.4811465382351
 20
-174.7295507837405
 30
0.0
  0
VERTEX
  5
18E
330
18A
100
AcDbEntity
  8
Layer 1
 62
   240
420
 16717136
370
    70
100
AcDbVertex
100
AcDb2dVertex
 10
140.4811465369846
 20
-174.7295507837405
 30
0.0
  0
VERTEX
  5
18F
330
18A
100
AcDbEntity
  8
Layer 1
 62
   240
420
 16717136
370
    70
100
AcDbVertex
100
AcDb2dVertex
 10
140.4811465369846
 20
-179.7295507824913
 30
0.0
  0
SEQEND
  5
190
330
18A
100
AcDbEntity
  8
Layer 1
 62
   240
420
 16717136
370
    70
  0
POLYLINE
  5
191
330
1F
100
AcDbEntity
  8
Layer 1
 62
   240
420
 16717136
370
    70
100
AcDb2dPolyline
 66
     1
 10
0.0
 20
0.0
 30
0.0
  0
VERTEX
  5
192
330
191
100
AcDbEntity
  8
Layer 1
 62
   240
420
 16717136
370
    70
100
AcDbVertex
100
AcDb2dVertex
 10
131.5491134422894
 20
-191.2135933328111
 30
0.0
  0
VERTEX
  5
193
330
191
100
AcDbEntity
  8
Layer 1
 62
   240
420
 16717136
370
    70
100
AcDbVertex
100
AcDb2dVertex
 10
126.5491134435399
 20
-191.2135933328111
 30
0.0
  0
VERTEX
  5
194
330
191
100
AcDbEntity
  8
Layer 1
 62
   240
420
 16717136
370
    70
100
AcDbVertex
100
AcDb2dVertex
 10
126.5491134435399
 20
-186.2135933340603
 30
0.0
  0
VERTEX
  5
195
330
191
100
AcDbEntity
  8
Layer 1
 62
   240
420
 16717136
370
    70
100
AcDbVertex
100
AcDb2dVertex
 10
131.5491134422894
 20
-186.2135933340603
 30
0.0
  0
VERTEX
  5
196
330
191
100
AcDbEntity
  8
Layer 1
 62
   240
420
 16717136
370
    70
100
AcDbVertex
100
AcDb2dVertex
 10
131.5491134422894
 20
-191.2135933328111
 30
0.0
  0
SEQEND
  5
197
330
191
100
AcDbEntity
  8
Layer 1
 62
   240
420
 16717136
370
    70
  0
POLYLINE
  5
198
330
1F
100
AcDbEntity
  8
Layer 1
 62
   240
420
 16717136
370
    70
100
AcDb2dPolyline
 66
     1
 10
0.0
 20
0.0
 30
0.0
  0
VERTEX
  5
199
330
198
100
AcDbEntity
  8
Layer 1
 62
   240
420
 16717136
370
    70
100
AcDbVertex
100
AcDb2dVertex
 10
145.0597517367845
 20
-190.9133569262663
 30
0.0
  0
VERTEX
  5
19A
330
198
100
AcDbEntity
  8
Layer 1
 62
   240
420
 16717136
370
    70
100
AcDbVertex
100
AcDb2dVertex
 10
140.059751738035
 20
-190.9133569262663
 30
0.0
  0
VERTEX
  5
19B
330
198
100
AcDbEntity
  8
Layer 1
 62
   240
420
 16717136
370
    70
100
AcDbVertex
100
AcDb2dVertex
 10
140.059751738035
 20
-185.9133569275156
 30
0.0
  0
VERTEX
  5
19C
330
198
100
AcDbEntity
  8
Layer 1
 62
   240
420
 16717136
370
    70
100
AcDbVertex
100
AcDb2dVertex
 10
145.0597517367845
 20
-185.9133569275156
 30
0.0
  0
VERTEX
  5
19D
330
198
100
AcDbEntity
  8
Layer 1
 62
   240
420
 16717136
370
    70
100
AcDbVertex
100
AcDb2dVertex
 10
145.0597517367845
 20
-190.9133569262663
 30
0.0
  0
SEQEND
  5
19E
330
198
100
AcDbEntity
  8
Layer 1
 62
   240
420
 16717136
370
    70
  0
POLYLINE
  5
19F
330
1F
100
AcDbEntity
  8
Layer 1
 62
   240
420
 16717136
370
    70
100
AcDb2dPolyline
 66
     1
 10
0.0
 20
0.0
 30
0.0
  0
VERTEX
  5
1A0
330
19F
100
AcDbEntity
  8
Layer 1
 62
   240
420
 16717136
370
    70
100
AcDbVertex
100
AcDb2dVertex
 10
136.8933214787786
 20
-201.0013001861565
 30
0.0
  0
VERTEX
  5
1A1
330
19F
100
AcDbEntity
  8
Layer 1
 62
   240
420
 16717136
370
    70
100
AcDbVertex
100
AcDb2dVertex
 10
131.8933214800291
 20
-201.0013001861565
 30
0.0
  0
VERTEX
  5
1A2
330
19F
100
AcDbEntity
  8
Layer 1
 62
   240
420
 16717136
370
    70
100
AcDbVertex
100
AcDb2dVertex
 10
131.8933214800291
 20
-196.0013001874057
 30
0.0
  0
VERTEX
  5
1A3
330
19F
100
AcDbEntity
  8
Layer 1
 62
   240
420
 16717136
370
    70
100
AcDbVertex
100
AcDb2dVertex
 10
136.8933214787786
 20
-196.0013001874057
 30
0.0
  0
VERTEX
  5
1A4
330
19F
100
AcDbEntity
  8
Layer 1
 62
   240
420
 16717136
370
    70
100
AcDbVertex
100
AcDb2dVertex
 10
136.8933214787786
 20
-201.0013001861565
 30
0.0
  0
SEQEND
  5
1A5
330
19F
100
AcDbEntity
  8
Layer 1
 62
   240
420
 16717136
370
    70
  0
POLYLINE
  5
1A6
330
1F
100
AcDbEntity
  8
Layer 1
 62
   240
420
 16717136
370
    70
100
AcDb2dPolyline
 66
     1
 10
0.0
 20
0.0
 30
0.0
  0
VERTEX
  5
1A7
330
1A6
100
AcDbEntity
  8
Layer 1
 62
   240
420
 16717136
370
    70
100
AcDbVertex
100
AcDb2dVertex
 10
148.0320921615742
 20
-201.962056687099
 30
0.0
  0
VERTEX
  5
1A8
330
1A6
100
AcDbEntity
  8
Layer 1
 62
   240
420
 16717136
370
    70
100
AcDbVertex
100
AcDb2dVertex
 10
143.0320921628247
 20
-201.962056687099
 30
0.0
  0
VERTEX
  5
1A9
330
1A6
100
AcDbEntity
  8
Layer 1
 62
   240
420
 16717136
370
    70
100
AcDbVertex
100
AcDb2dVertex
 10
143.0320921628247
 20
-196.9620566883482
 30
0.0
  0
VERTEX
  5
1AA
330
1A6
100
AcDbEntity
  8
Layer 1
 62
   240
420
 16717136
370
    70
100
AcDbVertex
100
AcDb2dVertex
 10
148.0320921615742
 20
-196.9620566883482
 30
0.0
  0
VERTEX
  5
1AB
330
1A6
100
AcDbEntity
  8
Layer 1
 62
   240
420
 16717136
370
    70
100
AcDbVertex
100
AcDb2dVertex
 10
148.0320921615742
 20
-201.962056687099
 30
0.0
  0
SEQEND
  5
1AC
330
1A6
100
AcDbEntity
  8
Layer 1
 62
   240
420
 16717136
370
    70
  0
POLYLINE
  5
1AD
330
1F
100
AcDbEntity
  8
Layer 1
 62
   240
420
 16717136
370
    70
100
AcDb2dPolyline
 66
     1
 10
0.0
 20
0.0
 30
0.0
  0
VERTEX
  5
1AE
330
1AD
100
AcDbEntity
  8
Layer 1
 62
   240
420
 16717136
370
    70
100
AcDbVertex
100
AcDb2dVertex
 10
154.742375847839
 20
-213.1758864715288
 30
0.0
  0
VERTEX
  5
1AF
330
1AD
100
AcDbEntity
  8
Layer 1
 62
   240
420
 16717136
370
    70
100
AcDbVertex
100
AcDb2dVertex
 10
149.7423758490895
 20
-213.1758864715288
 30
0.0
  0
VERTEX
  5
1B0
330
1AD
100
AcDbEntity
  8
Layer 1
 62
   240
420
 16717136
370
    70
100
AcDbVertex
100
AcDb2dVertex
 10
149.7423758490895
 20
-208.175886472778
 30
0.0
  0
VERTEX
  5
1B1
330
1AD
100
AcDbEntity
  8
Layer 1
 62
   240
420
 16717136
370
    70
100
AcDbVertex
100
AcDb2dVertex
 10
154.742375847839
 20
-208.175886472778
 30
0.0
  0
VERTEX
  5
1B2
330
1AD
100
AcDbEntity
  8
Layer 1
 62
   240
420
 16717136
370
    70
100
AcDbVertex
100
AcDb2dVertex
 10
154.742375847839
 20
-213.1758864715288
 30
0.0
  0
SEQEND
  5
1B3
330
1AD
100
AcDbEntity
  8
Layer 1
 62
   240
420
 16717136
370
    70
  0
POLYLINE
  5
1B4
330
1F
100
AcDbEntity
  8
Layer 1
 62
   240
420
 16717136
370
    70
100
AcDb2dPolyline
 66
     1
 10
0.0
 20
0.0
 30
0.0
  0
VERTEX
  5
1B5
330
1B4
100
AcDbEntity
  8
Layer 1
 62
   240
420
 16717136
370
    70
100
AcDbVertex
100
AcDb2dVertex
 10
141.772163085124
 20
-210.4737588126305
 30
0.0
  0
VERTEX
  5
1B6
330
1B4
100
AcDbEntity
  8
Layer 1
 62
   240
420
 16717136
370
    70
100
AcDbVertex
100
AcDb2dVertex
 10
136.7721630863745
 20
-210.4737588126305
 30
0.0
  0
VERTEX
  5
1B7
330
1B4
100
AcDbEntity
  8
Layer 1
 62
   240
420
 16717136
370
    70
100
AcDbVertex
100
AcDb2dVertex
 10
136.7721630863745
 20
-205.4737588138797
 30
0.0
  0
VERTEX
  5
1B8
330
1B4
100
AcDbEntity
  8
Layer 1
 62
   240
420
 16717136
370
    70
100
AcDbVertex
100
AcDb2dVertex
 10
141.772163085124
 20
-205.4737588138797
 30
0.0
  0
VERTEX
  5
1B9
330
1B4
100
AcDbEntity
  8
Layer 1
 62
   240
420
 16717136
370
    70
100
AcDbVertex
100
AcDb2dVertex
 10
141.772163085124
 20
-210.4737588126305
 30
0.0
  0
SEQEND
  5
1BA
330
1B4
100
AcDbEntity
  8
Layer 1
 62
   240
420
 16717136
370
    70
  0
POLYLINE
  5
1BB
330
1F
100
AcDbEntity
  8
Layer 1
 62
   240
420
 16717136
370
    70
100
AcDb2dPolyline
 66
     1
 10
0.0
 20
0.0
 30
0.0
  0
VERTEX
  5
1BC
330
1BB
100
AcDbEntity
  8
Layer 1
 62
   240
420
 16717136
370
    70
100
AcDbVertex
100
AcDb2dVertex
 10
138.4620567029734
 20
-220.2239361151578
 30
0.0
  0
VERTEX
  5
1BD
330
1BB
100
AcDbEntity
  8
Layer 1
 62
   240
420
 16717136
370
    70
100
AcDbVertex
100
AcDb2dVertex
 10
133.4620567042239
 20
-220.2239361151578
 30
0.0
  0
VERTEX
  5
1BE
330
1BB
100
AcDbEntity
  8
Layer 1
 62
   240
420
 16717136
370
    70
100
AcDbVertex
100
AcDb2dVertex
 10
133.4620567042239
 20
-215.223936116407
 30
0.0
  0
VERTEX
  5
1BF
330
1BB
100
AcDbEntity
  8
Layer 1
 62
   240
420
 16717136
370
    70
100
AcDbVertex
100
AcDb2dVertex
 10
138.4620567029734
 20
-215.223936116407
 30
0.0
  0
VERTEX
  5
1C0
330
1BB
100
AcDbEntity
  8
Layer 1
 62
   240
420
 16717136
370
    70
100
AcDbVertex
100
AcDb2dVertex
 10
138.4620567029734
 20
-220.2239361151578
 30
0.0
  0
SEQEND
  5
1C1
330
1BB
100
AcDbEntity
  8
Layer 1
 62
   240
420
 16717136
370
    70
  0
POLYLINE
  5
1C2
330
1F
100
AcDbEntity
  8
Layer 1
 62
   240
420
 16717136
370
    70
100
AcDb2dPolyline
 66
     1
 10
0.0
 20
0.0
 30
0.0
  0
VERTEX
  5
1C3
330
1C2
100
AcDbEntity
  8
Layer 1
 62
   240
420
 16717136
370
    70
100
AcDbVertex
100
AcDb2dVertex
 10
86.22842787442461
 20
-188.091134704751
 30
0.0
  0
VERTEX
  5
1C4
330
1C2
100
AcDbEntity
  8
Layer 1
 62
   240
420
 16717136
370
    70
100
AcDbVertex
100
AcDb2dVertex
 10
81.22842787567511
 20
-188.091134704751
 30
0.0
  0
VERTEX
  5
1C5
330
1C2
100
AcDbEntity
  8
Layer 1
 62
   240
420
 16717136
370
    70
100
AcDbVertex
100
AcDb2dVertex
 10
81.22842787567511
 20
-183.0911347060002
 30
0.0
  0
VERTEX
  5
1C6
330
1C2
100
AcDbEntity
  8
Layer 1
 62
   240
420
 16717136
370
    70
100
AcDbVertex
100
AcDb2dVertex
 10
86.22842787442461
 20
-183.0911347060002
 30
0.0
  0
VERTEX
  5
1C7
330
1C2
100
AcDbEntity
  8
Layer 1
 62
   240
420
 16717136
370
    70
100
AcDbVertex
100
AcDb2dVertex
 10
86.22842787442461
 20
-188.091134704751
 30
0.0
  0
SEQEND
  5
1C8
330
1C2
100
AcDbEntity
  8
Layer 1
 62
   240
420
 16717136
370
    70
  0
POLYLINE
  5
1C9
330
1F
100
AcDbEntity
  8
Layer 1
 62
   240
420
 16717136
370
    70
100
AcDb2dPolyline
 66
     1
 10
0.0
 20
0.0
 30
0.0
  0
VERTEX
  5
1CA
330
1C9
100
AcDbEntity
  8
Layer 1
 62
   240
420
 16717136
370
    70
100
AcDbVertex
100
AcDb2dVertex
 10
98.72576829683113
 20
-191.2361110633025
 30
0.0
  0
VERTEX
  5
1CB
330
1C9
100
AcDbEntity
  8
Layer 1
 62
   240
420
 16717136
370
    70
100
AcDbVertex
100
AcDb2dVertex
 10
93.72576829808163
 20
-191.2361110633025
 30
0.0
  0
VERTEX
  5
1CC
330
1C9
100
AcDbEntity
  8
Layer 1
 62
   240
420
 16717136
370
    70
100
AcDbVertex
100
AcDb2dVertex
 10
93.72576829808163
 20
-186.2361110645517
 30
0.0
  0
VERTEX
  5
1CD
330
1C9
100
AcDbEntity
  8
Layer 1
 62
   240
420
 16717136
370
    70
100
AcDbVertex
100
AcDb2dVertex
 10
98.72576829683113
 20
-186.2361110645517
 30
0.0
  0
VERTEX
  5
1CE
330
1C9
100
AcDbEntity
  8
Layer 1
 62
   240
420
 16717136
370
    70
100
AcDbVertex
100
AcDb2dVertex
 10
98.72576829683113
 20
-191.2361110633025
 30
0.0
  0
SEQEND
  5
1CF
330
1C9
100
AcDbEntity
  8
Layer 1
 62
   240
420
 16717136
370
    70
  0
POLYLINE
  5
1D0
330
1F
100
AcDbEntity
  8
Layer 1
 62
   240
420
 16717136
370
    70
100
AcDb2dPolyline
 66
     1
 10
0.0
 20
0.0
 30
0.0
  0
VERTEX
  5
1D1
330
1D0
100
AcDbEntity
  8
Layer 1
 62
   240
420
 16717136
370
    70
100
AcDbVertex
100
AcDb2dVertex
 10
81.7849290575684
 20
-197.7737588158055
 30
0.0
  0
VERTEX
  5
1D2
330
1D0
100
AcDbEntity
  8
Layer 1
 62
   240
420
 16717136
370
    70
100
AcDbVertex
100
AcDb2dVertex
 10
76.7849290588189
 20
-197.7737588158055
 30
0.0
  0
VERTEX
  5
1D3
330
1D0
100
AcDbEntity
  8
Layer 1
 62
   240
420
 16717136
370
    70
100
AcDbVertex
100
AcDb2dVertex
 10
76.7849290588189
 20
-192.7737588170547
 30
0.0
  0
VERTEX
  5
1D4
330
1D0
100
AcDbEntity
  8
Layer 1
 62
   240
420
 16717136
370
    70
100
AcDbVertex
100
AcDb2dVertex
 10
81.7849290575684
 20
-192.7737588170547
 30
0.0
  0
VERTEX
  5
1D5
330
1D0
100
AcDbEntity
  8
Layer 1
 62
   240
420
 16717136
370
    70
100
AcDbVertex
100
AcDb2dVertex
 10
81.7849290575684
 20
-197.7737588158055
 30
0.0
  0
SEQEND
  5
1D6
330
1D0
100
AcDbEntity
  8
Layer 1
 62
   240
420
 16717136
370
    70
  0
POLYLINE
  5
1D7
330
1F
100
AcDbEntity
  8
Layer 1
 62
   240
420
 16717136
370
    70
100
AcDb2dPolyline
 66
     1
 10
0.0
 20
0.0
 30
0.0
  0
VERTEX
  5
1D8
330
1D7
100
AcDbEntity
  8
Layer 1
 62
   240
420
 16717136
370
    70
100
AcDbVertex
100
AcDb2dVertex
 10
93.1338652249439
 20
-201.0163120064846
 30
0.0
  0
VERTEX
  5
1D9
330
1D7
100
AcDbEntity
  8
Layer 1
 62
   240
420
 16717136
370
    70
100
AcDbVertex
100
AcDb2dVertex
 10
88.1338652261944
 20
-201.0163120064846
 30
0.0
  0
VERTEX
  5
1DA
330
1D7
100
AcDbEntity
  8
Layer 1
 62
   240
420
 16717136
370
    70
100
AcDbVertex
100
AcDb2dVertex
 10
88.1338652261944
 20
-196.0163120077337
 30
0.0
  0
VERTEX
  5
1DB
330
1D7
100
AcDbEntity
  8
Layer 1
 62
   240
420
 16717136
370
    70
100
AcDbVertex
100
AcDb2dVertex
 10
93.1338652249439
 20
-196.0163120077337
 30
0.0
  0
VERTEX
  5
1DC
330
1D7
100
AcDbEntity
  8
Layer 1
 62
   240
420
 16717136
370
    70
100
AcDbVertex
100
AcDb2dVertex
 10
93.1338652249439
 20
-201.0163120064846
 30
0.0
  0
SEQEND
  5
1DD
330
1D7
100
AcDbEntity
  8
Layer 1
 62
   240
420
 16717136
370
    70
  0
POLYLINE
  5
1DE
330
1F
100
AcDbEntity
  8
Layer 1
 62
   240
420
 16717136
370
    70
100
AcDb2dPolyline
 66
     1
 10
0.0
 20
0.0
 30
0.0
  0
VERTEX
  5
1DF
330
1DE
100
AcDbEntity
  8
Layer 1
 62
   240
420
 16717136
370
    70
100
AcDbVertex
100
AcDb2dVertex
 10
77.37145388136662
 20
-207.9517729976586
 30
0.0
  0
VERTEX
  5
1E0
330
1DE
100
AcDbEntity
  8
Layer 1
 62
   240
420
 16717136
370
    70
100
AcDbVertex
100
AcDb2dVertex
 10
72.37145388261712
 20
-207.9517729976586
 30
0.0
  0
VERTEX
  5
1E1
330
1DE
100
AcDbEntity
  8
Layer 1
 62
   240
420
 16717136
370
    70
100
AcDbVertex
100
AcDb2dVertex
 10
72.37145388261712
 20
-202.9517729989078
 30
0.0
  0
VERTEX
  5
1E2
330
1DE
100
AcDbEntity
  8
Layer 1
 62
   240
420
 16717136
370
    70
100
AcDbVertex
100
AcDb2dVertex
 10
77.37145388136662
 20
-202.9517729989078
 30
0.0
  0
VERTEX
  5
1E3
330
1DE
100
AcDbEntity
  8
Layer 1
 62
   240
420
 16717136
370
    70
100
AcDbVertex
100
AcDb2dVertex
 10
77.37145388136662
 20
-207.9517729976586
 30
0.0
  0
SEQEND
  5
1E4
330
1DE
100
AcDbEntity
  8
Layer 1
 62
   240
420
 16717136
370
    70
  0
POLYLINE
  5
1E5
330
1F
100
AcDbEntity
  8
Layer 1
 62
   240
420
 16717136
370
    70
100
AcDb2dPolyline
 66
     1
 10
0.0
 20
0.0
 30
0.0
  0
VERTEX
  5
1E6
330
1E5
100
AcDbEntity
  8
Layer 1
 62
   240
420
 16717136
370
    70
100
AcDbVertex
100
AcDb2dVertex
 10
87.3693262192926
 20
-210.924113422447
 30
0.0
  0
VERTEX
  5
1E7
330
1E5
100
AcDbEntity
  8
Layer 1
 62
   240
420
 16717136
370
    70
100
AcDbVertex
100
AcDb2dVertex
 10
82.3693262205431
 20
-210.924113422447
 30
0.0
  0
VERTEX
  5
1E8
330
1E5
100
AcDbEntity
  8
Layer 1
 62
   240
420
 16717136
370
    70
100
AcDbVertex
100
AcDb2dVertex
 10
82.3693262205431
 20
-205.9241134236962
 30
0.0
  0
VERTEX
  5
1E9
330
1E5
100
AcDbEntity
  8
Layer 1
 62
   240
420
 16717136
370
    70
100
AcDbVertex
100
AcDb2dVertex
 10
87.3693262192926
 20
-205.9241134236962
 30
0.0
  0
VERTEX
  5
1EA
330
1E5
100
AcDbEntity
  8
Layer 1
 62
   240
420
 16717136
370
    70
100
AcDbVertex
100
AcDb2dVertex
 10
87.3693262192926
 20
-210.924113422447
 30
0.0
  0
SEQEND
  5
1EB
330
1E5
100
AcDbEntity
  8
Layer 1
 62
   240
420
 16717136
370
    70
  0
POLYLINE
  5
1EC
330
1F
100
AcDbEntity
  8
Layer 1
 62
   240
420
 16717136
370
    70
100
AcDb2dPolyline
 66
     1
 10
0.0
 20
0.0
 30
0.0
  0
VERTEX
  5
1ED
330
1EC
100
AcDbEntity
  8
Layer 1
 62
   240
420
 16717136
370
    70
100
AcDbVertex
100
AcDb2dVertex
 10
67.85771274899291
 20
-213.9752659039539
 30
0.0
  0
VERTEX
  5
1EE
330
1EC
100
AcDbEntity
  8
Layer 1
 62
   240
420
 16717136
370
    70
100
AcDbVertex
100
AcDb2dVertex
 10
62.85771275024341
 20
-213.9752659039539
 30
0.0
  0
VERTEX
  5
1EF
330
1EC
100
AcDbEntity
  8
Layer 1
 62
   240
420
 16717136
370
    70
100
AcDbVertex
100
AcDb2dVertex
 10
62.85771275024341
 20
-208.9752659052031
 30
0.0
  0
VERTEX
  5
1F0
330
1EC
100
AcDbEntity
  8
Layer 1
 62
   240
420
 16717136
370
    70
100
AcDbVertex
100
AcDb2dVertex
 10
67.85771274899291
 20
-208.9752659052031
 30
0.0
  0
VERTEX
  5
1F1
330
1EC
100
AcDbEntity
  8
Layer 1
 62
   240
420
 16717136
370
    70
100
AcDbVertex
100
AcDb2dVertex
 10
67.85771274899291
 20
-213.9752659039539
 30
0.0
  0
SEQEND
  5
1F2
330
1EC
100
AcDbEntity
  8
Layer 1
 62
   240
420
 16717136
370
    70
  0
POLYLINE
  5
1F3
330
1F
100
AcDbEntity
  8
Layer 1
 62
   240
420
 16717136
370
    70
100
AcDb2dPolyline
 66
     1
 10
0.0
 20
0.0
 30
0.0
  0
VERTEX
  5
1F4
330
1F3
100
AcDbEntity
  8
Layer 1
 62
   240
420
 16717136
370
    70
100
AcDbVertex
100
AcDb2dVertex
 10
81.51471629167774
 20
-220.5316784318646
 30
0.0
  0
VERTEX
  5
1F5
330
1F3
100
AcDbEntity
  8
Layer 1
 62
   240
420
 16717136
370
    70
100
AcDbVertex
100
AcDb2dVertex
 10
76.51471629292823
 20
-220.5316784318646
 30
0.0
  0
VERTEX
  5
1F6
330
1F3
100
AcDbEntity
  8
Layer 1
 62
   240
420
 16717136
370
    70
100
AcDbVertex
100
AcDb2dVertex
 10
76.51471629292823
 20
-215.5316784331139
 30
0.0
  0
VERTEX
  5
1F7
330
1F3
100
AcDbEntity
  8
Layer 1
 62
   240
420
 16717136
370
    70
100
AcDbVertex
100
AcDb2dVertex
 10
81.51471629167774
 20
-215.5316784331139
 30
0.0
  0
VERTEX
  5
1F8
330
1F3
100
AcDbEntity
  8
Layer 1
 62
   240
420
 16717136
370
    70
100
AcDbVertex
100
AcDb2dVertex
 10
81.51471629167774
 20
-220.5316784318646
 30
0.0
  0
SEQEND
  5
1F9
330
1F3
100
AcDbEntity
  8
Layer 1
 62
   240
420
 16717136
370
    70
  0
INSERT
  5
1FB
330
1F
100
AcDbEntity
  8
Layer 1
100
AcDbBlockReference
  2
block 5
 10
0.0
 20
0.0
 30
0.0
  0
ENDSEC
  0
SECTION
  2
OBJECTS
  0
DICTIONARY
  5
C
330
0
100
AcDbDictionary
281
     1
  3
ACAD_GROUP
350
D
  3
ACAD_IMAGE_DICT
350
45
  3
ACAD_IMAGE_VARS
350
47
  3
ACAD_LAYOUT
350
1A
  3
ACAD_MATERIAL
350
3B
  3
ACAD_MLEADERSTYLE
350
1FF
  3
ACAD_MLINESTYLE
350
17
  3
ACAD_PLOTSETTINGS
350
19
  3
ACAD_PLOTSTYLENAME
350
E
  3
ACAD_TABLESTYLE
350
1FE
  3
ACAD_VISUALSTYLE
350
2A
  0
SUN
  5
3F
330
29
100
AcDbSun
 90
        1
290
     0
 63
     7
421
 16777215
 40
1.0
291
     1
 91
  2455826
 92
 54000000
292
     0
 70
     2
 71
   256
280
     1
  0
IMAGEDEF_REACTOR
  5
49
330
48
100
AcDbRasterImageDefReactor
 90
        2
330
48
  0
DICTIONARY
  5
D
102
{ACAD_REACTORS
330
C
102
}
330
C
100
AcDbDictionary
281
     1
  0
DICTIONARY
  5
45
102
{ACAD_REACTORS
330
C
102
}
330
C
100
AcDbDictionary
281
     1
  3
D:\Work\ETF\trafikljus\grafiskt\go_1.png
350
46
  0
RASTERVARIABLES
  5
47
102
{ACAD_REACTORS
330
C
102
}
330
C
100
AcDbRasterVariables
 90
        0
 70
     0
 71
     1
 72
     0
  0
DICTIONARY
  5
1A
102
{ACAD_REACTORS
330
C
102
}
330
C
100
AcDbDictionary
281
     1
  3
Layout1
350
1E
  3
Layout2
350
26
  3
Model
350
22
  0
DICTIONARY
  5
3B
102
{ACAD_REACTORS
330
C
102
}
330
C
100
AcDbDictionary
281
     1
  3
ByBlock
350
3D
  3
ByLayer
350
3C
  3
Global
350
3E
  0
DICTIONARY
  5
1FF
102
{ACAD_REACTORS
330
C
102
}
330
C
100
AcDbDictionary
281
     1
  0
DICTIONARY
  5
17
102
{ACAD_REACTORS
330
C
102
}
330
C
100
AcDbDictionary
281
     1
  3
Standard
350
18
  0
DICTIONARY
  5
19
102
{ACAD_REACTORS
330
C
102
}
330
C
100
AcDbDictionary
281
     1
  0
ACDBDICTIONARYWDFLT
  5
E
102
{ACAD_REACTORS
330
C
102
}
330
C
100
AcDbDictionary
281
     1
  3
Normal
350
F
100
AcDbDictionaryWithDefault
340
F
  0
DICTIONARY
  5
1FE
102
{ACAD_REACTORS
330
C
102
}
330
C
100
AcDbDictionary
281
     1
  0
DICTIONARY
  5
2A
102
{ACAD_REACTORS
330
C
102
}
330
C
100
AcDbDictionary
281
     1
  3
2dWireframe
350
2F
  3
3D Hidden
350
31
  3
3dWireframe
350
30
  3
Basic
350
32
  3
Brighten
350
36
  3
ColorChange
350
3A
  3
Conceptual
350
34
  3
Dim
350
35
  3
Facepattern
350
39
  3
Flat
350
2B
  3
FlatWithEdges
350
2C
  3
Gouraud
350
2D
  3
GouraudWithEdges
350
2E
  3
Linepattern
350
38
  3
Realistic
350
33
  3
Thicken
350
37
  0
IMAGEDEF
  5
46
102
{ACAD_REACTORS
330
45
330
49
102
}
330
45
100
AcDbRasterImageDef
 90
        0
  1
D:\Work\ETF\trafikljus\grafiskt\go_1.png
 10
1306.0
 20
1014.0
 11
0.3527777777777777
 21
0.3527777777777777
280
     1
281
     5
  0
LAYOUT
  5
1E
102
{ACAD_REACTORS
330
1A
102
}
330
1A
100
AcDbPlotSettings
  1

  2
none_device
  4

  6

 40
0.0
 41
0.0
 42
0.0
 43
0.0
 44
0.0
 45
0.0
 46
0.0
 47
0.0
 48
0.0
 49
0.0
140
0.0
141
0.0
142
1.0
143
1.0
 70
   688
 72
     0
 73
     0
 74
     5
  7

 75
    16
 76
     0
 77
     2
 78
   300
147
1.0
148
0.0
149
0.0
100
AcDbLayout
  1
Layout1
 70
     1
 71
     1
 10
0.0
 20
0.0
 11
12.0
 21
9.0
 12
0.0
 22
0.0
 32
0.0
 14
1.000000000000000E+20
 24
1.000000000000000E+20
 34
1.000000000000000E+20
 15
-1.000000000000000E+20
 25
-1.000000000000000E+20
 35
-1.000000000000000E+20
146
0.0
 13
0.0
 23
0.0
 33
0.0
 16
1.0
 26
0.0
 36
0.0
 17
0.0
 27
1.0
 37
0.0
 76
     0
330
1B
  0
LAYOUT
  5
26
102
{ACAD_REACTORS
330
1A
102
}
330
1A
100
AcDbPlotSettings
  1

  2
none_device
  4

  6

 40
0.0
 41
0.0
 42
0.0
 43
0.0
 44
0.0
 45
0.0
 46
0.0
 47
0.0
 48
0.0
 49
0.0
140
0.0
141
0.0
142
1.0
143
1.0
 70
   688
 72
     0
 73
     0
 74
     5
  7

 75
    16
 76
     0
 77
     2
 78
   300
147
1.0
148
0.0
149
0.0
100
AcDbLayout
  1
Layout2
 70
     1
 71
     2
 10
0.0
 20
0.0
 11
0.0
 21
0.0
 12
0.0
 22
0.0
 32
0.0
 14
0.0
 24
0.0
 34
0.0
 15
0.0
 25
0.0
 35
0.0
146
0.0
 13
0.0
 23
0.0
 33
0.0
 16
1.0
 26
0.0
 36
0.0
 17
0.0
 27
1.0
 37
0.0
 76
     0
330
23
  0
LAYOUT
  5
22
102
{ACAD_REACTORS
330
1A
102
}
330
1A
100
AcDbPlotSettings
  1

  2
none_device
  4

  6

 40
0.0
 41
0.0
 42
0.0
 43
0.0
 44
0.0
 45
0.0
 46
0.0
 47
0.0
 48
0.0
 49
0.0
140
0.0
141
0.0
142
1.0
143
1.0
 70
  1712
 72
     0
 73
     0
 74
     0
  7

 75
     0
 76
     0
 77
     2
 78
   300
147
1.0
148
0.0
149
0.0
100
AcDbLayout
  1
Model
 70
     1
 71
     0
 10
0.0
 20
0.0
 11
12.0
 21
9.0
 12
0.0
 22
0.0
 32
0.0
 14
1.000000000000000E+20
 24
1.000000000000000E+20
 34
1.000000000000000E+20
 15
-1.000000000000000E+20
 25
-1.000000000000000E+20
 35
-1.000000000000000E+20
146
0.0
 13
0.0
 23
0.0
 33
0.0
 16
1.0
 26
0.0
 36
0.0
 17
0.0
 27
1.0
 37
0.0
 76
     0
330
1F
331
29
  0
MATERIAL
  5
3D
102
{ACAD_REACTORS
330
3B
102
}
330
3B
100
AcDbMaterial
  1
ByBlock
 72
     1
 94
      127
  0
MATERIAL
  5
3C
102
{ACAD_REACTORS
330
3B
102
}
330
3B
100
AcDbMaterial
  1
ByLayer
 72
     1
 94
      127
  0
MATERIAL
  5
3E
102
{ACAD_REACTORS
330
3B
102
}
330
3B
100
AcDbMaterial
  1
Global
 72
     1
 94
      127
  0
MLINESTYLE
  5
18
102
{ACAD_REACTORS
330
17
102
}
330
17
100
AcDbMlineStyle
  2
Standard
 70
     0
  3

 62
   256
 51
90.0
 52
90.0
 71
     2
 49
0.5
 62
   256
  6
BYLAYER
 49
-0.5
 62
   256
  6
BYLAYER
  0
ACDBPLACEHOLDER
  5
F
102
{ACAD_REACTORS
330
E
102
}
330
E
  0
VISUALSTYLE
  5
2F
102
{ACAD_REACTORS
330
2A
102
}
330
2A
100
AcDbVisualStyle
  2
2dWireframe
 70
     4
177
     2
291
     0
 71
     0
176
     1
 72
     2
176
     1
 73
     0
176
     1
 90
        0
176
     1
 40
-0.6
176
     1
 41
-30.0
176
     1
 62
     5
 63
     7
421
 16777215
176
     1
 74
     1
176
     1
 91
        4
176
     1
 64
     7
176
     1
 65
   257
176
     1
 75
     1
176
     1
175
     1
176
     1
 42
1.0
176
     1
 92
        0
176
     1
 66
   257
176
     1
 43
1.0
176
     1
 76
     1
176
     1
 77
     6
176
     1
 78
     2
176
     1
 67
     7
176
     1
 79
     5
176
     1
170
     0
176
     1
171
     0
176
     1
290
     0
176
     1
 93
        1
176
     1
 44
0.0
176
     1
173
     0
176
     1
  0
VISUALSTYLE
  5
31
102
{ACAD_REACTORS
330
2A
102
}
330
2A
100
AcDbVisualStyle
  2
3D Hidden
 70
     6
177
     2
291
     0
 71
     1
176
     1
 72
     2
176
     1
 73
     2
176
     1
 90
        0
176
     1
 40
-0.6
176
     1
 41
-30.0
176
     1
 62
     5
 63
     7
421
 16777215
176
     1
 74
     2
176
     1
 91
        2
176
     1
 64
     7
176
     1
 65
   257
176
     1
 75
     2
176
     1
175
     1
176
     1
 42
40.0
176
     1
 92
        0
176
     1
 66
   257
176
     1
 43
1.0
176
     1
 76
     1
176
     1
 77
     6
176
     1
 78
     2
176
     1
 67
     7
176
     1
 79
     3
176
     1
170
     0
176
     1
171
     0
176
     1
290
     0
176
     1
 93
        1
176
     1
 44
0.0
176
     1
173
     0
176
     1
  0
VISUALSTYLE
  5
30
102
{ACAD_REACTORS
330
2A
102
}
330
2A
100
AcDbVisualStyle
  2
3dWireframe
 70
     5
177
     2
291
     0
 71
     0
176
     1
 72
     2
176
     1
 73
     0
176
     1
 90
        0
176
     1
 40
-0.6
176
     1
 41
-30.0
176
     1
 62
     5
 63
     7
421
 16777215
176
     1
 74
     1
176
     1
 91
        4
176
     1
 64
     7
176
     1
 65
   257
176
     1
 75
     1
176
     1
175
     1
176
     1
 42
1.0
176
     1
 92
        0
176
     1
 66
   257
176
     1
 43
1.0
176
     1
 76
     1
176
     1
 77
     6
176
     1
 78
     2
176
     1
 67
     7
176
     1
 79
     5
176
     1
170
     0
176
     1
171
     0
176
     1
290
     0
176
     1
 93
        1
176
     1
 44
0.0
176
     1
173
     0
176
     1
  0
VISUALSTYLE
  5
32
102
{ACAD_REACTORS
330
2A
102
}
330
2A
100
AcDbVisualStyle
  2
Basic
 70
     7
177
     2
291
     1
 71
     1
176
     1
 72
     0
176
     1
 73
     1
176
     1
 90
        0
176
     1
 40
-0.6
176
     1
 41
-30.0
176
     1
 62
     5
 63
     7
421
 16777215
176
     1
 74
     0
176
     1
 91
        4
176
     1
 64
     7
176
     1
 65
   257
176
     1
 75
     1
176
     1
175
     1
176
     1
 42
1.0
176
     1
 92
        8
176
     1
 66
     7
176
     1
 43
1.0
176
     1
 76
     1
176
     1
 77
     6
176
     1
 78
     2
176
     1
 67
     7
176
     1
 79
     5
176
     1
170
     0
176
     1
171
     0
176
     1
290
     0
176
     1
 93
        1
176
     1
 44
0.0
176
     1
173
     0
176
     1
  0
VISUALSTYLE
  5
36
102
{ACAD_REACTORS
330
2A
102
}
330
2A
100
AcDbVisualStyle
  2
Brighten
 70
    12
177
     2
291
     1
 71
     2
176
     1
 72
     2
176
     1
 73
     0
176
     1
 90
        0
176
     1
 40
-0.6
176
     1
 41
-30.0
176
     1
 62
     5
 63
     7
421
 16777215
176
     1
 74
     1
176
     1
 91
        4
176
     1
 64
     7
176
     1
 65
   257
176
     1
 75
     1
176
     1
175
     1
176
     1
 42
1.0
176
     1
 92
        8
176
     1
 66
     7
176
     1
 43
1.0
176
     1
 76
     1
176
     1
 77
     6
176
     1
 78
     2
176
     1
 67
     7
176
     1
 79
     5
176
     1
170
     0
176
     1
171
     0
176
     1
290
     0
176
     1
 93
        1
176
     1
 44
50.0
176
     1
173
     0
176
     1
  0
VISUALSTYLE
  5
3A
102
{ACAD_REACTORS
330
2A
102
}
330
2A
100
AcDbVisualStyle
  2
ColorChange
 70
    16
177
     2
291
     1
 71
     2
176
     1
 72
     2
176
     1
 73
     3
176
     1
 90
        0
176
     1
 40
-0.6
176
     1
 41
-30.0
176
     1
 62
     5
 63
     8
421
  8421504
176
     1
 74
     1
176
     1
 91
        4
176
     1
 64
     7
176
     1
 65
   257
176
     1
 75
     1
176
     1
175
     1
176
     1
 42
1.0
176
     1
 92
        8
176
     1
 66
     8
424
  8421504
176
     1
 43
1.0
176
     1
 76
     1
176
     1
 77
     6
176
     1
 78
     2
176
     1
 67
     7
176
     1
 79
     5
176
     1
170
     0
176
     1
171
     0
176
     1
290
     0
176
     1
 93
        1
176
     1
 44
0.0
176
     1
173
     0
176
     1
  0
VISUALSTYLE
  5
34
102
{ACAD_REACTORS
330
2A
102
}
330
2A
100
AcDbVisualStyle
  2
Conceptual
 70
     9
177
     2
291
     0
 71
     3
176
     1
 72
     2
176
     1
 73
     0
176
     1
 90
        0
176
     1
 40
-0.6
176
     1
 41
-30.0
176
     1
 62
     5
 63
     7
421
 16777215
176
     1
 74
     2
176
     1
 91
        2
176
     1
 64
     7
176
     1
 65
   257
176
     1
 75
     1
176
     1
175
     1
176
     1
 42
40.0
176
     1
 92
        8
176
     1
 66
     7
176
     1
 43
1.0
176
     1
 76
     1
176
     1
 77
     6
176
     1
 78
     2
176
     1
 67
     7
176
     1
 79
     3
176
     1
170
     0
176
     1
171
     0
176
     1
290
     0
176
     1
 93
        1
176
     1
 44
0.0
176
     1
173
     0
176
     1
  0
VISUALSTYLE
  5
35
102
{ACAD_REACTORS
330
2A
102
}
330
2A
100
AcDbVisualStyle
  2
Dim
 70
    11
177
     2
291
     1
 71
     2
176
     1
 72
     2
176
     1
 73
     0
176
     1
 90
        0
176
     1
 40
-0.6
176
     1
 41
-30.0
176
     1
 62
     5
 63
     7
421
 16777215
176
     1
 74
     1
176
     1
 91
        4
176
     1
 64
     7
176
     1
 65
   257
176
     1
 75
     1
176
     1
175
     1
176
     1
 42
1.0
176
     1
 92
        8
176
     1
 66
     7
176
     1
 43
1.0
176
     1
 76
     1
176
     1
 77
     6
176
     1
 78
     2
176
     1
 67
     7
176
     1
 79
     5
176
     1
170
     0
176
     1
171
     0
176
     1
290
     0
176
     1
 93
        1
176
     1
 44
-50.0
176
     1
173
     0
176
     1
  0
VISUALSTYLE
  5
39
102
{ACAD_REACTORS
330
2A
102
}
330
2A
100
AcDbVisualStyle
  2
Facepattern
 70
    15
177
     2
291
     1
 71
     2
176
     1
 72
     2
176
     1
 73
     0
176
     1
 90
        0
176
     1
 40
-0.6
176
     1
 41
-30.0
176
     1
 62
     5
 63
     7
421
 16777215
176
     1
 74
     1
176
     1
 91
        4
176
     1
 64
     7
176
     1
 65
   257
176
     1
 75
     1
176
     1
175
     1
176
     1
 42
1.0
176
     1
 92
        8
176
     1
 66
     7
176
     1
 43
1.0
176
     1
 76
     1
176
     1
 77
     6
176
     1
 78
     2
176
     1
 67
     7
176
     1
 79
     5
176
     1
170
     0
176
     1
171
     0
176
     1
290
     0
176
     1
 93
        1
176
     1
 44
0.0
176
     1
173
     0
176
     1
  0
VISUALSTYLE
  5
2B
102
{ACAD_REACTORS
330
2A
102
}
330
2A
100
AcDbVisualStyle
  2
Flat
 70
     0
177
     2
291
     1
 71
     2
176
     1
 72
     1
176
     1
 73
     1
176
     1
 90
        2
176
     1
 40
-0.6
176
     1
 41
30.0
176
     1
 62
     5
 63
     7
421
 16777215
176
     1
 74
     0
176
     1
 91
        4
176
     1
 64
     7
176
     1
 65
   257
176
     1
 75
     1
176
     1
175
     1
176
     1
 42
1.0
176
     1
 92
        8
176
     1
 66
     7
176
     1
 43
1.0
176
     1
 76
     1
176
     1
 77
     6
176
     1
 78
     2
176
     1
 67
     7
176
     1
 79
     5
176
     1
170
     0
176
     1
171
     0
176
     1
290
     0
176
     1
 93
       13
176
     1
 44
0.0
176
     1
173
     0
176
     1
  0
VISUALSTYLE
  5
2C
102
{ACAD_REACTORS
330
2A
102
}
330
2A
100
AcDbVisualStyle
  2
FlatWithEdges
 70
     1
177
     2
291
     1
 71
     2
176
     1
 72
     1
176
     1
 73
     1
176
     1
 90
        2
176
     1
 40
-0.6
176
     1
 41
30.0
176
     1
 62
     5
 63
     7
421
 16777215
176
     1
 74
     1
176
     1
 91
        4
176
     1
 64
     7
176
     1
 65
   257
176
     1
 75
     1
176
     1
175
     1
176
     1
 42
1.0
176
     1
 92
        0
176
     1
 66
   257
176
     1
 43
1.0
176
     1
 76
     1
176
     1
 77
     6
176
     1
 78
     2
176
     1
 67
     7
176
     1
 79
     5
176
     1
170
     0
176
     1
171
     0
176
     1
290
     0
176
     1
 93
       13
176
     1
 44
0.0
176
     1
173
     0
176
     1
  0
VISUALSTYLE
  5
2D
102
{ACAD_REACTORS
330
2A
102
}
330
2A
100
AcDbVisualStyle
  2
Gouraud
 70
     2
177
     2
291
     1
 71
     2
176
     1
 72
     2
176
     1
 73
     1
176
     1
 90
        2
176
     1
 40
-0.6
176
     1
 41
30.0
176
     1
 62
     5
 63
     7
421
 16777215
176
     1
 74
     0
176
     1
 91
        4
176
     1
 64
     7
176
     1
 65
   257
176
     1
 75
     1
176
     1
175
     1
176
     1
 42
1.0
176
     1
 92
        0
176
     1
 66
     7
176
     1
 43
1.0
176
     1
 76
     1
176
     1
 77
     6
176
     1
 78
     2
176
     1
 67
     7
176
     1
 79
     5
176
     1
170
     0
176
     1
171
     0
176
     1
290
     0
176
     1
 93
       13
176
     1
 44
0.0
176
     1
173
     0
176
     1
  0
VISUALSTYLE
  5
2E
102
{ACAD_REACTORS
330
2A
102
}
330
2A
100
AcDbVisualStyle
  2
GouraudWithEdges
 70
     3
177
     2
291
     1
 71
     2
176
     1
 72
     2
176
     1
 73
     1
176
     1
 90
        2
176
     1
 40
-0.6
176
     1
 41
30.0
176
     1
 62
     5
 63
     7
421
 16777215
176
     1
 74
     1
176
     1
 91
        4
176
     1
 64
     7
176
     1
 65
   257
176
     1
 75
     1
176
     1
175
     1
176
     1
 42
1.0
176
     1
 92
        0
176
     1
 66
   257
176
     1
 43
1.0
176
     1
 76
     1
176
     1
 77
     6
176
     1
 78
     2
176
     1
 67
     7
176
     1
 79
     5
176
     1
170
     0
176
     1
171
     0
176
     1
290
     0
176
     1
 93
       13
176
     1
 44
0.0
176
     1
173
     0
176
     1
  0
VISUALSTYLE
  5
38
102
{ACAD_REACTORS
330
2A
102
}
330
2A
100
AcDbVisualStyle
  2
Linepattern
 70
    14
177
     2
291
     1
 71
     2
176
     1
 72
     2
176
     1
 73
     0
176
     1
 90
        0
176
     1
 40
-0.6
176
     1
 41
-30.0
176
     1
 62
     5
 63
     7
421
 16777215
176
     1
 74
     1
176
     1
 91
        4
176
     1
 64
     7
176
     1
 65
   257
176
     1
 75
     7
176
     1
175
     7
176
     1
 42
1.0
176
     1
 92
        8
176
     1
 66
     7
176
     1
 43
1.0
176
     1
 76
     1
176
     1
 77
     6
176
     1
 78
     2
176
     1
 67
     7
176
     1
 79
     5
176
     1
170
     0
176
     1
171
     0
176
     1
290
     0
176
     1
 93
        1
176
     1
 44
0.0
176
     1
173
     0
176
     1
  0
VISUALSTYLE
  5
33
102
{ACAD_REACTORS
330
2A
102
}
330
2A
100
AcDbVisualStyle
  2
Realistic
 70
     8
177
     2
291
     0
 71
     2
176
     1
 72
     2
176
     1
 73
     0
176
     1
 90
        0
176
     1
 40
-0.6
176
     1
 41
-30.0
176
     1
 62
     5
 63
     7
421
 16777215
176
     1
 74
     1
176
     1
 91
        0
176
     1
 64
     7
176
     1
 65
   257
176
     1
 75
     1
176
     1
175
     1
176
     1
 42
1.0
176
     1
 92
        8
176
     1
 66
     8
424
  7895160
176
     1
 43
1.0
176
     1
 76
     1
176
     1
 77
     6
176
     1
 78
     2
176
     1
 67
     7
176
     1
 79
     5
176
     1
170
     0
176
     1
171
     0
176
     1
290
     0
176
     1
 93
       13
176
     1
 44
0.0
176
     1
173
     0
176
     1
  0
VISUALSTYLE
  5
37
102
{ACAD_REACTORS
330
2A
102
}
330
2A
100
AcDbVisualStyle
  2
Thicken
 70
    13
177
     2
291
     1
 71
     2
176
     1
 72
     2
176
     1
 73
     0
176
     1
 90
        0
176
     1
 40
-0.6
176
     1
 41
-30.0
176
     1
 62
     5
 63
     7
421
 16777215
176
     1
 74
     1
176
     1
 91
        4
176
     1
 64
     7
176
     1
 65
   257
176
     1
 75
     1
176
     1
175
     1
176
     1
 42
1.0
176
     1
 92
       12
176
     1
 66
     7
176
     1
 43
1.0
176
     1
 76
     1
176
     1
 77
     6
176
     1
 78
     2
176
     1
 67
     7
176
     1
 79
     5
176
     1
170
     0
176
     1
171
     0
176
     1
290
     0
176
     1
 93
        1
176
     1
 44
0.0
176
     1
173
     0
176
     1
  0
ENDSEC
  0
EOF
